<svg width="42" height="42" viewBox="0 0 42 42" fill="none" xmlns="http://www.w3.org/2000/svg">
<path d="M29.0826 0H29.3814C29.6211 2.96193 28.4906 5.17508 27.1166 6.77776C25.7684 8.36938 23.9223 9.91305 20.9364 9.67883C20.7372 6.75932 21.8696 4.71031 23.2417 3.11132C24.5143 1.62113 26.8473 0.295086 29.0826 0ZM38.1215 30.8291V30.9121C37.2823 33.4536 36.0854 35.6317 34.6247 37.653C33.2913 39.4881 31.6572 41.9576 28.7396 41.9576C26.2184 41.9576 24.5438 40.3364 21.96 40.2922C19.2267 40.2479 17.7236 41.6477 15.2246 42H14.3725C12.5375 41.7344 11.0565 40.2811 9.97761 38.9717C6.79621 35.1024 4.33777 30.1043 3.88039 23.7083V21.829C4.07404 17.2515 6.29825 13.5297 9.25464 11.726C10.8149 10.767 12.9598 9.94994 15.3482 10.3151C16.3718 10.4737 17.4175 10.8241 18.3341 11.1709C19.2027 11.5047 20.289 12.0967 21.3181 12.0653C22.0153 12.0451 22.7087 11.6817 23.4114 11.4254C25.4696 10.6821 27.4873 9.83006 30.1468 10.2303C33.3429 10.7135 35.6114 12.1336 37.013 14.3246C34.3093 16.0453 32.1718 18.6384 32.5369 23.0665C32.8615 27.0889 35.2001 29.4422 38.1215 30.8291Z" fill="#333333"/>
</svg>
