<svg width="241" height="49" viewBox="0 0 241 49" fill="none" xmlns="http://www.w3.org/2000/svg">
<path d="M11.6801 39.56C10.0801 39.56 8.54676 39.4267 7.0801 39.16C5.61343 38.92 4.2801 38.5733 3.0801 38.12C1.8801 37.64 0.853431 37.12 9.76324e-05 36.56L3.1201 30.64C4.0801 31.2267 5.06676 31.7333 6.0801 32.16C7.1201 32.56 8.17343 32.8667 9.2401 33.08C10.3068 33.2933 11.3734 33.4 12.4401 33.4C13.4534 33.4 14.3201 33.3067 15.0401 33.12C15.7601 32.9067 16.3068 32.6133 16.6801 32.24C17.0534 31.8667 17.2401 31.4267 17.2401 30.92C17.2401 30.36 16.9868 29.92 16.4801 29.6C16.0001 29.2533 15.3601 28.96 14.5601 28.72C13.7601 28.48 12.8668 28.24 11.8801 28C10.9201 27.7333 9.94676 27.4267 8.9601 27.08C8.0001 26.7067 7.1201 26.2533 6.3201 25.72C5.5201 25.16 4.86676 24.4533 4.3601 23.6C3.8801 22.7467 3.6401 21.6933 3.6401 20.44C3.6401 18.4133 4.18676 16.6533 5.2801 15.16C6.37343 13.6667 7.9201 12.5067 9.9201 11.68C11.9468 10.8533 14.3334 10.44 17.0801 10.44C19.0801 10.44 20.9468 10.6533 22.6801 11.08C24.4134 11.48 25.9068 12.0667 27.1601 12.84L24.2801 18.72C23.1868 18.0267 21.9734 17.5067 20.6401 17.16C19.3334 16.7867 17.9868 16.6 16.6001 16.6C15.5334 16.6 14.6134 16.72 13.8401 16.96C13.0934 17.2 12.5201 17.5333 12.1201 17.96C11.7468 18.36 11.5601 18.8133 11.5601 19.32C11.5601 19.8533 11.8001 20.2933 12.2801 20.64C12.7601 20.9867 13.4001 21.28 14.2001 21.52C15.0268 21.76 15.9201 22.0133 16.8801 22.28C17.8668 22.52 18.8401 22.8133 19.8001 23.16C20.7601 23.48 21.6534 23.92 22.4801 24.48C23.3068 25.0133 23.9601 25.6933 24.4401 26.52C24.9201 27.3467 25.1601 28.3733 25.1601 29.6C25.1601 31.6 24.6134 33.3467 23.5201 34.84C22.4268 36.3333 20.8668 37.4933 18.8401 38.32C16.8134 39.1467 14.4268 39.56 11.6801 39.56ZM36.6585 39.36C35.1119 39.36 33.6319 38.9733 32.2185 38.2C30.8052 37.4267 29.6585 36.3067 28.7785 34.84C27.9252 33.3733 27.4985 31.5867 27.4985 29.48C27.4985 27.6667 27.8052 26 28.4185 24.48C29.0319 22.96 29.8719 21.64 30.9385 20.52C32.0319 19.4 33.2852 18.5333 34.6985 17.92C36.1385 17.28 37.6585 16.96 39.2585 16.96C41.0185 16.96 42.5252 17.3067 43.7785 18C45.0585 18.6667 45.9919 19.76 46.5785 21.28C47.1652 22.7733 47.2985 24.8 46.9785 27.36C46.7385 29.7867 46.1652 31.9067 45.2585 33.72C44.3519 35.5333 43.1785 36.9333 41.7385 37.92C40.2985 38.88 38.6052 39.36 36.6585 39.36ZM39.2985 33.24C40.3119 33.24 41.2052 32.9867 41.9785 32.48C42.7519 31.9733 43.3519 31.2667 43.7785 30.36C44.2319 29.4533 44.4585 28.4 44.4585 27.2C44.4585 25.9467 44.0985 24.9467 43.3785 24.2C42.6585 23.4267 41.6452 23.04 40.3385 23.04C39.3519 23.04 38.4585 23.3067 37.6585 23.84C36.8852 24.3467 36.2719 25.0533 35.8185 25.96C35.3919 26.8667 35.1785 27.92 35.1785 29.12C35.1785 30.3733 35.5385 31.3733 36.2585 32.12C36.9785 32.8667 37.9919 33.24 39.2985 33.24ZM42.4985 39L43.2585 35.36L44.6985 28.2L45.6585 21.04L46.4185 17.32H54.0185L49.6985 39H42.4985ZM57.111 47.12C55.9644 47.12 54.831 46.9467 53.711 46.6C52.5644 46.2533 51.6577 45.8 50.991 45.24L54.391 39.88C54.8444 40.2533 55.351 40.5467 55.911 40.76C56.471 41 57.0844 41.12 57.751 41.12C58.4977 41.12 59.1377 40.9333 59.671 40.56C60.2044 40.1867 60.711 39.6 61.191 38.8L62.751 36.28L63.391 35.52L74.311 17.32H81.751L67.871 39.96C66.751 41.8 65.6577 43.24 64.591 44.28C63.5244 45.32 62.391 46.0533 61.191 46.48C59.991 46.9067 58.631 47.12 57.111 47.12ZM61.111 39.92L56.031 17.32H63.591L67.191 34.84L61.111 39.92ZM88.6898 39.36C87.1431 39.36 85.6631 38.9733 84.2498 38.2C82.8365 37.4267 81.6898 36.3067 80.8098 34.84C79.9565 33.3733 79.5298 31.5867 79.5298 29.48C79.5298 27.6667 79.8365 26 80.4498 24.48C81.0631 22.96 81.9031 21.64 82.9698 20.52C84.0631 19.4 85.3165 18.5333 86.7298 17.92C88.1698 17.28 89.6898 16.96 91.2898 16.96C93.0498 16.96 94.5565 17.3067 95.8098 18C97.0898 18.6667 98.0231 19.76 98.6098 21.28C99.1965 22.7733 99.3298 24.8 99.0098 27.36C98.7698 29.7867 98.1965 31.9067 97.2898 33.72C96.3831 35.5333 95.2098 36.9333 93.7698 37.92C92.3298 38.88 90.6365 39.36 88.6898 39.36ZM91.3298 33.24C92.3431 33.24 93.2365 32.9867 94.0098 32.48C94.7831 31.9733 95.3831 31.2667 95.8098 30.36C96.2631 29.4533 96.4898 28.4 96.4898 27.2C96.4898 25.9467 96.1298 24.9467 95.4098 24.2C94.6898 23.4267 93.6765 23.04 92.3698 23.04C91.3831 23.04 90.4898 23.3067 89.6898 23.84C88.9165 24.3467 88.3031 25.0533 87.8498 25.96C87.4231 26.8667 87.2098 27.92 87.2098 29.12C87.2098 30.3733 87.5698 31.3733 88.2898 32.12C89.0098 32.8667 90.0231 33.24 91.3298 33.24ZM94.5298 39L95.2898 35.36L96.7298 28.2L97.6898 21.04L98.4498 17.32H106.05L101.73 39H94.5298ZM106.622 39L110.942 17.32H118.142L116.902 23.48L116.182 21.72C117.142 19.9867 118.409 18.76 119.982 18.04C121.556 17.32 123.396 16.96 125.502 16.96L124.182 23.8C123.862 23.7467 123.569 23.72 123.302 23.72C123.036 23.6933 122.756 23.68 122.462 23.68C120.809 23.68 119.449 24.08 118.382 24.88C117.342 25.6533 116.649 26.9467 116.302 28.76L114.222 39H106.622ZM133.963 39.36C132.417 39.36 130.937 38.9733 129.523 38.2C128.11 37.4267 126.963 36.3067 126.083 34.84C125.23 33.3733 124.803 31.5867 124.803 29.48C124.803 27.6667 125.11 26 125.723 24.48C126.337 22.96 127.177 21.64 128.243 20.52C129.337 19.4 130.59 18.5333 132.003 17.92C133.443 17.28 134.963 16.96 136.563 16.96C138.323 16.96 139.83 17.3067 141.083 18C142.363 18.6667 143.297 19.76 143.883 21.28C144.47 22.7733 144.603 24.8 144.283 27.36C144.043 29.7867 143.47 31.9067 142.563 33.72C141.657 35.5333 140.483 36.9333 139.043 37.92C137.603 38.88 135.91 39.36 133.963 39.36ZM136.603 33.24C137.617 33.24 138.51 32.9867 139.283 32.48C140.057 31.9733 140.657 31.2667 141.083 30.36C141.537 29.4533 141.763 28.4 141.763 27.2C141.763 25.9467 141.403 24.9467 140.683 24.2C139.963 23.4267 138.95 23.04 137.643 23.04C136.657 23.04 135.763 23.3067 134.963 23.84C134.19 24.3467 133.577 25.0533 133.123 25.96C132.697 26.8667 132.483 27.92 132.483 29.12C132.483 30.3733 132.843 31.3733 133.563 32.12C134.283 32.8667 135.297 33.24 136.603 33.24ZM139.803 39L140.563 35.36L142.003 28.2L142.963 21.04L143.723 17.32H151.323L147.003 39H139.803Z" fill="#0D6EFD"/>
<mask id="path-2-outside-1_1613_3333" maskUnits="userSpaceOnUse" x="151.6" y="8" width="89" height="33" fill="black">
<rect fill="white" x="151.6" y="8" width="89" height="33"/>
<path d="M177.52 11H185.44L179.84 39H171.92L177.52 11ZM161.16 39H153.24L158.84 11H166.76L161.16 39ZM174.68 28.08H162.8L164.12 21.52H176L174.68 28.08ZM194.427 39.36C192.667 39.36 191.133 38.9867 189.827 38.24C188.547 37.4667 187.64 36.3333 187.107 34.84C186.573 33.3467 186.52 31.4933 186.947 29.28L189.347 17.32H196.947L194.707 28.56C194.413 29.9467 194.493 31.0133 194.947 31.76C195.427 32.5067 196.267 32.88 197.467 32.88C198.747 32.88 199.813 32.4933 200.667 31.72C201.547 30.92 202.147 29.6933 202.467 28.04L204.627 17.32H212.227L207.907 39H200.707L201.947 32.88L202.907 34.64C201.867 36.2667 200.587 37.4667 199.067 38.24C197.573 38.9867 196.027 39.36 194.427 39.36ZM212.802 39L218.722 9.32H226.322L224.002 21L222.162 28.08L221.002 34.12L220.042 39H212.802ZM227.562 39.36C226.015 39.36 224.642 39.0933 223.442 38.56C222.242 38 221.309 37.1333 220.642 35.96C219.975 34.76 219.642 33.2133 219.642 31.32C219.642 29.4 219.869 27.5867 220.322 25.88C220.775 24.1467 221.442 22.6133 222.322 21.28C223.229 19.9467 224.335 18.8933 225.642 18.12C226.949 17.3467 228.455 16.96 230.162 16.96C231.735 16.96 233.215 17.3467 234.602 18.12C236.015 18.8933 237.149 20.0133 238.002 21.48C238.882 22.92 239.322 24.6933 239.322 26.8C239.322 28.6133 239.015 30.28 238.402 31.8C237.789 33.32 236.935 34.6533 235.842 35.8C234.775 36.92 233.535 37.8 232.122 38.44C230.709 39.0533 229.189 39.36 227.562 39.36ZM226.482 33.24C227.495 33.24 228.389 32.9867 229.162 32.48C229.935 31.9733 230.535 31.2667 230.962 30.36C231.415 29.4533 231.642 28.4 231.642 27.2C231.642 25.9467 231.282 24.9467 230.562 24.2C229.842 23.4267 228.829 23.04 227.522 23.04C226.535 23.04 225.642 23.3067 224.842 23.84C224.069 24.3467 223.455 25.0533 223.002 25.96C222.575 26.8667 222.362 27.92 222.362 29.12C222.362 30.3733 222.722 31.3733 223.442 32.12C224.162 32.8667 225.175 33.24 226.482 33.24Z"/>
</mask>
<path d="M177.52 11H185.44L179.84 39H171.92L177.52 11ZM161.16 39H153.24L158.84 11H166.76L161.16 39ZM174.68 28.08H162.8L164.12 21.52H176L174.68 28.08ZM194.427 39.36C192.667 39.36 191.133 38.9867 189.827 38.24C188.547 37.4667 187.64 36.3333 187.107 34.84C186.573 33.3467 186.52 31.4933 186.947 29.28L189.347 17.32H196.947L194.707 28.56C194.413 29.9467 194.493 31.0133 194.947 31.76C195.427 32.5067 196.267 32.88 197.467 32.88C198.747 32.88 199.813 32.4933 200.667 31.72C201.547 30.92 202.147 29.6933 202.467 28.04L204.627 17.32H212.227L207.907 39H200.707L201.947 32.88L202.907 34.64C201.867 36.2667 200.587 37.4667 199.067 38.24C197.573 38.9867 196.027 39.36 194.427 39.36ZM212.802 39L218.722 9.32H226.322L224.002 21L222.162 28.08L221.002 34.12L220.042 39H212.802ZM227.562 39.36C226.015 39.36 224.642 39.0933 223.442 38.56C222.242 38 221.309 37.1333 220.642 35.96C219.975 34.76 219.642 33.2133 219.642 31.32C219.642 29.4 219.869 27.5867 220.322 25.88C220.775 24.1467 221.442 22.6133 222.322 21.28C223.229 19.9467 224.335 18.8933 225.642 18.12C226.949 17.3467 228.455 16.96 230.162 16.96C231.735 16.96 233.215 17.3467 234.602 18.12C236.015 18.8933 237.149 20.0133 238.002 21.48C238.882 22.92 239.322 24.6933 239.322 26.8C239.322 28.6133 239.015 30.28 238.402 31.8C237.789 33.32 236.935 34.6533 235.842 35.8C234.775 36.92 233.535 37.8 232.122 38.44C230.709 39.0533 229.189 39.36 227.562 39.36ZM226.482 33.24C227.495 33.24 228.389 32.9867 229.162 32.48C229.935 31.9733 230.535 31.2667 230.962 30.36C231.415 29.4533 231.642 28.4 231.642 27.2C231.642 25.9467 231.282 24.9467 230.562 24.2C229.842 23.4267 228.829 23.04 227.522 23.04C226.535 23.04 225.642 23.3067 224.842 23.84C224.069 24.3467 223.455 25.0533 223.002 25.96C222.575 26.8667 222.362 27.92 222.362 29.12C222.362 30.3733 222.722 31.3733 223.442 32.12C224.162 32.8667 225.175 33.24 226.482 33.24Z" fill="white"/>
<path d="M177.52 11V10H176.7L176.54 10.8039L177.52 11ZM185.44 11L186.421 11.1961L186.66 10H185.44V11ZM179.84 39V40H180.66L180.821 39.1961L179.84 39ZM171.92 39L170.94 38.8039L170.7 40H171.92V39ZM161.16 39V40H161.98L162.141 39.1961L161.16 39ZM153.24 39L152.26 38.8039L152.02 40H153.24V39ZM158.84 11V10H158.02L157.86 10.8039L158.84 11ZM166.76 11L167.741 11.1961L167.98 10H166.76V11ZM174.68 28.08V29.08H175.499L175.66 28.2773L174.68 28.08ZM162.8 28.08L161.82 27.8827L161.579 29.08H162.8V28.08ZM164.12 21.52V20.52H163.301L163.14 21.3227L164.12 21.52ZM176 21.52L176.98 21.7173L177.221 20.52H176V21.52ZM177.52 11V12H185.44V11V10H177.52V11ZM185.44 11L184.46 10.8039L178.86 38.8039L179.84 39L180.821 39.1961L186.421 11.1961L185.44 11ZM179.84 39V38H171.92V39V40H179.84V39ZM171.92 39L172.901 39.1961L178.501 11.1961L177.52 11L176.54 10.8039L170.94 38.8039L171.92 39ZM161.16 39V38H153.24V39V40H161.16V39ZM153.24 39L154.221 39.1961L159.821 11.1961L158.84 11L157.86 10.8039L152.26 38.8039L153.24 39ZM158.84 11V12H166.76V11V10H158.84V11ZM166.76 11L165.78 10.8039L160.18 38.8039L161.16 39L162.141 39.1961L167.741 11.1961L166.76 11ZM174.68 28.08V27.08H162.8V28.08V29.08H174.68V28.08ZM162.8 28.08L163.78 28.2773L165.1 21.7173L164.12 21.52L163.14 21.3227L161.82 27.8827L162.8 28.08ZM164.12 21.52V22.52H176V21.52V20.52H164.12V21.52ZM176 21.52L175.02 21.3227L173.7 27.8827L174.68 28.08L175.66 28.2773L176.98 21.7173L176 21.52ZM189.827 38.24L189.31 39.0959L189.32 39.1022L189.331 39.1082L189.827 38.24ZM187.107 34.84L186.165 35.1763L186.165 35.1763L187.107 34.84ZM186.947 29.28L185.966 29.0832L185.965 29.0907L186.947 29.28ZM189.347 17.32V16.32H188.527L188.366 17.1233L189.347 17.32ZM196.947 17.32L197.927 17.5154L198.166 16.32H196.947V17.32ZM194.707 28.56L195.685 28.767L195.687 28.7554L194.707 28.56ZM194.947 31.76L194.092 32.279L194.099 32.29L194.105 32.3008L194.947 31.76ZM200.667 31.72L201.338 32.461L201.339 32.4599L200.667 31.72ZM202.467 28.04L201.486 27.8425L201.485 27.85L202.467 28.04ZM204.627 17.32V16.32H203.808L203.646 17.1225L204.627 17.32ZM212.227 17.32L213.207 17.5154L213.446 16.32H212.227V17.32ZM207.907 39V40H208.727L208.887 39.1954L207.907 39ZM200.707 39L199.727 38.8014L199.484 40H200.707V39ZM201.947 32.88L202.825 32.4011L201.511 29.9934L200.967 32.6814L201.947 32.88ZM202.907 34.64L203.749 35.1787L204.068 34.6804L203.785 34.1611L202.907 34.64ZM199.067 38.24L199.514 39.1344L199.52 39.1313L199.067 38.24ZM194.427 39.36V38.36C192.811 38.36 191.454 38.0184 190.323 37.3718L189.827 38.24L189.331 39.1082C190.812 39.9549 192.522 40.36 194.427 40.36V39.36ZM189.827 38.24L190.344 37.3841C189.273 36.7374 188.509 35.7942 188.048 34.5037L187.107 34.84L186.165 35.1763C186.771 36.8725 187.82 38.1959 189.31 39.0959L189.827 38.24ZM187.107 34.84L188.048 34.5037C187.595 33.2353 187.522 31.5771 187.929 29.4693L186.947 29.28L185.965 29.0907C185.518 31.4096 185.551 33.4581 186.165 35.1763L187.107 34.84ZM186.947 29.28L187.927 29.4767L190.327 17.5167L189.347 17.32L188.366 17.1233L185.966 29.0833L186.947 29.28ZM189.347 17.32V18.32H196.947V17.32V16.32H189.347V17.32ZM196.947 17.32L195.966 17.1246L193.726 28.3646L194.707 28.56L195.687 28.7554L197.927 17.5154L196.947 17.32ZM194.707 28.56L193.728 28.353C193.413 29.8417 193.445 31.2137 194.092 32.279L194.947 31.76L195.801 31.241C195.542 30.813 195.413 30.0516 195.685 28.767L194.707 28.56ZM194.947 31.76L194.105 32.3008C194.831 33.4299 196.059 33.88 197.467 33.88V32.88V31.88C196.474 31.88 196.022 31.5834 195.788 31.2192L194.947 31.76ZM197.467 32.88V33.88C198.965 33.88 200.28 33.42 201.338 32.461L200.667 31.72L199.995 30.979C199.347 31.5666 198.528 31.88 197.467 31.88V32.88ZM200.667 31.72L201.339 32.4599C202.433 31.4654 203.104 30.0096 203.448 28.23L202.467 28.04L201.485 27.85C201.189 29.3771 200.66 30.3746 199.994 30.9801L200.667 31.72ZM202.467 28.04L203.447 28.2375L205.607 17.5175L204.627 17.32L203.646 17.1225L201.486 27.8425L202.467 28.04ZM204.627 17.32V18.32H212.227V17.32V16.32H204.627V17.32ZM212.227 17.32L211.246 17.1246L206.926 38.8046L207.907 39L208.887 39.1954L213.207 17.5154L212.227 17.32ZM207.907 39V38H200.707V39V40H207.907V39ZM200.707 39L201.687 39.1986L202.927 33.0786L201.947 32.88L200.967 32.6814L199.727 38.8014L200.707 39ZM201.947 32.88L201.069 33.3589L202.029 35.1189L202.907 34.64L203.785 34.1611L202.825 32.4011L201.947 32.88ZM202.907 34.64L202.064 34.1013C201.107 35.5981 199.954 36.6664 198.613 37.3487L199.067 38.24L199.52 39.1313C201.219 38.2669 202.626 36.9352 203.749 35.1787L202.907 34.64ZM199.067 38.24L198.619 37.3456C197.259 38.0259 195.865 38.36 194.427 38.36V39.36V40.36C196.189 40.36 197.888 39.9474 199.514 39.1344L199.067 38.24ZM212.802 39L211.821 38.8044L211.583 40H212.802V39ZM218.722 9.32V8.32H217.902L217.741 9.12439L218.722 9.32ZM226.322 9.32L227.303 9.51482L227.54 8.32H226.322V9.32ZM224.002 21L224.97 21.2515L224.977 21.2234L224.983 21.1948L224.002 21ZM222.162 28.08L221.194 27.8285L221.186 27.8597L221.18 27.8914L222.162 28.08ZM221.002 34.12L221.983 34.313L221.984 34.3086L221.002 34.12ZM220.042 39V40H220.864L221.023 39.193L220.042 39ZM223.442 38.56L223.019 39.4662L223.027 39.4701L223.036 39.4738L223.442 38.56ZM220.642 35.96L219.768 36.4457L219.773 36.454L220.642 35.96ZM220.322 25.88L221.288 26.1367L221.289 26.133L220.322 25.88ZM222.322 21.28L221.495 20.7176L221.487 20.7292L222.322 21.28ZM234.602 18.12L234.115 18.9934L234.122 18.9973L234.602 18.12ZM238.002 21.48L237.138 21.9829L237.143 21.9922L237.149 22.0014L238.002 21.48ZM238.402 31.8L239.329 32.1742L239.329 32.1742L238.402 31.8ZM235.842 35.8L235.118 35.1099L235.118 35.1103L235.842 35.8ZM232.122 38.44L232.52 39.3573L232.527 39.3542L232.534 39.351L232.122 38.44ZM229.162 32.48L228.614 31.6435L228.614 31.6435L229.162 32.48ZM230.962 30.36L230.068 29.9128L230.062 29.9234L230.057 29.9342L230.962 30.36ZM230.562 24.2L229.83 24.8814L229.836 24.8878L229.842 24.8941L230.562 24.2ZM224.842 23.84L225.39 24.6765L225.397 24.672L224.842 23.84ZM223.002 25.96L222.108 25.5128L222.102 25.5234L222.097 25.5342L223.002 25.96ZM223.442 32.12L222.722 32.8141L222.722 32.8141L223.442 32.12ZM212.802 39L213.783 39.1956L219.703 9.51561L218.722 9.32L217.741 9.12439L211.821 38.8044L212.802 39ZM218.722 9.32V10.32H226.322V9.32V8.32H218.722V9.32ZM226.322 9.32L225.341 9.12517L223.021 20.8052L224.002 21L224.983 21.1948L227.303 9.51482L226.322 9.32ZM224.002 21L223.034 20.7485L221.194 27.8285L222.162 28.08L223.13 28.3315L224.97 21.2515L224.002 21ZM222.162 28.08L221.18 27.8914L220.02 33.9314L221.002 34.12L221.984 34.3086L223.144 28.2686L222.162 28.08ZM221.002 34.12L220.021 33.927L219.061 38.807L220.042 39L221.023 39.193L221.983 34.313L221.002 34.12ZM220.042 39V38H212.802V39V40H220.042V39ZM227.562 39.36V38.36C226.131 38.36 224.9 38.1135 223.848 37.6462L223.442 38.56L223.036 39.4738C224.384 40.0732 225.9 40.36 227.562 40.36V39.36ZM223.442 38.56L223.865 37.6538C222.857 37.1833 222.078 36.4626 221.511 35.466L220.642 35.96L219.773 36.454C220.54 37.804 221.627 38.8167 223.019 39.4662L223.442 38.56ZM220.642 35.96L221.516 35.4744C220.957 34.4686 220.642 33.1048 220.642 31.32H219.642H218.642C218.642 33.3219 218.993 35.0514 219.768 36.4456L220.642 35.96ZM219.642 31.32H220.642C220.642 29.4792 220.859 27.7527 221.288 26.1367L220.322 25.88L219.355 25.6233C218.878 27.4207 218.642 29.3208 218.642 31.32H219.642ZM220.322 25.88L221.289 26.133C221.718 24.4928 222.344 23.0625 223.157 21.8308L222.322 21.28L221.487 20.7292C220.54 22.1642 219.832 23.8005 219.355 25.627L220.322 25.88ZM222.322 21.28L223.149 21.8423C223.978 20.6228 224.979 19.6744 226.151 18.9806L225.642 18.12L225.133 17.2594C223.692 18.1122 222.479 19.2705 221.495 20.7177L222.322 21.28ZM225.642 18.12L226.151 18.9806C227.285 18.3094 228.612 17.96 230.162 17.96V16.96V15.96C228.299 15.96 226.612 16.3839 225.133 17.2594L225.642 18.12ZM230.162 16.96V17.96C231.563 17.96 232.876 18.3023 234.115 18.9934L234.602 18.12L235.089 17.2466C233.555 16.3911 231.907 15.96 230.162 15.96V16.96ZM234.602 18.12L234.122 18.9973C235.367 19.6784 236.371 20.6649 237.138 21.9829L238.002 21.48L238.866 20.9771C237.926 19.3617 236.664 18.1083 235.082 17.2427L234.602 18.12ZM238.002 21.48L237.149 22.0014C237.912 23.2498 238.322 24.8319 238.322 26.8H239.322H240.322C240.322 24.5547 239.852 22.5902 238.855 20.9585L238.002 21.48ZM239.322 26.8H238.322C238.322 28.4987 238.035 30.0368 237.475 31.4258L238.402 31.8L239.329 32.1742C239.995 30.5232 240.322 28.7279 240.322 26.8H239.322ZM238.402 31.8L237.475 31.4258C236.907 32.8327 236.121 34.0579 235.118 35.1099L235.842 35.8L236.566 36.4901C237.749 35.2488 238.67 33.8073 239.329 32.1742L238.402 31.8ZM235.842 35.8L235.118 35.1103C234.14 36.1369 233.006 36.9419 231.709 37.529L232.122 38.44L232.534 39.351C234.065 38.6581 235.41 37.7031 236.566 36.4897L235.842 35.8ZM232.122 38.44L231.724 37.5227C230.443 38.0785 229.059 38.36 227.562 38.36V39.36V40.36C229.318 40.36 230.974 40.0282 232.52 39.3573L232.122 38.44ZM226.482 33.24V34.24C227.671 34.24 228.758 33.94 229.71 33.3165L229.162 32.48L228.614 31.6435C228.019 32.0333 227.32 32.24 226.482 32.24V33.24ZM229.162 32.48L229.71 33.3165C230.651 32.7 231.368 31.8451 231.867 30.7858L230.962 30.36L230.057 29.9342C229.702 30.6882 229.22 31.2466 228.614 31.6435L229.162 32.48ZM230.962 30.36L231.856 30.8072C232.391 29.7384 232.642 28.5269 232.642 27.2H231.642H230.642C230.642 28.2731 230.44 29.1683 230.068 29.9128L230.962 30.36ZM231.642 27.2H232.642C232.642 25.745 232.218 24.4764 231.282 23.5059L230.562 24.2L229.842 24.8941C230.346 25.4169 230.642 26.1483 230.642 27.2H231.642ZM230.562 24.2L231.294 23.5186C230.342 22.4957 229.036 22.04 227.522 22.04V23.04V24.04C228.621 24.04 229.342 24.3576 229.83 24.8814L230.562 24.2ZM227.522 23.04V22.04C226.343 22.04 225.256 22.3621 224.287 23.0079L224.842 23.84L225.397 24.672C226.028 24.2512 226.727 24.04 227.522 24.04V23.04ZM224.842 23.84L224.294 23.0035C223.359 23.6162 222.632 24.4637 222.108 25.5128L223.002 25.96L223.896 26.4072C224.279 25.6429 224.779 25.0771 225.39 24.6765L224.842 23.84ZM223.002 25.96L222.097 25.5342C221.597 26.5978 221.362 27.8015 221.362 29.12H222.362H223.362C223.362 28.0385 223.554 27.1355 223.907 26.3858L223.002 25.96ZM222.362 29.12H221.362C221.362 30.575 221.786 31.8436 222.722 32.8141L223.442 32.12L224.162 31.4259C223.658 30.9031 223.362 30.1717 223.362 29.12H222.362ZM223.442 32.12L222.722 32.8141C223.677 33.8042 224.979 34.24 226.482 34.24V33.24V32.24C225.372 32.24 224.647 31.9291 224.162 31.4259L223.442 32.12Z" fill="#0D6EFD" mask="url(#path-2-outside-1_1613_3333)"/>
</svg>
