<svg width="116" height="116" viewBox="0 0 116 116" fill="none" xmlns="http://www.w3.org/2000/svg">
<path d="M35.2087 6.5112L56.8014 76.0484L35.2087 86.0926V6.5112ZM80.1867 1.68809L57.8781 73.5296L35.5338 1.68809H80.1867ZM80.7871 86.0926L58.9533 76.0482L80.7871 6.5112V86.0926ZM38.1681 86.5749L57.8781 77.4606L77.5882 86.5705L38.1681 86.5749ZM80.9751 88.263C81.8139 88.263 82.2341 87.837 82.2341 86.9883V1.27623C82.2341 0.425938 81.8139 0 80.9751 0H34.7811C33.9408 0 33.5206 0.425938 33.5206 1.27464V86.9867C33.5206 87.837 33.9408 88.263 34.7811 88.263H80.9751Z" fill="black"/>
<path d="M12.6692 104.265L23.7185 115.03H22.008C21.2236 115.03 20.4713 114.726 19.9157 114.185L12.4405 106.903C12.1192 106.589 11.5994 106.589 11.2781 106.903L3.80283 114.185C3.24715 114.726 2.4949 115.03 1.71052 115.03H0L11.0503 104.265C11.4977 103.829 12.2218 103.829 12.6692 104.265ZM59.4419 104.265L70.4922 115.03H68.7817C67.9973 115.03 67.2449 114.726 66.6894 114.185L59.2141 106.903C58.8919 106.589 58.3721 106.589 58.0508 106.903L50.5765 114.185C50.0199 114.726 49.2676 115.03 48.4832 115.03H46.7727L57.823 104.265C58.2704 103.829 58.9945 103.829 59.4419 104.265ZM25.1115 103.938C25.8959 103.938 26.6482 104.242 27.2038 104.784L34.6791 112.066C35.0004 112.379 35.5202 112.379 35.8415 112.066L43.3167 104.784C43.8724 104.242 44.6246 103.938 45.409 103.938H47.1195L36.0692 114.703C35.6219 115.139 34.8986 115.139 34.4513 114.703L23.401 103.938H25.1115ZM80.106 108.107C80.2465 108.107 80.3812 108.161 80.4805 108.258C80.5798 108.355 80.6355 108.487 80.6353 108.625V114.513C80.6362 114.798 80.399 115.029 80.107 115.029H79.0835C78.7915 115.029 78.5552 114.798 78.5552 114.513V108.624C78.5552 108.486 78.611 108.355 78.7103 108.258C78.8096 108.161 78.9442 108.107 79.0845 108.107H80.106ZM87.5028 103.941C88.289 103.941 89.0432 104.245 89.6008 104.787L90.8105 105.962H71.6877C70.9016 105.963 70.1474 105.658 69.5897 105.117L68.38 103.941H87.5028ZM112.512 110.23C114.351 110.23 115.833 108.745 115.751 106.943C115.673 105.246 114.171 103.941 112.43 103.941H95.3863L96.5988 105.117C97.1581 105.659 97.9134 105.962 98.7006 105.962H112.441C113.048 105.962 113.594 106.395 113.648 106.985C113.676 107.3 113.567 107.612 113.347 107.845C113.128 108.078 112.819 108.21 112.495 108.209H95.9156C95.6237 108.209 95.3869 108.44 95.3863 108.725V114.514C95.3863 114.799 95.6226 115.031 95.9156 115.031H96.9419C97.2339 115.031 97.4711 114.799 97.4711 114.514V110.23H107.857L111.933 114.177C112.493 114.723 113.251 115.03 114.041 115.03H115.755L110.805 110.23H112.512Z" fill="black"/>
</svg>
