<svg width="473" height="120" viewBox="0 0 473 120" fill="none" xmlns="http://www.w3.org/2000/svg">
<path d="M64.9722 0.0111332C49.4039 0.304219 30.6632 3.0094 19.7771 9.53642C12.7582 13.792 4.12965 22.4527 1.48216 35.7881C-1.1712 49.1206 0.0543295 62.1043 2.66957 75.4573C5.27895 88.8044 10.5124 103.746 25.0047 111.445C39.4999 119.142 49.2191 120.053 69.0827 119.997C88.9462 120.056 98.6654 119.142 113.161 111.445C127.653 103.746 132.883 88.8044 135.496 75.4543C138.108 62.1072 139.334 49.1206 136.683 35.7881C134.036 22.4527 125.407 13.792 118.388 9.53935C104.242 1.75792 88.6824 0.269049 73.1903 0.0111332C70.3698 0.0287183 67.5786 -0.0211062 64.9663 0.0111332H64.9722ZM85.2374 3.5985C90.9839 4.14657 105.365 5.26323 116.131 11.6759C126.891 18.0916 131.705 26.2482 133.713 36.1427C135.724 46.0373 135.549 58.5491 132.763 74.3875C129.978 90.2258 122.185 103.403 111.616 108.951C101.043 114.499 87.6239 117.436 69.0827 117.152C50.5414 117.436 37.1222 114.499 26.5498 108.951C15.9803 103.403 8.18739 90.2229 5.40209 74.3875C2.6168 58.5491 2.44089 46.0373 4.45216 36.1427C6.4605 26.2482 11.2717 18.0916 22.0347 11.6759C32.7976 5.26323 47.1786 4.14657 52.928 3.5985C63.6587 2.70752 74.6386 2.64011 85.2374 3.5985ZM65.5175 6.35351C56.6925 6.46195 47.2519 7.54344 40.787 8.93266C33.3987 10.5153 30.8743 11.078 24.5033 14.8882C18.1323 18.6983 10.3013 26.4533 7.89713 38.3966C5.49298 50.3398 6.6071 61.9724 8.97606 73.9273C11.345 85.8852 16.0947 99.2675 29.2471 106.161C51.1073 117.541 87.6063 117.09 108.918 106.161C122.071 99.2675 126.817 85.8823 129.189 73.9273C131.561 61.9724 132.672 50.3398 130.268 38.3966C127.864 26.4533 120.03 18.6983 113.662 14.8882C107.291 11.078 104.767 10.5183 97.3783 8.92973C90.9135 7.54344 81.4699 6.46195 72.6479 6.35058C70.2027 6.37109 67.7809 6.33006 65.5175 6.35351ZM82.8713 12.098C85.2696 12.3207 89.4153 12.6636 94.1005 13.5663C94.7953 13.71 95.1853 13.9327 95.0328 14.5921C87.4979 32.869 79.444 51.1517 71.0471 69.4285C69.9153 71.8494 68.4846 71.9432 67.3236 69.874C58.8504 51.4506 50.7291 33.0184 43.1326 14.5951C42.9801 13.9327 43.37 13.71 44.0649 13.5693C48.75 12.6636 52.8957 12.3207 55.294 12.0951C64.4562 11.3418 73.8529 11.2949 82.8713 12.098ZM36.486 15.5564C36.914 15.5417 37.0577 15.826 37.043 16.3624L37.0489 16.3448V47.0983C37.0489 56.8023 38.635 61.3569 42.9303 69.2702L63.5121 107.154C64.2128 108.491 63.0723 108.403 61.8351 108.418C49.5622 107.89 40.1684 105.507 32.5133 101.557C23.3804 96.8437 16.6517 85.6537 14.2447 72.2069C11.8405 58.7572 11.6851 48.1329 13.4237 39.733C15.1594 31.3303 19.3168 24.4017 28.6109 18.9533C30.9271 17.5963 33.4427 16.5177 35.9846 15.656C36.1452 15.599 36.3129 15.5645 36.483 15.5535L36.486 15.5564ZM101.679 15.5564C101.849 15.5665 102.017 15.6 102.178 15.656C104.723 16.5177 107.235 17.5963 109.554 18.9533C118.849 24.4017 123.006 31.3303 124.742 39.733C126.48 48.1329 126.325 58.7572 123.921 72.2069C121.517 85.6537 114.782 96.8437 105.655 101.557C97.997 105.507 88.6003 107.89 76.3303 108.418C75.0931 108.403 73.9525 108.491 74.6562 107.154L95.2351 69.2702C99.5274 61.3569 101.116 56.8023 101.116 47.0983V16.3448L101.122 16.3624C101.108 15.826 101.251 15.5447 101.679 15.5564ZM273.561 9.20523V13.9415H246.192V27.186L255.926 27.274V20.9697C255.914 20.0963 256.615 19.8091 257.773 19.9029H300.843C301.344 19.897 302.499 20.0113 302.52 20.87V27.186L312.259 27.0981L312.207 19.2727C312.233 15.8436 309.612 14.261 306.73 14.2053H284.184V9.20523H273.561ZM350.817 9.60676L341.61 26.7962H350.512L353.983 20.4656H391.766V15.3366L357.601 15.1109L361.448 9.68296L350.817 9.60676ZM425.404 9.60676L421.328 15.6385L403.954 15.6941V20.9199L416.051 20.9111C416.802 20.9052 417.168 21.3507 416.881 21.8196L407.906 35.1697C406.607 37.3004 406.81 40.6856 410.469 40.7471L435.407 40.835L435.481 49.7507H403.151V55.3838L435.407 55.4512L435.478 68.5228H445.264L445.335 55.4512L472.631 55.3838V49.7507H445.264L445.335 40.835L468.875 40.7676V35.9434L445.39 35.9229L445.267 26.1544H435.475L435.507 35.8467L421.557 35.6943C419.311 35.8116 418.957 34.7066 419.672 33.6603L428.418 20.9961L471.558 20.9228V15.6971L432.566 15.6385L436.548 9.65951L425.404 9.60676ZM175.138 10.3307V32.4206L164.677 32.5876V38.2178H175.138V64.109C175.325 66.5064 176.923 67.6494 179.21 68.177H197.057V62.6172H186.44C185.766 63.1154 184.599 62.3563 184.684 60.8645V38.0625H195.388C203.48 49.8943 210.019 62.2948 234.157 68.2503L233.905 61.48C222.91 56.7144 211.798 52.195 205.128 38.3233H234.168V32.7107H184.599V10.3453L175.138 10.3307ZM333.243 10.9637L323.06 11.0399C325.699 14.0177 327.836 16.4738 331.583 22.7253H340.256C338.154 18.8536 336.298 15.0288 333.243 10.9637ZM217.149 11.3975C208.459 17.3413 200.936 22.9011 196.438 27.4498L206.53 27.5377C214.83 20.3923 222.837 16.4884 230.92 11.7492L217.149 11.3975ZM269.061 25.363L263.971 32.8074H244.38V38.2588H259.673C260.054 38.6193 259.57 39.2612 259.069 39.9148L255.26 45.9084C254.645 47.0338 254.592 48.1856 255.976 49.4137L270.911 56.3129C271.532 56.6206 272.221 56.9166 270.984 57.5175C263.951 59.4343 256.187 61.1517 244.38 61.7789V68.5258C258.659 67.0633 272.204 65.1143 281.507 60.5714C281.732 60.3839 281.82 60.079 282.864 60.5714C292.753 63.5375 302.435 66.7526 313.766 68.3734V61.7789C306.029 60.3023 298.37 58.4398 290.818 56.1986C290.212 55.8381 290.232 55.416 290.631 54.9559C297.21 50.4805 300.567 44.525 303.264 38.2617H313.766V32.8104H275.622C275.309 32.6345 274.722 32.6755 275.06 32.0366L279.809 26.2687C280.044 25.9551 280.073 25.6766 280.111 25.363H269.061ZM353.523 25.7499V30.7089H388.934V25.7499H353.523ZM333.319 28.3056L323.591 28.4551C326.356 32.0601 329.121 35.4979 331.885 41.0461C332.41 42.8051 332.331 44.6892 331.66 46.3978C329.513 54.0913 326.939 61.2191 324.192 68.1125L333.243 68.1858C336.093 60.5216 338.177 52.8574 340.03 45.1932C340.88 40.5683 339.972 39.8532 339.277 38.0302C337.585 34.393 335.612 31.1368 333.319 28.3056ZM346.413 35.9405V41.1692L375.928 41.2717C377.423 41.1604 377.711 42.0777 377.816 43.1563L377.89 56.2748C378.06 62.3856 385.568 68.1975 392.96 68.388L393.091 62.2479C389.045 61.269 387.02 56.9518 387.014 54.3903V40.4423C386.961 38.6076 385.451 36.26 382.49 35.9933L346.413 35.9405ZM270.137 38.2617H293.548C292.199 43.8538 287.98 48.7865 281.228 53.2414C275.981 51.5795 270.821 49.6574 265.765 47.4822C264.261 46.6469 264.458 45.8116 265.071 44.9793L270.137 38.2617ZM182.913 79.0622C173.159 79.0622 165.035 82.2099 165.035 94.6397C165.257 107.099 175.844 110.164 183.611 110.164H198.414V104.048L185.068 104.133C182.069 104.133 174.783 103.048 174.783 94.6925C174.566 86.0025 182.406 85.2492 185.537 85.2492H198.414V79.112L182.913 79.0622ZM361.7 79.0622C356.824 79.115 343.824 80.5716 343.824 94.6397C343.824 108.007 354.047 110.164 361.568 110.164H381.03C381.499 110.164 381.889 109.824 381.889 109.265V92.5735C381.889 92.2071 381.648 91.9521 381.264 91.9521L366.473 91.9199V97.6526H372.791C373.53 97.6526 373.715 98.4733 373.615 98.4733V103.324C373.615 103.769 373.454 104.103 372.87 104.068L361.876 104.133C359.929 104.133 353.57 102.999 353.57 94.5078C353.57 85.6977 359.65 85.2492 362.348 85.2492H381.962V79.112L361.7 79.0622ZM264.619 79.112L251.426 110.1L259.048 110.164L269.149 86.108C269.471 85.3225 270.515 85.4192 270.82 86.2252L281.284 110.17H291.018L278.616 81.867C277.384 79.3172 276.174 79.115 273.837 79.115L264.619 79.112ZM302.37 79.112H298.289L298.35 110.106L305.551 110.173V92.0342C305.794 92.084 306.114 91.6063 307.354 92.55L325.297 108.259C326.168 109.089 327.567 110.164 329.994 110.164H333.967C334.524 110.164 335.014 109.704 335.014 108.866L335.087 79.115H327.816L327.795 95.8267C327.795 97.5178 326.505 97.5618 325.312 96.3689L307.442 80.9761C306.451 80.088 305.478 79.112 302.37 79.112ZM402.781 79.112L389.588 110.1L397.211 110.164L407.311 86.1051C407.634 85.3196 408.677 85.4163 408.982 86.2223L419.443 110.167H429.177L416.775 81.8641C415.547 79.3143 414.336 79.112 411.999 79.112H402.781ZM440.28 79.112H436.199L436.261 110.106L443.461 110.173V92.0342C443.708 92.084 444.024 91.6063 445.267 92.55L463.21 108.259C464.078 109.089 465.48 110.164 467.907 110.164H471.88C472.437 110.164 472.927 109.704 472.927 108.866L473 79.115H465.729L465.706 95.8267C465.706 97.5178 464.418 97.5618 463.225 96.3689L445.352 80.9761C444.361 80.088 443.388 79.112 440.28 79.112ZM208.259 79.112V110.17H216.961V97.2423H235.115V110.167H244.196V79.1179H235.115V90.768H216.961V79.1179L208.259 79.112Z" fill="#0B457F"/>
</svg>
