<svg width="1039" height="94" viewBox="0 0 1039 94" fill="none" xmlns="http://www.w3.org/2000/svg">
<path d="M765.671 1.97123C779.961 1.73268 794.25 1.53924 808.542 1.42465C815.179 1.36964 821.814 1.29507 828.45 1.17539C834.857 1.06057 841.263 0.997652 847.671 0.970338C850.113 0.950879 852.554 0.912878 854.996 0.855847C873.968 0.430315 873.968 0.430315 879.912 4.13741C884.045 8.75744 886.342 13.5133 886.088 19.7046C886.067 20.8205 886.045 21.9365 886.022 23.0863C885.902 25.1452 885.902 25.1452 885.779 27.2457C885.598 31.6699 885.417 36.094 885.23 40.6522C869.564 40.6522 853.898 40.6522 837.758 40.6522C837.758 43.5533 837.758 46.4544 837.758 49.4434C854.584 49.4434 871.41 49.4434 888.746 49.4434C890.505 58.2345 890.505 58.2345 888.746 61.7509C871.92 61.7509 855.094 61.7509 837.758 61.7509C839.598 63.9884 839.598 63.9884 843.723 63.6809C846.454 63.6503 846.454 63.6503 849.241 63.6191C851.211 63.6055 853.18 63.5919 855.21 63.5779C858.32 63.5439 858.32 63.5439 861.494 63.5092C865.578 63.4645 869.662 63.4275 873.747 63.3993C875.568 63.3789 877.389 63.3585 879.265 63.3375C883.472 63.5092 883.472 63.5092 885.23 65.2674C885.302 69.3693 885.305 73.4731 885.23 77.575C888.711 78.4453 888.711 78.4453 892.263 79.3332C892.263 83.3947 892.263 87.4562 892.263 91.6408C848.167 91.6408 804.07 91.6408 758.638 91.6408C758.638 88.1595 758.638 84.6782 758.638 81.0914C761.539 79.931 764.44 78.7706 767.429 77.575C766.849 76.9948 766.268 76.4146 765.671 75.8168C765.451 70.5421 765.451 70.5421 765.671 65.2674C767.429 63.5092 767.429 63.5092 771.635 63.3375C774.367 63.3681 774.367 63.3681 777.154 63.3993C780.108 63.4197 780.108 63.4197 783.122 63.4405C787.312 63.4863 791.501 63.5321 795.691 63.5779C798.645 63.5982 798.645 63.5982 801.659 63.6191C804.391 63.6497 804.391 63.6497 807.178 63.6809C811.302 63.9884 811.302 63.9884 813.143 61.7509C810.919 61.7648 810.919 61.7648 808.651 61.7788C803.17 61.8088 797.688 61.8308 792.206 61.8475C789.83 61.8564 787.454 61.8684 785.078 61.8836C781.67 61.9048 778.262 61.9139 774.853 61.9226C771.773 61.9365 771.773 61.9365 768.631 61.9505C763.912 61.7509 763.912 61.7509 762.154 59.9927C761.905 54.7122 762.08 49.4571 762.154 44.1687C769.697 44.1687 777.24 44.1687 785.011 44.1687C785.011 45.9093 785.011 47.65 785.011 49.4434C794.294 49.4434 803.578 49.4434 813.143 49.4434C813.143 46.5423 813.143 43.6412 813.143 40.6522C797.477 40.6522 781.811 40.6522 765.671 40.6522C765.671 27.8875 765.671 15.1228 765.671 1.97123ZM790.286 12.5206C790.866 13.681 791.446 14.8415 792.044 16.037C811.771 16.037 831.499 16.037 851.824 16.037C852.694 21.259 852.694 21.259 853.582 26.5864C832.694 26.5864 811.806 26.5864 790.286 26.5864C790.286 27.7468 790.286 28.9073 790.286 30.1029C813.494 30.1029 836.703 30.1029 860.615 30.1029C860.615 24.8809 860.615 19.659 860.615 14.2788C858.505 11.7676 858.505 11.7676 852.362 12.321C849.47 12.3213 846.577 12.3313 843.685 12.3489C842.165 12.3514 840.646 12.3539 839.08 12.3564C834.207 12.3663 829.334 12.3884 824.461 12.4107C821.166 12.4195 817.87 12.4275 814.575 12.4347C806.478 12.4542 798.382 12.4845 790.286 12.5206Z" fill="#D58A55"/>
<path d="M320.467 1.37244C322.243 1.37128 322.243 1.37128 324.055 1.3701C327.956 1.37377 331.856 1.41476 335.757 1.45614C338.467 1.46598 341.176 1.47349 343.886 1.47876C351.009 1.49887 358.131 1.55067 365.253 1.60907C372.524 1.66308 379.796 1.68713 387.068 1.7137C401.329 1.77022 415.589 1.86021 429.849 1.97125C429.849 7.7734 429.849 13.5755 429.849 19.5535C395.617 20.1337 361.384 20.7139 326.114 21.3117C324.373 26.5337 322.633 31.7556 320.839 37.1358C353.911 37.1358 386.984 37.1358 421.058 37.1358C421.058 42.9379 421.058 48.7401 421.058 54.7181C387.986 54.7181 354.914 54.7181 320.839 54.7181C322 59.94 323.16 65.1619 324.356 70.5421C328.965 72.8469 332.47 72.5831 337.632 72.6613C340.695 72.7139 340.695 72.7139 343.819 72.7676C346.031 72.797 348.243 72.8264 350.523 72.8566C352.782 72.8932 355.04 72.9297 357.367 72.9674C363.373 73.0644 369.38 73.1513 375.386 73.2361C381.515 73.3244 387.643 73.4223 393.771 73.5194C405.797 73.7085 417.823 73.8869 429.849 74.0585C429.849 79.8607 429.849 85.6628 429.849 91.6408C414.413 91.7631 398.976 91.8568 383.539 91.9141C376.371 91.9416 369.202 91.9789 362.034 92.0387C355.114 92.0961 348.195 92.1276 341.275 92.1413C338.637 92.151 335.999 92.17 333.361 92.1985C329.661 92.2369 325.963 92.2421 322.263 92.2396C319.106 92.2572 319.106 92.2572 315.886 92.2751C309.669 91.5705 306.433 90.1602 301.499 86.3661C296.819 77.8936 295.55 70.968 295.523 61.3663C295.518 60.2032 295.513 59.04 295.508 57.8415C295.505 55.4007 295.514 52.9598 295.536 50.5191C295.565 46.8146 295.537 43.1135 295.503 39.4091C295.506 37.0213 295.513 34.6335 295.523 32.2457C295.529 30.105 295.535 27.9644 295.542 25.7588C296.454 17.4629 298.429 10.3108 304.459 4.29038C310.003 1.13359 314.102 1.3376 320.467 1.37244Z" fill="#D58A55"/>
<path d="M455.765 1.75989C457.916 1.76379 460.068 1.7677 462.284 1.77172C464.059 1.77133 464.059 1.77133 465.871 1.77094C469.8 1.77217 473.729 1.78587 477.658 1.79962C480.375 1.8029 483.093 1.8054 485.81 1.80716C492.976 1.81388 500.141 1.83117 507.307 1.85059C514.614 1.86855 521.92 1.87661 529.227 1.88547C543.573 1.90435 557.919 1.93437 572.266 1.97132C572.266 7.77347 572.266 13.5756 572.266 19.5536C570.322 19.5808 570.322 19.5808 568.339 19.6085C556.153 19.7805 543.967 19.9607 531.78 20.1502C525.515 20.2474 519.249 20.3413 512.983 20.428C505.787 20.5277 498.59 20.6412 491.394 20.7555C488.004 20.7996 488.004 20.7996 484.545 20.8445C482.469 20.8796 480.392 20.9147 478.252 20.9508C475.494 20.9918 475.494 20.9918 472.68 21.0336C468.607 20.8494 468.607 20.8494 466.772 23.07C466.192 27.7118 465.612 32.3535 465.014 37.1359C498.086 37.1359 531.158 37.1359 565.233 37.1359C565.233 42.938 565.233 48.7402 565.233 54.7181C532.16 54.7181 499.088 54.7181 465.014 54.7181C465.594 59.9401 466.174 65.162 466.772 70.5422C471.382 72.847 474.887 72.5832 480.049 72.6614C483.111 72.714 483.111 72.714 486.235 72.7677C488.447 72.7971 490.66 72.8264 492.939 72.8567C495.198 72.8933 497.456 72.9298 499.783 72.9674C505.79 73.0645 511.796 73.1514 517.803 73.2362C523.931 73.3245 530.059 73.4224 536.188 73.5195C548.213 73.7086 560.239 73.887 572.266 74.0586C572.266 79.8608 572.266 85.6629 572.266 91.6409C556.859 91.8449 541.454 92.0009 526.046 92.0964C518.891 92.1422 511.738 92.2043 504.583 92.3041C497.675 92.3998 490.767 92.4522 483.858 92.475C481.226 92.4912 478.595 92.5228 475.963 92.5704C452.746 92.9733 452.746 92.9733 445.842 87.4115C437.54 77.1356 439.869 63.6983 439.783 51.0055C439.754 47.8488 439.706 44.6923 439.639 41.5362C439.542 36.9804 439.504 32.4274 439.478 27.8708C439.438 26.4658 439.399 25.0608 439.357 23.6131C439.386 15.9957 439.69 13.377 444.742 7.27562C446.21 6.10542 447.677 4.93521 449.19 3.72955C450.948 1.97132 450.948 1.97132 455.765 1.75989Z" fill="#D58A55"/>
<path d="M22.9271 1.77161C24.1108 1.77135 25.2946 1.7711 26.5143 1.77083C30.4339 1.77206 34.3533 1.78575 38.2729 1.79951C40.9879 1.80279 43.7028 1.80529 46.4177 1.80705C53.5689 1.81377 60.7199 1.83105 67.871 1.85049C75.166 1.86846 82.461 1.8765 89.756 1.88536C104.074 1.90423 118.391 1.93424 132.709 1.97121C132.709 7.77336 132.709 13.5755 132.709 19.5535C97.3158 20.1337 61.9227 20.7139 25.4571 21.3117C24.8769 26.5336 24.2967 31.7556 23.6989 37.1358C56.7711 37.1358 89.8434 37.1358 123.918 37.1358C123.918 42.9379 123.918 48.7401 123.918 54.718C90.8455 54.718 57.7733 54.718 23.6989 54.718C24.2791 59.3597 24.8593 64.0015 25.4571 68.7838C31.4387 72.7716 33.6605 72.7694 40.6918 72.8609C42.733 72.8958 44.7743 72.9308 46.8774 72.9668C49.0808 72.9871 51.2842 73.0074 53.5544 73.0283C55.8104 73.0624 58.0664 73.0964 60.3908 73.1315C66.3826 73.2217 72.3745 73.2914 78.3667 73.3568C84.4836 73.4272 90.6001 73.517 96.7168 73.6052C108.714 73.7754 120.711 73.9238 132.709 74.0585C132.709 79.8607 132.709 85.6628 132.709 91.6408C117.043 91.8039 101.377 91.9288 85.7108 92.0052C78.4359 92.0419 71.1616 92.0916 63.887 92.1714C56.8644 92.2479 49.8424 92.2898 42.8195 92.3081C40.1423 92.321 37.4652 92.3464 34.7883 92.3844C31.0335 92.4356 27.281 92.4425 23.5259 92.4392C21.3902 92.4548 19.2545 92.4704 17.0541 92.4865C10.2958 91.4772 7.4221 89.3517 2.60013 84.6079C-0.289318 78.829 0.47971 72.4123 0.42295 66.0572C0.408758 64.561 0.394566 63.0649 0.379944 61.5233C0.355607 58.3531 0.336756 55.1828 0.322934 52.0124C0.292689 47.1728 0.215533 42.3354 0.137925 37.4963C0.120118 34.416 0.105145 31.3357 0.0932824 28.2553C0.0624992 26.8118 0.031716 25.3683 0 23.8811C0.0267174 16.8129 0.304707 13.3672 4.18537 7.25148C10.4276 1.2925 14.4373 1.75617 22.9271 1.77161Z" fill="#D58A55"/>
<path d="M582.815 1.9712C612.669 1.47756 612.669 1.47756 625.425 1.37025C634.119 1.29676 642.811 1.20996 651.504 1.04273C658.516 0.908693 665.525 0.835345 672.538 0.803494C675.209 0.780806 677.879 0.736498 680.55 0.669922C701.007 0.180297 701.007 0.180297 708.133 4.26356C714.142 10.4416 715.918 16.8492 716.103 25.3212C716.076 26.6476 716.049 27.9739 716.021 29.3405C716.027 30.742 716.033 32.1435 716.039 33.5875C716.039 36.5325 716.012 39.4775 715.961 42.422C715.891 46.9117 715.924 51.3923 715.97 55.8822C715.956 58.7565 715.937 61.6308 715.911 64.505C715.93 66.4999 715.93 66.4999 715.949 68.5351C715.685 78.4886 712.995 82.9047 705.891 89.8826C700.87 92.393 696.612 91.8507 691 91.8404C689.25 91.8408 689.25 91.8408 687.465 91.8412C683.602 91.8399 679.74 91.8262 675.877 91.8125C673.202 91.8092 670.526 91.8067 667.851 91.8049C660.804 91.7982 653.757 91.7809 646.71 91.7615C638.257 91.7404 629.805 91.7323 621.352 91.722C608.506 91.705 595.661 91.6713 582.815 91.6408C582.815 62.0498 582.815 32.4589 582.815 1.9712ZM605.672 19.5535C606.252 37.5401 606.832 55.5268 607.43 74.0585C618.351 74.1392 629.272 74.2092 640.193 74.2517C643.909 74.2694 647.625 74.2934 651.342 74.3238C656.679 74.3664 662.016 74.3864 667.354 74.4019C669.019 74.4201 670.684 74.4382 672.399 74.4569C674.722 74.4573 674.722 74.4573 677.092 74.4577C679.136 74.4694 679.136 74.4694 681.221 74.4814C685.343 74.2667 685.343 74.2667 690.067 70.5421C690.888 65.659 690.888 65.659 690.767 59.9377C690.774 57.8231 690.781 55.7085 690.788 53.5298C690.768 51.311 690.747 49.0921 690.726 46.806C690.747 44.5871 690.767 42.3683 690.788 40.0821C690.778 36.9102 690.778 36.9102 690.767 33.6742C690.761 31.7262 690.755 29.7782 690.749 27.7711C690.524 26.2197 690.299 24.6683 690.067 23.0699C684.516 19.3691 683.256 19.1188 676.93 19.1543C675.347 19.1545 673.763 19.1548 672.131 19.1551C670.428 19.1732 668.725 19.1914 666.97 19.2101C665.221 19.215 663.472 19.22 661.67 19.2251C656.081 19.2448 650.492 19.289 644.902 19.3337C641.115 19.3513 637.327 19.3674 633.539 19.3818C624.25 19.4176 614.961 19.4864 605.672 19.5535Z" fill="#D58A55"/>
<path d="M141.5 1.97123C172.59 -1.31014 172.59 -1.31014 185.262 8.35768C189.238 11.7779 193.103 15.2904 196.894 18.9139C202.476 24.0085 208.995 27.8138 215.346 31.8611C220.145 28.1998 224.943 24.5362 229.741 20.8722C231.093 19.8409 232.445 18.8097 233.838 17.7472C235.158 16.7386 236.478 15.73 237.839 14.6909C239.138 13.7124 240.437 12.7338 241.775 11.7256C245.502 8.8991 245.502 8.8991 249.521 4.77341C256.513 0.424518 263.234 1.21969 271.279 1.53168C272.833 1.56341 274.386 1.59514 275.987 1.62783C279.803 1.71034 283.618 1.83647 287.433 1.97123C279.989 9.86288 271.744 16.3651 263.147 22.9601C261.795 24.006 260.443 25.052 259.051 26.1297C250.402 32.8078 241.687 39.3946 232.928 45.9269C238.698 51.916 244.565 57.072 251.279 61.9707C259.753 68.2392 268.139 74.6006 276.444 81.0914C278.081 82.36 278.081 82.36 279.751 83.6541C282.345 85.6878 284.894 87.7795 287.433 89.8826C287.433 90.4628 287.433 91.043 287.433 91.6408C258.285 95.3477 258.285 95.3477 245.977 86.7988C239.994 82.0414 234.503 76.8155 229.01 71.507C224.272 67.3645 219.163 64.6391 213.587 61.7509C211.147 63.6258 208.706 65.5014 206.269 67.3802C204.169 68.9903 202.06 70.5898 199.945 72.1793C195.3 75.6895 190.967 79.0943 186.864 83.2411C178.978 91.0311 172.688 92.2847 161.896 92.4675C155.077 92.3838 148.306 92.077 141.5 91.6408C147.878 85.0128 154.558 79.2405 161.83 73.619C162.892 72.791 163.954 71.963 165.048 71.11C175.268 63.1694 185.611 55.3953 196.005 47.6851C188.855 40.1131 181.026 33.9299 172.709 27.6853C170.046 25.6664 167.383 23.6472 164.721 21.6277C162.812 20.1853 162.812 20.1853 160.865 18.7139C156.412 15.3476 151.97 11.967 147.544 8.56458C146.345 7.64893 145.146 6.73328 143.911 5.78988C143.115 5.10994 142.32 4.43 141.5 3.72946C141.5 3.14924 141.5 2.56903 141.5 1.97123Z" fill="#D58A55"/>
<path d="M1038.2 10.7624C1038.2 15.9843 1038.2 21.2063 1038.2 26.5864C1035.29 26.5864 1032.39 26.5864 1029.4 26.5864C1029.4 30.0677 1029.4 33.549 1029.4 37.1358C1018.96 37.1358 1008.52 37.1358 997.757 37.1358C997.757 38.2962 997.757 39.4567 997.757 40.6523C1011.1 40.6523 1024.45 40.6523 1038.2 40.6523C1038.2 44.7138 1038.2 48.7753 1038.2 52.9599C1024.85 52.9599 1011.51 52.9599 997.757 52.9599C997.793 56.695 997.829 60.4301 997.866 64.2784C997.904 68.1246 997.884 71.9726 997.757 75.8168C995.998 77.575 995.998 77.575 990.827 77.7467C984.932 77.6895 979.036 77.6323 973.141 77.575C973.141 69.452 973.141 61.329 973.141 52.9599C959.216 52.9599 945.291 52.9599 930.944 52.9599C930.944 48.8983 930.944 44.8368 930.944 40.6523C944.869 40.6523 958.794 40.6523 973.141 40.6523C973.141 39.4918 973.141 38.3314 973.141 37.1358C962.117 37.1358 951.093 37.1358 939.735 37.1358C939.735 33.6545 939.735 30.1732 939.735 26.5864C936.834 26.5864 933.933 26.5864 930.944 26.5864C930.944 21.3645 930.944 16.1426 930.944 10.7624C970.154 1.67758 999.068 1.25599 1038.2 10.7624ZM973.725 17.5755C971.371 18.0515 971.371 18.0515 968.969 18.5371C967.336 18.8725 965.703 19.2079 964.021 19.5535C962.367 19.889 960.714 20.2244 959.01 20.57C954.929 21.3988 950.848 22.2323 946.768 23.07C946.768 23.6502 946.768 24.2304 946.768 24.8282C971.717 24.8282 996.666 24.8282 1022.37 24.8282C1022.37 24.248 1022.37 23.6678 1022.37 23.07C1016.62 21.8895 1010.87 20.7205 1005.12 19.5535C1003.49 19.2181 1001.85 18.8827 1000.17 18.5371C998.601 18.2198 997.032 17.9025 995.415 17.5755C993.969 17.2809 992.523 16.9863 991.034 16.6827C984.894 15.6468 979.754 16.3468 973.725 17.5755Z" fill="#D58A55"/>
<path d="M906.329 24.8281C913.872 24.8281 921.414 24.8281 929.186 24.8281C929.766 41.6544 930.346 58.4806 930.944 75.8167C935.593 78.1413 939.176 77.8584 944.382 77.9359C947.497 77.9885 947.497 77.9885 950.675 78.0422C954.051 78.0863 954.051 78.0863 957.496 78.1313C959.794 78.1678 962.091 78.2043 964.458 78.242C970.569 78.3391 976.679 78.4259 982.79 78.5107C989.024 78.599 995.259 78.6969 1001.49 78.794C1013.73 78.9832 1025.96 79.1615 1038.2 79.3332C1038.2 83.3947 1038.2 87.4562 1038.2 91.6408C1022.53 91.8446 1006.86 92.0007 991.198 92.0962C983.923 92.1421 976.648 92.2043 969.374 92.304C962.351 92.3996 955.33 92.4521 948.306 92.4748C945.629 92.4911 942.952 92.5227 940.275 92.5702C936.52 92.6342 932.768 92.6428 929.013 92.6388C926.877 92.6583 924.741 92.6778 922.541 92.6979C915.239 91.3348 912.678 88.5626 908.087 82.8496C906.049 76.7348 906.13 71.9697 906.157 65.5215C906.16 64.3582 906.162 63.1949 906.165 61.9963C906.174 58.2881 906.197 54.58 906.219 50.8719C906.228 48.3547 906.236 45.8376 906.243 43.3204C906.261 37.1562 906.295 30.9924 906.329 24.8281Z" fill="#D58A55"/>
<path d="M906.329 1.97119C913.871 1.97119 921.414 1.97119 929.186 1.97119C929.186 8.93377 929.186 15.8963 929.186 23.0699C921.643 23.0699 914.1 23.0699 906.329 23.0699C906.329 16.1073 906.329 9.14476 906.329 1.97119Z" fill="#D58A55"/>
<path d="M943.251 56.4763C950.214 56.4763 957.177 56.4763 964.35 56.4763C961.054 75.597 961.054 75.597 959.076 77.575C956.111 77.7017 953.141 77.7225 950.175 77.6849C948.559 77.6691 946.943 77.6532 945.278 77.6369C944.029 77.6165 942.78 77.5961 941.493 77.575C938.898 69.7901 941.301 64.3911 943.251 56.4763Z" fill="#D58A55"/>
<path d="M1006.55 56.4763C1012.93 56.4763 1019.31 56.4763 1025.89 56.4763C1028.18 63.7896 1029.62 69.9274 1029.4 77.575C1026.55 77.6699 1023.69 77.7382 1020.83 77.7948C1019.24 77.8356 1017.65 77.8764 1016.01 77.9184C1011.82 77.575 1011.82 77.575 1008.31 74.0586C1007.29 68.2174 1007 62.3965 1006.55 56.4763Z" fill="#D58A55"/>
</svg>
