<?xml version="1.0" encoding="UTF-8"?>
<svg version="1.1" xmlns="http://www.w3.org/2000/svg" width="640" height="480">
<path d="M0 0 C8.1278445 -0.13567861 16.25480551 -0.24569959 24.38347912 -0.31087303 C28.15818108 -0.34215688 31.93206671 -0.38457177 35.70629883 -0.45263672 C39.35032961 -0.51794061 42.99357649 -0.55372822 46.63814735 -0.56926346 C48.02689263 -0.58033059 49.41559605 -0.60194372 50.80400658 -0.63438034 C61.59495569 -0.87640379 61.59495569 -0.87640379 64.97517395 1.23202515 C67.32625051 3.85968829 68.63259749 6.56462136 68.48828125 10.0859375 C68.47579346 10.72063965 68.46330566 11.3553418 68.45043945 12.00927734 C68.38215942 13.18031006 68.38215942 13.18031006 68.3125 14.375 C68.209375 16.89125 68.10625 19.4075 68 22 C59.09 22 50.18 22 41 22 C41 23.65 41 25.3 41 27 C50.57 27 60.14 27 70 27 C71 32 71 32 70 34 C60.43 34 50.86 34 41 34 C42.04669665 35.27259032 42.04669665 35.27259032 44.39257812 35.09765625 C45.9462207 35.08025391 45.9462207 35.08025391 47.53125 35.0625 C48.65144531 35.05476563 49.77164063 35.04703125 50.92578125 35.0390625 C52.69501953 35.01972656 52.69501953 35.01972656 54.5 35 C56.82287137 34.97461343 59.14579528 34.95353881 61.46875 34.9375 C62.50451172 34.92589844 63.54027344 34.91429687 64.60742188 34.90234375 C67 35 67 35 68 36 C68.04092937 38.33297433 68.04241723 40.66705225 68 43 C69.98 43.495 69.98 43.495 72 44 C72 46.31 72 48.62 72 51 C46.92 51 21.84 51 -4 51 C-4 49.02 -4 47.04 -4 45 C-2.35 44.34 -0.7 43.68 1 43 C0.67 42.67 0.34 42.34 0 42 C-0.125 39 -0.125 39 0 36 C1 35 1 35 3.39257812 34.90234375 C4.9462207 34.91974609 4.9462207 34.91974609 6.53125 34.9375 C8.21154297 34.94910156 8.21154297 34.94910156 9.92578125 34.9609375 C12.30859375 34.98697917 14.69140625 35.01302083 17.07421875 35.0390625 C18.75451172 35.05066406 18.75451172 35.05066406 20.46875 35.0625 C22.02239258 35.07990234 22.02239258 35.07990234 23.60742188 35.09765625 C25.95330335 35.27259032 25.95330335 35.27259032 27 34 C25.73555054 34.00785522 25.73555054 34.00785522 24.44555664 34.01586914 C21.32772064 34.03287826 18.20990823 34.04543406 15.09204102 34.05493164 C13.74079614 34.05997057 12.38955674 34.06680177 11.03833008 34.07543945 C9.09979566 34.08752419 7.161222 34.09269828 5.22265625 34.09765625 C3.47094116 34.10551147 3.47094116 34.10551147 1.68383789 34.11352539 C-1 34 -1 34 -2 33 C-2.14193337 29.99668982 -2.04236378 27.00782866 -2 24 C2.29 24 6.58 24 11 24 C11 24.99 11 25.98 11 27 C16.28 27 21.56 27 27 27 C27 25.35 27 23.7 27 22 C18.09 22 9.18 22 0 22 C0 14.74 0 7.48 0 0 Z M14 6 C14.33 6.66 14.66 7.32 15 8 C26.22 8 37.44 8 49 8 C49.495 10.97 49.495 10.97 50 14 C38.12 14 26.24 14 14 14 C14 14.66 14 15.32 14 16 C27.2 16 40.4 16 54 16 C54 13.03 54 10.06 54 7 C52.8000901 5.57174014 52.8000901 5.57174014 49.30639648 5.88647461 C47.66128708 5.88663376 46.01617269 5.89233012 44.37109375 5.90234375 C43.50686295 5.9037587 42.64263214 5.90517365 41.75221252 5.90663147 C38.98060708 5.91224761 36.2090812 5.92480281 33.4375 5.9375 C31.5631522 5.94251292 29.68880315 5.94707619 27.81445312 5.95117188 C23.20960456 5.96222228 18.60481579 5.9794977 14 6 Z " fill="#D58A55" transform="translate(460,214)"/>
<path d="M0 0 C1.01037071 -0.00065712 1.01037071 -0.00065712 2.04115295 -0.00132751 C4.25983011 0.00075671 6.4777445 0.02406918 8.69628906 0.04760742 C10.23756497 0.05320471 11.77884623 0.05747418 13.32012939 0.06047058 C17.37102062 0.07190899 21.42158767 0.10136728 25.47235107 0.13458252 C29.60815038 0.16530519 33.74400221 0.1789806 37.87988281 0.1940918 C45.99070844 0.22623817 54.10127089 0.27742211 62.21191406 0.34057617 C62.21191406 3.64057617 62.21191406 6.94057617 62.21191406 10.34057617 C42.74191406 10.67057617 23.27191406 11.00057617 3.21191406 11.34057617 C2.22191406 14.31057617 1.23191406 17.28057617 0.21191406 20.34057617 C19.02191406 20.34057617 37.83191406 20.34057617 57.21191406 20.34057617 C57.21191406 23.64057617 57.21191406 26.94057617 57.21191406 30.34057617 C38.40191406 30.34057617 19.59191406 30.34057617 0.21191406 30.34057617 C0.87191406 33.31057617 1.53191406 36.28057617 2.21191406 39.34057617 C4.83369186 40.65146507 6.82716041 40.50141324 9.76318359 40.54589844 C11.50476242 40.57581627 11.50476242 40.57581627 13.28152466 40.6063385 C14.53988129 40.62305099 15.79823792 40.63976349 17.09472656 40.65698242 C18.37926727 40.67776352 19.66380798 40.69854462 20.98727417 40.71995544 C24.40340765 40.77516666 27.81960152 40.82458005 31.23583984 40.87280273 C34.72140887 40.92302474 38.20689015 40.97870714 41.69238281 41.03393555 C48.53215048 41.14150545 55.3719974 41.24295301 62.21191406 41.34057617 C62.21191406 44.64057617 62.21191406 47.94057617 62.21191406 51.34057617 C53.43220881 51.41013911 44.65259869 51.46341927 35.8726778 51.49601269 C31.79563462 51.51165727 27.71878024 51.53287325 23.6418457 51.56689453 C19.70610388 51.59953141 15.77054346 51.61743828 11.83467674 51.6252079 C10.33438449 51.63074367 8.83410197 51.64155379 7.3338871 51.65776634 C5.22961735 51.67959889 3.12609362 51.68254077 1.02172852 51.68115234 C-0.77363594 51.6911451 -0.77363594 51.6911451 -2.60527039 51.70133972 C-6.14111481 51.3005613 -7.98174322 50.49848015 -10.78808594 48.34057617 C-13.44976752 43.52177652 -14.17134608 39.58278484 -14.18652344 34.12182617 C-14.18939362 33.46025513 -14.19226379 32.79868408 -14.19522095 32.11706543 C-14.19724765 30.72883235 -14.19181607 29.3405698 -14.17919922 27.95239258 C-14.16312313 25.84545129 -14.17909317 23.74042761 -14.19824219 21.63354492 C-14.19625951 20.27546783 -14.19241531 18.91739193 -14.18652344 17.55932617 C-14.18313965 16.34180664 -14.17975586 15.12428711 -14.17626953 13.86987305 C-13.65730515 9.15154027 -12.53392808 5.08374419 -9.10452271 1.65959167 C-5.95139449 -0.13584909 -3.61979012 -0.01981637 0 0 Z " fill="#D58A55" transform="translate(206.7880859375,213.659423828125)"/>
<path d="M0 0 C1.22355698 0.00222061 2.44711395 0.00444122 3.70774841 0.00672913 C4.71746201 0.00651009 4.71746201 0.00651009 5.74757385 0.00628662 C7.98229649 0.00698573 10.21693674 0.01477799 12.4516449 0.02259827 C13.99721226 0.02446245 15.54278022 0.02588635 17.08834839 0.02688599 C21.16380941 0.03071112 25.23923502 0.04054135 29.31468201 0.05158997 C33.47035747 0.0618042 37.62603864 0.06638363 41.78172302 0.07142639 C49.94124452 0.08216363 58.10073718 0.09923998 66.26023865 0.12025452 C66.26023865 3.42025452 66.26023865 6.72025452 66.26023865 10.12025452 C65.15483482 10.13571571 65.15483482 10.13571571 64.02709961 10.15148926 C57.09602789 10.24930094 50.16503962 10.35179168 43.23411655 10.45959377 C39.67050896 10.51485479 36.10689322 10.5682797 32.54319763 10.61756897 C28.4500862 10.67425984 24.35713254 10.73882769 20.2641449 10.80384827 C18.33605736 10.82891701 18.33605736 10.82891701 16.36901855 10.85449219 C15.18786972 10.87443741 14.00672089 10.89438263 12.78977966 10.91493225 C11.22091759 10.93824867 11.22091759 10.93824867 9.62036133 10.96203613 C7.30383167 10.85725276 7.30383167 10.85725276 6.26023865 12.12025452 C5.93023865 14.76025452 5.60023865 17.40025452 5.26023865 20.12025452 C24.07023865 20.12025452 42.88023865 20.12025452 62.26023865 20.12025452 C62.26023865 23.42025452 62.26023865 26.72025452 62.26023865 30.12025452 C43.45023865 30.12025452 24.64023865 30.12025452 5.26023865 30.12025452 C5.59023865 33.09025452 5.92023865 36.06025452 6.26023865 39.12025452 C8.88201644 40.43114341 10.87548499 40.28109158 13.81150818 40.32557678 C15.55308701 40.35549461 15.55308701 40.35549461 17.32984924 40.38601685 C18.58820587 40.40272934 19.8465625 40.41944183 21.14305115 40.43666077 C22.42759186 40.45744186 23.71213257 40.47822296 25.03559875 40.49963379 C28.45173224 40.55484501 31.8679261 40.6042584 35.28416443 40.65248108 C38.76973346 40.70270308 42.25521473 40.75838549 45.7407074 40.81361389 C52.58047506 40.92118379 59.42032199 41.02263135 66.26023865 41.12025452 C66.26023865 44.42025452 66.26023865 47.72025452 66.26023865 51.12025452 C57.49787585 51.23627014 48.73577873 51.32503075 39.97281456 51.37931538 C35.90346969 51.40537377 31.83465151 51.44070156 27.76560974 51.49745178 C23.83631361 51.55190802 19.90752303 51.58170332 15.97787857 51.59464073 C14.48115203 51.60385642 12.98445217 51.62185315 11.48794174 51.6489048 C-1.71701546 51.87804081 -1.71701546 51.87804081 -5.64356995 48.71473694 C-10.36551636 42.87032457 -9.04105004 35.22779312 -9.08985901 28.00868225 C-9.10641227 26.21330294 -9.13369425 24.41798935 -9.17189026 22.62294006 C-9.22673058 20.03185411 -9.24854284 17.44231184 -9.26319885 14.85072327 C-9.28586823 14.05160019 -9.3085376 13.25247711 -9.33189392 12.42913818 C-9.31551668 8.09666393 -9.14303446 6.60726718 -6.26954651 3.13710022 C-5.43471741 2.47154114 -4.59988831 1.80598206 -3.73976135 1.12025452 C-2.73976135 0.12025452 -2.73976135 0.12025452 0 0 Z " fill="#D58A55" transform="translate(283.73976135253906,213.87974548339844)"/>
<path d="M0 0 C0.67328842 -0.00014603 1.34657684 -0.00029205 2.04026794 -0.0004425 C4.26955366 0.00025512 6.4987562 0.0080405 8.72802734 0.01586914 C10.27216547 0.01773385 11.81630419 0.01915751 13.36044312 0.02015686 C17.42766957 0.02397785 21.49486039 0.03380457 25.56207275 0.04486084 C29.71113605 0.05508395 33.86020509 0.05965641 38.00927734 0.06469727 C46.15252287 0.0754272 54.29573943 0.09249862 62.43896484 0.11352539 C62.43896484 3.41352539 62.43896484 6.71352539 62.43896484 10.11352539 C42.30896484 10.44352539 22.17896484 10.77352539 1.43896484 11.11352539 C1.10896484 14.08352539 0.77896484 17.05352539 0.43896484 20.11352539 C19.24896484 20.11352539 38.05896484 20.11352539 57.43896484 20.11352539 C57.43896484 23.41352539 57.43896484 26.71352539 57.43896484 30.11352539 C38.62896484 30.11352539 19.81896484 30.11352539 0.43896484 30.11352539 C0.76896484 32.75352539 1.09896484 35.39352539 1.43896484 38.11352539 C4.84101586 40.3815594 6.10472271 40.38032484 10.10375977 40.43237305 C11.26473679 40.45224274 12.42571381 40.47211243 13.62187195 40.49258423 C14.87506729 40.50413544 16.12826263 40.51568665 17.41943359 40.52758789 C18.70255936 40.54695404 19.98568512 40.56632019 21.30769348 40.58627319 C24.71557434 40.63759831 28.1234947 40.67722171 31.53155518 40.7144165 C35.01055678 40.75445396 38.48939403 40.80554743 41.96826172 40.85571289 C48.79170934 40.95247646 55.61526242 41.03687978 62.43896484 41.11352539 C62.43896484 44.41352539 62.43896484 47.71352539 62.43896484 51.11352539 C53.52890598 51.20627114 44.61901369 51.27731326 35.70857716 51.32077408 C31.57092532 51.34163487 27.43360413 51.36992437 23.29614258 51.4152832 C19.30203191 51.45879567 15.30823895 51.48267385 11.31390953 51.49303436 C9.79126675 51.50041612 8.26864106 51.51483125 6.7461338 51.53644562 C4.61056796 51.56555317 2.47630898 51.56947859 0.34057617 51.56762695 C-0.87409836 51.5765094 -2.08877289 51.58539185 -3.34025574 51.59454346 C-7.18409653 51.02047221 -8.81851431 49.81160965 -11.56103516 47.11352539 C-13.20442206 43.82675159 -12.76703369 40.17724245 -12.79931641 36.56274414 C-12.80738815 35.71178665 -12.8154599 34.86082916 -12.82377625 33.98408508 C-12.8376181 32.1809798 -12.8483398 30.3778483 -12.85620117 28.57470703 C-12.87340305 25.82216472 -12.91728565 23.07082701 -12.96142578 20.31860352 C-12.97155379 18.56665922 -12.98006955 16.81470472 -12.98681641 15.06274414 C-13.00432449 14.24174728 -13.02183258 13.42075043 -13.03987122 12.57487488 C-13.02467559 8.55478087 -12.86656766 6.59502641 -10.65942383 3.11669922 C-7.10913143 -0.27249789 -4.82860817 -0.00877929 0 0 Z " fill="#D58A55" transform="translate(37.56103515625,213.886474609375)"/>
<path d="M0 0 C16.97939595 -0.28076167 16.97939595 -0.28076167 24.234375 -0.34179688 C29.1792478 -0.38359503 34.1232107 -0.43296063 39.06738281 -0.52807617 C43.05508233 -0.60430839 47.04180598 -0.64602509 51.03017807 -0.6641407 C52.54930864 -0.67704463 54.06838757 -0.70224511 55.58710098 -0.7401104 C67.22233405 -1.0185867 67.22233405 -1.0185867 71.27540588 1.30378723 C74.69311764 4.81755534 75.70318516 8.46192806 75.80802917 13.28041077 C75.79274673 14.03478928 75.77746429 14.78916779 75.76171875 15.56640625 C75.76508743 16.36352524 75.76845612 17.16064423 75.77192688 17.98191833 C75.77162954 19.65687554 75.75652268 21.3318896 75.72729492 23.0065918 C75.68753692 25.56012893 75.70663264 28.10848374 75.73242188 30.66210938 C75.72486339 32.29689499 75.71391053 33.93166918 75.69921875 35.56640625 C75.7096949 36.70101036 75.7096949 36.70101036 75.72038269 37.85853577 C75.57060874 43.51964167 74.04055007 46.03129552 70 50 C67.14429301 51.4278535 64.72285644 51.11941486 61.53076172 51.11352539 C60.53545944 51.11374443 60.53545944 51.11374443 59.52005005 51.1139679 C57.32322947 51.11327031 55.1264933 51.10548514 52.9296875 51.09765625 C51.40796963 51.09579152 49.88625116 51.09436788 48.36453247 51.09336853 C44.35648953 51.08954767 40.34848274 51.07972104 36.3404541 51.06866455 C31.53302253 51.05664419 26.72557889 51.05204614 21.9181366 51.04621124 C14.61206591 51.03650907 7.30607457 51.01734952 0 51 C0 34.17 0 17.34 0 0 Z M13 10 C13.33 20.23 13.66 30.46 14 41 C20.21152843 41.04587916 26.42247042 41.08571445 32.6340332 41.10986328 C34.74766022 41.11992894 36.8612733 41.13358257 38.97485352 41.15087891 C42.01061442 41.1751023 45.04619143 41.18647738 48.08203125 41.1953125 C49.02899368 41.20563507 49.97595612 41.21595764 50.95161438 41.22659302 C52.27264412 41.22681961 52.27264412 41.22681961 53.62036133 41.22705078 C54.78285149 41.23371262 54.78285149 41.23371262 55.96882629 41.24050903 C58.31311545 41.11843265 58.31311545 41.11843265 61 39 C61.4672037 36.22271215 61.4672037 36.22271215 61.3984375 32.96875 C61.40230469 31.76605469 61.40617187 30.56335938 61.41015625 29.32421875 C61.39855469 28.06222656 61.38695312 26.80023438 61.375 25.5 C61.38660156 24.23800781 61.39820313 22.97601563 61.41015625 21.67578125 C61.40435547 19.87173828 61.40435547 19.87173828 61.3984375 18.03125 C61.39505371 16.92330078 61.39166992 15.81535156 61.38818359 14.67382812 C61.26008301 13.79146484 61.13198242 12.90910156 61 12 C57.84274381 9.89516254 57.12625389 9.7527941 53.52856445 9.77294922 C52.62785721 9.77310028 51.72714996 9.77325134 50.79914856 9.77340698 C49.83031235 9.78372955 48.86147614 9.79405212 47.86328125 9.8046875 C46.86870407 9.8075174 45.87412689 9.81034729 44.84941101 9.81326294 C41.6703187 9.82446511 38.49150728 9.84956986 35.3125 9.875 C33.15820719 9.88502975 31.00390997 9.89415561 28.84960938 9.90234375 C23.56621075 9.92270367 18.28342011 9.96185256 13 10 Z " fill="#D58A55" transform="translate(356,214)"/>
<path d="M0 0 C17.68269826 -1.86629758 17.68269826 -1.86629758 24.88964844 3.63232422 C27.15114843 5.57757056 29.34933436 7.57532496 31.50585938 9.63623047 C34.68042796 12.53380238 38.3881303 14.69809897 42 17 C44.72988284 14.91760379 47.45877634 12.83391488 50.1875 10.75 C50.95642578 10.16347656 51.72535156 9.57695312 52.51757812 8.97265625 C53.26845703 8.39902344 54.01933594 7.82539063 54.79296875 7.234375 C55.53184326 6.67782227 56.27071777 6.12126953 57.03198242 5.54785156 C59.15172908 3.94025983 59.15172908 3.94025983 61.4375 1.59375 C65.41442152 -0.87970119 69.2365361 -0.4274423 73.8125 -0.25 C74.69615234 -0.23195312 75.57980469 -0.21390625 76.49023438 -0.1953125 C78.66062543 -0.14838513 80.83045519 -0.07664731 83 0 C78.76613005 4.48841123 74.07699497 8.18659924 69.1875 11.9375 C68.41857422 12.53240234 67.64964844 13.12730469 66.85742188 13.74023438 C61.93842787 17.53844493 56.98185401 21.2847046 52 25 C55.28173068 28.40635336 58.61844862 31.33884047 62.4375 34.125 C67.25713237 37.69020751 72.0264205 41.30832608 76.75 45 C77.68090454 45.72147217 77.68090454 45.72147217 78.63061523 46.45751953 C80.10634388 47.61417735 81.55608814 48.80386 83 50 C83 50.33 83 50.66 83 51 C66.42196514 53.10829356 66.42196514 53.10829356 59.421875 48.24609375 C56.01872526 45.54027891 52.8956488 42.56803741 49.77148438 39.54882812 C47.07671207 37.19275928 44.17141924 35.64263253 41 34 C39.61180436 35.06635739 38.22391026 36.13310926 36.83740234 37.20166016 C35.6430217 38.11740674 34.44401668 39.02714989 33.24072266 39.93115234 C30.59884226 41.92760147 28.13443202 43.86413531 25.80078125 46.22265625 C21.3156124 50.65323887 17.73843839 51.36621391 11.60009766 51.47021484 C7.72182523 51.42256323 3.87081968 51.24807898 0 51 C3.62731551 47.23030388 7.42658883 43.94729327 11.5625 40.75 C12.16658691 40.27908936 12.77067383 39.80817871 13.39306641 39.32299805 C19.20560481 34.80677569 25.088138 30.38517236 31 26 C26.93351545 21.69336873 22.48081114 18.1766194 17.75 14.625 C16.23555402 13.47672479 14.72123007 12.32828861 13.20703125 11.1796875 C12.12156006 10.35936035 12.12156006 10.35936035 11.01416016 9.52246094 C8.48120048 7.60785044 5.95480417 5.68515249 3.4375 3.75 C2.75558594 3.22921875 2.07367188 2.7084375 1.37109375 2.171875 C0.91863281 1.78515625 0.46617188 1.3984375 0 1 C0 0.67 0 0.34 0 0 Z " fill="#D58A55" transform="translate(105,214)"/>
<path d="M0 0 C0 2.97 0 5.94 0 9 C-1.65 9 -3.3 9 -5 9 C-5 10.98 -5 12.96 -5 15 C-10.94 15 -16.88 15 -23 15 C-23 15.66 -23 16.32 -23 17 C-15.41 17 -7.82 17 0 17 C0 19.31 0 21.62 0 24 C-7.59 24 -15.18 24 -23 24 C-22.979375 26.124375 -22.95875 28.24875 -22.9375 30.4375 C-22.91626217 32.62499611 -22.92741054 34.81360547 -23 37 C-24 38 -24 38 -26.94140625 38.09765625 C-30.29427083 38.06510417 -33.64713542 38.03255208 -37 38 C-37 33.38 -37 28.76 -37 24 C-44.92 24 -52.84 24 -61 24 C-61 21.69 -61 19.38 -61 17 C-53.08 17 -45.16 17 -37 17 C-37 16.34 -37 15.68 -37 15 C-43.27 15 -49.54 15 -56 15 C-56 13.02 -56 11.04 -56 9 C-57.65 9 -59.3 9 -61 9 C-61 6.03 -61 3.06 -61 0 C-38.69929835 -5.16703464 -22.25423119 -5.40681761 0 0 Z M-36.66796875 3.875 C-38.00698242 4.14570313 -38.00698242 4.14570313 -39.37304688 4.421875 C-40.30181641 4.61265625 -41.23058594 4.8034375 -42.1875 5 C-43.12787109 5.19078125 -44.06824219 5.3815625 -45.03710938 5.578125 C-47.35861252 6.0494962 -49.67953436 6.52355217 -52 7 C-52 7.33 -52 7.66 -52 8 C-37.81 8 -23.62 8 -9 8 C-9 7.67 -9 7.34 -9 7 C-12.26988299 6.32861379 -15.54105049 5.66370737 -18.8125 5 C-19.74126953 4.80921875 -20.67003906 4.6184375 -21.62695312 4.421875 C-22.51962891 4.24140625 -23.41230469 4.0609375 -24.33203125 3.875 C-25.15421143 3.70742187 -25.9763916 3.53984375 -26.82348633 3.3671875 C-30.3158182 2.77801564 -33.23930206 3.17616348 -36.66796875 3.875 Z " fill="#D58A55" transform="translate(615,219)"/>
<path d="M0 0 C4.29 0 8.58 0 13 0 C13.33 9.57 13.66 19.14 14 29 C16.64420117 30.32210059 18.68199615 30.16122122 21.64306641 30.20532227 C23.41467636 30.2352401 23.41467636 30.2352401 25.22207642 30.26576233 C27.14242203 30.29083107 27.14242203 30.29083107 29.1015625 30.31640625 C30.40829926 30.33718735 31.71503601 30.35796844 33.06137085 30.37937927 C36.536689 30.43459294 40.01206653 30.48400525 43.48748779 30.53222656 C47.033379 30.58244677 50.5791839 30.63813012 54.125 30.69335938 C61.0832585 30.80093228 68.04159496 30.90237917 75 31 C75 33.31 75 35.62 75 38 C66.08998073 38.11593167 57.18022169 38.20473378 48.26961231 38.25906086 C44.13186282 38.28513747 39.99462992 38.32049885 35.85717773 38.37719727 C31.86304854 38.4315881 27.86941569 38.46143511 23.87494469 38.47438622 C22.3522733 38.48361359 20.82962861 38.50163316 19.30716896 38.52865028 C17.17138957 38.56503836 15.03765161 38.56994183 12.90161133 38.56762695 C11.6869368 38.57873001 10.47226227 38.58983307 9.22077942 38.60127258 C5.06787764 37.82598634 3.61109703 36.24927505 1 33 C-0.15927528 29.52217417 -0.11313066 26.81196743 -0.09765625 23.14453125 C-0.0962413 22.48289474 -0.09482635 21.82125824 -0.09336853 21.13957214 C-0.08777996 19.03050172 -0.07522965 16.92153823 -0.0625 14.8125 C-0.05748352 13.38086091 -0.05292087 11.94922015 -0.04882812 10.51757812 C-0.038666 7.01164461 -0.01908861 3.50594173 0 0 Z " fill="#D58A55" transform="translate(540,227)"/>
<path d="M0 0 C4.29 0 8.58 0 13 0 C13 3.96 13 7.92 13 12 C8.71 12 4.42 12 0 12 C0 8.04 0 4.08 0 0 Z " fill="#D58A55" transform="translate(540,214)"/>
<path d="M0 0 C3.96 0 7.92 0 12 0 C10.125 10.875 10.125 10.875 9 12 C7.31391034 12.07205511 5.62499341 12.08386068 3.9375 12.0625 C3.01839844 12.05347656 2.09929688 12.04445313 1.15234375 12.03515625 C0.44207031 12.02355469 -0.26820313 12.01195312 -1 12 C-2.47591551 7.57225348 -1.10908015 4.50156059 0 0 Z " fill="#D58A55" transform="translate(561,245)"/>
<path d="M0 0 C3.63 0 7.26 0 11 0 C12.30492469 4.15944744 13.12019705 7.65036909 13 12 C11.37536158 12.05395478 9.75021459 12.09277195 8.125 12.125 C7.22007812 12.14820313 6.31515625 12.17140625 5.3828125 12.1953125 C3 12 3 12 1 10 C0.42269825 6.67779179 0.25900988 3.36712849 0 0 Z " fill="#D58A55" transform="translate(597,245)"/>
</svg>
