<svg width="552" height="120" viewBox="0 0 552 120" fill="none" xmlns="http://www.w3.org/2000/svg">
<path fill-rule="evenodd" clip-rule="evenodd" d="M0 118.399V106.881H6.39905C9.59709 106.881 15.9991 106.241 15.9991 98.5612V29.4492C15.9991 25.2894 15.6775 15.3707 7.67945 15.3707H0.321575L8.64122 0.652008H500.884V15.3707H47.9973C43.8375 15.3707 38.3972 16.3295 38.3972 24.6492V46.4071C39.359 48.965 43.1972 49.9238 45.1178 49.9238C47.0384 49.9238 53.7561 49.6052 53.7561 39.0463H63.3562V74.5641H53.7561C53.7561 71.3631 50.2217 66.0025 45.4394 65.6042C41.5982 65.2856 38.3972 66.5631 38.3972 71.6847V98.5612C38.3972 101.444 41.9168 106.881 50.2365 106.881H55.9983V118.399H0Z" fill="black"/>
<path fill-rule="evenodd" clip-rule="evenodd" d="M284.072 32.007C284.072 34.5678 287.27 37.1257 289.187 37.7659C291.43 36.1669 303.269 29.4492 312.547 29.4492C321.826 29.4492 326.623 34.2463 326.623 41.6071V76.8033H304.225V49.6081C304.225 46.0885 303.269 43.5277 300.065 43.2091C296.867 42.8904 288.547 49.6081 286.311 52.8091V101.444C286.311 105.925 290.789 109.123 294.63 109.123V118.404H255.596V108.804C259.434 108.804 263.594 107.524 263.916 101.765V47.6846C263.916 46.0855 261.355 41.6041 255.596 41.6041V32.007H284.072ZM551.949 32.007H512.918V41.6071C518.674 41.6071 521.232 46.0855 521.232 47.6875V101.762C520.916 107.521 516.753 108.801 512.918 108.801V118.402H551.949V109.12C548.111 109.12 543.63 105.922 543.63 101.441V48.3247C543.63 44.4865 547.79 41.6071 551.949 41.6071V32.007ZM197.68 32.007C197.68 34.5678 200.878 37.1257 202.799 37.7659C205.038 36.1669 216.877 29.4492 226.156 29.4492C235.434 29.4492 240.234 34.2463 240.234 41.6071V76.8033H217.839V49.6081C217.839 46.0885 216.877 43.5277 213.679 43.2091C210.478 42.8904 202.159 49.6081 199.919 52.8091V101.444C199.919 105.925 204.401 109.123 208.239 109.123V118.404H169.204V108.804C173.043 108.804 177.203 107.524 177.524 101.765V47.6846C177.524 46.0855 174.963 41.6041 169.204 41.6041V32.007H197.68ZM457.235 32.007C457.235 34.5678 460.439 37.1257 462.357 37.7659C464.599 36.1669 476.432 29.4492 485.717 29.4492C494.995 29.4492 499.792 34.2463 499.792 41.6071V76.8033H477.394V49.6081C477.394 46.0885 476.432 43.5277 473.234 43.2091C470.036 42.8904 461.717 49.6081 459.475 52.8091V101.444C459.475 105.925 463.953 109.123 467.794 109.123V118.404H428.757V108.804C432.601 108.804 436.761 107.524 437.076 101.765V47.6846C437.076 46.0855 434.519 41.6041 428.757 41.6041V32.007H457.235ZM152.309 91.522H129.91V100.163C129.91 103.68 129.27 111.044 118.711 111.044C108.152 111.044 104.954 104.001 104.954 98.8828V80.6445C104.954 79.0455 106.235 76.8033 108.474 76.8033H152.309V53.4463C152.309 42.8875 150.069 39.6865 145.588 35.208C141.109 30.7266 125.429 29.4492 118.39 29.4492C100.473 29.4492 94.7112 32.007 89.5926 36.1669C84.4739 40.3267 82.5533 48.9649 82.5533 55.364V91.5191C82.5533 101.116 84.4739 107.837 90.5514 113.917C96.6289 119.998 115.189 119.998 119.03 119.998C122.868 119.998 135.666 120.316 144.948 113.599C154.229 106.881 152.309 91.522 152.309 91.522ZM104.954 51.8473C104.954 46.7287 106.553 39.0492 117.752 39.0492C128.952 39.0492 129.91 47.3689 129.91 51.8473V63.365C129.91 65.2827 128.311 67.2033 126.072 67.2033H108.793C106.875 67.2033 104.954 65.6042 104.954 63.6866V51.8473ZM408.925 101.441V53.4463C408.925 46.0855 408.604 38.409 400.921 32.9688C393.245 27.5286 380.765 27.8502 375.965 27.8502C371.165 27.8502 355.169 27.8502 347.805 36.1698C340.448 44.4895 341.725 52.4875 341.725 55.6856H362.686C362.686 55.6856 364.12 44.8081 367.003 41.9286C369.9 39.0315 377.564 35.8482 383.483 40.9669C385.66 42.855 386.518 45.286 386.518 48.0061V61.763C386.518 63.0464 385.238 64.964 383.642 64.964C383.642 64.964 354.52 65.6042 349.404 69.4454C344.289 73.2837 339.804 75.8445 339.804 89.923C339.804 103.999 343.324 109.439 347.487 112.321C351.647 115.201 353.567 118.402 372.443 118.402H417.239V109.12C413.404 109.12 408.925 105.922 408.925 101.441ZM386.524 106.881C386.524 107.68 385.244 108.799 384.288 108.799H373.248C365.407 108.799 363.17 102.081 363.17 97.9181V85.5979C363.17 73.6023 375.647 73.9209 380.606 73.9209C385.565 73.9209 386.524 78.0778 386.524 80.7979V106.881ZM530.964 15.2114C542.167 15.2114 551.241 11.8068 551.241 7.6057C551.241 3.40752 542.167 0 530.964 0C519.762 0 510.682 3.40457 510.682 7.6057C510.682 11.8039 519.762 15.2114 530.964 15.2114Z" fill="black"/>
</svg>
