<?xml version="1.0" encoding="UTF-8"?>
<svg version="1.1" xmlns="http://www.w3.org/2000/svg" width="151" height="134">
<path d="M0 0 C6.37203593 -0.0505963 12.7440203 -0.08568957 19.11621094 -0.10986328 C21.28517594 -0.11993789 23.45412731 -0.13359798 25.62304688 -0.15087891 C28.73571126 -0.17506323 31.84819651 -0.18646832 34.9609375 -0.1953125 C35.934935 -0.20563507 36.9089325 -0.21595764 37.91244507 -0.22659302 C39.26361923 -0.22681961 39.26361923 -0.22681961 40.64208984 -0.22705078 C41.43706879 -0.231492 42.23204773 -0.23593323 43.05111694 -0.24050903 C45 0 45 0 47 2 C47.25396729 3.79652405 47.25396729 3.79652405 47.25878906 5.99633789 C47.26509338 6.82222916 47.27139771 7.64812042 47.27789307 8.4990387 C47.2738446 9.39783249 47.26979614 10.29662628 47.265625 11.22265625 C47.26849518 12.6228727 47.26849518 12.6228727 47.27142334 14.05137634 C47.27278775 16.03954333 47.26907354 18.02771914 47.26074219 20.01586914 C47.25022592 22.99842591 47.26053361 25.980355 47.2734375 28.96289062 C47.30154569 60.42269062 47.30154569 60.42269062 41.8125 71.5 C41.50860352 72.15234619 41.20470703 72.80469238 40.89160156 73.47680664 C38.32373117 78.78607002 35.29945535 83.90274675 31 88 C27.98322461 89.0055918 25.78488793 89.19805664 22.625 89.25 C21.68914062 89.27578125 20.75328125 89.3015625 19.7890625 89.328125 C16.43679669 88.93374079 14.6874632 88.02572603 12 86 C3.30737128 74.93665435 -0.77048558 62.01729504 -1.55078125 48.20703125 C-1.59262039 47.47523148 -1.63445953 46.7434317 -1.67756653 45.98945618 C-2.08350999 38.32231917 -2.18612616 30.66041713 -2.18530273 22.98364258 C-2.18754237 20.64322035 -2.2059564 18.30323339 -2.22460938 15.96289062 C-2.22753542 14.45833491 -2.22952548 12.95377701 -2.23046875 11.44921875 C-2.23765427 10.75761154 -2.24483978 10.06600433 -2.25224304 9.35343933 C-2.23454343 5.63962073 -1.77876331 3.22887115 0 0 Z " fill="#8D0307" transform="translate(54,8)"/>
<path d="M0 0 C4.875 0.875 4.875 0.875 6 2 C6.11407924 5.04927088 6.1642139 8.07490769 6.16796875 11.125 C6.17296135 12.52733887 6.17296135 12.52733887 6.17805481 13.95800781 C6.18313577 15.95214343 6.18546278 17.94628761 6.18530273 19.94042969 C6.18745102 22.93179388 6.20548534 25.9227656 6.22460938 28.9140625 C6.25156789 37.86317063 6.1382022 46.7267197 5.11328125 55.625 C4.99668404 56.6454541 4.99668404 56.6454541 4.87773132 57.68652344 C4.39358744 61.37286659 3.75431371 64.70208944 2 68 C1.01 68.33 0.02 68.66 -1 69 C-0.86722656 68.44054687 -0.73445313 67.88109375 -0.59765625 67.3046875 C1.03184813 59.90649974 1.58636442 52.55429188 2 45 C1.814375 46.77890625 1.814375 46.77890625 1.625 48.59375 C0.56743995 57.32247182 -0.93011076 65.11068306 -4.9375 73 C-5.44120117 73.99483398 -5.44120117 73.99483398 -5.95507812 75.00976562 C-7.82570905 78.46518639 -9.54856809 81.04010547 -13 83 C-13.66 83 -14.32 83 -15 83 C-15.45474079 51.64499075 -15.45474079 51.64499075 -6 39 C-3.61051803 35.41577704 -3.69766832 33.62767404 -3.5859375 29.36328125 C-3.54726562 28.06455078 -3.50859375 26.76582031 -3.46875 25.42773438 C-3.43729483 24.05599427 -3.40604749 22.68424939 -3.375 21.3125 C-3.33680803 19.92901215 -3.29775558 18.54554777 -3.2578125 17.16210938 C-3.16339483 13.7748755 -3.07781882 10.38764931 -3 7 C-8.55139483 6.39119102 -14.03329027 5.86084377 -19.625 5.875 C-20.64851563 5.87242188 -21.67203125 5.86984375 -22.7265625 5.8671875 C-26.53623582 6.02175658 -30.22284496 6.48381612 -34 7 C-34.0555036 11.0721909 -34.05700528 15.14078344 -34.01220703 19.21313477 C-34.00418358 20.59300811 -34.00995913 21.97304334 -34.03076172 23.3527832 C-34.16001721 32.71700323 -33.06067709 38.54159024 -26.91015625 45.75463867 C-23.09094713 50.24406432 -22.62149556 54.10906345 -22.375 59.875 C-22.33705322 60.61935303 -22.29910645 61.36370605 -22.26000977 62.13061523 C-21.93363582 69.0880788 -21.90066702 76.03565475 -22 83 C-24.23046875 82.9609375 -24.23046875 82.9609375 -27 82 C-28.69416154 79.52232571 -30.00638709 77.29175046 -31.3125 74.625 C-31.67150391 73.93921875 -32.03050781 73.2534375 -32.40039062 72.546875 C-33.9366445 69.5387436 -35 67.4203219 -35 64 C-35.66 64 -36.32 64 -37 64 C-39.45574309 51.39459043 -39.22952768 38.91090485 -39.125 26.125 C-39.11494688 23.97266043 -39.10582517 21.8203163 -39.09765625 19.66796875 C-39.07583507 14.44521137 -39.04254352 9.22262758 -39 4 C-34.62256076 3.16060529 -30.48191287 2.87139702 -26.02734375 2.8671875 C-24.71572266 2.86589844 -23.40410156 2.86460938 -22.05273438 2.86328125 C-21.37686279 2.86537598 -20.70099121 2.8674707 -20.00463867 2.86962891 C-17.939867 2.87499385 -15.87531195 2.8696608 -13.81054688 2.86328125 C-11.84504883 2.86521484 -11.84504883 2.86521484 -9.83984375 2.8671875 C-8.64738037 2.86831543 -7.45491699 2.86944336 -6.22631836 2.87060547 C-3.35659192 2.98569855 -0.78769165 3.33862516 2 4 C2 3.01 2 2.02 2 1 C1.34 0.67 0.68 0.34 0 0 Z " fill="#373026" transform="translate(95,8)"/>
<path d="M0 0 C5.80240568 -0.02467332 11.60478098 -0.04284724 17.40722656 -0.05493164 C19.38216687 -0.0599681 21.35710343 -0.06679751 23.33203125 -0.07543945 C26.16667605 -0.08753508 29.00127166 -0.0932351 31.8359375 -0.09765625 C32.72243988 -0.10281754 33.60894226 -0.10797882 34.52230835 -0.11329651 C40.77225659 -0.11387171 40.77225659 -0.11387171 43 1 C43 1.99 43 2.98 43 4 C29.47 4 15.94 4 2 4 C2.12075844 10.2948548 2.24378313 16.58958724 2.37231445 22.88427734 C2.4152668 25.01966854 2.45696405 27.1550854 2.49731445 29.29052734 C2.71732673 40.88870537 2.9653877 52.44027039 4 64 C4.66 64 5.32 64 6 64 C9 70 12 76 15 82 C16.98 82.33 18.96 82.66 21 83 C21 57.59 21 32.18 21 6 C22.32 6 23.64 6 25 6 C24.67 31.41 24.34 56.82 24 83 C30.72690108 80.11704239 32.41851462 79.07113925 35.25 73 C35.58717041 72.28344238 35.92434082 71.56688477 36.27172852 70.82861328 C44.89126071 51.32025194 42.7102599 27.8949037 43 7 C43.33 7 43.66 7 44 7 C44.04986361 13.0465376 44.08593682 19.09295247 44.10986328 25.13964844 C44.11984998 27.19175301 44.13344401 29.24384363 44.15087891 31.29589844 C44.24834012 43.07150567 44.07215154 54.16075218 41.37158203 65.68066406 C40.76596724 68.01783002 40.76596724 68.01783002 42 70 C39.36430269 76.61896919 36.0572963 82.9427037 31 88 C27.98322461 89.0055918 25.78488793 89.19805664 22.625 89.25 C21.68914062 89.27578125 20.75328125 89.3015625 19.7890625 89.328125 C16.43679669 88.93374079 14.6874632 88.02572603 12 86 C3.30737128 74.93665435 -0.77048558 62.01729504 -1.55078125 48.20703125 C-1.59262039 47.47523148 -1.63445953 46.7434317 -1.67756653 45.98945618 C-2.08350999 38.32231917 -2.18612616 30.66041713 -2.18530273 22.98364258 C-2.18754237 20.64322035 -2.2059564 18.30323339 -2.22460938 15.96289062 C-2.22753542 14.45833491 -2.22952548 12.95377701 -2.23046875 11.44921875 C-2.23765427 10.75761154 -2.24483978 10.06600433 -2.25224304 9.35343933 C-2.23497033 5.72919405 -1.98056464 3.08344037 0 0 Z " fill="#A4A4A4" transform="translate(54,8)"/>
<path d="M0 0 C4.875 0.875 4.875 0.875 6 2 C6.11407924 5.04927088 6.1642139 8.07490769 6.16796875 11.125 C6.17129715 12.05989258 6.17462555 12.99478516 6.17805481 13.95800781 C6.18313577 15.95214343 6.18546278 17.94628761 6.18530273 19.94042969 C6.18745102 22.93179388 6.20548534 25.9227656 6.22460938 28.9140625 C6.25156789 37.86317063 6.1382022 46.7267197 5.11328125 55.625 C4.99668404 56.6454541 4.99668404 56.6454541 4.87773132 57.68652344 C4.39358744 61.37286659 3.75431371 64.70208944 2 68 C0.515 68.495 0.515 68.495 -1 69 C-0.86722656 68.44054687 -0.73445313 67.88109375 -0.59765625 67.3046875 C1.03184813 59.90649974 1.58636442 52.55429188 2 45 C1.87625 46.1859375 1.7525 47.371875 1.625 48.59375 C0.56743995 57.32247182 -0.93011076 65.11068306 -4.9375 73 C-5.27330078 73.66322266 -5.60910156 74.32644531 -5.95507812 75.00976562 C-7.82570905 78.46518639 -9.54856809 81.04010547 -13 83 C-13.66 83 -14.32 83 -15 83 C-15.45474079 51.64499075 -15.45474079 51.64499075 -6 39 C-3.61051803 35.41577704 -3.69766832 33.62767404 -3.5859375 29.36328125 C-3.52792969 27.41518555 -3.52792969 27.41518555 -3.46875 25.42773438 C-3.43729483 24.05599427 -3.40604749 22.68424939 -3.375 21.3125 C-3.33680803 19.92901215 -3.29775558 18.54554777 -3.2578125 17.16210938 C-3.16339483 13.7748755 -3.07781882 10.38764931 -3 7 C-2.34 7.33 -1.68 7.66 -1 8 C-0.59270772 10.32156597 -0.25561323 12.6568787 0 15 C0.33 11.7 0.66 8.4 1 5 C-0.32 4.67 -1.64 4.34 -3 4 C-1.35 4 0.3 4 2 4 C2 3.01 2 2.02 2 1 C1.34 0.67 0.68 0.34 0 0 Z " fill="#481712" transform="translate(95,8)"/>
<path d="M0 0 C1.79244141 0.01740234 1.79244141 0.01740234 3.62109375 0.03515625 C5.41740234 0.04869141 5.41740234 0.04869141 7.25 0.0625 C8.17683594 0.07410156 9.10367188 0.08570313 10.05859375 0.09765625 C11.67029817 31.07337542 11.67029817 31.07337542 2.05859375 43.09765625 C-0.13148177 46.60167825 -0.32328628 49.74541667 -0.57421875 53.83203125 C-0.65800781 55.12753906 -0.74179688 56.42304687 -0.828125 57.7578125 C-0.9077392 59.12108284 -0.98716389 60.48436425 -1.06640625 61.84765625 C-1.15285407 63.22661236 -1.2400851 64.60551962 -1.328125 65.984375 C-1.54026648 69.35506734 -1.7443809 72.72605208 -1.94140625 76.09765625 C-2.60140625 76.09765625 -3.26140625 76.09765625 -3.94140625 76.09765625 C-3.96453071 66.33614637 -3.98232186 56.57464295 -3.99321842 46.81311131 C-3.99844703 42.28091531 -4.00554426 37.74873798 -4.0168457 33.21655273 C-4.02767539 28.84642795 -4.03368326 24.47632117 -4.03628349 20.10618401 C-4.0381376 18.43514662 -4.04175793 16.76411028 -4.04713631 15.09308052 C-4.05434784 12.76068074 -4.05539715 10.42835632 -4.05493164 8.09594727 C-4.05852692 7.39823715 -4.06212219 6.70052704 -4.06582642 5.98167419 C-4.05311713 0.13456564 -4.05311713 0.13456564 0 0 Z " fill="#A70715" transform="translate(81.94140625,14.90234375)"/>
<path d="M0 0 C1.32 0 2.64 0 4 0 C3.67 25.41 3.34 50.82 3 77 C9.72690108 74.11704239 11.41851462 73.07113925 14.25 67 C14.58717041 66.28344238 14.92434082 65.56688477 15.27172852 64.82861328 C23.89126071 45.32025194 21.7102599 21.8949037 22 1 C22.33 1 22.66 1 23 1 C23.04986361 7.0465376 23.08593682 13.09295247 23.10986328 19.13964844 C23.11984998 21.19175301 23.13344401 23.24384363 23.15087891 25.29589844 C23.24834012 37.07150567 23.07215154 48.16075218 20.37158203 59.68066406 C19.76596724 62.01783002 19.76596724 62.01783002 21 64 C18.36430269 70.61896919 15.0572963 76.9427037 10 82 C7.11788698 82.96070434 5.30149956 83.10581883 2.3125 83.0625 C1.50425781 83.05347656 0.69601563 83.04445313 -0.13671875 83.03515625 C-0.75160156 83.02355469 -1.36648437 83.01195313 -2 83 C-2.12375 82.38125 -2.2475 81.7625 -2.375 81.125 C-2.87197356 78.80879168 -2.87197356 78.80879168 -5 77 C-3.35 77 -1.7 77 0 77 C0 51.59 0 26.18 0 0 Z " fill="#B18866" transform="translate(75,14)"/>
<path d="M0 0 C1.40668945 0.00966797 1.40668945 0.00966797 2.84179688 0.01953125 C4.30649414 0.04466797 4.30649414 0.04466797 5.80078125 0.0703125 C6.78884766 0.07933594 7.77691406 0.08835937 8.79492188 0.09765625 C11.2346189 0.1212282 13.67382822 0.15413228 16.11328125 0.1953125 C16.11328125 1.5153125 16.11328125 2.8353125 16.11328125 4.1953125 C12.92503557 5.78943534 9.48431463 5.29705985 5.98828125 5.2578125 C5.23417969 5.25330078 4.48007813 5.24878906 3.703125 5.24414062 C1.83980998 5.23234749 -0.0234643 5.21441192 -1.88671875 5.1953125 C-1.88671875 7.5053125 -1.88671875 9.8153125 -1.88671875 12.1953125 C1.74328125 12.1953125 5.37328125 12.1953125 9.11328125 12.1953125 C9.11328125 11.5353125 9.11328125 10.8753125 9.11328125 10.1953125 C6.47328125 10.1953125 3.83328125 10.1953125 1.11328125 10.1953125 C1.11328125 8.8753125 1.11328125 7.5553125 1.11328125 6.1953125 C6.06328125 6.1953125 11.01328125 6.1953125 16.11328125 6.1953125 C16.11328125 13.1953125 16.11328125 13.1953125 14.0859375 15.60546875 C10.35401574 17.60138486 7.76816497 17.69563351 3.55078125 17.6328125 C1.59978516 17.63087891 1.59978516 17.63087891 -0.390625 17.62890625 C-4.00199064 17.18101621 -5.54782561 16.96690087 -7.88671875 14.1953125 C-8.3828125 11.34765625 -8.3828125 11.34765625 -8.32421875 8.1328125 C-8.32292969 7.06933594 -8.32164063 6.00585938 -8.3203125 4.91015625 C-8.17722656 4.01425781 -8.03414063 3.11835937 -7.88671875 2.1953125 C-4.63281887 0.02604591 -3.75275918 -0.04548799 0 0 Z " fill="#000000" transform="translate(94.88671875,108.8046875)"/>
<path d="M0 0 C0.78890625 -0.00386719 1.5778125 -0.00773437 2.390625 -0.01171875 C3.21046875 -0.00011719 4.0303125 0.01148437 4.875 0.0234375 C6.10476562 0.00603516 6.10476562 0.00603516 7.359375 -0.01171875 C8.54273438 -0.00591797 8.54273438 -0.00591797 9.75 0 C10.46929687 0.00338379 11.18859375 0.00676758 11.9296875 0.01025391 C14.42798465 0.50878459 15.32012224 1.41572951 16.875 3.3984375 C17.34375 5.73828125 17.34375 5.73828125 17.375 8.3359375 C17.4059375 9.19058594 17.436875 10.04523438 17.46875 10.92578125 C16.875 13.3984375 16.875 13.3984375 14.83203125 15.69921875 C11.15813507 17.81037441 8.16895743 17.85277797 4.0625 17.6484375 C3.36962891 17.63039063 2.67675781 17.61234375 1.96289062 17.59375 C0.26632336 17.54694814 -1.42952476 17.47521374 -3.125 17.3984375 C-3.125 16.7384375 -3.125 16.0784375 -3.125 15.3984375 C-4.115 15.3984375 -5.105 15.3984375 -6.125 15.3984375 C-7.35191067 12.94461616 -7.32675931 11.19859647 -7.375 8.4609375 C-7.40078125 7.58566406 -7.4265625 6.71039063 -7.453125 5.80859375 C-6.84202866 1.31994563 -4.29246737 0.02019306 0 0 Z M-1.125 5.3984375 C-1.125 7.3784375 -1.125 9.3584375 -1.125 11.3984375 C1.99655879 12.40179568 3.74900172 12.20514673 6.875 11.3984375 C7.865 11.7284375 8.855 12.0584375 9.875 12.3984375 C9.875 10.0884375 9.875 7.7784375 9.875 5.3984375 C6.245 5.3984375 2.615 5.3984375 -1.125 5.3984375 Z " fill="#000000" transform="translate(121.125,108.6015625)"/>
<path d="M0 0 C0.87591797 0.00322266 1.75183594 0.00644531 2.65429688 0.00976562 C3.52634766 -0.00634766 4.39839844 -0.02246094 5.296875 -0.0390625 C6.55467773 -0.0400293 6.55467773 -0.0400293 7.83789062 -0.04101562 C8.60544678 -0.04399658 9.37300293 -0.04697754 10.16381836 -0.05004883 C12.74993382 0.41895178 13.62650685 1.26598939 15.21679688 3.32226562 C15.68554688 5.66210938 15.68554688 5.66210938 15.71679688 8.25976562 C15.74773438 9.11441406 15.77867188 9.9690625 15.81054688 10.84960938 C15.21679688 13.32226562 15.21679688 13.32226562 13.15820312 15.61132812 C9.43640684 17.77619768 6.93901918 17.82358969 2.65429688 17.75976562 C0.70330078 17.75783203 0.70330078 17.75783203 -1.28710938 17.75585938 C-4.89675255 17.30818296 -6.44818337 17.09619887 -8.78320312 14.32226562 C-9.24414062 11.47460938 -9.24414062 11.47460938 -9.15820312 8.25976562 C-9.1453125 7.19628906 -9.13242187 6.1328125 -9.11914062 5.03710938 C-8.41000408 -0.69370341 -4.7493269 0.04021755 0 0 Z M-1.78320312 4.32226562 C-3.1375998 7.03105898 -2.84821763 9.3315983 -2.78320312 12.32226562 C0.84679688 12.32226562 4.47679688 12.32226562 8.21679688 12.32226562 C8.21679688 10.01226562 8.21679688 7.70226562 8.21679688 5.32226562 C5.92973856 4.17873647 4.62414926 4.21892123 2.09179688 4.25976562 C0.17367187 4.29070312 0.17367187 4.29070312 -1.78320312 4.32226562 Z " fill="#000000" transform="translate(41.783203125,108.677734375)"/>
<path d="M0 0 C3.73399034 -0.35040379 5.55520973 -0.2806564 8.7734375 1.75 C9.63195312 2.4925 10.49046875 3.235 11.375 4 C12.24898437 4.7425 13.12296875 5.485 14.0234375 6.25 C14.67570312 6.8275 15.32796875 7.405 16 8 C16.144375 6.865625 16.28875 5.73125 16.4375 4.5625 C17 1 17 1 18 0 C19.99958364 -0.04080783 22.00045254 -0.04254356 24 0 C24.02684679 2.64590014 24.04676357 5.29153096 24.0625 7.9375 C24.07087891 8.69224609 24.07925781 9.44699219 24.08789062 10.22460938 C24.09652441 12.14994313 24.05224333 14.07535581 24 16 C23 17 23 17 20.80078125 17.34375 C16.89350428 16.86419578 15.13372324 15.05575992 12.1875 12.5 C10.72376953 11.24703125 10.72376953 11.24703125 9.23046875 9.96875 C8.49441406 9.3190625 7.75835937 8.669375 7 8 C6.67 10.64 6.34 13.28 6 16 C4.34385343 16.38218767 2.67542976 16.71395102 1 17 C0 16 0 16 -0.09765625 12.40234375 C-0.0909822 10.91403133 -0.07902183 9.42573568 -0.0625 7.9375 C-0.05798828 7.17888672 -0.05347656 6.42027344 -0.04882812 5.63867188 C-0.0370068 3.75908129 -0.01907078 1.87953101 0 0 Z " fill="#000000" transform="translate(60,109)"/>
<path d="M0 0 C0.98608749 0.00212242 0.98608749 0.00212242 1.99209595 0.00428772 C4.07029981 0.00983863 6.14839177 0.0223816 8.2265625 0.03515625 C9.64452968 0.04017761 11.06249857 0.0447394 12.48046875 0.04882812 C15.93753572 0.05979188 19.39453817 0.07702204 22.8515625 0.09765625 C22.8515625 0.75765625 22.8515625 1.41765625 22.8515625 2.09765625 C24.1715625 2.09765625 25.4915625 2.09765625 26.8515625 2.09765625 C26.8515625 14.63765625 26.8515625 27.17765625 26.8515625 40.09765625 C26.5215625 40.09765625 26.1915625 40.09765625 25.8515625 40.09765625 C25.82650635 39.28611084 25.8014502 38.47456543 25.77563477 37.63842773 C25.65910433 33.93719909 25.5366375 30.23618944 25.4140625 26.53515625 C25.37474609 25.25833984 25.33542969 23.98152344 25.29492188 22.66601562 C25.25302734 21.42529297 25.21113281 20.18457031 25.16796875 18.90625 C25.11298218 17.20166626 25.11298218 17.20166626 25.05688477 15.46264648 C24.84351949 11.9658408 24.39201973 8.5577365 23.8515625 5.09765625 C12.7557701 2.60721788 2.09012083 2.57378393 -9.1484375 4.09765625 C-9.1484375 9.04765625 -9.1484375 13.99765625 -9.1484375 19.09765625 C-9.8084375 19.09765625 -10.4684375 19.09765625 -11.1484375 19.09765625 C-11.1484375 28.00765625 -11.1484375 36.91765625 -11.1484375 46.09765625 C-11.4784375 46.09765625 -11.8084375 46.09765625 -12.1484375 46.09765625 C-12.89342874 40.13514853 -13.28791753 34.34837949 -13.24609375 28.34375 C-13.2446788 27.55742691 -13.24326385 26.77110382 -13.24180603 25.96095276 C-13.23627422 23.4856461 -13.22373525 21.01043488 -13.2109375 18.53515625 C-13.20591366 16.84179819 -13.20135231 15.1484387 -13.19726562 13.45507812 C-13.18632728 9.33590155 -13.16911112 5.216795 -13.1484375 1.09765625 C-8.70696181 0.23849529 -4.52073926 -0.0193194 0 0 Z " fill="#1F1C16" transform="translate(69.1484375,10.90234375)"/>
<path d="M0 0 C1.65 0 3.3 0 5 0 C5 1.65 5 3.3 5 5 C8.63 5 12.26 5 16 5 C16 3.35 16 1.7 16 0 C18.31 0 20.62 0 23 0 C23 5.28 23 10.56 23 16 C21.02 16.33 19.04 16.66 17 17 C16 16 16 16 15.9375 12.9375 C15.9684375 11.4834375 15.9684375 11.4834375 16 10 C12.37 10 8.74 10 5 10 C5 11.98 5 13.96 5 16 C3.0625 16.5625 3.0625 16.5625 1 17 C0 16 0 16 -0.09765625 12.40234375 C-0.0909822 10.91403133 -0.07902183 9.42573568 -0.0625 7.9375 C-0.05798828 7.17888672 -0.05347656 6.42027344 -0.04882812 5.63867188 C-0.0370068 3.75908129 -0.01907078 1.87953101 0 0 Z " fill="#000000" transform="translate(7,109)"/>
<path d="M0 0 C4.875 0.875 4.875 0.875 6 2 C6.11407924 5.04927088 6.1642139 8.07490769 6.16796875 11.125 C6.17129715 12.05989258 6.17462555 12.99478516 6.17805481 13.95800781 C6.18313577 15.95214343 6.18546278 17.94628761 6.18530273 19.94042969 C6.18745102 22.93179388 6.20548534 25.9227656 6.22460938 28.9140625 C6.25156789 37.86317063 6.1382022 46.7267197 5.11328125 55.625 C5.03554977 56.30530273 4.9578183 56.98560547 4.87773132 57.68652344 C4.39358744 61.37286659 3.75431371 64.70208944 2 68 C0.515 68.495 0.515 68.495 -1 69 C-0.86722656 68.44054687 -0.73445313 67.88109375 -0.59765625 67.3046875 C1.03184813 59.90649974 1.58636442 52.55429188 2 45 C1.67 45 1.34 45 1 45 C1 31.8 1 18.6 1 5 C-0.32 4.67 -1.64 4.34 -3 4 C-1.35 4 0.3 4 2 4 C2 3.01 2 2.02 2 1 C1.34 0.67 0.68 0.34 0 0 Z " fill="#565453" transform="translate(95,8)"/>
<path d="M0 0 C4.29 0 8.58 0 13 0 C13 6.6 13 13.2 13 20 C12.34 20 11.68 20 11 20 C8.67980703 16.80973467 6.65356922 13.58273331 5 10 C4.01 10.33 3.02 10.66 2 11 C1.52441617 21.14578839 1.75476573 28.10030612 7.82421875 36.53515625 C12.48496883 43.25684653 13.99708763 47.81755073 13 56 C11 54 11 54 10.9375 50.25 C10.37052428 43.16858892 4.97498687 34.97498687 0 30 C-0.08783542 27.78144736 -0.10694609 25.56011504 -0.09765625 23.33984375 C-0.0962413 22.67537735 -0.09482635 22.01091095 -0.09336853 21.3263092 C-0.08775518 19.19666101 -0.07520054 17.06711661 -0.0625 14.9375 C-0.05748671 13.49674631 -0.05292351 12.05599097 -0.04882812 10.61523438 C-0.03778145 7.07678898 -0.02050792 3.53840461 0 0 Z " fill="#D40B18" transform="translate(61,15)"/>
<path d="M0 0 C0.33 0 0.66 0 1 0 C1.05534912 1.22928223 1.11069824 2.45856445 1.16772461 3.72509766 C1.37649742 8.35099608 1.58769092 12.97678153 1.79956055 17.60253906 C1.89037492 19.59241858 1.98056068 21.5823269 2.07006836 23.57226562 C2.57228335 34.72761095 3.11268766 45.86739486 4 57 C4.66 57 5.32 57 6 57 C6.51949219 58.09699219 7.03898437 59.19398437 7.57421875 60.32421875 C8.27810134 61.77890943 8.98255902 63.23332193 9.6875 64.6875 C10.02716797 65.40873047 10.36683594 66.12996094 10.71679688 66.87304688 C12.46387883 70.44885013 13.91471866 72.91471866 16.76953125 75.76953125 C19 78 19 78 19 82 C15.89099556 81.48183259 13.68534841 80.74111167 11.51171875 78.390625 C8.21920782 73.66928858 5.67657706 68.55102519 3.1875 63.375 C2.88529541 62.75407471 2.58309082 62.13314941 2.27172852 61.4934082 C-1.38282317 53.59593978 -1.10120827 46.11382334 -0.87890625 37.59765625 C-0.85529526 36.51995468 -0.83168427 35.44225311 -0.80735779 34.33189392 C-0.73112625 30.90861494 -0.64692858 27.48558565 -0.5625 24.0625 C-0.50923873 21.73373595 -0.45649864 19.40495992 -0.40429688 17.07617188 C-0.27556628 11.38396197 -0.14030448 5.69193576 0 0 Z " fill="#CECECC" transform="translate(54,15)"/>
<path d="M0 0 C1.79244141 0.01740234 1.79244141 0.01740234 3.62109375 0.03515625 C5.41740234 0.04869141 5.41740234 0.04869141 7.25 0.0625 C8.17683594 0.07410156 9.10367188 0.08570313 10.05859375 0.09765625 C11.67029817 31.07337542 11.67029817 31.07337542 2.05859375 43.09765625 C-0.13148177 46.60167825 -0.32328628 49.74541667 -0.57421875 53.83203125 C-0.65800781 55.12753906 -0.74179688 56.42304687 -0.828125 57.7578125 C-0.9077392 59.12108284 -0.98716389 60.48436425 -1.06640625 61.84765625 C-1.15285407 63.22661236 -1.2400851 64.60551962 -1.328125 65.984375 C-1.54026648 69.35506734 -1.7443809 72.72605208 -1.94140625 76.09765625 C-2.60140625 76.09765625 -3.26140625 76.09765625 -3.94140625 76.09765625 C-3.96453071 66.33614637 -3.98232186 56.57464295 -3.99321842 46.81311131 C-3.99844703 42.28091531 -4.00554426 37.74873798 -4.0168457 33.21655273 C-4.02767539 28.84642795 -4.03368326 24.47632117 -4.03628349 20.10618401 C-4.0381376 18.43514662 -4.04175793 16.76411028 -4.04713631 15.09308052 C-4.05434784 12.76068074 -4.05539715 10.42835632 -4.05493164 8.09594727 C-4.05852692 7.39823715 -4.06212219 6.70052704 -4.06582642 5.98167419 C-4.05311713 0.13456564 -4.05311713 0.13456564 0 0 Z M-1.94140625 1.09765625 C-3.02395267 10.68714228 -3.05737443 20.15180486 -3.00390625 29.78515625 C-2.99887872 31.37304546 -2.99431804 32.96093621 -2.99023438 34.54882812 C-2.9793338 38.3984765 -2.96213908 42.24804878 -2.94140625 46.09765625 C-0.45656311 42.8108664 1.88589329 39.45627114 4.18359375 36.03515625 C4.88742188 34.99230469 5.59125 33.94945312 6.31640625 32.875 C8.89370057 28.76635367 9.17946673 25.8766174 9.15625 21.1171875 C9.15302734 19.95380859 9.14980469 18.79042969 9.14648438 17.59179688 C9.13810547 16.37685547 9.12972656 15.16191406 9.12109375 13.91015625 C9.11658203 12.68361328 9.11207031 11.45707031 9.10742188 10.19335938 C9.0956244 7.16140957 9.07916296 4.12955719 9.05859375 1.09765625 C5.42859375 1.09765625 1.79859375 1.09765625 -1.94140625 1.09765625 Z " fill="#BE3523" transform="translate(81.94140625,14.90234375)"/>
<path d="M0 0 C3.63 0 7.26 0 11 0 C11 2.31 11 4.62 11 7 C10.01 7 9.02 7 8 7 C7.95101562 7.62648438 7.90203125 8.25296875 7.8515625 8.8984375 C7.77679688 9.71570312 7.70203125 10.53296875 7.625 11.375 C7.55539063 12.18710937 7.48578125 12.99921875 7.4140625 13.8359375 C7 16 7 16 5 18 C4.44471389 19.43819103 3.95062801 20.90066269 3.5 22.375 C2.56291909 25.42051297 1.49274932 28.18179223 0 31 C-0.33 31 -0.66 31 -1 31 C-1.18451025 10.06833713 -1.18451025 10.06833713 0 0 Z " fill="#C40918" transform="translate(80,16)"/>
<path d="M0 0 C0.66 0 1.32 0 2 0 C2.7609241 9.70178229 3.13500337 19.26475712 3 29 C0.7734375 28.9609375 0.7734375 28.9609375 -2 28 C-3.72128093 25.52159207 -5.04842321 23.2980274 -6.375 20.625 C-6.74238281 19.93921875 -7.10976563 19.2534375 -7.48828125 18.546875 C-8.41837671 16.74284078 -9.21847156 14.87318721 -10 13 C-9.67 12.01 -9.34 11.02 -9 10 C-7.125 10.25 -7.125 10.25 -5 11 C-3.8671875 13.046875 -3.8671875 13.046875 -3 15 C-2.95101562 14.25234375 -2.90203125 13.5046875 -2.8515625 12.734375 C-2.73941406 11.25710937 -2.73941406 11.25710937 -2.625 9.75 C-2.55539063 8.77546875 -2.48578125 7.8009375 -2.4140625 6.796875 C-2.01534751 4.10366811 -1.36492937 2.33036721 0 0 Z " fill="#211A12" transform="translate(70,62)"/>
<path d="M0 0 C1.65 0.99 3.3 1.98 5 3 C4.36488404 15.74612033 1.46255547 24.99901561 -5 36 C-5.66 36 -6.32 36 -7 36 C-7.09765625 29.84765625 -7.09765625 29.84765625 -7 28 C-6.67 27.67 -6.34 27.34 -6 27 C-5.86822707 25.41872487 -5.76954464 23.83463365 -5.6875 22.25 C-5.26330752 17.31267768 -5.26330752 17.31267768 -3 14.625 C0.26931915 10.33401862 -0.16770869 5.25766733 0 0 Z " fill="#211508" transform="translate(91,52)"/>
<path d="M0 0 C1.64162109 -0.00386719 1.64162109 -0.00386719 3.31640625 -0.0078125 C6.14358913 0.11249315 8.6885726 0.48000028 11.4375 1.125 C11.4375 1.455 11.4375 1.785 11.4375 2.125 C10.2 2.145625 8.9625 2.16625 7.6875 2.1875 C6.99140625 2.19910156 6.2953125 2.21070313 5.578125 2.22265625 C3.4375 2.125 3.4375 2.125 -0.5625 1.125 C-0.5625 26.535 -0.5625 51.945 -0.5625 78.125 C-1.2225 78.125 -1.8825 78.125 -2.5625 78.125 C-2.8925 70.865 -3.2225 63.605 -3.5625 56.125 C-3.2325 56.125 -2.9025 56.125 -2.5625 56.125 C-2.2325 38.305 -1.9025 20.485 -1.5625 2.125 C-5.1925 2.125 -8.8225 2.125 -12.5625 2.125 C-12.5625 1.795 -12.5625 1.465 -12.5625 1.125 C-8.32308229 0.31931881 -4.31359604 -0.01018559 0 0 Z " fill="#6E1C16" transform="translate(75.5625,12.875)"/>
<path d="M0 0 C9.9 0 19.8 0 30 0 C30 0.66 30 1.32 30 2 C31.32 2 32.64 2 34 2 C34 14.54 34 27.08 34 40 C33.67 40 33.34 40 33 40 C32.97494385 39.18845459 32.9498877 38.37690918 32.92407227 37.54077148 C32.80754183 33.83954284 32.685075 30.13853319 32.5625 26.4375 C32.52318359 25.16068359 32.48386719 23.88386719 32.44335938 22.56835938 C32.40146484 21.32763672 32.35957031 20.08691406 32.31640625 18.80859375 C32.26141968 17.10401001 32.26141968 17.10401001 32.20532227 15.36499023 C31.99195699 11.86818455 31.54045723 8.46008025 31 5 C20.78811074 2.58755827 10.43865335 2.38851012 0 2 C0 1.34 0 0.68 0 0 Z " fill="#171413" transform="translate(62,11)"/>
<path d="M0 0 C0.33 0 0.66 0 1 0 C1.0501123 1.21357178 1.10022461 2.42714355 1.15185547 3.67749023 C1.34299289 8.26453036 1.54264994 12.85116969 1.74462891 17.43774414 C1.83021599 19.40704852 1.91362042 21.37644922 1.99462891 23.34594727 C2.50239132 35.64821555 3.34001613 47.7965726 5 60 C4.34 59.67 3.68 59.34 3 59 C2.375 56.4375 2.375 56.4375 2 54 C1.34 54 0.68 54 0 54 C-0.7851823 50.56193518 -1.10364445 47.45671137 -1.02172852 43.93432617 C-1.00163223 42.95368698 -0.98153595 41.97304779 -0.96083069 40.96269226 C-0.93379562 39.9166835 -0.90676056 38.87067474 -0.87890625 37.79296875 C-0.85529526 36.71243729 -0.83168427 35.63190582 -0.80735779 34.51863098 C-0.73091702 31.07478048 -0.64680821 27.631166 -0.5625 24.1875 C-0.50925973 21.84962084 -0.45651946 19.51173024 -0.40429688 17.17382812 C-0.27532839 11.4490734 -0.14006734 5.72449334 0 0 Z " fill="#CACACA" transform="translate(54,15)"/>
<path d="M0 0 C0.66 0.33 1.32 0.66 2 1 C2.95834577 5.88064357 3.17688126 10.72049058 3.31640625 15.68359375 C3.33718735 16.38396255 3.35796844 17.08433136 3.37937927 17.80592346 C3.44412465 20.01636106 3.50340608 22.22690485 3.5625 24.4375 C3.60575681 25.94727607 3.64937323 27.45704188 3.69335938 28.96679688 C3.79972748 32.64442196 3.90120002 36.32216291 4 40 C3.34 39.67 2.68 39.34 2 39 C1.34 39.66 0.68 40.32 0 41 C-0.78244934 35.60452439 -1.09558857 30.45446996 -0.87890625 25 C-0.85529526 24.2788501 -0.83168427 23.5577002 -0.80735779 22.81469727 C-0.73163787 20.54288376 -0.6472284 18.27149349 -0.5625 16 C-0.50918712 14.44663433 -0.4564476 12.89324887 -0.40429688 11.33984375 C-0.2761494 7.55963498 -0.14021558 3.77977959 0 0 Z " fill="#371E0C" transform="translate(92,15)"/>
<path d="M0 0 C0.33 0 0.66 0 1 0 C1.56827691 11.82857873 -2.26600939 17.57241315 -9 27 C-9.66 27.99 -10.32 28.98 -11 30 C-11 25.38 -11 20.76 -11 16 C-10.34 15.67 -9.68 15.34 -9 15 C-8.67 15.66 -8.34 16.32 -8 17 C-7.01 16.67 -6.02 16.34 -5 16 C-4.67 14.35 -4.34 12.7 -4 11 C-3.34 11 -2.68 11 -2 11 C-1.93941406 10.28972656 -1.87882812 9.57945313 -1.81640625 8.84765625 C-1.73261719 7.92855469 -1.64882812 7.00945313 -1.5625 6.0625 C-1.48128906 5.14597656 -1.40007812 4.22945312 -1.31640625 3.28515625 C-1 1 -1 1 0 0 Z " fill="#B80414" transform="translate(90,31)"/>
<path d="M0 0 C0.66 0.33 1.32 0.66 2 1 C2.144375 2.0725 2.28875 3.145 2.4375 4.25 C2.99586787 7.97245244 3.81118737 9.99038263 6 13 C6.33 13 6.66 13 7 13 C7 15.97 7 18.94 7 22 C6.34 22.33 5.68 22.66 5 23 C3 22 3 22 1.78125 18.796875 C1.34662213 17.45032854 0.91987082 16.10122065 0.5 14.75 C-0.8697558 10.4414954 -2.252667 6.17418438 -4 2 C-2.125 0.9375 -2.125 0.9375 0 0 Z " fill="#C1020E" transform="translate(66,24)"/>
<path d="M0 0 C1.98 0 3.96 0 6 0 C6 5.28 6 10.56 6 16 C4.35 16.33 2.7 16.66 1 17 C-0.53266582 13.93466836 -0.10276471 10.73245728 -0.0625 7.375 C-0.05798828 6.66859375 -0.05347656 5.9621875 -0.04882812 5.234375 C-0.03703875 3.48954725 -0.01910324 1.744763 0 0 Z " fill="#000000" transform="translate(141,109)"/>
<path d="M0 0 C2.52588702 2.36292656 3.88820837 3.66462511 5 7 C4.84402344 7.59683594 4.68804687 8.19367187 4.52734375 8.80859375 C3.61430086 12.60279421 4.48142499 16.38631769 4.94140625 20.22265625 C5 23 5 23 3 26 C2.67 23.03 2.34 20.06 2 17 C1.34 17 0.68 17 0 17 C0 16.01 0 15.02 0 14 C-0.66 14 -1.32 14 -2 14 C-2.21192221 8.80790596 -1.5912689 4.873261 0 0 Z " fill="#47351F" transform="translate(62,46)"/>
<path d="M0 0 C0.66 0 1.32 0 2 0 C6 6.75 6 6.75 6 9 C5.34 9 4.68 9 4 9 C3.855625 10.155 3.71125 11.31 3.5625 12.5 C3.04166667 16.66666667 2.52083333 20.83333333 2 25 C-0.0245738 23.06745228 -1.42105792 21.36841312 -3 19 C-3 18.01 -3 17.02 -3 16 C-2.01 16 -1.02 16 0 16 C0.07511057 12.84535592 -0.00218788 9.98784512 -0.5625 6.875 C-0.98017666 4.13026764 -0.89496648 2.58545872 0 0 Z " fill="#412E17" transform="translate(66,53)"/>
<path d="M0 0 C0.33 0 0.66 0 1 0 C0.88513575 2.37587624 0.75841844 4.75015171 0.625 7.125 C0.5940625 7.79015625 0.563125 8.4553125 0.53125 9.140625 C0.28080367 13.39821262 -0.47528197 17.02085783 -2 21 C-2.33 21 -2.66 21 -3 21 C-3 25.95 -3 30.9 -3 36 C-4.485 36.495 -4.485 36.495 -6 37 C-5.97695922 32.70718702 -5.89931868 28.41695944 -5.8125 24.125 C-5.80669922 22.92101562 -5.80089844 21.71703125 -5.79492188 20.4765625 C-5.59975943 12.49658693 -4.27197367 6.78150117 0 0 Z " fill="#5B2714" transform="translate(86,52)"/>
<path d="M0 0 C1 2 1 2 -0.125 5.4375 C-1.77176211 8.98210005 -3.24378436 10.5809852 -7 12 C-9.72148707 12.22257515 -12.25982741 12.13933081 -15 12 C-15 10.68 -15 9.36 -15 8 C-14.41992188 8.00902344 -13.83984375 8.01804687 -13.2421875 8.02734375 C-8.26127259 7.84405023 -8.26127259 7.84405023 -4.06640625 5.375 C-2.60480788 3.6365041 -1.25832337 1.88995235 0 0 Z " fill="#555656" transform="translate(89,85)"/>
<path d="M0 0 C2 1.375 2 1.375 4 3 C4 3.66 4 4.32 4 5 C4.66 5 5.32 5 6 5 C6 13.25 6 21.5 6 30 C1.5 24.375 1.5 24.375 1.75 20.1875 C1.78609375 19.39730469 1.8221875 18.60710938 1.859375 17.79296875 C1.90578125 17.20128906 1.9521875 16.60960938 2 16 C2.66 16 3.32 16 4 16 C4.04125 14.72125 4.0825 13.4425 4.125 12.125 C4.15980469 11.04605469 4.15980469 11.04605469 4.1953125 9.9453125 C4.18331689 7.76136355 4.18331689 7.76136355 2 6 C1.28591666 4.01643517 0.61382258 2.01684563 0 0 Z " fill="#B1010A" transform="translate(68,30)"/>
<path d="M0 0 C0.33 0 0.66 0 1 0 C1.08491699 0.5583252 1.16983398 1.11665039 1.25732422 1.69189453 C2.37289988 7.80886024 4.54925454 11.86318701 8.125 16.875 C12.43544235 23.2615106 14.49998218 28.1334268 13 36 C11 34 11 34 10.9375 30.25 C10.37052428 23.16858892 4.97498687 14.97498687 0 10 C-0.07205511 8.31391034 -0.08386068 6.62499341 -0.0625 4.9375 C-0.05347656 4.01839844 -0.04445312 3.09929688 -0.03515625 2.15234375 C-0.02355469 1.44207031 -0.01195312 0.73179688 0 0 Z " fill="#C76B4A" transform="translate(61,35)"/>
<path d="M0 0 C0.33 0 0.66 0 1 0 C1.0291189 4.54165313 1.0468389 9.0832821 1.0625 13.625 C1.07087891 14.91019531 1.07925781 16.19539063 1.08789062 17.51953125 C1.09111328 18.76347656 1.09433594 20.00742187 1.09765625 21.2890625 C1.10289307 22.43068848 1.10812988 23.57231445 1.11352539 24.74853516 C1.00283445 27.91881886 0.59566756 30.88768854 0 34 C-2 32 -2 32 -2.1953125 28.0859375 C-2.18200376 26.51550649 -2.15813602 24.94513779 -2.125 23.375 C-2.11597656 22.57320312 -2.10695312 21.77140625 -2.09765625 20.9453125 C-2.07406223 18.96341477 -2.03819065 16.98167019 -2 15 C-1.34 15 -0.68 15 0 15 C0 10.05 0 5.1 0 0 Z " fill="#503624" transform="translate(60,15)"/>
<path d="M0 0 C3.63 0 7.26 0 11 0 C11 1.32 11 2.64 11 4 C10.45730469 4.18175781 9.91460937 4.36351562 9.35546875 4.55078125 C8.64003906 4.80214844 7.92460938 5.05351562 7.1875 5.3125 C6.47980469 5.55613281 5.77210937 5.79976562 5.04296875 6.05078125 C2.6242168 7.03246543 2.6242168 7.03246543 0 10 C0 6.7 0 3.4 0 0 Z " fill="#E90A1F" transform="translate(80,16)"/>
<path d="M0 0 C0.66 0 1.32 0 2 0 C2.05411124 2.41696872 2.09372278 4.83271787 2.125 7.25 C2.15013672 8.27287109 2.15013672 8.27287109 2.17578125 9.31640625 C2.21213482 13.0608235 2.07944349 15.82352727 0 19 C-0.66 19 -1.32 19 -2 19 C-3.11347703 15.65956892 -2.97651275 13.55222112 -2.6875 10.0625 C-2.60886719 9.02222656 -2.53023438 7.98195313 -2.44921875 6.91015625 C-2.02672378 4.17312363 -1.39592204 2.364521 0 0 Z " fill="#2B2010" transform="translate(70,62)"/>
<path d="M0 0 C0.33 0 0.66 0 1 0 C1.39768197 6.92261201 1.11153378 13.66169045 -2 20 C-2.99 20.33 -3.98 20.66 -5 21 C-4.52574038 18.62870192 -4.05107972 16.25749564 -3.57421875 13.88671875 C-3.19379257 11.97423611 -2.82128882 10.06015917 -2.45703125 8.14453125 C-2.28558594 7.25121094 -2.11414063 6.35789062 -1.9375 5.4375 C-1.78152344 4.61121094 -1.62554687 3.78492188 -1.46484375 2.93359375 C-1 1 -1 1 0 0 Z " fill="#3F3D3D" transform="translate(99,56)"/>
<path d="M0 0 C0.46450943 6.50313209 -0.67424388 10.4174808 -4 16 C-4.33 16 -4.66 16 -5 16 C-5.02693575 13.87506859 -5.04636628 11.75004088 -5.0625 9.625 C-5.07410156 8.44164062 -5.08570312 7.25828125 -5.09765625 6.0390625 C-5 3 -5 3 -4 1 C-1 0 -1 0 0 0 Z " fill="#C90415" transform="translate(84,31)"/>
<path d="M0 0 C0.33 0.66 0.66 1.32 1 2 C-0.08371969 3.83748004 -1.21923306 5.64446235 -2.375 7.4375 C-7.20141231 15.97727525 -7.07111973 24.37851595 -7 34 C-7.33 34 -7.66 34 -8 34 C-9.48276445 11.37928777 -9.48276445 11.37928777 -4 4.0625 C-1.75 1.59765625 -1.75 1.59765625 0 0 Z " fill="#A55542" transform="translate(88,47)"/>
<path d="M0 0 C0.66 0 1.32 0 2 0 C2 0.66 2 1.32 2 2 C3.98 2 5.96 2 8 2 C8 2.66 8 3.32 8 4 C6.02 4 4.04 4 2 4 C2 13.24 2 22.48 2 32 C1.67 32 1.34 32 1 32 C0.67 21.44 0.34 10.88 0 0 Z " fill="#A5A5A5" transform="translate(54,8)"/>
<path d="M0 0 C0.96541545 3.18554592 1.05239684 5.88752707 0.87890625 9.203125 C0.83056641 10.1828125 0.78222656 11.1625 0.73242188 12.171875 C0.67634766 13.18765625 0.62027344 14.2034375 0.5625 15.25 C0.51029297 16.28125 0.45808594 17.3125 0.40429688 18.375 C0.27484366 20.91699039 0.13988672 23.45856593 0 26 C-3.67326733 21.26732673 -3.67326733 21.26732673 -4 18 C-3.34 17.34 -2.68 16.68 -2 16 C-1.75787127 14.01871492 -1.75787127 14.01871492 -1.875 11.875 C-1.936875 9.956875 -1.936875 9.956875 -2 8 C-2.66 7.67 -3.32 7.34 -4 7 C-2.68 4.69 -1.36 2.38 0 0 Z " fill="#3E2507" transform="translate(91,44)"/>
<path d="M0 0 C2.64025391 2.48834889 3.8685894 4.51873661 5 8 C5 8.99 5 9.98 5 11 C4.34 11 3.68 11 3 11 C2.67 12.65 2.34 14.3 2 16 C-0.42130331 12.36804504 -0.21022785 10.61650652 -0.125 6.3125 C-0.09792969 4.54326172 -0.09792969 4.54326172 -0.0703125 2.73828125 C-0.04710937 1.83464844 -0.02390625 0.93101563 0 0 Z " fill="#A2030C" transform="translate(62,28)"/>
<path d="M0 0 C2.21447392 2.21447392 2.92637276 3.76702078 3.11352539 6.90112305 C3.10567017 7.94586792 3.10567017 7.94586792 3.09765625 9.01171875 C3.09282227 10.14770508 3.09282227 10.14770508 3.08789062 11.30664062 C3.07951172 12.09232422 3.07113281 12.87800781 3.0625 13.6875 C3.05798828 14.48478516 3.05347656 15.28207031 3.04882812 16.10351562 C3.0370585 18.06904257 3.01912348 20.03453085 3 22 C2.34 22 1.68 22 1 22 C0.67 14.74 0.34 7.48 0 0 Z " fill="#A42824" transform="translate(72,69)"/>
<path d="M0 0 C0 3.63 0 7.26 0 11 C-0.99 11.495 -0.99 11.495 -2 12 C-2.65213292 14.02463255 -2.65213292 14.02463255 -3 16 C-3.33 16 -3.66 16 -4 16 C-4.1972739 4.71154909 -4.1972739 4.71154909 -3 1 C-1 0 -1 0 0 0 Z " fill="#311806" transform="translate(90,51)"/>
<path d="M0 0 C0.66 0.33 1.32 0.66 2 1 C2 4.3 2 7.6 2 11 C0.35 10.67 -1.3 10.34 -3 10 C-3.33 8.35 -3.66 6.7 -4 5 C-3.01 5.33 -2.02 5.66 -1 6 C-1.309375 5.071875 -1.309375 5.071875 -1.625 4.125 C-1.810625 3.073125 -1.810625 3.073125 -2 2 C-1.34 1.34 -0.68 0.68 0 0 Z " fill="#16130E" transform="translate(71,80)"/>
<path d="M0 0 C2.52588702 2.36292656 3.88820837 3.66462511 5 7 C4.0625 9.6875 4.0625 9.6875 3 12 C2.01 12 1.02 12 0 12 C-0.19573608 10.56359829 -0.38127816 9.12580496 -0.5625 7.6875 C-0.66691406 6.88699219 -0.77132812 6.08648437 -0.87890625 5.26171875 C-1 3 -1 3 0 0 Z " fill="#584021" transform="translate(62,46)"/>
<path d="M0 0 C0.33 0 0.66 0 1 0 C1.33 8.58 1.66 17.16 2 26 C1.01 26.33 0.02 26.66 -1 27 C-0.67 18.09 -0.34 9.18 0 0 Z " fill="#532821" transform="translate(81,62)"/>
<path d="M0 0 C0.99 0 1.98 0 3 0 C1.43181728 5.452999 -0.03810217 9.76486783 -4 14 C-4.56561146 8.34388537 -2.71391278 4.77357872 0 0 Z " fill="#666565" transform="translate(93,76)"/>
<path d="M0 0 C0.66 0 1.32 0 2 0 C2.66 1.65 3.32 3.3 4 5 C4.66 4.34 5.32 3.68 6 3 C7.125 7.75 7.125 7.75 6 10 C6.33 10.639375 6.66 11.27875 7 11.9375 C8 14 8 14 7 17 C5.82866942 14.54379149 4.66278278 12.08525083 3.5 9.625 C3.16613281 8.92632812 2.83226562 8.22765625 2.48828125 7.5078125 C0 2.2265625 0 2.2265625 0 0 Z " fill="#A8A7A7" transform="translate(54,69)"/>
<path d="M0 0 C0.66 0.33 1.32 0.66 2 1 C0.5625 3 0.5625 3 -2 5 C-5.02824418 5.35442445 -7.96485939 5.23347235 -11 5 C-11.33 6.32 -11.66 7.64 -12 9 C-12.185625 8.071875 -12.185625 8.071875 -12.375 7.125 C-12.87197356 4.80879168 -12.87197356 4.80879168 -15 3 C-13.2365625 3.0928125 -13.2365625 3.0928125 -11.4375 3.1875 C-8.25361207 3.21012087 -6.01281983 2.77501656 -3.125 1.4375 C-2.09375 0.963125 -1.0625 0.48875 0 0 Z " fill="#71605B" transform="translate(85,88)"/>
<path d="M0 0 C0.33 0 0.66 0 1 0 C1 2.97 1 5.94 1 9 C0.34 9 -0.32 9 -1 9 C-1.33 10.32 -1.66 11.64 -2 13 C-2.33 13 -2.66 13 -3 13 C-3.27131956 7.66404866 -3.4266889 4.38616179 0 0 Z " fill="#2F1906" transform="translate(89,64)"/>
<path d="M0 0 C0.66 0 1.32 0 2 0 C3.41601562 2.68554688 3.41601562 2.68554688 4.83203125 5.37109375 C5.99019799 7.32267987 5.99019799 7.32267987 9 8 C9.33 7.34 9.66 6.68 10 6 C10.33 7.65 10.66 9.3 11 11 C5.73941076 9.89894644 3.75934007 7.92581294 0.8828125 3.65625 C0 2 0 2 0 0 Z " fill="#A3A2A1" transform="translate(62,86)"/>
<path d="M0 0 C-1.00193437 3.79303725 -1.81024227 6.71536341 -4 10 C-4.66 10 -5.32 10 -6 10 C-6.33663062 6.29706315 -6.47736015 4.60465619 -4.125 1.625 C-2 0 -2 0 0 0 Z " fill="#980714" transform="translate(90,30)"/>
<path d="M0 0 C1.65 0.33 3.3 0.66 5 1 C5.33 2.65 5.66 4.3 6 6 C4.35 6.33 2.7 6.66 1 7 C1 6.34 1 5.68 1 5 C-0.32 4.67 -1.64 4.34 -3 4 C-1.35 4 0.3 4 2 4 C2 3.01 2 2.02 2 1 C1.34 0.67 0.68 0.34 0 0 Z " fill="#403E3D" transform="translate(95,8)"/>
<path d="M0 0 C0.66 0 1.32 0 2 0 C2 3.96 2 7.92 2 12 C-1.31037029 7.58617295 -1.39887707 6.28512118 -1 1 C-0.67 0.67 -0.34 0.34 0 0 Z " fill="#EFEFEF" transform="translate(54,49)"/>
<path d="M0 0 C0 3.19610552 -0.54671542 4.41717626 -2 7.1875 C-2.37125 7.90292969 -2.7425 8.61835938 -3.125 9.35546875 C-3.41375 9.89816406 -3.7025 10.44085938 -4 11 C-4.33 11 -4.66 11 -5 11 C-5.3125 7.75 -5.3125 7.75 -5 4 C-2.5 1.5625 -2.5 1.5625 0 0 Z " fill="#B50A15" transform="translate(84,23)"/>
<path d="M0 0 C6.75 -0.125 6.75 -0.125 9 1 C9 1.99 9 2.98 9 4 C6.03 3.67 3.06 3.34 0 3 C0 2.01 0 1.02 0 0 Z " fill="#949493" transform="translate(88,8)"/>
<path d="M0 0 C2.64 0.33 5.28 0.66 8 1 C4.2632157 3.49118953 2.25548181 3.2065226 -2.1875 3.125 C-3.45980469 3.10695313 -4.73210937 3.08890625 -6.04296875 3.0703125 C-7.50669922 3.03550781 -7.50669922 3.03550781 -9 3 C-9 2.67 -9 2.34 -9 2 C-6.03 2 -3.06 2 0 2 C0 1.34 0 0.68 0 0 Z " fill="#B6B6B6" transform="translate(83,8)"/>
<path d="M0 0 C0.33 0.66 0.66 1.32 1 2 C-0.14453125 4.34765625 -0.14453125 4.34765625 -1.8125 7.0625 C-2.35519531 7.96097656 -2.89789063 8.85945313 -3.45703125 9.78515625 C-5 12 -5 12 -7 13 C-6.65986985 7.55791766 -3.29703472 4.06331802 0 0 Z " fill="#D77044" transform="translate(88,47)"/>
<path d="M0 0 C0.33 0.66 0.66 1.32 1 2 C-3.18461538 6.92307692 -3.18461538 6.92307692 -7.3125 7.3125 C-8.199375 7.209375 -9.08625 7.10625 -10 7 C-9.67 6.34 -9.34 5.68 -9 5 C-8.05125 4.690625 -7.1025 4.38125 -6.125 4.0625 C-3.15310098 3.05205433 -1.93911169 2.37002539 0 0 Z " fill="#222323" transform="translate(87,88)"/>
<path d="M0 0 C1.38978246 2.77956492 0.61356169 4.12046386 -0.25 7.0625 C-0.62898438 8.41021484 -0.62898438 8.41021484 -1.015625 9.78515625 C-1.34046875 10.51605469 -1.6653125 11.24695313 -2 12 C-2.99 12.33 -3.98 12.66 -5 13 C-4.625 10.0625 -4.625 10.0625 -4 7 C-3.34 6.67 -2.68 6.34 -2 6 C-1.27306096 4.02111039 -0.60183749 2.02045442 0 0 Z " fill="#494747" transform="translate(99,64)"/>
<path d="M0 0 C0.33 0 0.66 0 1 0 C1.66 3.96 2.32 7.92 3 12 C2.34 11.67 1.68 11.34 1 11 C0.375 8.4375 0.375 8.4375 0 6 C-0.66 6 -1.32 6 -2 6 C-2 5.01 -2 4.02 -2 3 C-1.34 3 -0.68 3 0 3 C0 2.01 0 1.02 0 0 Z " fill="#E3E3E3" transform="translate(56,63)"/>
<path d="M0 0 C0 2.77996107 -0.21297929 5.42492567 -0.5 8.1875 C-0.5928125 9.08855469 -0.685625 9.98960938 -0.78125 10.91796875 C-0.88953125 11.94857422 -0.88953125 11.94857422 -1 13 C-3.72286806 8.91569792 -3.38524534 6.85409123 -3 2 C-2.01 1.34 -1.02 0.68 0 0 Z " fill="#4E210E" transform="translate(87,66)"/>
<path d="M0 0 C0.33 0 0.66 0 1 0 C1 4.29 1 8.58 1 13 C-0.32 11.35 -1.64 9.7 -3 8 C-2.67 7.34 -2.34 6.68 -2 6 C-1.34 6 -0.68 6 0 6 C0 4.02 0 2.04 0 0 Z " fill="#A7070B" transform="translate(73,47)"/>
<path d="M0 0 C0.625 1.875 0.625 1.875 1 4 C0.34 4.66 -0.32 5.32 -1 6 C-1.64767793 8.57061311 -1.64767793 8.57061311 -2 11 C-2.33 11 -2.66 11 -3 11 C-3 7.7 -3 4.4 -3 1 C-2.01 0.67 -1.02 0.34 0 0 Z " fill="#DE0620" transform="translate(83,31)"/>
<path d="M0 0 C1 4 1 4 1 8 C-0.65 8 -2.3 8 -4 8 C-2.68 5.36 -1.36 2.72 0 0 Z " fill="#4B3113" transform="translate(91,44)"/>
<path d="M0 0 C-3.5486135 2.36574234 -4.5764525 2.10865265 -8.6875 1.625 C-10.17830078 1.45871094 -10.17830078 1.45871094 -11.69921875 1.2890625 C-12.45847656 1.19367187 -13.21773438 1.09828125 -14 1 C-14 0.67 -14 0.34 -14 0 C-4.58997722 -1.33257403 -4.58997722 -1.33257403 0 0 Z " fill="#25190D" transform="translate(96,13)"/>
<path d="M0 0 C1.31223496 3.93670488 0.24296256 6.12488144 -1 10 C-1.66 10 -2.32 10 -3 10 C-3.29296875 3.9453125 -3.29296875 3.9453125 -3 2 C-2.01 1.34 -1.02 0.68 0 0 Z " fill="#30130B" transform="translate(87,78)"/>
<path d="M0 0 C1.51953125 1.20703125 1.51953125 1.20703125 3 3 C3.07421875 5.26171875 3.07421875 5.26171875 2.6875 7.6875 C2.50767578 8.89986328 2.50767578 8.89986328 2.32421875 10.13671875 C2.21722656 10.75160156 2.11023438 11.36648437 2 12 C-0.40201504 7.80120206 -0.15864149 4.75924459 0 0 Z " fill="#543C1E" transform="translate(64,60)"/>
<path d="M0 0 C0.99 0.66 1.98 1.32 3 2 C2.67 3.32 2.34 4.64 2 6 C0.68 5.67 -0.64 5.34 -2 5 C-1.125 1.125 -1.125 1.125 0 0 Z " fill="#35312C" transform="translate(60,67)"/>
<path d="M0 0 C0.99 0 1.98 0 3 0 C2.67 2.97 2.34 5.94 2 9 C1.67 9 1.34 9 1 9 C0.67 6.03 0.34 3.06 0 0 Z " fill="#110901" transform="translate(93,14)"/>
</svg>
