<?xml version="1.0" encoding="UTF-8"?>
<svg version="1.1" xmlns="http://www.w3.org/2000/svg" width="2000" height="1764">
<path d="M0 0 C2.28474945 -0.0006769 4.56949883 -0.0016501 6.85424805 -0.00289917 C11.60043028 -0.00435802 16.34659346 -0.00228085 21.09277344 0.00244141 C27.10279356 0.00813753 33.11276898 0.00484867 39.12278748 -0.00113106 C43.82808759 -0.00478621 48.53337752 -0.00357564 53.23867798 -0.00100327 C55.45171108 -0.00034761 57.66474517 -0.00111328 59.8777771 -0.00348282 C82.55639609 -0.02245099 105.09547256 0.90614757 127.6875 2.8828125 C129.18969086 3.01302795 129.18969086 3.01302795 130.722229 3.14587402 C217.45153457 10.71541082 303.28045073 27.02484585 394.3125 58.1328125 C394.97223816 58.36031189 395.63197632 58.58781128 396.31170654 58.82220459 C421.18333263 67.40559571 445.32433497 77.3404255 469.3125 88.1328125 C470.46121582 88.6489209 471.60993164 89.1650293 472.79345703 89.69677734 C487.69732273 96.42286593 502.26322701 103.51668958 516.50390625 111.55419922 C519.5135929 113.24583985 522.53676894 114.91145887 525.5625 116.57421875 C538.43426407 123.67207164 551.01813652 131.07594382 563.3125 139.1328125 C564.44244385 139.87096191 564.44244385 139.87096191 565.59521484 140.62402344 C581.65931472 151.14629981 597.36947966 162.06237027 612.3125 174.1328125 C613.24320313 174.88046875 614.17390625 175.628125 615.1328125 176.3984375 C621.02969083 181.17783159 626.8051097 186.0920231 632.54296875 191.06030273 C634.89142041 193.0886028 637.1978111 195.05065287 639.72265625 196.859375 C640.50962891 197.48972656 640.50962891 197.48972656 641.3125 198.1328125 C641.3125 198.7928125 641.3125 199.4528125 641.3125 200.1328125 C642.11747925 200.45100952 642.11747925 200.45100952 642.9387207 200.77563477 C646.20449111 202.64279692 648.66352801 205.19856455 651.29296875 207.84765625 C651.86525711 208.41803116 652.43754547 208.98840607 653.0271759 209.57606506 C654.23908434 210.78661369 655.44847546 211.99968698 656.65551758 213.21508789 C658.46941507 215.03954944 660.29353694 216.85327701 662.11914062 218.66601562 C668.24739636 224.78772268 674.06058364 230.96659669 679.42041016 237.78149414 C681.34689582 240.17555652 683.38569042 242.40412479 685.5 244.6328125 C734.12100354 298.16673974 763.61285473 373.14592489 763.5 445.1953125 C763.49939575 445.91547546 763.4987915 446.63563843 763.49816895 447.37762451 C763.31860755 526.6583598 728.29869872 598.72856456 676.3125 657.1328125 C675.85746094 657.64714844 675.40242188 658.16148437 674.93359375 658.69140625 C667.77355919 666.74911678 660.1705153 674.37664145 652.5625 682.0078125 C652.06663391 682.50635742 651.57076782 683.00490234 651.05987549 683.51855469 C645.32446006 689.27745939 639.50727218 694.86734094 633.3125 700.1328125 C632.22918594 701.08187105 631.14710466 702.03233906 630.06640625 702.984375 C621.12300508 710.78464512 611.81962688 718.03478176 602.3125 725.1328125 C601.66635742 725.61637207 601.02021484 726.09993164 600.35449219 726.59814453 C576.22566377 744.61076915 551.0093192 760.98995791 524.54882812 775.37207031 C521.23896353 777.17282042 517.93990341 778.99243957 514.640625 780.8125 C441.08839372 821.10473266 359.68345844 848.34132173 214.3125 878.1328125 C213.54780396 878.26000671 212.78310791 878.38720093 211.99523926 878.51824951 C185.57545704 882.89561746 158.96476587 885.60612314 132.3125 888.1328125 C131.26222626 888.23239258 131.26222626 888.23239258 130.19073486 888.33398438 C123.36894243 888.97435895 116.5464806 889.50443268 109.70751953 889.92236328 C107.2911856 890.0721461 104.87553757 890.23317583 102.46044922 890.40185547 C47.32645742 894.2400579 -8.61457217 893.32855608 -63.6875 889.1328125 C-65.13113922 889.02389679 -65.13113922 889.02389679 -66.60394287 888.91278076 C-151.03754454 882.47474793 -234.54977675 866.46799718 -408.6875 805.1328125 C-409.35869873 804.82772766 -410.02989746 804.52264282 -410.72143555 804.20831299 C-464.91950499 779.55289247 -518.64427276 749.85066278 -563.79296875 710.62890625 C-566.48064256 708.31119564 -569.22307505 706.09201057 -572 703.8828125 C-583.77133338 694.25940921 -594.49175226 683.41889179 -605.25 672.6953125 C-606.1778833 671.77210205 -607.1057666 670.8488916 -608.06176758 669.89770508 C-613.1444982 664.80299014 -618.02790071 659.61624157 -622.6875 654.1328125 C-623.57625177 653.11148188 -624.46553818 652.09061614 -625.35546875 651.0703125 C-646.23054215 626.73224243 -663.76170544 599.90852715 -677.74658203 571.07226562 C-678.36087738 569.8060585 -678.97888058 568.54164164 -679.60107422 567.27929688 C-698.11447819 529.66668564 -706.94045259 487.85694438 -706.875 446.0703125 C-706.87439575 445.35014954 -706.8737915 444.62998657 -706.87316895 443.88800049 C-706.74993984 389.47934428 -690.31340103 338.70747409 -662.6875 292.1328125 C-662.2440625 291.38273926 -661.800625 290.63266602 -661.34375 289.85986328 C-652.36256337 274.78480119 -642.06940854 260.48578161 -630.6875 247.1328125 C-629.74341636 246.01438472 -628.7994106 244.8958912 -627.85546875 243.77734375 C-618.34502874 232.55107087 -608.43707691 221.79034217 -598.07492065 211.34500122 C-597.11000138 210.37191757 -596.146554 209.39737212 -595.18460083 208.4213562 C-593.82495242 207.0439108 -592.45754776 205.6741346 -591.08984375 204.3046875 C-590.29054443 203.5012793 -589.49124512 202.69787109 -588.66772461 201.87011719 C-586.6875 200.1328125 -586.6875 200.1328125 -584.6875 200.1328125 C-584.6875 199.4728125 -584.6875 198.8128125 -584.6875 198.1328125 C-583.11463316 196.71842844 -581.47610004 195.37676849 -579.8125 194.0703125 C-576.05396047 191.06826883 -572.40876006 188.02110174 -568.875 184.7578125 C-562.74845524 179.19782909 -556.26654457 174.13871165 -549.6875 169.1328125 C-548.99543457 168.60558594 -548.30336914 168.07835937 -547.59033203 167.53515625 C-521.61296562 147.84704697 -494.01498186 130.50651556 -465.52539062 114.71044922 C-462.78597041 113.18755405 -460.05658899 111.6478841 -457.328125 110.10546875 C-443.9632953 102.61124059 -430.23727575 96.07482085 -416.27880859 89.76513672 C-412.79611593 88.18218069 -409.32874154 86.56949224 -405.86328125 84.94921875 C-365.71052454 66.33947747 -323.25267991 52.11085431 -280.6875 40.1328125 C-279.65109375 39.84100098 -278.6146875 39.54918945 -277.546875 39.24853516 C-247.55013878 30.86791715 -217.29723987 23.85526676 -186.6875 18.1328125 C-185.98941223 18.0017511 -185.29132446 17.8706897 -184.57208252 17.73565674 C-148.24596318 10.93610613 -111.50979741 6.2280049 -74.6875 3.1328125 C-73.55521973 3.03516602 -72.42293945 2.93751953 -71.25634766 2.83691406 C-67.92154852 2.55185568 -64.58611543 2.27700042 -61.25 2.0078125 C-60.32928711 1.93208008 -59.40857422 1.85634766 -58.45996094 1.77832031 C-38.99923694 0.29476736 -19.50827864 -0.02088793 0 0 Z M30.3125 29.1328125 C33.20634736 44.5498524 36.10235934 59.9664851 39 75.3828125 C39.32357672 77.10440205 39.32357672 77.10440205 39.65369034 78.86077118 C45.22520608 108.50158718 50.81834667 138.13790039 56.5 167.7578125 C61.02856714 191.36997868 65.48572798 214.99396407 69.85144043 238.63677979 C72.13171799 250.98149133 74.42110687 263.32448603 76.73016357 275.66384888 C77.65505544 280.60726109 78.5759338 285.5513798 79.49121094 290.49658203 C80.49687407 295.92771374 81.51197338 301.35701285 82.5329895 306.78527832 C82.92441144 308.8746107 83.31271022 310.96453086 83.69772339 313.05505371 C84.23405959 315.96413702 84.78171136 318.87087808 85.33203125 321.77734375 C85.48799774 322.63783829 85.64396423 323.49833282 85.80465698 324.38490295 C87.31675072 332.60976643 87.31675072 332.60976643 92.5925808 338.77251816 C95.53527182 340.24422583 97.25787307 340.50566322 100.51992798 340.50030518 C101.56222313 340.50587716 102.60451828 340.51144915 103.67839813 340.51718998 C104.82431679 340.50797236 105.97023544 340.49875475 107.15087891 340.48925781 C108.38257057 340.49127669 109.61426224 340.49329557 110.88327789 340.49537563 C114.35491141 340.49784767 117.82603097 340.48657246 121.29759455 340.46981215 C125.16712776 340.45449149 129.03666134 340.45674468 132.90621948 340.45649719 C140.77314211 340.45309015 148.63994561 340.43281455 156.50682533 340.40766615 C163.07184837 340.38712313 169.636856 340.37327979 176.2019043 340.36398315 C177.62512406 340.36196391 177.62512406 340.36196391 179.07709575 340.35990387 C181.02729001 340.35716306 182.97748429 340.3544338 184.92767859 340.35171568 C205.25656929 340.32240125 225.58537682 340.27062234 245.91420507 340.21326792 C268.45435287 340.14975759 290.99451306 340.09509728 313.53469172 340.04376015 C353.91435775 339.95168649 394.29399336 339.8498988 434.67361772 339.74110329 C444.22107253 339.71540836 453.76852813 339.6901356 463.31598663 339.66584778 C483.6502228 339.61405957 503.98444495 339.55972869 524.3186487 339.49633521 C532.90321226 339.46964253 541.48777335 339.44449106 550.07235336 339.42366982 C557.27694524 339.40618566 564.48151755 339.38539877 571.68608648 339.36011901 C575.34008918 339.34739391 578.99407846 339.33625994 582.64809728 339.32939768 C586.59098466 339.3219446 590.53382153 339.30688964 594.47668457 339.29103088 C595.63013363 339.2900527 596.78358268 339.28907451 597.97198474 339.28806669 C599.02196899 339.28259232 600.07195324 339.27711795 601.15375519 339.2714777 C602.5133664 339.26749064 602.5133664 339.26749064 603.90044451 339.26342303 C606.17429346 339.14029625 608.13289903 338.77117955 610.3125 338.1328125 C598.37770432 299.82316224 573.61059786 264.04796265 547.3125 234.1328125 C546.24128906 232.91271484 546.24128906 232.91271484 545.1484375 231.66796875 C543.98783333 230.34736359 542.82339586 229.0300993 541.65234375 227.71875 C540.3125 226.1328125 540.3125 226.1328125 538.3125 223.1328125 C537.6525 223.1328125 536.9925 223.1328125 536.3125 223.1328125 C535.97025391 222.30378418 535.97025391 222.30378418 535.62109375 221.45800781 C533.93404482 218.46034847 531.80437482 216.3651619 529.375 213.9296875 C528.89426025 213.4470343 528.41352051 212.9643811 527.91821289 212.46710205 C526.90528907 211.45282186 525.88985362 210.44104446 524.87207031 209.43164062 C523.31076835 207.88109278 521.76047503 206.32010747 520.2109375 204.7578125 C519.22459939 203.77279516 518.2376415 202.78839797 517.25 201.8046875 C516.35152344 200.9084668 515.45304687 200.01224609 514.52734375 199.08886719 C512.55514408 196.91215903 512.55514408 196.91215903 510.3125 197.1328125 C510.3125 196.4728125 510.3125 195.8128125 510.3125 195.1328125 C508.969946 193.69581028 508.969946 193.69581028 507.125 192.1953125 C506.39152344 191.57269531 505.65804688 190.95007813 504.90234375 190.30859375 C504.04769531 189.59058594 503.19304687 188.87257812 502.3125 188.1328125 C501.34441406 187.30136719 500.37632812 186.46992188 499.37890625 185.61328125 C431.6352753 127.50960277 349.61717826 87.24447086 132.6875 35.3828125 C131.428806 35.23110092 131.428806 35.23110092 130.14468384 35.07632446 C107.02397768 32.32006126 83.88869268 30.84066188 60.625 30.0078125 C58.33266505 29.92102719 56.0403472 29.83378895 53.74804688 29.74609375 C47.51344998 29.51145367 47.51344998 29.51145367 41.27856445 29.28466797 C40.46128372 29.25517059 39.64400299 29.22567322 38.80195618 29.19528198 C35.97132473 29.12425118 33.1439032 29.12282122 30.3125 29.1328125 Z M15.50512695 29.26879883 C14.14165634 29.31454041 14.14165634 29.31454041 12.75064087 29.36120605 C11.77718719 29.39540649 10.80373352 29.42960693 9.80078125 29.46484375 C8.77238129 29.50089722 7.74398132 29.53695068 6.68441772 29.57409668 C-17.50641824 30.44075328 -41.62063252 31.46944376 -65.6875 34.1328125 C-66.7785907 34.25335999 -66.7785907 34.25335999 -67.89172363 34.37634277 C-142.492957 42.71843718 -216.61435471 60.4629703 -285.6875 90.1328125 C-287.31679443 90.82793945 -287.31679443 90.82793945 -288.97900391 91.53710938 C-315.82925274 103.04605037 -341.68717817 116.01580407 -366.6875 131.1328125 C-368.32775655 132.11129499 -369.96836549 133.08918708 -371.609375 134.06640625 C-381.57858735 140.03914099 -391.20568417 146.41652629 -400.6875 153.1328125 C-401.409375 153.64070313 -402.13125 154.14859375 -402.875 154.671875 C-417.81638549 165.20347658 -431.88747643 176.6111443 -445.69921875 188.57421875 C-447.61743625 190.21661413 -449.57651918 191.81307414 -451.58203125 193.34765625 C-452.27683594 193.93675781 -452.97164062 194.52585938 -453.6875 195.1328125 C-453.6875 195.7928125 -453.6875 196.4528125 -453.6875 197.1328125 C-454.24018555 197.36097656 -454.79287109 197.58914062 -455.36230469 197.82421875 C-458.35996403 199.51126768 -460.4551506 201.64093768 -462.890625 204.0703125 C-463.6146048 204.79142212 -463.6146048 204.79142212 -464.35321045 205.52709961 C-465.36749064 206.54002343 -466.37926804 207.55545888 -467.38867188 208.57324219 C-468.93921972 210.13454415 -470.50020503 211.68483747 -472.0625 213.234375 C-473.04751734 214.22071311 -474.03191453 215.207671 -475.015625 216.1953125 C-475.9118457 217.09378906 -476.80806641 217.99226562 -477.73144531 218.91796875 C-479.90815347 220.89016842 -479.90815347 220.89016842 -479.6875 223.1328125 C-480.3475 223.1328125 -481.0075 223.1328125 -481.6875 223.1328125 C-483.26745612 224.64385699 -483.26745612 224.64385699 -484.890625 226.62890625 C-485.51388672 227.36222168 -486.13714844 228.09553711 -486.77929688 228.85107422 C-487.40900391 229.60404785 -488.03871094 230.35702148 -488.6875 231.1328125 C-489.25017578 231.79684082 -489.81285156 232.46086914 -490.39257812 233.14501953 C-505.81891226 251.42622719 -519.55434427 270.68685347 -531.63037109 291.3359375 C-532.63121271 293.03713711 -533.65290701 294.72601856 -534.67578125 296.4140625 C-538.92346974 303.56447999 -542.54529885 310.88425799 -546 318.4453125 C-546.63119751 319.82408569 -546.63119751 319.82408569 -547.27514648 321.23071289 C-549.76199264 326.77144015 -551.89700748 332.32905508 -553.6875 338.1328125 C-550.5685794 339.04628987 -547.77367281 339.26196197 -544.52875519 339.2714777 C-543.47877094 339.27695206 -542.4287867 339.28242643 -541.34698474 339.28806669 C-539.61681116 339.28953396 -539.61681116 339.28953396 -537.85168457 339.29103088 C-536.62381009 339.29596957 -535.39593561 339.30090825 -534.13085282 339.3059966 C-530.71356504 339.31872753 -527.29631826 339.32700656 -523.87901619 339.33342427 C-520.18159222 339.34143586 -516.48418869 339.35512555 -512.7867794 339.36809921 C-505.49457098 339.39277891 -498.20235731 339.41213692 -490.91012896 339.42982366 C-482.29462288 339.45095244 -473.67913662 339.47767498 -465.06364684 339.50453445 C-444.64721284 339.56789426 -424.23075661 339.62122828 -403.81429092 339.67316582 C-394.27489525 339.69749946 -384.73550307 339.7230867 -375.19611101 339.74878885 C-334.87071239 339.85736604 -294.54530049 339.95804193 -254.21986032 340.04988647 C-231.29401558 340.10210401 -208.36819571 340.15943971 -185.44238281 340.22412109 C-165.41499686 340.28051383 -145.3876275 340.32790325 -125.3601799 340.35581684 C-123.43242135 340.35852612 -121.50466281 340.36124808 -119.5769043 340.36398315 C-118.63861196 340.36531185 -117.70031962 340.36664055 -116.73359418 340.36800951 C-110.19159369 340.37802122 -103.64963996 340.39562141 -97.10766602 340.41653442 C-89.36310652 340.4412346 -81.61861644 340.45615583 -73.87401569 340.45665115 C-70.07485779 340.45713028 -66.27586677 340.46207174 -62.47674942 340.48041344 C-58.49306626 340.49954443 -54.50960767 340.49578759 -50.52587891 340.48925781 C-48.80700092 340.50308424 -48.80700092 340.50308424 -47.05339813 340.51718998 C-45.48995541 340.508832 -45.48995541 340.508832 -43.89492798 340.50030518 C-43.002064 340.50177174 -42.10920002 340.5032383 -41.18927956 340.5047493 C-38.09109401 340.04414548 -36.21957277 338.94987766 -33.6875 337.1328125 C-30.37582063 332.12316931 -29.59295078 326.59068161 -28.55859375 320.78125 C-28.27289772 319.24198853 -28.27289772 319.24198853 -27.98143005 317.67163086 C-27.35449485 314.28513394 -26.73993768 310.89650659 -26.125 307.5078125 C-25.46087714 303.90630179 -24.79349122 300.30540436 -24.12609863 296.70449829 C-23.66661388 294.22371887 -23.20821307 291.74273845 -22.75085449 289.26156616 C-20.62723335 277.75018679 -18.41868635 266.25598763 -16.19284058 254.76400757 C-12.93439071 237.93160175 -9.72640971 221.09094856 -6.60671997 204.2322998 C-2.78153466 183.56591178 1.10985021 162.91204834 5 142.2578125 C5.34662071 140.41729775 5.69323937 138.57678261 6.03985596 136.73626709 C7.95058401 126.59075124 9.86192235 116.44535045 11.77360535 106.3000145 C13.43758627 97.46919945 15.10112256 88.63830066 16.76462746 79.80739594 C19.94658315 62.91574214 23.12925571 46.0242235 26.3125 29.1328125 C22.70633866 29.12145897 19.10923521 29.14754519 15.50512695 29.26879883 Z M-556.6875 346.1328125 C-564.44069535 364.77629173 -568.56936381 384.23159963 -571.6875 404.1328125 C-571.87586426 405.29901123 -572.06422852 406.46520996 -572.25830078 407.66674805 C-574.02131234 419.8589419 -574.08421551 432.01841689 -574.0625 444.3203125 C-574.06228851 445.42508942 -574.06207703 446.52986633 -574.06185913 447.66812134 C-574.02842153 465.18926793 -573.04140605 481.90388169 -569.6875 499.1328125 C-569.35615544 501.02984053 -569.02541142 502.92697357 -568.6953125 504.82421875 C-557.63989617 564.3650112 -525.20988676 618.20934795 -485.6875 663.1328125 C-484.87410156 664.05964844 -484.06070313 664.98648437 -483.22265625 665.94140625 C-477.03804328 672.8294823 -470.53269768 679.38886162 -464 685.9453125 C-463.10869385 686.8412915 -462.2173877 687.73727051 -461.29907227 688.66040039 C-456.25503831 693.69222915 -451.1079076 698.51078774 -445.6875 703.1328125 C-444.60433288 704.08203875 -443.52225187 705.03250619 -442.44140625 705.984375 C-433.49771657 713.78489675 -424.19238189 721.03138729 -414.6875 728.1328125 C-414.03604004 728.62168945 -413.38458008 729.11056641 -412.71337891 729.61425781 C-375.01154102 757.8545418 -333.34625188 780.75930579 -290.1875 799.5078125 C-289.57083466 799.77698486 -288.95416931 800.04615723 -288.31881714 800.32348633 C-281.22165337 803.40722579 -274.16714994 806.13070552 -266.6875 808.1328125 C-266.3565332 807.49069824 -266.02556641 806.84858398 -265.68457031 806.18701172 C-259.30469559 793.82463231 -252.85389192 781.51284521 -246.1484375 769.32373047 C-241.95155579 761.67328021 -237.92544722 753.93997171 -233.91479492 746.19067383 C-230.60990847 739.8305015 -227.1349649 733.61369991 -223.53125 727.41796875 C-221.54320952 723.87571866 -219.7262175 720.27824234 -217.9375 716.6328125 C-214.81221227 710.26579563 -211.48510217 704.0322797 -208.0625 697.8203125 C-203.47510504 689.48864303 -199.0421447 681.08837517 -194.6875 672.6328125 C-190.05171528 663.63879718 -185.32249998 654.70975113 -180.4440918 645.84521484 C-175.49271729 636.82923051 -170.691284 627.73541888 -165.88146973 618.64346313 C-161.55406802 610.4680904 -157.17591399 602.33324188 -152.57861328 594.30566406 C-150.19052622 590.1075725 -148.00363039 585.84038495 -145.875 581.5078125 C-140.33093436 570.22392606 -134.1683877 559.27032583 -128.10546875 548.25976562 C-122.82428151 538.66058535 -117.58053378 529.07088792 -112.75585938 519.2331543 C-109.498026 512.64201329 -105.944078 506.2188971 -102.40161133 499.77758789 C-98.11067002 491.95681647 -93.95807693 484.06960093 -89.86328125 476.14453125 C-87.75424032 472.06742806 -85.64090978 468.00252073 -83.37890625 464.0078125 C-82.73824219 462.8734375 -82.09757812 461.7390625 -81.4375 460.5703125 C-80.89609375 459.64089844 -80.3546875 458.71148437 -79.796875 457.75390625 C-78.42166306 454.50472592 -78.04563535 452.62180532 -78.6875 449.1328125 C-82.81453511 445.05613071 -85.83525183 443.4297344 -91.61328125 442.2734375 C-92.31482834 442.12736557 -93.01637543 441.98129364 -93.73918152 441.83079529 C-96.15636598 441.33150357 -98.57793888 440.8578408 -101 440.3828125 C-102.79726645 440.01599152 -104.5941249 439.64716729 -106.390625 439.27661133 C-110.61910485 438.40619787 -114.84939446 437.54521433 -119.08056641 436.68798828 C-127.87892448 434.89762387 -136.66395252 433.04477367 -145.44921875 431.19140625 C-148.85122359 430.47405758 -152.25324902 429.75680659 -155.65527344 429.03955078 C-156.51577868 428.85810013 -157.37628391 428.67664948 -158.26286507 428.48970032 C-188.02904901 422.21491106 -217.81195038 416.02129013 -247.60385132 409.86988831 C-265.46822114 406.18099776 -283.32901563 402.4750811 -301.1875 398.7578125 C-302.3227499 398.52154963 -302.3227499 398.52154963 -303.48093414 398.28051376 C-327.07128156 393.37047798 -350.64682055 388.39343683 -374.2144165 383.37543488 C-393.14748666 379.34445743 -412.09348059 375.38770989 -431.06689453 371.55047607 C-448.88371497 367.94438598 -466.66806463 364.19162829 -484.44792938 360.40851593 C-490.78933182 359.05929035 -497.13099903 357.71130871 -503.47265625 356.36328125 C-504.14166962 356.22106644 -504.81068298 356.07885162 -505.49996948 355.93232727 C-516.13838871 353.67119504 -526.77714782 351.41188196 -537.42630005 349.20175171 C-538.82916128 348.91021294 -540.23173935 348.61730763 -541.63400269 348.32290649 C-543.4817494 347.93532393 -545.33067973 347.55339624 -547.1796875 347.171875 C-548.16308105 346.96771973 -549.14647461 346.76356445 -550.15966797 346.55322266 C-552.91804146 346.02343978 -552.91804146 346.02343978 -556.6875 346.1328125 Z M603.30639648 347.17407227 C602.1020697 347.42983032 600.89774292 347.68558838 599.65692139 347.94909668 C598.33245242 348.24068404 597.00801075 348.53239543 595.68359375 348.82421875 C594.28667737 349.12425827 592.8895567 349.42334802 591.49224854 349.72155762 C588.48836441 350.36441527 585.48583548 351.01315559 582.48422241 351.66653442 C577.69125348 352.70956083 572.89544713 353.73905814 568.09887695 354.76538086 C567.28916537 354.9386493 566.47945379 355.11191774 565.6452055 355.29043674 C563.99604401 355.64329212 562.34687117 355.99609447 560.69768715 356.34884453 C558.18565317 356.88655239 555.67388401 357.42548366 553.16215515 357.96461487 C537.49176454 361.32521938 521.79629492 364.55806951 506.09428787 367.76710129 C482.46048162 372.5994173 458.85192193 377.54088246 435.25936508 382.57051468 C412.91784993 387.33296737 390.55570398 391.98534534 368.17712402 396.5703125 C346.53671878 401.00454796 324.91703219 405.52703454 303.3125 410.1328125 C281.52387141 414.77762595 259.72007559 419.34007593 237.89638901 423.81734848 C234.3556664 424.54394599 230.81515681 425.27157948 227.2746582 425.99926758 C226.58030261 426.14197743 225.88594702 426.28468729 225.17055035 426.43172169 C218.24368649 427.85548886 211.3169366 429.27980936 204.39041138 430.70522308 C202.99814962 430.99172057 201.60587656 431.2781631 200.21359253 431.56455231 C191.39724351 433.37816713 182.58269691 435.20009555 173.77102661 437.03631592 C171.28335794 437.55350233 168.79514659 438.06808626 166.30636597 438.57989502 C162.89416629 439.28201147 159.48401131 439.9933302 156.07421875 440.70703125 C155.07964661 440.90953995 154.08507446 441.11204865 153.06036377 441.32069397 C147.09271764 442.58280046 141.49378607 443.97774774 136.375 447.4453125 C134.74633859 450.03201003 135.10923474 452.1230282 135.3125 455.1328125 C136.27340415 457.81510183 136.27340415 457.81510183 137.734375 460.4140625 C138.52146851 461.90703857 138.52146851 461.90703857 139.32446289 463.43017578 C139.89801514 464.4870459 140.47156738 465.54391602 141.0625 466.6328125 C141.65087646 467.73995605 142.23925293 468.84709961 142.84545898 469.98779297 C144.65280059 473.37779929 146.4786806 476.75706537 148.3125 480.1328125 C148.84053223 481.10508789 149.36856445 482.07736328 149.91259766 483.07910156 C151.88871295 486.70995038 153.86961411 490.33808329 155.86035156 493.9609375 C159.95696994 501.42791887 163.89657474 508.97055569 167.81494141 516.53222656 C171.68534624 523.98102521 175.68837128 531.34999912 179.73339844 538.70507812 C184.19844133 546.85458237 188.46609468 555.10108714 192.72705078 563.35864258 C196.15909261 569.98529918 199.74521617 576.47115104 203.50390625 582.91796875 C205.48269105 586.43533352 207.28527377 590.01092165 209.0625 593.6328125 C212.22838488 600.08303641 215.5993759 606.39993488 219.0625 612.6953125 C223.24178951 620.29354067 227.32427634 627.93256338 231.3125 635.6328125 C235.69916659 644.09822168 240.20833214 652.48637239 244.80151367 660.84130859 C249.03856168 668.5718925 253.10400749 676.38595828 257.15527344 684.21508789 C260.17287429 690.02181983 263.33191568 695.67770513 266.69140625 701.29296875 C268.59810599 704.63313914 270.30640651 708.05676453 272 711.5078125 C275.14641515 717.91649019 278.49196354 724.19265574 281.9375 730.4453125 C286.52494956 738.77694659 290.95798694 747.1771856 295.3125 755.6328125 C300.12326005 764.96940233 305.04109804 774.23482593 310.09863281 783.43994141 C314.59450004 791.62327554 318.97113323 799.86667477 323.3125 808.1328125 C330.80679699 806.10180151 337.79491755 803.3662646 344.875 800.1953125 C345.95418701 799.71586182 347.03337402 799.23641113 348.14526367 798.74243164 C359.00814602 793.88187211 369.74395033 788.76667815 380.43310547 783.53662109 C383.07519748 782.24850603 385.72542736 780.97928138 388.37890625 779.71484375 C420.97184073 764.01549144 452.00881282 743.60736502 480.3125 721.1328125 C480.94542969 720.63136719 481.57835937 720.12992188 482.23046875 719.61328125 C490.22840551 713.25515358 498.01648754 706.75760067 505.46875 699.765625 C507.59558387 697.79655078 509.74235491 695.90012458 511.94140625 694.015625 C516.91461482 689.68094025 521.58588515 685.04549079 526.24829102 680.38232422 C527.73891615 678.89388013 529.23737017 677.41363973 530.73632812 675.93359375 C536.31021281 670.39141639 541.48696202 664.7048529 546.37792969 658.53491211 C548.2156937 656.25301406 550.13307189 654.09277884 552.125 651.9453125 C567.35105029 634.91736277 580.01095026 615.00223427 591.18310547 595.140625 C591.92050016 593.8297011 592.66405816 592.52221969 593.41455078 591.21875 C608.09592452 565.6332811 618.29603594 536.79330748 624.625 508.0703125 C624.85558105 507.03253662 625.08616211 505.99476074 625.32373047 504.92553711 C629.41488341 485.20774303 630.86866936 465.48749217 630.75 445.3828125 C630.74593643 443.75320084 630.74593643 443.75320084 630.74179077 442.09066772 C630.67768378 425.07985345 629.71877898 408.83358165 626.3125 392.1328125 C625.93468202 390.12894655 625.55707735 388.12504037 625.1796875 386.12109375 C622.56067591 372.80430893 618.68283195 359.97101779 614.3125 347.1328125 C610.26658659 346.05673244 607.3800297 346.2913415 603.30639648 347.17407227 Z M18.3125 524.1328125 C15.90754378 526.69112825 13.52851798 529.26842116 11.16918945 531.86865234 C6.69987723 536.77687126 2.04153892 541.47046252 -2.70361328 546.11157227 C-5.60113057 548.96518777 -8.36191354 551.87084177 -11.01171875 554.95703125 C-15.91502515 560.63364823 -21.31756439 565.80821552 -26.66015625 571.06640625 C-30.9437292 575.30872488 -35.03837627 579.61563756 -38.96337891 584.19042969 C-42.65120147 588.34510489 -46.70953877 592.15192735 -50.69726562 596.015625 C-51.6650293 596.96695313 -51.6650293 596.96695313 -52.65234375 597.9375 C-53.2362085 598.50452637 -53.82007324 599.07155273 -54.42163086 599.65576172 C-55.90441323 601.06169992 -55.90441323 601.06169992 -55.6875 603.1328125 C-56.3475 603.1328125 -57.0075 603.1328125 -57.6875 603.1328125 C-59.20503743 604.63321986 -59.20503743 604.63321986 -60.78125 606.6015625 C-65.34652119 611.9702458 -70.34673306 616.84286429 -75.37109375 621.77734375 C-78.76668561 625.13609374 -82.07167769 628.51133674 -85.1875 632.1328125 C-89.63185252 637.29841994 -94.51257088 642.00573543 -99.37109375 646.77734375 C-102.74594822 650.11558135 -106.03224627 653.46748789 -109.125 657.0703125 C-113.98205688 662.71560032 -119.35615329 667.84619481 -124.66015625 673.06640625 C-128.93238513 677.29749007 -133.01591345 681.59277033 -136.93164062 686.15429688 C-140.85410578 690.57416028 -145.15698602 694.63862256 -149.37109375 698.77734375 C-152.76668561 702.13609374 -156.07167769 705.51133674 -159.1875 709.1328125 C-163.63185252 714.29841994 -168.51257088 719.00573543 -173.37109375 723.77734375 C-176.7563171 727.12583773 -180.05195258 730.48941919 -183.15625 734.1015625 C-187.80696199 739.50701861 -192.93439496 744.4259005 -198.015625 749.421875 C-202.16519084 753.52909833 -206.11108469 757.71355475 -209.91455078 762.14160156 C-213.82534931 766.53384514 -218.12442369 770.56540272 -222.34179688 774.66015625 C-223.03208984 775.33949219 -223.72238281 776.01882813 -224.43359375 776.71875 C-225.05935303 777.3276709 -225.6851123 777.9365918 -226.32983398 778.56396484 C-227.90562644 780.03907823 -227.90562644 780.03907823 -227.6875 782.1328125 C-228.3475 782.1328125 -229.0075 782.1328125 -229.6875 782.1328125 C-231.17720843 783.60823319 -231.17720843 783.60823319 -232.73046875 785.5546875 C-237.62447373 791.31234042 -243.04523817 796.50562199 -248.45507812 801.7734375 C-249.22916016 802.5365625 -250.00324219 803.2996875 -250.80078125 804.0859375 C-251.84939331 805.10929199 -251.84939331 805.10929199 -252.91918945 806.15332031 C-254.63154434 808.0701743 -255.67051765 809.78598062 -256.6875 812.1328125 C-248.79551119 815.85692629 -240.64917387 818.65104504 -232.375 821.3828125 C-231.64864349 821.62336365 -230.92228699 821.86391479 -230.17391968 822.11175537 C-149.11102374 848.89502552 -64.48847594 860.82921288 209.3125 843.1328125 C210.00956055 842.98326111 210.70662109 842.83370972 211.42480469 842.67962646 C239.91905415 836.55201628 267.76501058 828.34443559 295.45422363 819.28192139 C296.76326432 818.8534839 298.07306751 818.42736828 299.38366699 818.00372314 C301.17825283 817.42111456 302.96817317 816.82419297 304.7578125 816.2265625 C305.76344238 815.89333984 306.76907227 815.56011719 307.80517578 815.21679688 C310.27258377 814.15006937 311.59759677 813.16948707 313.3125 811.1328125 C306.88507172 803.67992558 300.00217725 796.74754169 292.99047852 789.84790039 C292.27174561 789.13754639 291.5530127 788.42719238 290.8125 787.6953125 C289.83796875 786.73818359 289.83796875 786.73818359 288.84375 785.76171875 C287.3125 784.1328125 287.3125 784.1328125 286.3125 782.1328125 C285.6525 782.1328125 284.9925 782.1328125 284.3125 782.1328125 C284.07168701 781.56530273 283.83087402 780.99779297 283.58276367 780.41308594 C282.05624592 777.67280614 280.23049033 775.84241959 277.98828125 773.6484375 C277.12396484 772.79507813 276.25964844 771.94171875 275.36914062 771.0625 C274.46357422 770.17820312 273.55800781 769.29390625 272.625 768.3828125 C267.24347849 763.10696451 261.97284627 757.84231108 257.07104492 752.11621094 C253.66820318 748.27827032 249.96846242 744.72743327 246.3125 741.1328125 C241.37316174 736.27634904 236.60098859 731.38259474 232.0859375 726.12890625 C228.83059879 722.46485762 225.30798052 719.06576207 221.8125 715.6328125 C217.04392226 710.94954026 212.46274034 706.21314898 208.10351562 701.14648438 C204.84059 697.47791696 201.31401288 694.07168651 197.8125 690.6328125 C193.69976909 686.59365459 189.63157455 682.57143826 185.875 678.1953125 C181.76944846 673.42348859 177.2965791 669.04605307 172.8125 664.6328125 C167.70242581 659.60346618 162.73887508 654.55212633 158.06835938 649.11132812 C154.82064284 645.45177657 151.30194339 642.05983293 147.8125 638.6328125 C143.68662595 634.58074657 139.60758092 630.54367193 135.8359375 626.15625 C131.93412053 621.62013651 127.70281317 617.44958579 123.4375 613.2578125 C121.91699184 611.76273089 120.39864589 610.26544606 118.8828125 608.765625 C118.22039551 608.11480957 117.55797852 607.46399414 116.87548828 606.79345703 C115.3125 605.1328125 115.3125 605.1328125 114.3125 603.1328125 C113.6525 603.1328125 112.9925 603.1328125 112.3125 603.1328125 C112.06717529 602.56079102 111.82185059 601.98876953 111.5690918 601.39941406 C110.09774527 598.74544453 108.37697599 596.98782067 106.20703125 594.8671875 C104.97823242 593.65482422 104.97823242 593.65482422 103.72460938 592.41796875 C102.86673828 591.58136719 102.00886719 590.74476563 101.125 589.8828125 C95.92392736 584.78967911 90.85754348 579.69289734 86.11987305 574.16503906 C82.53971984 570.1394825 78.65055927 566.41023892 74.8125 562.6328125 C69.69219207 557.59339411 64.71708376 552.53189497 60.03710938 547.08007812 C56.95851385 543.60401954 53.62607479 540.38290884 50.3125 537.1328125 C45.61406517 532.524386 41.09450302 527.8575941 36.82495117 522.84570312 C34.83855543 520.59605784 32.83183804 518.76697772 30.3125 517.1328125 C24.45264109 517.1328125 22.34897296 520.12280822 18.3125 524.1328125 Z " fill="#2A2928" transform="translate(971.6875,-0.1328125)"/>
<path d="M0 0 C1.09127197 0.48073975 1.09127197 0.48073975 2.20458984 0.97119141 C38.55318987 17.04208284 70.41390345 40.67274823 99.375 67.625 C100.13167969 68.32471924 100.88835938 69.02443848 101.66796875 69.74536133 C102.71017578 70.72605591 102.71017578 70.72605591 103.7734375 71.7265625 C104.39653809 72.31002441 105.01963867 72.89348633 105.66162109 73.49462891 C107 75 107 75 107 77 C107.66 77 108.32 77 109 77 C110.375 78.36328125 110.375 78.36328125 112 80.3125 C114.90355393 83.74837215 117.91464958 87.03901846 121 90.3125 C129.77773838 99.9466031 135.53714956 108.89076983 135.2421875 122.1640625 C134.78369738 127.53283391 132.66437946 130.57396182 128.875 134.1875 C121.86310868 139.86237814 112.80499379 141.11673785 104.03666687 141.14717102 C103.34791892 141.15084771 102.65917098 141.1545244 101.94955188 141.1583125 C99.64824503 141.16930048 97.3469834 141.1731848 95.0456543 141.17700195 C93.39289203 141.18327018 91.74013117 141.18991729 90.08737183 141.19691467 C84.6663307 141.21791053 79.24528943 141.22831121 73.82421875 141.23828125 C71.95559995 141.24233014 70.08698131 141.2464471 68.21836281 141.25063133 C59.44045874 141.26967125 50.66256304 141.28390616 41.8846423 141.2922433 C31.76031313 141.3020189 21.6362024 141.32835189 11.51195019 141.36874419 C3.67994016 141.39891683 -4.15200727 141.41371317 -11.98407429 141.41702431 C-16.65910655 141.41937299 -21.33390511 141.42831009 -26.00887489 141.45348549 C-30.40761756 141.4767921 -34.80597305 141.4809891 -39.20476151 141.47072411 C-40.8155884 141.47022931 -42.42643453 141.4765333 -44.03720284 141.49028015 C-53.57995652 141.56714031 -60.9278993 141.53731579 -68.37109375 134.87890625 C-69.05300781 134.11449219 -69.73492188 133.35007812 -70.4375 132.5625 C-97.66992035 104.24578727 -139.41489995 84.64967039 -178.7734375 83.796875 C-193.05676016 83.64970156 -207.02448447 83.71011961 -221 87 C-221.70833984 87.16628906 -222.41667969 87.33257813 -223.14648438 87.50390625 C-259.27199185 96.36302253 -291.15459578 119.56941239 -311 151 C-330.02987589 183.07692733 -338.53772059 222.06681405 -329.19140625 258.80859375 C-328.80036666 260.20744755 -328.40344771 261.60467428 -328 263 C-327.81808105 263.66402832 -327.63616211 264.32805664 -327.44873047 265.01220703 C-322.50628894 282.7458109 -312.99072728 300.16740624 -301.25 314.29296875 C-300 316 -300 316 -300 318 C-299.34 318 -298.68 318 -298 318 C-296.58984375 319.43359375 -296.58984375 319.43359375 -294.9375 321.4375 C-270.88544738 349.55608523 -234.02158688 366.66005483 -197.34033203 369.83447266 C-158.10629326 372.60942345 -120.73010975 362.00662556 -90.33984375 336.79296875 C-81.54940697 329.06128505 -73.19606244 320.68297607 -65.5703125 311.8046875 C-60.01802517 305.42370057 -54.18050271 299.72683424 -46 297 C-43.80770253 296.90159898 -41.61248204 296.86497189 -39.41798401 296.85955811 C-38.74601783 296.85658698 -38.07405166 296.85361586 -37.38172287 296.8505547 C-35.12499345 296.8418679 -32.86831709 296.84035943 -30.61157227 296.83886719 C-28.99515164 296.83423874 -27.3787321 296.82921404 -25.76231384 296.82382202 C-21.3651322 296.81069241 -16.96796583 296.80425113 -12.57076764 296.79981136 C-9.82064881 296.79687952 -7.07053414 296.79277434 -4.3204174 296.78830719 C4.29198418 296.77462633 12.90437624 296.76496445 21.51678795 296.7611053 C31.44239692 296.75663299 41.36786761 296.73912611 51.29343456 296.7101047 C58.97345204 296.68843318 66.6534308 296.67839799 74.33347851 296.67706418 C78.91584372 296.6760194 83.49807904 296.67018244 88.08041191 296.65224457 C92.39865924 296.63567073 96.7166804 296.63365319 101.03494835 296.64238358 C102.61183532 296.64314919 104.1887349 296.63887473 105.76559067 296.62892532 C118.5191078 296.55323815 130.23858398 296.96775 140 306 C140.81791016 306.7425 140.81791016 306.7425 141.65234375 307.5 C145.81962483 312.13836502 144.51774752 321.05684168 144.20458984 326.96337891 C143.24962528 336.46972065 135.40114451 343.59322913 129.36376953 350.43017578 C127.40116581 352.68931326 125.54951444 355.03269025 123.6875 357.375 C119.25183245 362.8448487 114.46050687 367.95184741 109.6081543 373.05029297 C109.02590088 373.66404785 108.44364746 374.27780273 107.84375 374.91015625 C107.31974609 375.45808838 106.79574219 376.00602051 106.25585938 376.57055664 C104.89584824 377.99632699 104.89584824 377.99632699 104 380 C103.34 380 102.68 380 102 380 C101.60735962 380.88619019 101.60735962 380.88619019 101.20678711 381.7902832 C99.93255931 384.12348892 98.6290495 385.54804275 96.69140625 387.35546875 C96.03269531 387.97317139 95.37398437 388.59087402 94.6953125 389.22729492 C93.99148438 389.8741626 93.28765625 390.52103027 92.5625 391.1875 C91.83675781 391.85950439 91.11101563 392.53150879 90.36328125 393.22387695 C84.75257583 398.38381093 79.03292233 403.33671409 73 408 C72.11924805 408.6815918 72.11924805 408.6815918 71.22070312 409.37695312 C15.33795813 452.43787033 -50.53670804 476.66733583 -120.125 486.1875 C-121.81882812 486.42001465 -121.81882812 486.42001465 -123.546875 486.65722656 C-144.54573839 489.37688748 -165.45883646 490.41186957 -186.625 490.375 C-187.86535004 490.37412384 -189.10570007 490.37324768 -190.38363647 490.37234497 C-279.37795891 490.16625541 -374.15669465 464.35749314 -451 400 C-451.73347656 399.36578125 -452.46695312 398.7315625 -453.22265625 398.078125 C-454.50976877 396.96245689 -455.79126697 395.84027083 -457.06640625 394.7109375 C-458.43911548 393.49629782 -459.82316965 392.29442602 -461.21484375 391.1015625 C-466.65234498 386.36027294 -471.68416635 381.31174556 -476.625 376.0625 C-477.56786865 375.06766602 -477.56786865 375.06766602 -478.52978516 374.05273438 C-479.11034668 373.42818359 -479.6909082 372.80363281 -480.2890625 372.16015625 C-480.81193848 371.59949463 -481.33481445 371.03883301 -481.87353516 370.46118164 C-483 369 -483 369 -483 367 C-483.66 367 -484.32 367 -485 367 C-486.22998047 365.72509766 -486.22998047 365.72509766 -487.6171875 363.9140625 C-488.39497559 362.90267212 -488.39497559 362.90267212 -489.18847656 361.87084961 C-489.7450293 361.12971924 -490.30158203 360.38858887 -490.875 359.625 C-491.45217773 358.86131104 -492.02935547 358.09762207 -492.62402344 357.31079102 C-514.96066795 327.45243683 -531.59571887 295.27961539 -537 258 C-537.10296387 257.30326172 -537.20592773 256.60652344 -537.31201172 255.88867188 C-545.41839156 198.56773007 -529.45789477 144.99891397 -495.41943359 99.09375 C-486.53289178 87.28596125 -476.78024662 76.61560323 -466.375 66.125 C-465.51640381 65.25697754 -464.65780762 64.38895508 -463.77319336 63.49462891 C-457.82477825 57.57625344 -451.58571549 52.19579659 -445 47 C-444.26765137 46.41895508 -443.53530273 45.83791016 -442.78076172 45.23925781 C-427.31064303 33.06544453 -411.20028799 22.56188404 -394 13 C-393.15002441 12.52304688 -392.30004883 12.04609375 -391.42431641 11.5546875 C-357.80216867 -7.16808674 -320.58970333 -20.05062393 -283 -28 C-281.40961914 -28.33789551 -281.40961914 -28.33789551 -279.78710938 -28.68261719 C-191.53197532 -47.1503333 -93.60570085 -40.13241595 0 0 Z " fill="#2A2928" transform="translate(1856,1027)"/>
<path d="M0 0 C1.42203809 -0.00571396 2.84407161 -0.01268216 4.26609802 -0.02079773 C8.10089991 -0.03863069 11.93547176 -0.03757958 15.77030253 -0.03185534 C18.98331338 -0.02874927 22.19628094 -0.0348716 25.4092856 -0.04089409 C32.99457392 -0.05490518 40.57974951 -0.05340646 48.16503906 -0.04199219 C55.96544585 -0.03051291 63.76550873 -0.04459111 71.56587023 -0.07138866 C78.28723173 -0.09360666 85.00848576 -0.1001694 91.72988135 -0.09431225 C95.73366482 -0.09095618 99.7372279 -0.09326725 103.74098015 -0.11056328 C107.50786242 -0.1261283 111.27423849 -0.1219724 115.04110146 -0.10325813 C117.0654341 -0.0978669 119.08979001 -0.11201307 121.11407471 -0.12695312 C137.77185778 0.00632333 150.64565094 7.30034413 162.29211426 18.93688965 C166.17949891 23.1778333 168.91769749 28.25234888 171.76196289 33.21655273 C172.47974421 34.43663062 173.19926908 35.65568421 173.92041016 36.8737793 C175.80013206 40.05890458 177.65730488 43.25657299 179.50897217 46.45806885 C181.37963148 49.68528766 183.26843025 52.90183943 185.15649414 56.11889648 C187.35885897 59.87305339 189.56013624 63.62779509 191.75268555 67.38769531 C195.29175398 73.45160929 198.86592789 79.4811658 202.63696289 85.40405273 C207.18167779 92.54210171 211.43846385 99.84463723 215.69946289 107.15405273 C221.44146755 117.00291003 227.26106518 126.79730591 233.19946289 136.52905273 C239.53758722 146.91797322 245.78504501 157.35615178 251.97583008 167.83349609 C255.77731724 174.26696293 259.5960028 180.68908768 263.44946289 187.09155273 C268.71421471 195.84134435 273.92747571 204.6212999 279.13696289 213.40405273 C285.7678671 224.58197791 292.42090983 235.74584077 299.12084961 246.88256836 C302.06753558 251.7832725 305.00793488 256.68775157 307.94946289 261.59155273 C311.71656871 267.87165921 315.48436802 274.15133655 319.25805664 280.42749023 C327.16653544 293.58551671 335.02594229 306.77180578 342.8527832 319.97851562 C347.7352775 328.21512048 352.64478216 336.43499708 357.57778931 344.64144897 C359.43252685 347.7279755 361.28460018 350.8161006 363.13696289 353.90405273 C363.55896973 354.60739746 363.98097656 355.31074219 364.41577148 356.03540039 C367.04589844 360.41894531 367.04589844 360.41894531 369.67602539 364.80249023 C370.18528564 365.65121704 370.18528564 365.65121704 370.70483398 366.51708984 C371.42400476 367.71576317 372.14307654 368.91449589 372.86206055 370.11328125 C375.19615474 374.00457904 377.53284718 377.89430152 379.87133789 381.78295898 C387.05809909 393.73986022 394.2077701 405.71784852 401.32446289 417.71655273 C406.55746472 426.53930447 411.79324852 435.36003062 417.07446289 444.15405273 C417.53755859 444.92579834 418.0006543 445.69754395 418.4777832 446.49267578 C420.92716135 450.57077756 423.38720749 454.64218689 425.85571289 458.70874023 C426.66310913 460.04340332 426.66310913 460.04340332 427.48681641 461.4050293 C428.50231178 463.08341531 429.52074902 464.76002713 430.54296875 466.43432617 C441.35683876 484.33132809 441.35683876 484.33132809 439.63696289 495.40405273 C437.47923934 499.80940498 434.65526482 501.14644573 430.1129837 502.77846146 C425.11612886 504.04096652 420.01786907 503.81866635 414.89379883 503.79223633 C413.63418839 503.79749329 412.37457794 503.80275024 411.07679749 503.8081665 C407.64053546 503.82177398 404.20454549 503.81656743 400.76827908 503.80702925 C397.15575406 503.79939173 393.54325111 503.80649017 389.9307251 503.81118774 C383.86157082 503.81663625 377.79252626 503.80948048 371.72338867 503.79516602 C364.73424059 503.77887064 357.74535553 503.78410888 350.7562139 503.80064523 C344.73211302 503.81432131 338.70809069 503.81614916 332.68397927 503.80832922 C329.09656491 503.80368235 325.50927354 503.80294399 321.92186737 503.81293869 C317.91365872 503.82332648 313.90589272 503.80887185 309.89770508 503.79223633 C308.72847 503.79830902 307.55923492 503.80438171 306.35456848 503.81063843 C290.2129665 503.68730858 277.86738909 498.76419098 266.02368164 487.84545898 C259.5053467 481.17776776 254.75505067 474.02545367 249.94946289 466.02905273 C248.53212935 463.6976471 247.10961836 461.36940981 245.68774414 459.04077148 C245.33906281 458.46845291 244.99038147 457.89613434 244.63113403 457.30647278 C232.24332255 434.91125327 232.24332255 434.91125327 211.63696289 421.40405273 C206.10241827 420.42388715 200.75942842 420.25910506 195.16201782 420.26602173 C194.22725345 420.26320045 193.29248908 420.26037917 192.32939851 420.2574724 C189.20746486 420.24916131 186.08556684 420.24779116 182.96362305 420.24633789 C180.72106324 420.24166718 178.47850438 420.23652319 176.23594666 420.23094177 C171.41132318 420.21967833 166.58670583 420.21123578 161.76207352 420.20482254 C154.13069621 420.19412692 146.49936298 420.17387866 138.86801147 420.15170288 C128.16665065 420.12118823 117.46528919 420.09195504 106.76391602 420.06616211 C106.08538454 420.06452393 105.40685306 420.06288575 104.70776002 420.06119792 C93.71149752 420.03491137 82.71523168 420.01626635 71.71895106 419.99957021 C60.41513389 419.98213056 49.11138208 419.95307868 37.80761373 419.91468084 C31.4665379 419.89361977 25.12555555 419.87815475 18.7844429 419.87587357 C12.82048018 419.87372539 6.85671228 419.85783835 0.89280891 419.83148384 C-1.29325855 419.82429683 -3.47934962 419.82218697 -5.66542625 419.82558632 C-8.65522195 419.82949219 -11.6443988 419.81499019 -14.63412476 419.79605103 C-15.4941615 419.80158072 -16.35419825 419.80711042 -17.24029672 419.81280768 C-24.34429074 419.7354033 -30.73674983 418.58331239 -36.30053711 413.96655273 C-39.63335089 409.8257841 -40.86592059 407.18479232 -40.65600586 401.69702148 C-39.12773731 389.735773 -31.23629464 378.66571639 -25.36303711 368.40405273 C-24.78070312 367.38327637 -24.19836914 366.3625 -23.59838867 365.31079102 C-21.778231 362.12868694 -19.94808216 358.95259255 -18.11303711 355.77905273 C-17.5472998 354.79654541 -16.9815625 353.81403809 -16.39868164 352.80175781 C-6.38159542 335.62565003 4.56731166 323.22975652 24.084198 317.36885071 C29.2877072 316.09501128 34.38238327 316.11929942 39.71533203 316.1328125 C41.33881813 316.12497238 41.33881813 316.12497238 42.99510193 316.11697388 C45.33364991 316.10677079 47.67222037 316.10095995 50.01078987 316.09909248 C53.7142044 316.09541722 57.41735395 316.07865981 61.12071228 316.05833435 C70.31498495 316.01001812 79.50930124 315.97826966 88.70367432 315.95703125 C96.48254808 315.93895827 104.26118811 315.90963551 112.0399456 315.86298943 C114.49308694 315.85134979 116.94626228 315.84540917 119.39943123 315.8453083 C122.82915229 315.84511609 126.25834877 315.82683844 129.68798828 315.8046875 C130.69753571 315.80926468 131.70708313 315.81384186 132.7472229 315.81855774 C138.46174446 315.75993377 142.60630365 315.20055254 147.63696289 312.40405273 C149.43728914 308.80340023 148.61123482 305.15225524 147.63696289 301.40405273 C146.2804678 298.64330313 146.2804678 298.64330313 144.54321289 295.84936523 C143.59381836 294.26841064 143.59381836 294.26841064 142.62524414 292.65551758 C141.96911133 291.58253418 141.31297852 290.50955078 140.63696289 289.40405273 C140.03239258 288.40712402 139.42782227 287.41019531 138.80493164 286.38305664 C136.92670143 283.29976278 135.03409642 280.22574868 133.13696289 277.15405273 C132.44626709 276.03361572 131.75557129 274.91317871 131.04394531 273.75878906 C125.75494501 265.18536781 120.4230938 256.63894582 115.0769043 248.10107422 C108.89319079 238.22492159 102.76269695 228.31623171 96.63696289 218.40405273 C92.81457485 212.22140456 88.98939594 206.04050197 85.15942383 199.86254883 C83.68298267 197.47836626 82.21057185 195.09173156 80.73852539 192.70483398 C79.85067893 191.27113224 78.96266795 189.83753235 78.07446289 188.40405273 C77.68105713 187.76363037 77.28765137 187.12320801 76.88232422 186.46337891 C71.46745183 177.59763743 71.46745183 177.59763743 62.59790039 172.86108398 C57.52207419 171.98022755 54.11657145 172.56092098 49.55883789 174.90795898 C44.13026287 179.13386189 40.65660459 185.2670991 37.07446289 191.02905273 C36.55561523 191.85663086 36.03676758 192.68420898 35.50219727 193.53686523 C31.29139663 200.28227325 27.20307941 207.09860545 23.13208008 213.92895508 C18.81941254 221.14701335 14.34818568 228.2562063 9.84008789 235.35327148 C1.33368861 248.74524701 -7.05662689 262.21164462 -15.30957031 275.76123047 C-23.3336489 288.93193977 -31.49114879 302.02003751 -39.67553711 315.09155273 C-45.62468966 324.59328709 -51.51226183 334.13155003 -57.37744141 343.68530273 C-61.87838077 351.01020004 -66.42042332 358.30807653 -70.98803711 365.59155273 C-76.54549526 374.45547602 -82.01411936 383.36970011 -87.44116211 392.31396484 C-93.24462331 401.87265542 -99.15744504 411.35874926 -105.15209961 420.79858398 C-110.64197415 429.44985009 -116.05194624 438.14166411 -121.36303711 446.90405273 C-150.69150572 495.22473446 -150.69150572 495.22473446 -173.36303711 502.40405273 C-177.28786614 503.17414374 -181.00786071 503.53198338 -185.0039978 503.54449463 C-186.10293869 503.55020477 -187.20187958 503.55591492 -188.3341217 503.5617981 C-190.1203318 503.56347488 -190.1203318 503.56347488 -191.94262695 503.56518555 C-193.84124229 503.5726329 -193.84124229 503.5726329 -195.7782135 503.58023071 C-199.23902829 503.5932977 -202.69982373 503.59978812 -206.16065931 503.60424137 C-208.32598725 503.60718047 -210.49130998 503.61128676 -212.65663528 503.61574554 C-219.4408215 503.62940354 -226.22499573 503.6390793 -233.00919473 503.64294744 C-240.82370067 503.64742847 -248.63803172 503.66498553 -256.45248449 503.69394803 C-262.50533794 503.71559841 -268.55814229 503.72565345 -274.61103404 503.72698855 C-278.22073205 503.7280339 -281.83026529 503.73388408 -285.43992233 503.75180817 C-289.46827489 503.77142442 -293.49626308 503.76698657 -297.5246582 503.76049805 C-298.71141647 503.76971283 -299.89817474 503.77892761 -301.12089539 503.78842163 C-307.58096091 503.75585081 -312.52578331 503.25804342 -318.36303711 500.40405273 C-322.2966211 496.26874648 -323.72486151 493.41777258 -323.64550781 487.66430664 C-322.7520999 480.515499 -317.9643056 473.69257895 -314.36303711 467.59155273 C-313.88592285 466.77533447 -313.40880859 465.95911621 -312.91723633 465.11816406 C-308.99043571 458.41984265 -304.9990708 451.76007364 -300.99267578 445.10913086 C-297.18643969 438.78971263 -293.42276563 432.44611858 -289.67553711 426.09155273 C-285.04776527 418.24704696 -280.3917881 410.42099672 -275.69458008 402.61791992 C-273.46118539 398.90460437 -271.23274536 395.18831687 -269.00366211 391.47241211 C-267.04180671 388.20199915 -265.07937471 384.93193261 -263.11694336 381.66186523 C-260.85192063 377.88701806 -258.58848315 374.11123614 -256.32788086 370.33374023 C-251.98340133 363.07759824 -247.62735903 355.82920297 -243.22631836 348.60717773 C-236.57658985 337.69256176 -229.94375291 326.78015512 -223.59399414 315.68701172 C-219.56952581 308.68946554 -215.37750548 301.7958046 -211.17553711 294.90405273 C-203.4728538 282.26809166 -195.90046272 269.55981561 -188.37768555 256.81567383 C-184.89919675 250.92517425 -181.41270503 245.03941728 -177.92553711 239.15405273 C-177.58449951 238.57841583 -177.24346191 238.00277893 -176.89208984 237.40969849 C-172.16818196 229.43718462 -167.42611943 221.47642094 -162.64624023 213.53735352 C-160.43104011 209.85462546 -158.22103021 206.16878328 -156.01025391 202.48339844 C-154.04620059 199.20932376 -152.0815724 195.93559447 -150.11694336 192.66186523 C-147.85192063 188.88701806 -145.58848315 185.11123614 -143.32788086 181.33374023 C-138.98340136 174.07759829 -134.62736465 166.82919951 -130.22631836 159.60717773 C-123.46487752 148.50937697 -116.71994717 137.41215286 -110.2512207 126.13989258 C-105.57424409 117.99822589 -100.72765302 109.96048265 -95.87915039 101.92016602 C-93.36750797 97.75189118 -90.86569213 93.57772758 -88.36303711 89.40405273 C-85.37726129 84.42598015 -82.39041082 79.44856914 -79.39819336 74.47436523 C-78.40721046 72.82598634 -77.41632528 71.17754869 -76.42553711 69.52905273 C-75.68799194 68.30255005 -75.68799194 68.30255005 -74.93554688 67.05126953 C-71.74204328 61.73083961 -68.58956346 56.38772796 -65.45361328 51.03320312 C-39.97517545 7.62089515 -39.97517545 7.62089515 -17.34925652 1.03803825 C-11.61342899 -0.17969933 -5.84097115 -0.02004156 0 0 Z " fill="#2A2928" transform="translate(908.363037109375,1001.595947265625)"/>
<path d="M0 0 C1.27000854 -0.00058411 2.54001709 -0.00116821 3.84851074 -0.00177002 C7.28169255 -0.00290271 10.71429828 0.02036717 14.14734793 0.04852581 C17.75340328 0.07378513 21.35947651 0.07590055 24.96560669 0.08062744 C31.77221469 0.09298604 38.57856112 0.1257095 45.38505471 0.1660254 C53.14335665 0.21096683 60.90167207 0.23278597 68.66007209 0.25280714 C84.59921568 0.2944499 100.5380993 0.36466094 116.47705078 0.45410156 C116.52288309 44.48084739 116.55809781 88.50759069 116.57918144 132.53435569 C116.58168269 137.73856139 116.58427135 142.94276703 116.58691406 148.14697266 C116.58770099 149.70099119 116.58770099 149.70099119 116.58850382 151.28640403 C116.59719349 168.03548775 116.61295551 184.78455767 116.63135637 201.53363322 C116.65009551 218.73476804 116.66117598 235.93589565 116.66522777 253.13704026 C116.66796452 263.74098338 116.67659122 274.34488748 116.69288372 284.94881858 C116.70350019 292.23193804 116.70664091 299.51503749 116.70405354 306.79816411 C116.70277947 310.99272269 116.70465669 315.18721332 116.71546173 319.38175964 C116.82616817 364.63843767 110.09400599 408.38402115 80.47705078 444.45410156 C80.02604004 445.01049316 79.5750293 445.56688477 79.11035156 446.14013672 C68.36268048 459.34088275 56.60758813 469.98406356 42.47705078 479.45410156 C41.45095703 480.1540625 40.42486328 480.85402344 39.36767578 481.57519531 C15.5340173 497.09126993 -12.51068052 503.62828263 -40.67167664 503.58781433 C-42.43293569 503.59121267 -42.43293569 503.59121267 -44.22977573 503.59467965 C-47.45769714 503.59987987 -50.68558312 503.60067058 -53.91350734 503.59948528 C-57.40718087 503.59927988 -60.90084631 503.60481326 -64.39451599 503.60954285 C-71.22772459 503.61781995 -78.06092456 503.62059635 -84.89413776 503.62115522 C-90.45342658 503.62163179 -96.01271258 503.62369354 -101.5720005 503.62685585 C-117.36316988 503.63565446 -133.15433248 503.64027648 -148.94550433 503.63952538 C-149.79533605 503.63948542 -150.64516776 503.63944546 -151.52075195 503.6394043 C-152.37163152 503.63936342 -153.22251109 503.63932254 -154.09917489 503.63928042 C-167.88077921 503.63887419 -181.66235617 503.64843998 -195.44395258 503.66254266 C-209.62377563 503.67693738 -223.80358537 503.68381115 -237.9834159 503.68294889 C-245.9326425 503.68261798 -253.88184043 503.68531817 -261.83106041 503.69612694 C-268.6002104 503.70527278 -275.3693187 503.70737389 -282.13847222 503.70061751 C-285.58553858 503.69737277 -289.03252518 503.69722068 -292.47958374 503.70597076 C-339.9438027 503.80435212 -379.29218096 491.65586181 -413.98193359 458.00195312 C-442.07235348 429.78692428 -460.68875269 389.32639912 -460.63624573 349.33251953 C-460.63114093 347.89387982 -460.62592496 346.4552405 -460.62060547 345.01660156 C-460.61873745 343.52587939 -460.61731536 342.0351566 -460.61631775 340.54443359 C-460.61252278 336.64498156 -460.60271872 332.74556752 -460.59161377 328.84613037 C-460.58133429 324.85738641 -460.5768062 320.86863624 -460.57177734 316.87988281 C-460.56109337 309.07127185 -460.54405378 301.26269206 -460.52294922 293.45410156 C-442.75451372 293.40725352 -424.9860944 293.37205023 -407.21761036 293.35047722 C-398.96626017 293.34019153 -390.7149485 293.32618333 -382.46362305 293.30322266 C-375.2666309 293.28320549 -368.06966667 293.27036548 -360.87264746 293.26592457 C-357.06655557 293.26333121 -353.26054348 293.25729299 -349.45447731 293.24264145 C-345.86187166 293.2289255 -342.26937763 293.22490678 -338.67674828 293.2278862 C-336.75050802 293.22708559 -334.82427952 293.21639809 -332.89807129 293.20526123 C-320.37714185 293.23445839 -307.34709444 293.68007791 -297.45654297 302.24316406 C-289.32856643 310.76141923 -288.5457067 321.22695331 -288.23291016 332.53686523 C-287.62382119 353.89873529 -283.26086749 373.09732726 -268.21044922 389.26660156 C-258.2336459 398.56161877 -246.48215552 403.55202649 -232.87094116 403.59454346 C-231.76936676 403.6002536 -230.66779236 403.60596375 -229.53283691 403.61184692 C-227.74202698 403.61352371 -227.74202698 403.61352371 -225.91503906 403.61523438 C-224.01143112 403.62268173 -224.01143112 403.62268173 -222.06936646 403.63027954 C-218.59795285 403.64335019 -215.12655854 403.64983837 -211.65512419 403.6542902 C-209.48105457 403.65723039 -207.30699012 403.66133701 -205.13292313 403.66579437 C-198.31562462 403.67945709 -191.49833805 403.68912896 -184.68102682 403.69299626 C-176.83996073 403.69747002 -168.99906956 403.71499124 -161.15805662 403.74399686 C-155.07881394 403.76569608 -148.99962017 403.77570497 -142.92033923 403.77703738 C-139.29821759 403.77807981 -135.67626064 403.78386609 -132.05418015 403.80185699 C-128.00508976 403.82157858 -123.9563599 403.81701611 -119.90722656 403.81054688 C-118.72549866 403.81976166 -117.54377075 403.82897644 -116.32623291 403.83847046 C-100.44429787 403.75939183 -87.64654202 399.27001414 -76.12841797 388.23925781 C-62.09786018 373.24107535 -57.1974018 354.22421688 -57.25793457 334.14006042 C-57.2535533 332.94814238 -57.24917203 331.75622434 -57.24465799 330.52818757 C-57.23453392 327.2507675 -57.23316305 323.97348366 -57.23559308 320.69605339 C-57.23601523 317.14923534 -57.22488908 313.60245083 -57.21513367 310.0556488 C-57.19972558 303.91768918 -57.19127919 297.7797524 -57.18742371 291.64177513 C-57.18165542 282.75220584 -57.16303501 273.86269769 -57.14098316 264.97315554 C-57.1053127 250.52793077 -57.07697996 236.08270253 -57.0546875 221.63745117 C-57.05335251 220.77408452 -57.05201752 219.91071787 -57.05064207 219.02118859 C-57.04121683 212.89465987 -57.03205402 206.76813077 -57.02294922 200.64160156 C-57.01255402 193.64835583 -57.00203573 186.65511031 -56.99121094 179.66186523 C-56.9898802 178.80046813 -56.98854945 177.93907102 -56.98717839 177.05157097 C-56.96470719 162.66155958 -56.93449351 148.27157428 -56.89881849 133.88158971 C-56.87722381 125.0204462 -56.86255259 116.15934331 -56.85697973 107.29817495 C-56.85271517 101.22106213 -56.84143202 95.14398798 -56.82475579 89.06689664 C-56.81540271 85.56743067 -56.80921699 82.06803694 -56.81181908 78.56855774 C-56.82604539 32.15299323 -56.82604539 32.15299323 -40.52294922 13.45410156 C-37.78076172 11.13769531 -37.78076172 11.13769531 -34.64794922 8.89160156 C-33.63990234 8.1478125 -32.63185547 7.40402344 -31.59326172 6.63769531 C-22.04161855 0.87735051 -10.88880875 -0.13438443 0 0 Z " fill="#2A2928" transform="translate(460.52294921875,1001.5458984375)"/>
<path d="M0 0 C21 0 21 0 25.3828125 4.26953125 C26.31118642 6.15311646 27.18232993 8.06578516 28 10 C29.12232213 11.91216538 30.26618685 13.81182646 31.4296875 15.69921875 C32.58264245 17.69270661 33.73105048 19.68883083 34.875 21.6875 C39.00844541 28.86639197 43.18926451 36.01046617 47.46348572 43.1061554 C50.32640449 47.86376089 53.15236545 52.64211761 55.96484375 57.4296875 C57.20520794 59.53613338 58.44597549 61.6423413 59.68676758 63.74853516 C60.53476434 65.19027862 61.38106553 66.63302046 62.22583008 68.07666016 C63.46740398 70.19718055 64.7154636 72.31375965 65.96484375 74.4296875 C66.3418895 75.07743134 66.71893524 75.72517517 67.10740662 76.39254761 C68.9775362 79.76828512 68.9775362 79.76828512 72 82 C72.27602051 81.26982666 72.55204102 80.53965332 72.83642578 79.78735352 C73.93085981 77.165626 75.16464188 74.83986971 76.6171875 72.40234375 C77.13490723 71.52980957 77.65262695 70.65727539 78.18603516 69.75830078 C78.74339355 68.82743652 79.30075195 67.89657227 79.875 66.9375 C80.45942871 65.95507324 81.04385742 64.97264648 81.64599609 63.96044922 C85.75712491 57.05672979 89.88875143 50.16506163 94.03637695 43.28320312 C97.34500018 37.78589788 100.61526004 32.26693615 103.87109375 26.73828125 C105.16966882 24.53711438 106.46856143 22.33613516 107.76751709 20.13519287 C108.6266243 18.67721704 109.48410418 17.21828101 110.33990479 15.75836182 C111.54677876 13.69977779 112.75918331 11.64454279 113.97265625 9.58984375 C114.33467636 8.96886307 114.69669647 8.34788239 115.06968689 7.70808411 C118.62441577 1.71257787 118.62441577 1.71257787 121 0 C123.16064453 -0.35644531 123.16064453 -0.35644531 125.6328125 -0.328125 C126.96505859 -0.32039063 126.96505859 -0.32039063 128.32421875 -0.3125 C129.24847656 -0.291875 130.17273438 -0.27125 131.125 -0.25 C132.05699219 -0.24484375 132.98898438 -0.2396875 133.94921875 -0.234375 C140.84593612 -0.15406388 140.84593612 -0.15406388 142 1 C142.09629597 2.74626524 142.12187539 4.49645905 142.12025452 6.24537659 C142.12231651 7.95130478 142.12231651 7.95130478 142.12442017 9.69169617 C142.12082489 10.95045059 142.11722961 12.20920502 142.11352539 13.50610352 C142.11367142 14.82298157 142.11381744 16.13985962 142.1139679 17.49664307 C142.11425587 21.11838268 142.10835924 24.74008946 142.10139394 28.36182141 C142.0951603 32.14281884 142.09455659 35.92381695 142.09336853 39.70481873 C142.09025524 46.8694429 142.08204189 54.0340519 142.07201904 61.19866937 C142.06085782 69.35331162 142.05534743 77.50795457 142.05032361 85.66260254 C142.03985928 102.44174418 142.02205944 119.22086956 142 136 C134.08 136 126.16 136 118 136 C117.67 108.61 117.34 81.22 117 53 C107.04107498 69.06236415 107.04107498 69.06236415 97.1875 85.1875 C91.9017134 93.89153015 86.58582033 102.57659073 81.25 111.25 C80.89948578 111.82019867 80.54897156 112.39039734 80.18783569 112.97787476 C79.19357408 114.5950197 78.1983695 116.21158477 77.203125 117.828125 C76.63239258 118.7552832 76.06166016 119.68244141 75.47363281 120.63769531 C74.34644104 122.44463825 73.18134266 124.22798601 72 126 C67.4521824 124.52503213 65.91852765 120.94136198 63.75 117 C62.87401109 115.45927517 61.99488585 113.92033092 61.11328125 112.3828125 C60.62553223 111.53106445 60.1377832 110.67931641 59.63525391 109.80175781 C56.50162887 104.43276992 53.20938078 99.16043362 49.9375 93.875 C44.96497034 85.82808004 40.01905318 77.76913909 35.1875 69.63671875 C31.83573091 64.06440263 28.40804655 58.53807564 25 53 C24.67 80.39 24.34 107.78 24 136 C16.08 136 8.16 136 0 136 C0 91.12 0 46.24 0 0 Z " fill="#2A2928" transform="translate(31,1628)"/>
<path d="M0 0 C1.6739106 -0.00956978 1.6739106 -0.00956978 3.38163757 -0.01933289 C4.60123672 -0.02044571 5.82083588 -0.02155853 7.07739258 -0.02270508 C8.33014481 -0.02603348 9.58289703 -0.02936188 10.87361145 -0.03279114 C13.53947467 -0.03787031 16.20523617 -0.04063013 18.87109375 -0.04003906 C21.58177458 -0.03995846 24.2922841 -0.04678809 27.00292969 -0.06054688 C30.9236358 -0.07905324 34.84414686 -0.08378508 38.76489258 -0.08520508 C39.95817673 -0.09239059 41.15146088 -0.09957611 42.38090515 -0.10697937 C58.16237533 -0.06501121 73.93489671 1.66033739 85.78442383 13.14526367 C94.97384424 24.42415786 97.43939442 35.839327 96.78442383 50.14526367 C95.69485856 60.07587285 90.92622582 69.67014589 83.37426758 76.24291992 C77.13180755 80.86730489 71.24292373 83.95243585 63.78442383 86.14526367 C64.3902832 86.93288086 64.99614258 87.72049805 65.62036133 88.53198242 C66.01989014 89.05139404 66.41941895 89.57080566 66.83105469 90.10595703 C67.73021197 91.27481192 68.62946607 92.44359232 69.52880859 93.61230469 C71.78419021 96.54347951 74.03841478 99.47551531 76.28833008 102.41088867 C80.65138362 108.0975652 85.04005153 113.76201681 89.47192383 119.39526367 C89.93179687 119.98001465 90.39166992 120.56476563 90.86547852 121.16723633 C92.91930981 123.77777568 94.97515835 126.38666205 97.03442383 128.99291992 C97.67379883 129.80631836 98.31317383 130.6197168 98.97192383 131.45776367 C99.52235352 132.15514648 100.0727832 132.8525293 100.63989258 133.57104492 C101.78442383 135.14526367 101.78442383 135.14526367 101.78442383 136.14526367 C97.80166532 136.36963903 93.82140077 136.53188677 89.83374023 136.63964844 C87.81989231 136.70658477 85.80780325 136.82101764 83.79614258 136.9362793 C74.21450455 137.1529495 74.21450455 137.1529495 70.26171875 134.36767578 C68.18978532 132.06877537 66.47893007 129.73233345 64.78442383 127.14526367 C63.80743537 125.8684495 62.82478154 124.59594041 61.83520508 123.32885742 C60.91917143 122.08255873 60.00646613 120.83380758 59.09692383 119.58276367 C54.32451403 113.11215786 49.36281666 106.83115639 44.23681641 100.63720703 C43.72787842 100.01982666 43.21894043 99.40244629 42.69458008 98.76635742 C42.18685059 98.17064941 41.67912109 97.57494141 41.15600586 96.96118164 C39.78442383 95.14526367 39.78442383 95.14526367 38.89331055 93.16137695 C37.90083181 90.82366357 37.90083181 90.82366357 34.78442383 88.14526367 C29.17442383 87.81526367 23.56442383 87.48526367 17.78442383 87.14526367 C17.78442383 103.31526367 17.78442383 119.48526367 17.78442383 136.14526367 C9.86442383 136.14526367 1.94442383 136.14526367 -6.21557617 136.14526367 C-6.23869448 118.56072201 -6.25655505 100.97618639 -6.26738834 83.39163303 C-6.27255143 75.22739203 -6.27959437 67.06316063 -6.29101562 58.89892578 C-6.30096208 51.78555083 -6.30742951 44.67218283 -6.30966467 37.55880111 C-6.31097184 33.79000644 -6.31405811 30.02123164 -6.32130623 26.25244331 C-6.32931933 22.05207551 -6.32956734 17.8517426 -6.32910156 13.65136719 C-6.33269684 12.39261276 -6.33629211 11.13385834 -6.33999634 9.83695984 C-6.33862167 8.69967438 -6.33724701 7.56238892 -6.33583069 6.39064026 C-6.33675248 5.39602563 -6.33767427 4.401411 -6.338624 3.37665653 C-6.10373116 -0.88297343 -3.71165246 0.01435017 0 0 Z M17.78442383 24.14526367 C17.78442383 37.01526367 17.78442383 49.88526367 17.78442383 63.14526367 C27.12754883 63.29995117 27.12754883 63.29995117 36.65942383 63.45776367 C38.60445801 63.50328369 40.54949219 63.54880371 42.5534668 63.59570312 C55.47526676 63.8774261 55.47526676 63.8774261 66.78442383 58.14526367 C70.70928984 53.60224669 72.67558754 49.24009582 72.78442383 43.14526367 C71.99743708 37.02823033 70.05165358 31.71759409 65.06030273 27.7878418 C56.21756554 22.50563184 46.59599521 23.60021613 36.65942383 23.83276367 C30.43067383 23.93588867 24.20192383 24.03901367 17.78442383 24.14526367 Z " fill="#2A2928" transform="translate(1523.215576171875,1627.854736328125)"/>
<path d="M0 0 C14.32273379 14.91098893 18.51451118 34.43468369 18.21484375 54.484375 C17.55703124 73.52416577 10.89823139 91.20418408 -3.10546875 104.44921875 C-15.36616268 114.48529193 -28.9253463 118.20271205 -44.42553711 118.29516602 C-46.40046605 118.31218094 -48.37510538 118.35603082 -50.34960938 118.40039062 C-67.55197875 118.51248627 -82.27310545 113.23445589 -94.78125 101.33984375 C-108.99555739 86.3497555 -111.79296885 64.96442917 -111.28515625 45.12890625 C-110.45626934 26.51536632 -104.41913551 9.3126288 -90.80859375 -3.79296875 C-64.7136503 -24.29873099 -24.05170653 -22.7109864 0 0 Z M-76.0078125 16.96875 C-86.14577177 29.0816364 -87.6253856 42.73417714 -87 58 C-86.6255613 61.45052371 -85.9684087 64.6693458 -85 68 C-84.76667969 68.81855469 -84.53335937 69.63710937 -84.29296875 70.48046875 C-81.00425508 80.16640628 -74.70049029 86.9588312 -65.625 91.5625 C-55.55949336 96.15309928 -44.14402925 96.62640666 -33.328125 94.1640625 C-22.8339965 90.11322015 -15.76652158 83.07506175 -10.44140625 73.27734375 C-4.27346844 59.253225 -4.54349746 44.08441318 -9.75 29.875 C-14.43882818 18.94010509 -22.26811365 12.19348975 -33.1875 7.5625 C-47.8039408 2.75936365 -64.93944879 6.1157241 -76.0078125 16.96875 Z " fill="#2A2928" transform="translate(1255,1646)"/>
<path d="M0 0 C13.38967739 12.90861113 19.50037158 31.01147061 19.85083008 49.36254883 C19.93311514 69.49417721 14.95178426 88.46120523 1.046875 103.703125 C-11.8456588 115.82409789 -28.00635985 120.22848847 -45.328125 120.015625 C-47.21047852 120.03882813 -47.21047852 120.03882813 -49.13085938 120.0625 C-65.88007425 119.99339545 -80.81055585 114.70824617 -93.03515625 103.125 C-107.97309157 86.57683948 -110.32208576 65.43565394 -109.54296875 44.07226562 C-108.46945304 26.05646988 -101.88543295 10.10732461 -88.796875 -2.4140625 C-64.38941379 -23.41398854 -23.5768522 -20.11358577 0 0 Z M-74.43359375 18.58984375 C-84.57167853 30.97603262 -86.36985402 44.97036429 -85.390625 60.515625 C-83.86865467 70.6938016 -80.22477369 80.77249973 -72.55859375 87.9140625 C-60.96923906 96.47556777 -49.322374 97.75734364 -35.390625 96.515625 C-24.83475486 94.1124801 -16.75465646 87.6367923 -11.015625 78.578125 C-7.12880612 71.54739722 -4.90510433 64.52903035 -4.390625 56.515625 C-4.33777344 55.85304688 -4.28492188 55.19046875 -4.23046875 54.5078125 C-3.66092267 41.08633532 -7.97586742 28.14497897 -17.015625 18.203125 C-26.17708233 9.60762643 -36.42012412 7.09105575 -48.56640625 7.3046875 C-58.26073063 7.83941019 -67.5491986 11.60014236 -74.43359375 18.58984375 Z " fill="#2A2928" transform="translate(530.390625,1644.484375)"/>
<path d="M0 0 C6.12743618 5.81553056 10.80914504 12.63532578 11.26171875 21.30078125 C11.25914063 22.17347656 11.2565625 23.04617188 11.25390625 23.9453125 C11.25777344 25.26595703 11.25777344 25.26595703 11.26171875 26.61328125 C11.12890625 28.7578125 11.12890625 28.7578125 10.12890625 29.7578125 C8.36031432 29.85727703 6.58779174 29.88861467 4.81640625 29.890625 C3.74132813 29.89191406 2.66625 29.89320312 1.55859375 29.89453125 C0.42679688 29.89066406 -0.705 29.88679688 -1.87109375 29.8828125 C-3.00289062 29.88667969 -4.1346875 29.89054687 -5.30078125 29.89453125 C-6.37585937 29.89324219 -7.4509375 29.89195313 -8.55859375 29.890625 C-9.55246094 29.88949707 -10.54632812 29.88836914 -11.5703125 29.88720703 C-13.87109375 29.7578125 -13.87109375 29.7578125 -14.87109375 28.7578125 C-15.13941926 27.15660917 -15.38589557 25.55171609 -15.62109375 23.9453125 C-16.29774504 20.5279801 -16.64722497 19.02238469 -18.93359375 16.3203125 C-26.45675749 12.31862966 -33.41191433 11.25605078 -41.87109375 11.3203125 C-42.804375 11.30033203 -43.73765625 11.28035156 -44.69921875 11.25976562 C-51.87247003 11.26477488 -58.63046836 12.51718711 -63.87109375 17.7578125 C-64.34255652 20.01841387 -64.34255652 20.01841387 -64.37109375 22.5703125 C-64.42265625 23.42238281 -64.47421875 24.27445313 -64.52734375 25.15234375 C-63.54589757 29.04891876 -61.14112324 30.72152004 -57.87109375 32.7578125 C-54.40326994 34.54738712 -50.84661981 36.06894524 -47.24609375 37.5703125 C-46.23498535 38.00190674 -45.22387695 38.43350098 -44.18212891 38.87817383 C-38.41216222 41.32569683 -32.60655408 43.67005019 -26.77099609 45.95605469 C4.05644722 58.03426009 4.05644722 58.03426009 10.28125 71.9609375 C13.43932834 82.38114067 10.75845118 92.87456309 5.80859375 102.26171875 C-1.0336085 113.31019287 -11.01559461 119.52109964 -23.49609375 122.5703125 C-40.25474397 125.74086795 -61.27078223 124.64417769 -76.07421875 115.37890625 C-83.16406633 110.35036621 -88.43568847 104.19085766 -90.87109375 95.7578125 C-91.51365341 91.09551916 -91.90343143 86.46617941 -91.87109375 81.7578125 C-90.1256377 80.01235645 -87.70985158 80.6275809 -85.33984375 80.625 C-84.21964844 80.62371094 -83.09945313 80.62242188 -81.9453125 80.62109375 C-80.76582031 80.62496094 -79.58632812 80.62882812 -78.37109375 80.6328125 C-76.60185547 80.62701172 -76.60185547 80.62701172 -74.796875 80.62109375 C-73.67667969 80.62238281 -72.55648438 80.62367187 -71.40234375 80.625 C-70.36658203 80.62612793 -69.33082031 80.62725586 -68.26367188 80.62841797 C-65.87109375 80.7578125 -65.87109375 80.7578125 -64.87109375 81.7578125 C-64.66811024 84.56800646 -64.55176311 87.37597116 -64.4453125 90.19140625 C-64.15110989 92.862634 -64.15110989 92.862634 -62.078125 94.0078125 C-60.98564453 94.3790625 -60.98564453 94.3790625 -59.87109375 94.7578125 C-59.21109375 95.02722656 -58.55109375 95.29664063 -57.87109375 95.57421875 C-57.21109375 95.82042969 -56.55109375 96.06664062 -55.87109375 96.3203125 C-55.21109375 96.56910156 -54.55109375 96.81789063 -53.87109375 97.07421875 C-44.91519954 100.1353154 -32.61274897 100.67201697 -23.93359375 96.5703125 C-20.46315923 94.42365197 -18.19623821 92.73324588 -16.87109375 88.7578125 C-16.13635108 85.39115578 -15.47427023 82.19508665 -15.87109375 78.7578125 C-18.76733529 74.84971948 -22.79259933 73.08965481 -27.12109375 71.1328125 C-27.85054199 70.79507812 -28.57999023 70.45734375 -29.33154297 70.109375 C-35.81336008 67.14809791 -42.4028243 64.45893779 -48.99609375 61.7578125 C-83.13917714 47.71463946 -83.13917714 47.71463946 -89.87109375 34.7578125 C-92.65702675 27.28644672 -92.56681734 19.47834033 -89.859375 11.94140625 C-87.55210714 7.05756797 -85.05097803 3.2572505 -80.87109375 -0.2421875 C-80.29617188 -0.73332031 -79.72125 -1.22445313 -79.12890625 -1.73046875 C-57.32406602 -19.3757511 -21.42945582 -16.73538455 0 0 Z " fill="#2A2928" transform="translate(1957.87109375,1639.2421875)"/>
<path d="M0 0 C37.95 0 75.9 0 115 0 C115 7.92 115 15.84 115 24 C100.15 24 85.3 24 70 24 C70 60.96 70 97.92 70 136 C61.75 136 53.5 136 45 136 C45 99.04 45 62.08 45 24 C30.15 24 15.3 24 0 24 C0 16.08 0 8.16 0 0 Z " fill="#2A2928" transform="translate(787,1628)"/>
</svg>
