<svg width="209" height="120" viewBox="0 0 209 120" fill="none" xmlns="http://www.w3.org/2000/svg">
<path fill-rule="evenodd" clip-rule="evenodd" d="M68.0805 58.6854L82.9999 33.8864C83.5714 32.9121 82.8851 31.8088 81.6852 31.8088L70.1673 31.7114C69.3094 31.7114 67.5947 32.945 66.8516 34.0155L61.6508 41.7086L54.42 52.4524L54.4769 33.8852C54.4769 32.6199 53.3048 31.8075 52.5906 31.8075H39.3847C38.47 31.8075 37.6411 32.1972 37.6133 34.1117C37.5854 35.9945 39.6421 36.3842 39.6421 36.903V86.5337C39.6421 87.4751 40.7852 88.9024 41.5863 88.9024L52.9037 88.8378C53.7048 88.8049 54.3899 87.5067 54.3899 86.6299L54.4178 65.9533L61.6486 76.1126L69.3082 86.8247C69.9366 87.6687 71.1655 88.8378 72.4523 88.8378L84.7424 88.7404C85.9145 88.7404 85.7997 87.117 85.5145 86.6956C79.6715 77.3843 73.8601 68.0475 68.0805 58.6854ZM110.493 31.8101H97.4324C95.8893 31.8101 95.5462 32.8489 95.2888 33.9522C95.574 35.9641 97.4324 36.5158 97.4324 36.5487V86.6324C97.4324 87.9635 98.1477 88.8404 99.1482 88.8404L103.835 88.8075L110.809 88.7429C112.094 88.7429 112.437 87.8673 112.437 86.6324V33.8864C112.437 32.6211 111.494 31.8101 110.493 31.8101Z" fill="#CC2229"/>
<path fill-rule="evenodd" clip-rule="evenodd" d="M150.249 6.23168C136.359 2.23961 120.727 0 104.206 0C104.092 0 103.977 0.0316348 103.835 0.0316348C88.8591 0.0316348 74.5681 1.91442 61.6497 5.25738C25.38 14.6713 0 35.7047 0 60.0165C0 84.3295 25.38 105.362 61.6486 114.774C74.567 118.118 88.8569 120 103.834 120H104.205C120.726 120 136.358 117.793 150.248 113.801C184.688 103.999 208.439 83.5501 208.439 60.0165C208.442 36.4841 184.691 16.0341 150.249 6.23168ZM150.249 100.72C136.56 104.324 120.868 106.369 104.206 106.369C104.092 106.369 103.977 106.337 103.835 106.337C88.7444 106.337 74.4255 104.616 61.6497 101.597C29.6672 94.0345 7.60287 78.2269 7.60287 60.0177C7.60287 41.8086 29.6672 26.001 61.6497 18.4382C74.4255 15.4191 88.7444 13.6983 103.835 13.6667H104.206C120.868 13.6667 136.56 15.7114 150.249 19.3138C180.344 27.1689 200.838 42.4893 200.838 60.0165C200.838 77.5436 180.344 92.8653 150.249 100.72Z" fill="#CC2229"/>
<path fill-rule="evenodd" clip-rule="evenodd" d="M159.251 33.9522C158.825 32.8476 158.08 31.81 157.108 31.81H139.445C138.817 31.81 137.959 32.3946 137.959 33.3676C137.931 36.2234 140.562 36.1273 140.418 36.5486L125.528 86.4375C125.271 87.2814 125.928 88.839 126.842 88.839L137.217 88.7416C138.131 88.7416 139.418 87.866 139.79 86.5994L144.705 69.8517C146.363 64.2679 148.022 58.6853 149.65 53.1027C149.737 52.8762 149.994 52.7459 150.25 52.7459C150.65 52.7459 151.079 52.9079 151.164 53.2331L160.797 86.7956C160.997 87.5421 162.34 88.7429 163.053 88.7429L173.857 88.8403C174.485 88.8403 175.229 87.4118 175.03 86.7627L159.251 33.9522Z" fill="#CC2229"/>
</svg>
