<svg width="663" height="117" viewBox="0 0 663 117" fill="none" xmlns="http://www.w3.org/2000/svg">
<path fill-rule="evenodd" clip-rule="evenodd" d="M635.069 55.2787H586.477C587.079 49.1901 591.376 43.1016 599.136 43.1016H656.437V31.4026H596.508C572.635 31.4026 562.838 49.5514 562.838 66.9776H629.699C631.962 66.9776 637.335 67.4558 637.335 72.9457C637.335 78.4392 632.681 78.9174 624.684 79.1547H554.958V31.4026H534.425V79.1547H495.269C483.446 79.1547 482.139 70.4416 482.139 65.7875V31.4026H444.769L414.322 51.6978L386.865 31.4026H306.765C282.889 31.4026 268.562 47.9965 266.533 62.4404H283.045C276.443 66.8926 271.767 72.9245 269.228 79.1334L222.602 79.1547C210.783 79.1547 209.469 70.4416 209.469 65.7875V31.4026H188.936V63.9953C188.936 86.4404 204.694 90.8572 212.334 90.8572H376.488L407.168 70.3212L434.986 90.8572H467.341L424.243 59.1004L459.698 35.3412V66.7403C459.698 87.0319 479.518 90.8572 485.008 90.8572H634.835C642.237 90.8572 662.653 89.9009 662.653 73.6647C662.653 57.4286 647.603 55.2787 635.069 55.2787ZM373.148 79.1547H295.902C296.497 73.0661 303.184 66.9776 310.945 66.9776H356.55V55.2787H294.23C294.825 49.1901 301.512 43.1016 309.273 43.1016H361.325V36.2975L397.381 63.039L373.148 79.1547ZM81.4357 117C108.397 117 132.308 107.589 147.131 93.085L133.775 93.1488C121.148 103.767 102.687 110.451 81.7651 110.451C42.7367 110.451 12.2692 87.1948 12.2692 58.5018C12.2692 25.4097 42.7367 6.55255 81.7651 6.55255C84.248 6.55963 86.2314 7.70367 84.7438 9.85715C76.6364 19.6187 53.5467 51.0354 49.3353 57.843C41.026 71.2633 41.2243 87.7899 61.5797 88.9481H147.174C151.548 88.9481 152.656 86.8973 154.236 84.758C159.878 77.1701 162.907 67.9572 162.868 58.5018C162.854 33.843 145.502 15.3613 119.968 6.26922L116.015 12.1736C137.231 20.0012 151.261 35.8194 151.261 58.5018C151.261 62.4404 150.684 66.2763 149.593 69.9634C148.643 73.1653 146.791 75.8749 143.281 75.8749H74.9575C66.2055 75.8749 69.588 66.8465 72.8288 62.4723C77.5289 54.0461 103.275 18.9563 109.473 12.418C111.053 10.0201 115.481 5.05432 109.378 3.15232C100.665 1.08384 91.2503 1.52588e-05 81.4321 1.52588e-05C36.4605 1.52588e-05 0.0248027 23.0933 9.27991e-06 58.5018C-0.0212422 94.2397 36.4605 117 81.4357 117Z" fill="black"/>
</svg>
