<svg width="123" height="120" viewBox="0 0 123 120" fill="none" xmlns="http://www.w3.org/2000/svg">
<path d="M0 0C40.5043 0 81.0086 0 122.74 0C122.74 9.7769 122.74 19.5538 122.74 29.627C77.173 30.1507 77.173 30.1507 30.6851 30.6851C30.3359 44.3029 29.9867 57.9207 29.627 71.9512C29.2778 72.3004 28.9286 72.6496 28.5689 73.0093C19.1411 73.0093 9.71342 73.0093 0 73.0093C0 48.9162 0 24.8232 0 0Z" fill="#010101"/>
<path d="M47.5592 41.1345C48.3073 41.1383 49.0555 41.1421 49.8263 41.1461C51.003 41.1458 51.003 41.1458 52.2036 41.1456C54.8086 41.1463 57.4136 41.1546 60.0186 41.1628C61.82 41.1648 63.6214 41.1663 65.4229 41.1674C70.1735 41.1714 74.9241 41.1818 79.6747 41.1935C84.5187 41.2043 89.3626 41.2092 94.2066 41.2145C103.718 41.2259 113.229 41.2445 122.74 41.2662C122.74 51.7414 122.74 62.2167 122.74 73.0094C112.274 73.0332 101.807 73.0527 91.3403 73.0642C86.4807 73.0697 81.6211 73.0772 76.7615 73.0892C72.0757 73.1006 67.3899 73.107 62.7041 73.1098C60.9123 73.1117 59.1206 73.1155 57.3288 73.1212C54.828 73.1289 52.3272 73.13 49.8263 73.1295C49.0782 73.1333 48.33 73.1371 47.5592 73.141C42.4449 73.13 42.4449 73.13 41.2661 71.9513C41.1604 69.771 41.1277 67.5871 41.1256 65.4042C41.1242 64.0757 41.1229 62.7472 41.1215 61.3785C41.1237 60.6832 41.1259 59.9879 41.1282 59.2715C41.1338 57.1466 41.1282 55.022 41.1215 52.8971C41.1228 51.5686 41.1242 50.2401 41.1256 48.8713C41.1274 47.0279 41.1274 47.0279 41.1292 45.1473C41.3633 40.3209 43.2201 41.1438 47.5592 41.1345Z" fill="#050605"/>
<path d="M43.3824 94.1714C51.7626 94.1714 60.1428 94.1714 68.7769 94.1714C68.7769 100.806 68.7769 107.44 68.7769 114.275C60.3967 114.275 52.0165 114.275 43.3824 114.275C43.3824 107.641 43.3824 101.007 43.3824 94.1714Z" fill="#FAFAFA"/>
<path d="M47.8793 89.658C49.8598 89.6539 49.8598 89.6539 51.8803 89.6497C53.959 89.662 53.959 89.662 56.0796 89.6745C57.4654 89.6663 58.8512 89.6582 60.279 89.6497C61.5993 89.6524 62.9196 89.6552 64.28 89.658C65.4966 89.6604 66.7133 89.6628 67.9668 89.6652C70.8931 89.939 70.8931 89.939 73.0093 92.0553C73.4906 96.0691 73.3522 100.118 73.34 104.157C73.3571 105.282 73.3741 106.407 73.3917 107.565C73.3924 108.643 73.393 109.722 73.3937 110.833C73.3969 111.822 73.4 112.811 73.4033 113.831C73.0093 116.392 73.0093 116.392 71.7867 118.3C69.0148 120.098 66.9067 119.977 63.6187 119.988C62.402 119.992 61.1853 119.996 59.9318 120C58.6606 119.988 57.3894 119.975 56.0796 119.963C54.8084 119.975 53.5372 119.987 52.2275 120C50.4025 119.994 50.4025 119.994 48.5406 119.988C47.4249 119.984 46.3092 119.98 45.1597 119.977C42.3243 119.566 42.3243 119.566 40.3726 118.3C38.7132 115.71 38.7558 113.898 38.7656 110.833C38.7666 109.215 38.7666 109.215 38.7676 107.565C38.7847 106.441 38.8017 105.316 38.8193 104.157C38.8159 103.029 38.8125 101.9 38.809 100.737C38.886 89.6756 38.886 89.6756 47.8793 89.658ZM43.3824 94.1715C43.3824 100.806 43.3824 107.44 43.3824 114.275C51.7626 114.275 60.1428 114.275 68.7769 114.275C68.7769 107.641 68.7769 101.007 68.7769 94.1715C60.3967 94.1715 52.0165 94.1715 43.3824 94.1715Z" fill="#0C0C0C"/>
<path d="M79.358 89.9391C83.3943 89.5179 85.1347 89.4983 88.4097 92.0222C89.2199 92.9061 90.0301 93.7899 90.8649 94.7005C91.6914 95.5844 92.518 96.4682 93.3696 97.3789C93.9834 98.0663 94.5972 98.7537 95.2296 99.462C98.6382 97.9916 100.557 96.3054 102.967 93.5102C105.957 90.3838 106.489 89.9813 111.035 89.4761C112.104 89.6289 113.174 89.7817 114.275 89.9391C110.25 94.7643 106.075 99.3042 101.578 103.694C103.252 107.821 105.94 110.352 109.117 113.416C110.854 115.096 112.578 116.789 114.275 118.508C114.275 118.857 114.275 119.206 114.275 119.566C111.448 119.893 111.448 119.893 107.927 119.566C105.067 117.289 105.067 117.289 102.372 114.342C99.1673 110.651 99.1673 110.651 95.2296 107.927C94.8101 108.852 94.8101 108.852 94.3823 109.795C92.244 113.779 89.3639 116.911 85.7066 119.566C81.5403 120.029 81.5403 120.029 78.2999 119.566C82.6552 114.361 87.1923 109.486 92.0552 104.753C91.6706 104.304 91.286 103.855 90.8897 103.393C87.0458 98.9082 83.2019 94.4236 79.358 89.9391Z" fill="#0E0E0E"/>
<path d="M15.1566 89.5257C16.7882 89.5462 16.7882 89.5462 18.4528 89.5671C19.5869 89.6025 20.7211 89.638 21.8896 89.6745C23.036 89.6936 24.1824 89.7127 25.3636 89.7324C28.1964 89.7823 31.0275 89.852 33.8594 89.9391C33.8594 91.3358 33.8594 92.7325 33.8594 94.1715C22.8604 94.6952 22.8604 94.6952 11.6392 95.2296C11.29 103.261 10.9408 111.292 10.5811 119.566C9.18437 119.566 7.78767 119.566 6.34865 119.566C6.25644 115.422 6.20005 111.278 6.15025 107.133C6.12365 105.958 6.09706 104.782 6.06965 103.57C6.05942 102.438 6.04919 101.306 6.03865 100.14C6.02203 99.0981 6.00541 98.0564 5.98828 96.9831C6.75956 90.9655 9.33013 89.397 15.1566 89.5257Z" fill="#050505"/>
</svg>
