<?xml version="1.0" encoding="UTF-8"?>
<svg version="1.1" xmlns="http://www.w3.org/2000/svg" width="180" height="180">
<path d="M0 0 C59.4 0 118.8 0 180 0 C180 59.4 180 118.8 180 180 C120.6 180 61.2 180 0 180 C0 120.6 0 61.2 0 0 Z " fill="#FCFCFC" transform="translate(0,0)"/>
<path d="M0 0 C38.28 0 76.56 0 116 0 C116 9.24 116 18.48 116 28 C72.935 28.495 72.935 28.495 29 29 C28.67 41.87 28.34 54.74 28 68 C27.67 68.33 27.34 68.66 27 69 C18.09 69 9.18 69 0 69 C0 46.23 0 23.46 0 0 Z " fill="#010101" transform="translate(35,33)"/>
<path d="M0 0 C0.70706085 0.00359528 1.4141217 0.00719055 2.14260864 0.01089478 C3.25473473 0.01067574 3.25473473 0.01067574 4.389328 0.01045227 C6.85130696 0.01115152 9.31321119 0.01894442 11.775177 0.02676392 C13.47768614 0.02862806 15.18019582 0.03005198 16.88270569 0.03105164 C21.37245148 0.03487714 25.86216513 0.0447077 30.35189819 0.05575562 C34.92983566 0.06596903 39.50777831 0.07054911 44.08572388 0.07559204 C53.07467259 0.08632995 62.06358898 0.103927 71.05252075 0.12442017 C71.05252075 10.02442017 71.05252075 19.92442017 71.05252075 30.12442017 C61.16062293 30.14697193 51.26874205 30.16533568 41.37682438 30.17623234 C36.78409435 30.18146098 32.19138275 30.18855829 27.59866333 30.19985962 C23.17018387 30.21068917 18.74172219 30.21669714 14.31323051 30.21929741 C12.61986448 30.22115154 10.92649946 30.22477192 9.23314095 30.23015022 C6.86960843 30.23736156 4.5061503 30.23841107 2.14260864 30.23794556 C1.43554779 30.24154083 0.72848694 30.24513611 0 30.24884033 C-4.83342709 30.23847233 -4.83342709 30.23847233 -5.94747925 29.12442017 C-6.04741457 27.06386706 -6.0782883 24.99989427 -6.08029175 22.93692017 C-6.08158081 21.68137329 -6.08286987 20.42582642 -6.084198 19.13223267 C-6.08210327 18.47513306 -6.08000854 17.81803345 -6.07785034 17.14102173 C-6.07250159 15.13280682 -6.07779616 13.12481558 -6.084198 11.11660767 C-6.08290894 9.86106079 -6.08161987 8.60551392 -6.08029175 7.31192017 C-6.07859985 5.5697522 -6.07859985 5.5697522 -6.07687378 3.79238892 C-5.85565188 -0.76895618 -4.10078562 0.00879644 0 0 Z " fill="#050605" transform="translate(79.94747924804688,71.87557983398438)"/>
<path d="M0 0 C7.92 0 15.84 0 24 0 C24 6.27 24 12.54 24 19 C16.08 19 8.16 19 0 19 C0 12.73 0 6.46 0 0 Z " fill="#FAFAFA" transform="translate(76,122)"/>
<path d="M0 0 C1.87171875 -0.00386719 1.87171875 -0.00386719 3.78125 -0.0078125 C5.74578125 0.00378906 5.74578125 0.00378906 7.75 0.015625 C9.0596875 0.00789063 10.369375 0.00015625 11.71875 -0.0078125 C12.9665625 -0.00523438 14.214375 -0.00265625 15.5 0 C16.64984375 0.00225586 17.7996875 0.00451172 18.984375 0.00683594 C21.75 0.265625 21.75 0.265625 23.75 2.265625 C24.20482767 6.05908991 24.0740335 9.88553629 24.0625 13.703125 C24.07861328 14.76595703 24.09472656 15.82878906 24.11132812 16.92382812 C24.11197266 17.94283203 24.11261719 18.96183594 24.11328125 20.01171875 C24.11626221 20.94685303 24.11924316 21.8819873 24.12231445 22.84545898 C23.75 25.265625 23.75 25.265625 22.59448242 27.0690918 C19.97485393 28.76846959 17.98245594 28.65409053 14.875 28.6640625 C13.72515625 28.66792969 12.5753125 28.67179687 11.390625 28.67578125 C10.18921875 28.66417969 8.9878125 28.65257812 7.75 28.640625 C6.54859375 28.65222656 5.3471875 28.66382813 4.109375 28.67578125 C2.38460937 28.66998047 2.38460937 28.66998047 0.625 28.6640625 C-0.42945312 28.66067871 -1.48390625 28.65729492 -2.5703125 28.65380859 C-5.25 28.265625 -5.25 28.265625 -7.09448242 27.0690918 C-8.66276554 24.62140378 -8.62251542 22.90850179 -8.61328125 20.01171875 C-8.61231445 18.48321289 -8.61231445 18.48321289 -8.61132812 16.92382812 C-8.59521484 15.86099609 -8.57910156 14.79816406 -8.5625 13.703125 C-8.56572266 12.63642578 -8.56894531 11.56972656 -8.57226562 10.47070312 C-8.49943832 0.01667491 -8.49943832 0.01667491 0 0 Z M-4.25 4.265625 C-4.25 10.535625 -4.25 16.805625 -4.25 23.265625 C3.67 23.265625 11.59 23.265625 19.75 23.265625 C19.75 16.995625 19.75 10.725625 19.75 4.265625 C11.83 4.265625 3.91 4.265625 -4.25 4.265625 Z " fill="#0C0C0C" transform="translate(80.25,117.734375)"/>
<path d="M0 0 C3.8146264 -0.39804797 5.45950024 -0.41653192 8.5546875 1.96875 C9.32039063 2.8040625 10.08609375 3.639375 10.875 4.5 C11.65617187 5.3353125 12.43734375 6.170625 13.2421875 7.03125 C13.82226562 7.6809375 14.40234375 8.330625 15 9 C18.22141262 7.61037103 20.0349867 6.016698 22.3125 3.375 C25.13869708 0.42033942 25.64084629 0.03990597 29.9375 -0.4375 C30.948125 -0.293125 31.95875 -0.14875 33 0 C29.19524578 4.56030824 25.25030379 8.85089392 21 13 C22.58173042 16.89978363 25.12268529 19.29210533 28.125 22.1875 C29.76612788 23.77516337 31.39577568 25.37505692 33 27 C33 27.33 33 27.66 33 28 C30.328125 28.30859375 30.328125 28.30859375 27 28 C24.296875 25.84765625 24.296875 25.84765625 21.75 23.0625 C18.72146405 19.5745238 18.72146405 19.5745238 15 17 C14.60361328 17.87398437 14.60361328 17.87398437 14.19921875 18.765625 C12.17837455 22.53084611 9.45646355 25.49060746 6 28 C2.0625 28.4375 2.0625 28.4375 -1 28 C3.11619836 23.08064098 7.40410362 18.47352044 12 14 C11.63648437 13.57589844 11.27296875 13.15179688 10.8984375 12.71484375 C7.265625 8.4765625 3.6328125 4.23828125 0 0 Z " fill="#0E0E0E" transform="translate(110,118)"/>
<path d="M0 0 C1.54204102 0.01933594 1.54204102 0.01933594 3.11523438 0.0390625 C4.18708984 0.07257813 5.25894531 0.10609375 6.36328125 0.140625 C7.44673828 0.15867187 8.53019531 0.17671875 9.64648438 0.1953125 C12.32380271 0.24248992 14.99935034 0.30830251 17.67578125 0.390625 C17.67578125 1.710625 17.67578125 3.030625 17.67578125 4.390625 C7.28078125 4.885625 7.28078125 4.885625 -3.32421875 5.390625 C-3.65421875 12.980625 -3.98421875 20.570625 -4.32421875 28.390625 C-5.64421875 28.390625 -6.96421875 28.390625 -8.32421875 28.390625 C-8.41136191 24.47409868 -8.4646586 20.55782189 -8.51171875 16.640625 C-8.53685547 15.52945313 -8.56199219 14.41828125 -8.58789062 13.2734375 C-8.59755859 12.20351562 -8.60722656 11.13359375 -8.6171875 10.03125 C-8.63289795 9.04672852 -8.6486084 8.06220703 -8.66479492 7.04785156 C-7.93586921 1.36066342 -5.50646243 -0.12168978 0 0 Z " fill="#050505" transform="translate(49.32421875,117.609375)"/>
</svg>
