<svg width="620" height="120" viewBox="0 0 620 120" fill="none" xmlns="http://www.w3.org/2000/svg">
<path d="M35.4864 18.2394C19.7916 28.6228 3.35878 35.6452 0.302942 36.9168L77.7979 91.3436C77.8372 91.3711 77.8692 91.4079 77.891 91.4507C77.9128 91.4935 77.9238 91.5411 77.9229 91.5891V91.5927C77.9226 91.6415 77.9102 91.6895 77.8869 91.7323C77.8635 91.7752 77.8299 91.8115 77.7891 91.8382L74.3299 94.1218C74.2805 94.154 74.2227 94.1708 74.1638 94.1701C74.1049 94.1695 74.0475 94.1515 73.9988 94.1183L45.6984 74.5843C34.8999 67.2687 22.9883 68.8212 14.9005 71.414C7.13674 73.899 1.41608 77.7051 0 78.6977C0.678096 79.1746 58.5399 119.724 58.9292 120C60.1779 118.824 68.655 111.061 86.4722 100.039C105.26 88.4329 116.337 84.376 118.899 83.5177L41.2617 28.999C41.2225 28.9717 41.1905 28.9352 41.1684 28.8928C41.1464 28.8503 41.1349 28.8032 41.1349 28.7553V28.7517C41.1355 28.7032 41.1478 28.6554 41.1708 28.6127C41.1938 28.5699 41.2268 28.5334 41.267 28.5063L44.5712 26.3091C44.6195 26.2771 44.6762 26.2601 44.7341 26.2601C44.792 26.2601 44.8487 26.2771 44.897 26.3091C45.0009 26.3762 55.4101 33.229 74.1221 46.4401C91.6663 58.8175 116.136 43.9745 119.5 41.8198C118.788 41.327 60.0089 0.261396 59.6372 0C58.1666 1.25752 47.3241 10.4311 35.4864 18.2394Z" fill="#D52B1E"/>
<path d="M325.888 27.3441V44.6863H364.474C364.552 44.6872 364.627 44.7187 364.682 44.7742C364.738 44.8296 364.769 44.9046 364.77 44.983C364.77 45.0642 364.736 45.142 364.675 45.2002L324.53 82.7882V97.4034H405.635V79.987H365.256C365.196 79.9867 365.138 79.9686 365.089 79.9349C365.04 79.9012 365.002 79.8536 364.979 79.7981C364.958 79.7422 364.954 79.6813 364.968 79.6231C364.981 79.5649 365.012 79.512 365.055 79.4713C365.055 79.4713 405.586 42.1606 405.776 41.9822V27.3406C405.193 27.3441 326.472 27.3441 325.888 27.3441ZM293.39 27.3441V71.8502C293.39 78.3533 287.698 82.2354 278.162 82.2354C268.489 82.2354 262.939 78.3869 262.939 71.6754V27.3459H238.036V73.0989C238.036 82.8288 240.509 88.9293 246.056 92.8731C252.125 97.195 262.326 99.2067 278.16 99.2067C293.996 99.2067 304.199 97.195 310.269 92.8731C315.817 88.9293 318.289 82.8271 318.289 73.0989V27.3459L293.39 27.3441ZM468.388 27.3441V71.6701C468.388 78.2862 462.701 82.2336 453.169 82.2336C443.485 82.2336 437.934 78.3851 437.934 71.6736V27.3441H413.038V73.0971C413.038 82.8271 415.513 88.9275 421.061 92.8714C427.132 97.1932 437.333 99.2049 453.169 99.2049C468.996 99.2049 479.199 97.1932 485.276 92.8714C490.822 88.9257 493.298 82.8253 493.298 73.0971V27.3441H468.388ZM593.988 27.3441V97.4069H620V27.3441H593.988ZM555.28 27.3441C555.111 27.4854 527.08 51.6609 527.08 51.6609C527.037 51.6982 526.984 51.7222 526.928 51.7301C526.871 51.7379 526.814 51.7292 526.763 51.7051C526.71 51.6822 526.666 51.6444 526.635 51.5963C526.604 51.5483 526.588 51.4921 526.588 51.4349V27.3441H500.581V97.4069H526.588V72.6485C526.588 72.532 526.657 72.4207 526.77 72.3765C526.823 72.3542 526.881 72.3476 526.938 72.3576C526.995 72.3677 527.048 72.3938 527.09 72.4331C527.09 72.4331 553.106 97.2427 553.275 97.4069H588.126L549.807 61.677C549.777 61.6496 549.753 61.616 549.737 61.5786C549.72 61.5411 549.712 61.5006 549.712 61.4598V61.4527C549.712 61.3697 549.749 61.2884 549.818 61.2319L589.362 27.3423L555.28 27.3441ZM148.244 48.4483C148.244 56.0658 151.182 61.2337 157.489 64.706C163.291 67.901 172.009 69.8915 186.642 71.3645L189.407 71.603C195.75 72.1099 202.937 72.6821 202.937 77.8941C202.937 81.4636 199.075 83.4346 192.061 83.4346C188.636 83.4346 183.607 82.5657 179.394 75.1654H146.756C146.83 83.2792 149.828 88.848 156.198 92.6506C163.386 96.9442 175.099 99.0283 192.009 99.0283C229.721 99.0283 232.652 81.4141 232.652 76.0167C232.652 63.4979 221.528 55.981 198.64 53.0421L195.045 52.5864C184.601 51.2847 176.351 50.2568 176.351 46.5814C176.351 45.1596 176.819 43.9692 177.742 43.0455C180.155 40.6276 185.131 40.6346 187.255 40.6364H187.454C189.409 40.6364 196.104 41.2228 200.678 48.616H230.257C230.047 33.8207 214.52 25.3359 187.553 25.3359C152.075 25.3342 148.244 41.4965 148.244 48.4483Z" fill="#003478"/>
</svg>
