<svg width="789" height="120" viewBox="0 0 789 120" fill="none" xmlns="http://www.w3.org/2000/svg">
<g clip-path="url(#clip0_7_59)">
<path fill-rule="evenodd" clip-rule="evenodd" d="M0 5.15625V21.0796H23.6296L69.8719 116.935H126.776L173.018 20.9204L196.643 20.7558L196.695 5.15625H126.004V20.8103H144.83L112.176 88.9557L76.8614 21.048L102.619 20.9204L102.574 5.15625H0ZM456.047 5.15625V21.0796H479.67L525.913 116.935H582.818L629.061 20.9204L652.689 20.7558L652.732 5.15625H582.054V20.8103H600.872L568.219 88.9557L532.9 21.048L558.666 20.9204L558.618 5.15625H456.047ZM339.778 5.15625V21.0796H363.404L363.443 99.3368H338.535V116.78L363.46 116.936H481.427V64.9044H466.06C465.218 92.4528 443.597 99.3739 434.49 99.3739C426.146 99.3739 409.977 99.3379 409.977 99.3379V21.048L433.248 20.9193L433.216 5.15516L339.778 5.15625ZM259.194 102.62C245.037 102.62 233.566 83.8757 233.566 60.7413C233.566 37.6014 245.037 18.8427 259.194 18.8427C273.348 18.8427 284.823 37.6014 284.823 60.7413C284.823 83.8757 273.348 102.62 259.194 102.62ZM260.236 1.94477C220.076 1.94477 187.521 28.3768 187.521 60.9691C187.521 93.5636 220.075 119.992 260.236 119.992C300.393 119.992 332.953 93.5636 332.953 60.9691C332.953 28.3768 300.393 1.94477 260.236 1.94477ZM715.243 102.323C701.091 102.323 689.62 83.2674 689.62 59.7504C689.62 36.242 701.092 17.1824 715.243 17.1824C729.398 17.1824 740.866 36.242 740.866 59.7504C740.867 83.2664 729.398 102.323 715.243 102.323ZM716.29 0.00762939C676.121 0.00762939 643.575 26.8703 643.575 59.9945C643.575 93.1177 676.12 119.975 716.29 119.975C756.444 119.975 789 93.1177 789 59.9945C789 26.8703 756.444 0.00762939 716.29 0.00762939Z" fill="#0D3896"/>
</g>
<defs>
<clipPath id="clip0_7_59">
<rect width="789" height="120" fill="white"/>
</clipPath>
</defs>
</svg>
