<svg width="489" height="120" viewBox="0 0 489 120" fill="none" xmlns="http://www.w3.org/2000/svg">
<path d="M109.943 110.009H79.9524V72.9642L49.9614 42.9905V9.99122H109.908L109.943 110.009ZM9.98525 110.009V9.99122H39.9409V47.1066L69.9316 77.0804V109.974L9.98525 110.009ZM119.928 0H0V120H119.928V0Z" fill="black"/>
<path d="M213.534 40.5316L182.454 72.9677H211.917V79.5818H166.14V79.4412L197.221 47.04H167.863V40.426H213.569V40.5316H213.534Z" fill="black"/>
<path d="M407.886 79.6168L379.161 59.3884V79.6168H371.145V40.426H379.161V59.2825L407.077 40.426H419.418L391.361 59.142L420.368 79.5818H407.886V79.6168Z" fill="black"/>
<path d="M488.719 79.6168L466.957 64.9818H470.999C478.663 64.9818 485.378 60.5842 485.378 53.1263V52.5984C485.378 44.9995 478.594 40.426 470.717 40.426H438.826V79.5818H446.845V59.142L476.907 79.5818H488.719V79.6168ZM446.811 47.075H470.858C473.848 47.075 476.625 48.2713 477.398 50.6988C477.432 51.1207 477.539 52.141 477.539 53.1613C477.539 54.2166 477.471 55.2369 477.398 55.6238C476.591 57.7698 473.848 59.0715 470.858 59.0715H446.811V47.075Z" fill="black"/>
<path d="M278.566 72.6512V79.6168H237.887V40.426H278.566V47.3919H245.658V55.7997H276.844V62.7657H245.658V72.6162H278.566V72.6512Z" fill="black"/>
<path d="M345.199 72.6512V79.6168H304.52V40.426H345.199V47.3919H312.29V55.7997H343.476V62.7657H312.29V72.6162H345.199V72.6512Z" fill="black"/>
</svg>
