<svg width="437" height="373" viewBox="0 0 437 373" fill="none" xmlns="http://www.w3.org/2000/svg">
<path d="M5.68682 91.7261C2.01382 92.3038 -0.495182 95.7485 0.0828183 99.4211L27.8558 275.815C28.4338 279.486 31.8798 281.994 35.5538 281.417L164.068 261.198C167.741 260.62 170.25 257.174 169.672 253.502L146.474 106.165L103.79 76.291L5.68682 91.7261Z" fill="#F5F5F5"/>
<path d="M113.76 111.314L146.473 106.167L103.789 76.293L108.726 107.652C109.105 110.053 111.358 111.692 113.76 111.314Z" fill="#D6D6D6"/>
<path d="M103.789 76.293L108.726 107.652C109.104 110.053 111.357 111.692 113.759 111.314L146.472 106.167" stroke="#262626" stroke-width="0.274" stroke-miterlimit="10" stroke-linecap="round" stroke-linejoin="round"/>
<path d="M76.644 195.887C75.937 191.393 75.71 187.72 75.964 184.87C76.218 182.02 77.155 179.297 78.777 176.7C79.704 175.149 80.813 173.765 82.106 172.547C83.397 171.33 84.565 170.073 85.612 168.775C86.656 167.481 87.49 166.079 88.113 164.576C88.735 163.072 88.873 161.218 88.525 159.008C87.938 155.277 86.498 152.828 84.206 151.667C81.915 150.505 79.358 150.146 76.54 150.589C72.5 151.225 69.896 152.787 68.727 155.272C67.556 157.76 67.08 160.937 67.299 164.806L52.555 167.126C51.967 163.394 52.042 159.909 52.782 156.669C53.521 153.431 54.847 150.568 56.759 148.081C58.67 145.596 61.118 143.532 64.101 141.892C67.082 140.252 70.479 139.132 74.29 138.532C82.519 137.237 89.279 137.891 94.57 140.493C99.859 143.097 103.099 148.167 104.286 155.708C104.67 158.147 104.757 160.317 104.551 162.224C104.342 164.13 103.86 165.903 103.105 167.545C102.347 169.186 101.347 170.768 100.104 172.291C98.859 173.814 97.432 175.405 95.819 177.063C94.346 178.622 93.183 180.036 92.327 181.3C91.472 182.567 90.873 183.852 90.533 185.154C90.191 186.457 90.049 187.788 90.107 189.143C90.164 190.501 90.326 192.018 90.589 193.692L76.644 195.887ZM79.66 218.01L77.303 203.043L92.733 200.615L95.09 215.582L79.66 218.01Z" fill="#D6D6D6"/>
<path d="M152.139 204.732C169.151 221.447 188.937 244.002 207.323 273.143C220.114 293.416 229.597 312.707 236.673 329.682C220.367 337.017 204.062 344.351 187.756 351.687L145.836 209.086L152.139 204.732Z" fill="#FEC02D"/>
<path d="M121.241 193.203L152.602 203.001C161.195 216.624 166.158 228.691 169.071 237.083C182.64 276.168 178.288 311.936 177.058 322.044C177.058 322.044 177.037 322.217 173.083 351.689H29.6936C29.2186 341.007 29.3106 326.234 31.8336 308.903C34.8256 288.353 37.6036 269.277 50.0396 248.325C55.0966 239.805 72.6926 212.543 106.432 198.271C112.45 195.725 117.653 194.155 121.241 193.203Z" fill="#FEC02D"/>
<path d="M47.4729 252.879C64.9289 258.477 87.1579 263.971 113.281 266.647C137.616 269.14 159.067 268.545 176.453 266.913C176.951 271.013 177.45 275.112 177.949 279.213C159.381 280.726 137.3 281.183 112.594 279.024C84.9169 276.605 60.9399 271.513 41.4629 266.046C43.4659 261.657 45.4689 257.268 47.4729 252.879Z" fill="#FF7129"/>
<path opacity="0.5" d="M182.03 241.918L189.133 243.502L163.27 351.69H148.627L182.03 241.918Z" fill="#E8A600"/>
<path d="M124.013 330.965L130.096 329.074L144.038 336.278L147.554 327.755L129.86 320.953L122.637 324.337L124.013 330.965Z" fill="#E8A600"/>
<path opacity="0.5" d="M29.4688 335.49C43.6838 339.043 60.6768 342.222 79.9848 343.763C96.9118 345.115 112.224 344.937 125.453 344.047C125.453 338.616 125.453 333.185 125.453 327.754C93.8967 324.23 62.3397 320.705 30.7837 317.182L29.4688 335.49Z" fill="#E8A600"/>
<path d="M133.903 215.731C125.036 214.211 119.08 205.795 120.6 196.931L126.523 162.395L158.633 167.897L152.71 202.434C151.191 211.297 142.77 217.25 133.903 215.731Z" fill="#F7A99C"/>
<path d="M154.369 192.765L135.353 178.369C135.248 180.215 134.949 188.896 141.377 196.054C145.481 200.625 150.333 202.355 152.601 203.002L154.369 192.765Z" fill="#FF7769"/>
<path d="M127.622 151.562C127.612 151.024 126.376 149.995 126.001 149.651C125.368 149.07 124.659 148.571 123.899 148.17C122.422 147.392 120.722 146.973 119.048 147.06C115.72 147.232 112.413 149.422 111.303 152.62C110.658 154.477 110.753 156.532 111.265 158.431C112.034 161.285 113.735 163.869 116.004 165.764C117.884 167.335 120.145 168.434 122.526 168.999C123.003 169.112 127.954 169.861 127.95 169.666C127.841 163.632 127.731 157.597 127.622 151.562Z" fill="#F7A99C"/>
<path d="M123.163 151.128C123.091 153.77 122.973 167.748 133.537 179.492C135.483 181.655 148.421 196.036 163.15 192.707C182.077 188.427 185.233 159.137 185.383 157.547C185.893 152.172 187.394 136.343 175.92 125.746C166.556 117.097 154.678 117.592 152.99 117.689C151.21 117.791 139.838 118.628 131.302 128.134C123.555 136.76 123.281 146.804 123.163 151.128Z" fill="#F7A99C"/>
<path d="M175.371 155.811C175.259 158.121 176.714 160.069 178.622 160.162C180.53 160.255 182.168 158.458 182.28 156.148C182.393 153.838 180.937 151.889 179.029 151.796C177.121 151.703 175.483 153.501 175.371 155.811Z" fill="#262626"/>
<path d="M168.626 158.119L171.01 162.884C171.448 163.76 171.04 164.824 170.127 165.18L166.953 166.423" stroke="#262626" stroke-width="1.7049" stroke-miterlimit="10" stroke-linecap="round" stroke-linejoin="round"/>
<path d="M145.844 164.248C145.718 166.84 147.718 169.044 150.311 169.17C152.904 169.296 155.109 167.297 155.235 164.705C155.361 162.113 153.361 159.909 150.768 159.783C148.175 159.657 145.97 161.656 145.844 164.248Z" fill="#FF7769"/>
<path d="M123.435 162.787C123.539 162.281 124.187 158.844 121.858 155.875C120.034 153.549 117.537 152.981 116.852 152.848" stroke="#262626" stroke-width="1.7049" stroke-miterlimit="10" stroke-linecap="round" stroke-linejoin="round"/>
<path d="M122.006 156.601C121.856 156.55 120.049 155.968 118.509 157.142C117.243 158.106 117.09 159.548 117.068 159.788" stroke="#262626" stroke-width="1.7049" stroke-miterlimit="10" stroke-linecap="round" stroke-linejoin="round"/>
<path d="M181.945 163.033C182.842 163.077 183.659 163.382 184.351 163.853C183.826 166.322 183.058 169.294 181.951 172.396C181.796 172.404 181.646 172.428 181.488 172.42C178.895 172.294 176.895 170.09 177.021 167.498C177.147 164.905 179.352 162.906 181.945 163.033Z" fill="#FF7769"/>
<path d="M156.931 150.848L160.844 155.286L155.24 157.259" stroke="#262626" stroke-width="1.7049" stroke-miterlimit="10" stroke-linecap="round" stroke-linejoin="round"/>
<path d="M155.24 175.883L169.328 177.487C169.29 177.199 168.673 173.04 165.329 171.528C162.051 170.045 157.432 171.687 155.24 175.883Z" fill="white"/>
<path d="M123.314 147.888C124.09 148.19 125.92 149.02 127.376 150.977C128.717 152.78 129.039 154.596 129.134 155.427C143.746 154.04 152.181 149.936 157.261 146.24C157.261 146.24 157.632 145.971 168.344 137.836C170.07 139.696 172.773 142.19 176.599 144.33C180.068 146.27 183.279 147.261 185.631 147.792C193.31 146.006 198.664 140.271 198.842 134.283C199.029 127.977 193.421 123.202 189.441 121.218C182.946 117.98 179.958 121.758 170.435 119.264C162.759 117.254 163.046 114.366 155.848 112.622C153.673 112.096 144.636 109.907 135.555 114.686C127.896 118.717 121.828 126.851 121.224 136.231C120.892 141.364 122.285 145.505 123.314 147.888Z" fill="#262626"/>
<path d="M121.241 193.203C108.355 196.14 84.2498 203.558 61.7958 223.636C61.7958 223.636 39.1658 243.873 23.7318 281.398C22.3648 284.723 20.8348 288.231 19.1458 295.609C17.8368 301.327 17.2468 306.6 17.0538 311.205C16.9098 314.648 19.0318 317.78 22.2708 318.956C25.1168 319.988 28.3928 321.14 32.0248 322.35C38.7518 324.592 53.6728 330.702 70.5748 333.047C105.821 337.937 125.388 339.16 125.388 339.16L127.95 278.342L81.3618 272.447L121.241 193.203Z" fill="#FEC02D"/>
<path d="M158.889 224.475C164.741 244.933 168.367 262.06 170.661 274.549" stroke="#262626" stroke-miterlimit="10" stroke-linecap="round" stroke-linejoin="round"/>
<path opacity="0.5" d="M97.9486 220.809L71.8086 279.673H87.6296L97.9486 220.809Z" fill="#E8A600"/>
<path d="M185.73 242.962L171.611 238.963L140.795 347.681L154.914 351.68L185.73 242.962Z" fill="#4450E4"/>
<path d="M126.931 292.661C126.931 292.661 153.422 290.024 156.246 290.895C159.07 291.766 168.736 297.236 170.102 298.796C171.468 300.356 171.956 301.82 171.761 303.283C171.566 304.747 169.614 306.404 169.614 306.404C171.143 308.785 171.196 310.417 170.87 311.519C170.288 313.489 167.976 315.547 167.955 315.573C168.126 316.182 168.318 317.057 168.37 318.121C168.42 319.131 168.52 321.166 167.515 323.025C166.023 325.783 162.952 326.569 162.28 326.725C162.28 326.725 163.467 328.935 161.906 330.789C160.345 332.642 155.661 334.983 150.099 334.202C144.537 333.422 130.095 326.301 130.095 326.301L125.453 327.754L126.931 292.661Z" fill="#F7A99C"/>
<path opacity="0.5" d="M199.292 241.917C234.889 241.917 263.746 213.071 263.746 177.488C263.746 141.904 234.889 113.059 199.292 113.059C163.695 113.059 134.838 141.904 134.838 177.488C134.838 213.071 163.695 241.917 199.292 241.917Z" fill="#CDEBF5"/>
<path d="M199.291 104.686C159.068 104.686 126.461 137.28 126.461 177.487C126.461 217.695 159.068 250.289 199.291 250.289C239.514 250.289 272.121 217.695 272.121 177.487C272.121 137.28 239.514 104.686 199.291 104.686ZM199.291 238.402C165.636 238.402 138.353 211.129 138.353 177.487C138.353 143.845 165.636 116.573 199.291 116.573C232.946 116.573 260.229 143.845 260.229 177.487C260.229 211.129 232.946 238.402 199.291 238.402Z" fill="#4450E4"/>
<path d="M169.613 306.403C169.613 306.403 159.857 304.585 154.928 302.293C149.998 300.001 148.164 298.74 148.164 298.74" stroke="#262626" stroke-width="1.5" stroke-miterlimit="10" stroke-linecap="round" stroke-linejoin="round"/>
<path d="M167.955 315.573C167.955 315.573 156.648 314.442 152.062 311.806C147.476 309.171 145.836 307.451 145.836 307.451" stroke="#262626" stroke-width="1.5" stroke-miterlimit="10" stroke-linecap="round" stroke-linejoin="round"/>
<path d="M164.227 326.036C159.385 325.846 155.747 324.765 153.209 323.725C148.979 321.99 143.693 318.682 143.693 318.682" stroke="#262626" stroke-width="1.5" stroke-miterlimit="10" stroke-linecap="round" stroke-linejoin="round"/>
<path d="M126.931 292.659L125.453 327.752L130.095 326.3L128.607 292.496L126.931 292.659Z" fill="#FF7769"/>
<path d="M96.1138 224.475C96.1138 224.475 71.8128 277.881 72.4988 279.256C73.1838 280.632 127.95 278.34 127.95 278.34L125.388 339.157C125.388 339.157 82.6278 336.455 65.7118 332.259C48.7957 328.063 29.4688 321.487 29.4688 321.487" stroke="#262626" stroke-miterlimit="10" stroke-linecap="round" stroke-linejoin="round"/>
<path d="M202.617 134.356C202.24 135.196 202.182 136.178 202.531 137.108C203.233 138.979 205.32 139.927 207.191 139.225C210.592 137.95 214.276 137.412 217.843 137.671C221.83 137.96 224.883 139.157 226.348 139.845C228.086 140.662 231.702 142.361 234.397 146.07C238.151 151.235 237.837 157.278 237.528 159.637C237.268 161.619 238.665 163.435 240.647 163.695C242.63 163.955 244.448 162.556 244.706 160.577C245.23 156.58 245.348 148.826 240.254 141.816C236.465 136.602 231.533 134.285 229.427 133.296C227.082 132.194 223.26 130.808 218.365 130.453C213.763 130.12 209.019 130.81 204.647 132.45C203.706 132.803 202.998 133.506 202.617 134.356Z" fill="white"/>
<path d="M75.8581 219.053C67.0201 226.908 55.6691 238.637 45.3081 254.89C34.6701 271.578 28.7781 287.226 25.4121 298.741" stroke="white" stroke-miterlimit="10" stroke-linecap="round" stroke-linejoin="round"/>
<path d="M247.069 351.686H138.84C134.619 351.686 131.197 348.266 131.197 344.046V339.156H247.07V351.686H247.069Z" fill="#2A83C6"/>
<path d="M327.809 351.688H209.732C205.095 351.688 201.795 347.726 202.362 342.838L211.286 265.873C211.853 260.986 216.071 257.023 220.708 257.023H338.785C343.422 257.023 346.722 260.986 346.155 265.873L337.231 342.838C336.664 347.725 332.446 351.688 327.809 351.688Z" fill="#2A83C6"/>
<path d="M339.21 351.688H221.133C216.496 351.688 213.196 347.726 213.763 342.838L222.687 265.873C223.254 260.986 227.472 257.023 232.109 257.023H350.186C354.823 257.023 358.123 260.986 357.556 265.873L348.632 342.838C348.066 347.725 343.847 351.688 339.21 351.688Z" fill="#3897E9"/>
<path d="M357.556 270.299L348.632 343.295C348.632 343.295 349.031 351.687 335.274 351.687C321.516 351.687 258 351.687 258 351.687C266.318 351.634 295.447 350.436 322.204 328.537C348.908 306.683 355.852 278.45 357.556 270.299Z" fill="#5FBBFF"/>
<path d="M355.096 279.672C352.422 288.325 345.925 305.266 330.355 321.088C314.995 336.697 298.423 343.475 289.844 346.33" stroke="#262626" stroke-miterlimit="10" stroke-linecap="round" stroke-linejoin="round"/>
<path d="M285.684 312.063H281.557L284.187 295.33H288.315L285.684 312.063Z" fill="#FEC02D"/>
<path d="M291.102 312.059H286.975L288.788 300.521H292.916L291.102 312.059Z" fill="#FEC02D"/>
<path d="M170.332 114.967C164.376 118.326 149.334 127.848 139.465 147.053C129.623 166.205 130.611 183.921 131.34 190.722" stroke="#262626" stroke-miterlimit="10" stroke-linecap="round" stroke-linejoin="round"/>
<path d="M177.612 317.765L175.291 301.398" stroke="#262626" stroke-miterlimit="10" stroke-linecap="round" stroke-linejoin="round"/>
<path d="M406.523 301.424H251.819C248.274 301.424 245.4 298.551 245.4 295.008V181.792C245.4 178.248 248.274 175.375 251.819 175.375H406.522C410.067 175.375 412.941 178.248 412.941 181.792V295.008C412.942 298.552 410.068 301.424 406.523 301.424Z" fill="#F5F5F5"/>
<path opacity="0.5" d="M412.942 189.958V181.792C412.942 178.248 410.068 175.375 406.523 175.375H251.819C248.274 175.375 245.4 178.248 245.4 181.792V189.958H412.942Z" fill="#D6D6D6"/>
<path d="M254.115 183.43C254.115 184.527 253.225 185.416 252.128 185.416C251.03 185.416 250.141 184.526 250.141 183.43C250.141 182.333 251.031 181.443 252.128 181.443C253.225 181.442 254.115 182.332 254.115 183.43Z" fill="#F5F5F5"/>
<path d="M260.396 183.43C260.396 184.527 259.506 185.416 258.409 185.416C257.311 185.416 256.422 184.526 256.422 183.43C256.422 182.333 257.312 181.443 258.409 181.443C259.506 181.442 260.396 182.332 260.396 183.43Z" fill="#F5F5F5"/>
<path d="M266.816 183.43C266.816 184.527 265.926 185.416 264.829 185.416C263.731 185.416 262.842 184.526 262.842 183.43C262.842 182.333 263.732 181.443 264.829 181.443C265.926 181.442 266.816 182.332 266.816 183.43Z" fill="#F5F5F5"/>
<path opacity="0.5" d="M347.283 219.91V211.737C347.283 209.056 345.109 206.883 342.427 206.883H294.967C292.285 206.883 290.111 209.056 290.111 211.737V219.91V274.358C290.111 277.039 292.285 279.212 294.967 279.212H370.86C373.542 279.212 375.716 277.039 375.716 274.358V224.764C375.716 222.083 373.542 219.91 370.86 219.91H347.283Z" fill="#D6D6D6"/>
<path d="M342.475 231.326L332.913 240.884L323.352 231.326L317.582 237.094L327.144 246.651L317.582 256.21L323.352 261.977L332.913 252.419L342.475 261.977L348.245 256.21L338.683 246.651L348.245 237.094L342.475 231.326Z" fill="#D6D6D6"/>
<path d="M251.82 175.375H406.523C410.068 175.375 412.942 178.248 412.942 181.792V295.008" stroke="#262626" stroke-width="0.274" stroke-miterlimit="10" stroke-linecap="round" stroke-linejoin="round"/>
<path d="M425.473 372.999H10.66C4.773 372.999 0 368.228 0 362.343C0 356.459 4.773 351.688 10.66 351.688H425.474C431.361 351.688 436.134 356.459 436.134 362.343C436.133 368.228 431.361 372.999 425.473 372.999Z" fill="#FDB6D6"/>
<path d="M398.367 204.534C397.632 198.682 397.486 193.913 397.931 190.231C398.376 186.548 399.7 183.056 401.907 179.757C403.172 177.784 404.665 176.036 406.389 174.509C408.111 172.984 409.676 171.402 411.085 169.763C412.49 168.126 413.627 166.345 414.496 164.422C415.363 162.499 415.617 160.1 415.255 157.222C414.645 152.363 412.878 149.133 409.955 147.534C407.032 145.936 403.734 145.368 400.064 145.829C394.803 146.49 391.365 148.409 389.749 151.583C388.131 154.759 387.386 158.858 387.513 163.88L368.312 166.29C367.701 161.431 367.94 156.916 369.029 152.748C370.117 148.583 371.952 144.925 374.531 141.779C377.109 138.636 380.363 136.06 384.296 134.054C388.225 132.05 392.673 130.736 397.636 130.113C408.353 128.767 417.087 129.889 423.838 133.474C430.587 137.061 434.581 143.763 435.815 153.584C436.214 156.76 436.239 159.577 435.895 162.038C435.548 164.5 434.85 166.779 433.805 168.875C432.757 170.971 431.396 172.981 429.724 174.904C428.049 176.828 426.135 178.83 423.978 180.915C422.006 182.878 420.441 184.661 419.282 186.266C418.123 187.874 417.294 189.515 416.801 191.187C416.305 192.863 416.068 194.581 416.087 196.34C416.105 198.103 416.254 200.075 416.528 202.255L398.367 204.534ZM401.38 233.327L398.931 213.835L419.026 211.313L421.475 230.805L401.38 233.327Z" fill="#FF7129"/>
<path d="M351.408 109.048C371.491 88.9733 371.491 56.4251 351.408 36.35C331.325 16.2748 298.765 16.2748 278.682 36.35C258.599 56.4251 258.599 88.9733 278.682 109.048C298.765 129.124 331.325 129.124 351.408 109.048Z" fill="#F5F5F5"/>
<path opacity="0.5" d="M344.553 102.197C360.851 85.9056 360.851 59.4928 344.553 43.2019C328.256 26.911 301.833 26.911 285.536 43.2019C269.239 59.4928 269.239 85.9056 285.536 102.197C301.833 118.487 328.256 118.487 344.553 102.197Z" fill="#D6D6D6"/>
<path d="M316.423 43.3359H313.672V77.2798H316.423V43.3359Z" fill="#D6D6D6"/>
<path d="M315.048 74.7642L313.672 77.1465L332.725 88.1427L334.101 85.7604L315.048 74.7642Z" fill="#D6D6D6"/>
</svg>
