<svg width="37" height="42" viewBox="0 0 37 42" fill="none" xmlns="http://www.w3.org/2000/svg">
<path d="M18.2284 0C19.6688 0 20.8325 1.1637 20.8325 2.60408V5.05354L22.0531 3.83288C22.8181 3.06793 24.055 3.06793 24.8118 3.83288C25.5687 4.59783 25.5768 5.83477 24.8118 6.59158L20.8243 10.5791V16.2999L25.8209 13.3866L27.2613 8.00755C27.538 6.96592 28.6122 6.34745 29.6538 6.62413C30.6954 6.90081 31.3139 7.975 31.0372 9.01663L30.6141 10.5872L32.5346 9.46421C33.7796 8.73995 35.3746 9.16311 36.0989 10.4C36.8232 11.637 36.4081 13.2401 35.1631 13.9644L33.1042 15.1688L34.8701 15.6408C35.9117 15.9174 36.5302 16.9916 36.2535 18.0333C35.9768 19.0749 34.9027 19.6934 33.861 19.4167L28.3518 17.9437L23.3959 20.8326L28.3518 23.7215L33.861 22.2486C34.9027 21.9719 35.9768 22.5904 36.2535 23.632C36.5302 24.6737 35.9117 25.7478 34.8701 26.0245L33.1042 26.4965L35.1631 27.7009C36.4081 28.4252 36.8232 30.0202 36.0989 31.2652C35.3746 32.5103 33.7796 32.9254 32.5346 32.2011L30.6141 31.0781L31.0372 32.6487C31.3139 33.6903 30.6954 34.7645 29.6538 35.0412C28.6122 35.3178 27.538 34.6994 27.2613 33.6577L25.8209 28.2787L20.8325 25.3654V31.0862L24.82 35.0737C25.5849 35.8387 25.5849 37.0756 24.82 37.8324C24.055 38.5892 22.8181 38.5974 22.0613 37.8324L20.8406 36.6117V39.0612C20.8406 40.5016 19.6769 41.6653 18.2365 41.6653C16.7962 41.6653 15.6325 40.5016 15.6325 39.0612V36.6117L14.4118 37.8324C13.6468 38.5974 12.4099 38.5974 11.6531 37.8324C10.8963 37.0675 10.8881 35.8305 11.6531 35.0737L15.6406 31.0862V25.3654L10.644 28.2787L9.20363 33.6577C8.92695 34.6994 7.85277 35.3178 6.81113 35.0412C5.7695 34.7645 5.15103 33.6903 5.42772 32.6487L5.85088 31.0781L3.91409 32.193C2.66902 32.9172 1.07402 32.494 0.349758 31.2571C-0.374502 30.0202 0.048661 28.417 1.2856 27.6928L3.34445 26.4884L1.57856 26.0164C0.536926 25.7397 -0.081543 24.6655 0.195141 23.6239C0.471824 22.5823 1.54601 21.9638 2.58764 22.2405L8.0969 23.7134L13.0609 20.8326L8.10504 17.9437L2.59578 19.4167C1.55415 19.6934 0.479962 19.0749 0.203278 18.0333C-0.0734053 16.9916 0.545064 15.9174 1.5867 15.6408L3.35259 15.1688L1.29374 13.9644C0.0486609 13.2401 -0.366364 11.6451 0.357896 10.4082C1.08216 9.17125 2.67716 8.74808 3.92223 9.47234L5.84274 10.5954L5.41958 9.02477C5.14289 7.98314 5.76136 6.90895 6.803 6.63227C7.84463 6.35559 8.91881 6.97405 9.1955 8.01569L10.6359 13.3947L15.6243 16.2999V10.5709L11.6368 6.59158C10.8719 5.82663 10.8719 4.58969 11.6368 3.83288C12.4018 3.07607 13.6387 3.06793 14.3955 3.83288L15.6162 5.05354V2.60408C15.6162 1.1637 16.7799 0 18.2203 0H18.2284Z" fill="#3B82F6"/>
</svg>
