<svg width="44" height="24" viewBox="0 0 44 24" fill="none" xmlns="http://www.w3.org/2000/svg">
<path d="M35.4444 4.8C36.1167 4.8 36.6667 5.34 36.6667 6V18C36.6667 18.66 36.1167 19.2 35.4444 19.2H6.11111C5.43889 19.2 4.88889 18.66 4.88889 18V6C4.88889 5.34 5.43889 4.8 6.11111 4.8H35.4444ZM6.11111 0C2.73472 0 0 2.685 0 6V18C0 21.315 2.73472 24 6.11111 24H35.4444C38.8208 24 41.5556 21.315 41.5556 18V16.8C42.9076 16.8 44 15.7275 44 14.4V9.6C44 8.2725 42.9076 7.2 41.5556 7.2V6C41.5556 2.685 38.8208 0 35.4444 0H6.11111ZM34.2222 7.2H7.33333V16.8H34.2222V7.2Z" fill="#22C55E"/>
</svg>
