<svg width="30" height="40" viewBox="0 0 30 40" fill="none" xmlns="http://www.w3.org/2000/svg">
<path d="M24.8001 3.48508C25.261 2.41477 24.9173 1.16477 23.972 0.477269C23.0267 -0.210231 21.7376 -0.147731 20.8548 0.617894L0.854801 18.1179C0.073551 18.8054 -0.207699 19.907 0.159488 20.8757C0.526676 21.8445 1.46418 22.5007 2.50324 22.5007H11.2142L5.20636 36.5163C4.74543 37.5866 5.08918 38.8366 6.03449 39.5241C6.9798 40.2116 8.26886 40.1491 9.15168 39.3835L29.1517 21.8835C29.9329 21.196 30.2142 20.0945 29.847 19.1257C29.4798 18.157 28.5501 17.5085 27.5032 17.5085H18.7923L24.8001 3.48508Z" fill="#EAB308"/>
</svg>
