<svg width="42" height="42" viewBox="0 0 42 42" fill="none" xmlns="http://www.w3.org/2000/svg">
<mask id="mask0_840_9632" style="mask-type:luminance" maskUnits="userSpaceOnUse" x="0" y="-1" width="42" height="43">
<path d="M0 0H41.9999V41.9999H0V0Z" fill="white"/>
</mask>
<g mask="url(#mask0_840_9632)">
<path d="M14.5009 38.3592C13.8286 38.3592 13.2837 37.8143 13.2837 37.1421V29.0518H15.718V37.1421C15.718 37.8143 15.173 38.3592 14.5009 38.3592Z" fill="#CBCBCB"/>
<path d="M18.8333 38.3592C18.1611 38.3592 17.6162 37.8143 17.6162 37.1421V29.0518H20.0505V37.1421C20.0505 37.8143 19.5055 38.3592 18.8333 38.3592Z" fill="#CBCBCB"/>
<path d="M23.1664 38.3592C22.4942 38.3592 21.9492 37.8143 21.9492 37.1421V29.0518H24.3835V37.1421C24.3835 37.8143 23.8386 38.3592 23.1664 38.3592Z" fill="#CBCBCB"/>
<path d="M27.4993 38.3592C26.8272 38.3592 26.2822 37.8143 26.2822 37.1421V29.0518H28.7165V37.1421C28.7165 37.8143 28.1716 38.3592 27.4993 38.3592Z" fill="#CBCBCB"/>
<path d="M27.6091 24.2272C27.6091 26.317 29.3094 28.0172 31.3991 28.0172C33.489 28.0172 35.1891 26.317 35.1891 24.2272C35.1891 22.1374 33.489 20.4372 31.3991 20.4372C29.3094 20.4372 27.6091 22.1374 27.6091 24.2272ZM25.146 24.2272C25.146 20.7792 27.9511 17.9741 31.3991 17.9741C34.8471 17.9741 37.6523 20.7792 37.6523 24.2272C37.6523 27.6752 34.8471 30.4803 31.3991 30.4803C27.9511 30.4803 25.146 27.6752 25.146 24.2272Z" fill="#CBCBCB"/>
<path d="M21.6802 14.3444L30.6814 23.3456L37.3979 16.6289L28.3968 7.62778L21.6802 14.3444Z" fill="#CBCBCB"/>
<path d="M21.2817 14.7424L23.09 16.5507L29.8066 9.83403L27.9984 8.02574L21.2817 14.7424Z" fill="#AAAAAA"/>
<path d="M37.9822 18.8299L26.1958 7.04357L30.1692 4.11375C31.1334 3.40287 32.4725 3.50352 33.3195 4.35058L40.6752 11.7062C41.5222 12.5533 41.6229 13.8923 40.912 14.8565L37.9822 18.8299Z" fill="#DA4A54"/>
<path d="M29.2263 10.0741L26.1958 7.04362L30.1688 4.11323C31.1336 3.40308 32.4719 3.50324 33.3192 4.35054L36.3497 7.38101C35.5032 6.53371 34.164 6.43355 33.1994 7.1446L29.2263 10.0741Z" fill="#C32430"/>
<path d="M10.6008 20.4372C8.51098 20.4372 6.8108 22.1374 6.8108 24.2272C6.8108 26.317 8.51098 28.0172 10.6008 28.0172C12.6906 28.0172 14.3908 26.317 14.3908 24.2272C14.3908 22.1374 12.6906 20.4372 10.6008 20.4372ZM10.6008 30.4803C7.15279 30.4803 4.34766 27.6752 4.34766 24.2272C4.34766 20.7792 7.15279 17.9741 10.6008 17.9741C14.0488 17.9741 16.8539 20.7792 16.8539 24.2272C16.8539 27.6752 14.0488 30.4803 10.6008 30.4803Z" fill="#CBCBCB"/>
<path d="M5.38453 24.2271C5.38453 20.9541 7.91272 18.2594 11.1193 17.9952C10.9487 17.9813 10.7756 17.9739 10.6009 17.9739C7.15312 17.9739 4.34766 20.7794 4.34766 24.2271C4.34766 27.6749 7.15312 30.4803 10.6009 30.4803C10.7756 30.4803 10.9487 30.473 11.1193 30.459C7.91272 30.1949 5.38453 27.5002 5.38453 24.2271Z" fill="#AAAAAA"/>
<path d="M20.3198 14.3444L11.3187 23.3456L4.60205 16.6289L13.6032 7.62778L20.3198 14.3444Z" fill="#CBCBCB"/>
<path d="M13.127 21.5373L11.3187 23.3456L4.60205 16.629L6.41034 14.8207L13.127 21.5373Z" fill="#AAAAAA"/>
<path d="M22.7663 13.2576H19.2335L10.2324 22.2588L13.2835 31.7323H28.7163L31.7675 22.2588" fill="#E2DFE2"/>
<path d="M11.0749 17.7968C10.6089 18.2629 9.85326 18.2629 9.38724 17.7968L7.21875 15.6284L8.90646 13.9406L11.0749 16.1091C11.541 16.5752 11.541 17.3308 11.0749 17.7968Z" fill="#818181"/>
<path d="M14.7717 14.1015C14.3056 14.5675 13.55 14.5675 13.084 14.1015L10.9155 11.933L12.6032 10.2453L14.7717 12.4138C15.2377 12.8798 15.2377 13.6355 14.7717 14.1015Z" fill="#818181"/>
<path d="M15.8041 7.04357L4.01771 18.8299L1.08789 14.8564C0.37701 13.8923 0.477662 12.5533 1.32471 11.7062L8.68035 4.35057C9.5274 3.50344 10.8665 3.40287 11.8307 4.11375L15.8041 7.04357Z" fill="#DA4A54"/>
<path d="M7.04833 15.7995L4.01786 18.8299L1.08746 14.8569C0.37732 13.8922 0.47748 12.5538 1.32478 11.7065L4.35525 8.67607C3.50795 9.52254 3.40779 10.8617 4.11884 11.8264L7.04833 15.7995Z" fill="#C32430"/>
<path d="M30.9253 17.7968C31.3913 18.2629 32.1469 18.2629 32.613 17.7968L34.7815 15.6284L33.0937 13.9406L30.9253 16.1091C30.4592 16.5752 30.4592 17.3308 30.9253 17.7968Z" fill="#818181"/>
<path d="M27.2279 14.1015C27.694 14.5675 28.4496 14.5675 28.9156 14.1015L31.0841 11.933L29.3964 10.2453L27.2279 12.4138C26.7619 12.8798 26.7619 13.6355 27.2279 14.1015Z" fill="#818181"/>
<path d="M23.867 21.1545C23.867 19.5713 22.5835 18.2877 21.0001 18.2877C19.4168 18.2877 18.1333 19.5713 18.1333 21.1545C18.1333 22.7379 19.4168 24.0214 21.0001 24.0214C22.5835 24.0214 23.867 22.7379 23.867 21.1545Z" fill="#818181"/>
<path d="M32.578 27.8708C32.578 25.738 30.8492 24.0092 28.7165 24.0092C26.5838 24.0092 24.855 25.738 24.855 27.8708C24.855 30.0034 26.5838 31.7323 28.7165 31.7323C30.8492 31.7323 32.578 30.0034 32.578 27.8708Z" fill="#818181"/>
<path d="M19.0655 29.992C19.0655 27.4345 16.9922 25.3611 14.4346 25.3611C11.877 25.3611 9.80371 27.4345 9.80371 29.992C9.80371 32.5496 11.877 34.6229 14.4346 34.6229C16.9922 34.6229 19.0655 32.5496 19.0655 29.992Z" fill="#818181"/>
<path d="M15.6763 29.9925C15.6763 29.3068 15.1204 28.7508 14.4346 28.7508C13.7488 28.7508 13.1929 29.3068 13.1929 29.9925C13.1929 30.6783 13.7488 31.2342 14.4346 31.2342C15.1204 31.2342 15.6763 30.6783 15.6763 29.9925Z" fill="#E2DFE2"/>
<path d="M29.958 27.8714C29.958 27.1857 29.4021 26.6297 28.7163 26.6297C28.0305 26.6297 27.4746 27.1857 27.4746 27.8714C27.4746 28.5572 28.0305 29.1132 28.7163 29.1132C29.4021 29.1132 29.958 28.5572 29.958 27.8714Z" fill="#E2DFE2"/>
</g>
</svg>
