<svg width="40" height="40" viewBox="0 0 40 40" fill="none" xmlns="http://www.w3.org/2000/svg">
<g clip-path="url(#clip0_840_9701)">
<path d="M35.7384 1.04294L38.9515 4.25599C39.2453 4.54984 39.4104 4.94839 39.4104 5.36395C39.4104 5.77952 39.2453 6.17806 38.9515 6.47192L35.9876 9.43583L30.5586 4.00684L33.5224 1.04294C33.6679 0.897432 33.8407 0.78201 34.0308 0.703263C34.2209 0.624515 34.4247 0.583984 34.6304 0.583984C34.8362 0.583984 35.04 0.624515 35.2301 0.703263C35.4202 0.78201 35.5929 0.897432 35.7384 1.04294Z" fill="#ED5152"/>
<path d="M37.1529 10.5997L29.3958 2.84254C28.7837 2.23052 27.7915 2.23052 27.1794 2.84254L23.3008 6.72113C22.6888 7.33316 22.6888 8.32545 23.3008 8.93747L31.058 16.6947C31.67 17.3067 32.6623 17.3067 33.2744 16.6947L37.1529 12.8161C37.765 12.204 37.765 11.2118 37.1529 10.5997Z" fill="#FCC855"/>
<path d="M24.9641 10.6016L29.3962 15.0336L8.28945 36.1402L3.85742 31.7082L24.9641 10.6016Z" fill="#576473"/>
<path d="M6.07109 39.4156C9.10046 39.4156 11.5563 36.9598 11.5563 33.9305C11.5563 30.9011 9.10046 28.4453 6.07109 28.4453C3.04173 28.4453 0.585938 30.9011 0.585938 33.9305C0.585938 36.9598 3.04173 39.4156 6.07109 39.4156Z" fill="#ED5152"/>
<path d="M6.07148 36.2797C7.36979 36.2797 8.42227 35.2272 8.42227 33.9289C8.42227 32.6306 7.36979 31.5781 6.07148 31.5781C4.77318 31.5781 3.7207 32.6306 3.7207 33.9289C3.7207 35.2272 4.77318 36.2797 6.07148 36.2797Z" fill="#E3E9F7"/>
<path d="M20.5276 11.7121C19.9156 11.1001 18.9233 11.1001 18.3113 11.7121C17.6993 12.3242 17.6993 13.3165 18.3113 13.9285L26.0685 21.6857C26.6805 22.2977 27.6728 22.2977 28.2848 21.6857C28.8968 21.0736 28.8968 20.0814 28.2848 19.4693L20.5276 11.7121Z" fill="#FCC855"/>
<path d="M16.0965 16.1438C15.4845 15.5318 14.4922 15.5318 13.8801 16.1438C13.2681 16.7558 13.2681 17.7481 13.8801 18.3601L21.6373 26.1173C22.2493 26.7293 23.2416 26.7293 23.8537 26.1173C24.4657 25.5053 24.4657 24.513 23.8537 23.901L16.0965 16.1438Z" fill="#FCC855"/>
<path d="M11.6629 20.5754C11.0509 19.9634 10.0586 19.9634 9.44655 20.5754C8.83452 21.1874 8.83452 22.1797 9.44655 22.7918L17.2037 30.5489C17.8158 31.161 18.808 31.161 19.4201 30.5489C20.0321 29.9369 20.0321 28.9446 19.4201 28.3326L11.6629 20.5754Z" fill="#FCC855"/>
<path d="M39.3705 3.84532L36.1572 0.63126C35.9572 0.431133 35.7197 0.272377 35.4583 0.164063C35.1969 0.0557495 34.9167 0 34.6338 0C34.3508 0 34.0707 0.0557495 33.8093 0.164063C33.5479 0.272377 33.3104 0.431133 33.1104 0.63126L30.5619 3.18204L29.8119 2.43204C29.4075 2.02863 28.8597 1.80207 28.2885 1.80207C27.7173 1.80207 27.1694 2.02863 26.765 2.43204L22.8908 6.31095C22.4868 6.71502 22.2599 7.263 22.2599 7.83438C22.2599 8.40577 22.4868 8.95375 22.8908 9.35782L24.1408 10.6078L22.1994 12.55L20.9494 11.3C20.7494 11.0999 20.5119 10.9413 20.2505 10.833C19.9891 10.7247 19.7089 10.669 19.426 10.669C19.1431 10.669 18.8629 10.7247 18.6015 10.833C18.3401 10.9413 18.1026 11.0999 17.9025 11.3C17.7025 11.5001 17.5438 11.7376 17.4355 11.999C17.3272 12.2604 17.2715 12.5405 17.2715 12.8234C17.2715 13.1064 17.3272 13.3865 17.4355 13.6479C17.5438 13.9093 17.7025 14.1468 17.9025 14.3469L19.1525 15.5969L17.7619 16.9774L16.5119 15.7274C16.1079 15.3233 15.5599 15.0963 14.9885 15.0963C14.4171 15.0963 13.8691 15.3233 13.465 15.7274C13.061 16.1314 12.834 16.6794 12.834 17.2508C12.834 17.5337 12.8897 17.8139 12.998 18.0753C13.1063 18.3367 13.265 18.5742 13.465 18.7742L14.715 20.0242L13.3299 21.407L12.0799 20.157C11.6758 19.753 11.1278 19.526 10.5564 19.526C9.98505 19.526 9.43705 19.753 9.03301 20.157C8.62897 20.5611 8.40198 21.1091 8.40198 21.6805C8.40198 22.2519 8.62897 22.7999 9.03301 23.2039L10.283 24.4539L6.8291 27.9102C6.57671 27.8783 6.32257 27.8621 6.06817 27.8617C4.86742 27.8617 3.69363 28.2178 2.69525 28.8849C1.69686 29.552 0.918714 30.5002 0.459208 31.6095C-0.000299186 32.7189 -0.120527 33.9396 0.113727 35.1172C0.347982 36.2949 0.926198 37.3767 1.77526 38.2257C2.62431 39.0748 3.70608 39.653 4.88376 39.8873C6.06143 40.1215 7.28213 40.0013 8.39147 39.5418C9.50082 39.0823 10.449 38.3041 11.1161 37.3057C11.7832 36.3074 12.1393 35.1336 12.1393 33.9328C12.1389 33.6784 12.1227 33.4243 12.0908 33.1719L15.5471 29.7164L16.7971 30.9664C17.2011 31.3704 17.7491 31.5974 18.3205 31.5974C18.8919 31.5974 19.4399 31.3704 19.8439 30.9664C20.2479 30.5623 20.4749 30.0144 20.4749 29.443C20.4749 28.8716 20.2479 28.3236 19.8439 27.9195L18.5939 26.6695L19.9814 25.282L21.2314 26.532C21.6356 26.9358 22.1836 27.1627 22.7549 27.1627C23.3262 27.1627 23.8742 26.9358 24.2783 26.532C24.6817 26.1277 24.9083 25.5798 24.9083 25.0086C24.9083 24.4374 24.6817 23.8895 24.2783 23.4852L23.0283 22.2352L24.4158 20.8477L25.6658 22.0977C26.0699 22.5017 26.6179 22.7286 27.1893 22.7286C27.7606 22.7286 28.3086 22.5017 28.7127 22.0977C28.9128 21.8976 29.0716 21.6601 29.1799 21.3988C29.2882 21.1374 29.344 20.8572 29.344 20.5742C29.344 20.2913 29.2882 20.0111 29.1799 19.7497C29.0716 19.4883 28.9128 19.2508 28.7127 19.0508L27.4627 17.8008L29.4049 15.8594L30.6549 17.1094C30.8549 17.3096 31.0923 17.4684 31.3537 17.5768C31.6151 17.6852 31.8953 17.741 32.1783 17.741C32.4613 17.741 32.7415 17.6852 33.0029 17.5768C33.2643 17.4684 33.5018 17.3096 33.7018 17.1094L37.5807 13.2313C37.7808 13.0312 37.9396 12.7937 38.0479 12.5323C38.1562 12.2709 38.2119 11.9908 38.2119 11.7078C38.2119 11.4249 38.1562 11.1447 38.0479 10.8833C37.9396 10.6219 37.7808 10.3844 37.5807 10.1844L36.8322 9.43595L39.3822 6.88517C39.7825 6.47984 40.006 5.93249 40.0038 5.36283C40.0016 4.79316 39.7739 4.24755 39.3705 3.84532ZM9.53145 37.3969C8.73001 38.1981 7.67556 38.6967 6.54775 38.8076C5.41994 38.9186 4.28854 38.6351 3.34634 38.0054C2.40413 37.3757 1.70941 36.4388 1.38053 35.3543C1.05166 34.2698 1.10898 33.1048 1.54274 32.0578C1.97649 31.0109 2.75984 30.1467 3.75932 29.6126C4.75879 29.0784 5.91255 28.9073 7.02402 29.1285C8.1355 29.3496 9.13591 29.9493 9.85481 30.8253C10.5737 31.7014 10.9666 32.7996 10.9666 33.9328C10.9659 35.232 10.4497 36.4778 9.53145 37.3969ZM11.7674 31.8367C11.4624 31.0115 10.9824 30.262 10.3603 29.6399C9.73819 29.0178 8.98874 28.5378 8.16348 28.2328L11.1127 25.2836L14.7166 28.8875L11.7674 31.8367ZM19.0088 30.1359C18.8243 30.3194 18.5748 30.4224 18.3147 30.4224C18.0545 30.4224 17.805 30.3194 17.6205 30.1359L9.86348 22.3789C9.68823 22.1933 9.59224 21.9466 9.59588 21.6913C9.59953 21.4361 9.70252 21.1923 9.88299 21.0117C10.0635 20.8311 10.3072 20.728 10.5625 20.7242C10.8178 20.7204 11.0644 20.8163 11.2502 20.9914L19.0096 28.7508C19.1924 28.9349 19.2951 29.1839 19.2951 29.4434C19.2951 29.7029 19.1924 29.9518 19.0096 30.1359H19.0088ZM17.7588 25.8391L14.1549 22.2352L15.5471 20.8516L19.1494 24.4539L17.7588 25.8391ZM23.4424 25.7039C23.2583 25.8877 23.0088 25.9909 22.7486 25.9909C22.4885 25.9909 22.239 25.8877 22.0549 25.7039L14.2971 17.9461C14.1182 17.7611 14.0191 17.5131 14.0213 17.2558C14.0235 16.9984 14.1267 16.7522 14.3087 16.5702C14.4907 16.3882 14.7369 16.285 14.9942 16.2828C15.2516 16.2807 15.4995 16.3797 15.6846 16.5586L23.4416 24.3156C23.6257 24.4997 23.7292 24.7493 23.7294 25.0096C23.7295 25.2699 23.6263 25.5197 23.4424 25.7039ZM22.1924 21.4109L18.5939 17.8063L19.9814 16.4188L23.5854 20.0227L22.1924 21.4109ZM28.1604 20.5774C28.1603 20.7715 28.1027 20.9613 27.9948 21.1226C27.8868 21.284 27.7335 21.4097 27.5541 21.4839C27.3747 21.5581 27.1773 21.5774 26.9869 21.5394C26.7965 21.5014 26.6217 21.4077 26.4846 21.2703L18.7307 13.5164C18.5518 13.3314 18.4527 13.0835 18.4549 12.8261C18.4571 12.5687 18.5603 12.3225 18.7423 12.1405C18.9243 11.9585 19.1705 11.8553 19.4278 11.8531C19.6852 11.851 19.9331 11.95 20.1182 12.1289L27.8752 19.8859C27.9662 19.9765 28.0384 20.0841 28.0878 20.2026C28.1371 20.3211 28.1626 20.4482 28.1627 20.5766L28.1604 20.5774ZM26.6275 16.9774L23.0236 13.3734L24.965 11.432L28.5689 15.0359L26.6275 16.9774ZM36.74 12.4055L32.8619 16.2836C32.7709 16.3748 32.6627 16.4471 32.5437 16.4965C32.4246 16.5458 32.297 16.5712 32.1682 16.5712C32.0393 16.5712 31.9117 16.5458 31.7927 16.4965C31.6736 16.4471 31.5655 16.3748 31.4744 16.2836L23.7174 8.52657C23.5336 8.34246 23.4304 8.09295 23.4304 7.83282C23.4304 7.57269 23.5336 7.32319 23.7174 7.13907L27.5955 3.26095C27.7797 3.07737 28.0292 2.97429 28.2893 2.97429C28.5493 2.97429 28.7988 3.07737 28.983 3.26095L36.74 11.0164C36.8312 11.1075 36.9036 11.2156 36.9529 11.3347C37.0023 11.4537 37.0277 11.5813 37.0277 11.7102C37.0277 11.839 37.0023 11.9666 36.9529 12.0857C36.9036 12.2047 36.8312 12.3129 36.74 12.4039V12.4055ZM38.5416 6.06095L35.9916 8.61173L31.39 4.01017L33.9408 1.46017C34.0319 1.36899 34.14 1.29665 34.2591 1.2473C34.3781 1.19794 34.5057 1.17254 34.6346 1.17254C34.7634 1.17254 34.891 1.19794 35.0101 1.2473C35.1291 1.29665 35.2373 1.36899 35.3283 1.46017L38.5416 4.67345C38.7254 4.85756 38.8286 5.10707 38.8286 5.3672C38.8286 5.62733 38.7254 5.87683 38.5416 6.06095Z" fill="black"/>
<path d="M6.07122 30.9922C5.39178 30.9924 4.73342 31.2281 4.20832 31.6593C3.68323 32.0905 3.32388 32.6904 3.19152 33.3568C3.05916 34.0232 3.16197 34.7149 3.48244 35.3141C3.8029 35.9132 4.3212 36.3826 4.949 36.6424C5.5768 36.9023 6.27527 36.9363 6.92539 36.7389C7.5755 36.5415 8.13705 36.1247 8.51433 35.5596C8.89161 34.9946 9.06129 34.3162 8.99445 33.64C8.92761 32.9639 8.6284 32.3318 8.14778 31.8516C7.87566 31.5781 7.55202 31.3614 7.19558 31.2139C6.83914 31.0664 6.45698 30.991 6.07122 30.9922ZM7.32122 35.1766C7.03269 35.4648 6.6532 35.644 6.24735 35.6839C5.84151 35.7237 5.4344 35.6216 5.09536 35.395C4.75631 35.1684 4.50628 34.8313 4.38785 34.4411C4.26941 34.0509 4.28989 33.6317 4.4458 33.2549C4.60171 32.8781 4.8834 32.5669 5.24292 32.3745C5.60244 32.182 6.01756 32.1201 6.41759 32.1993C6.81762 32.2785 7.17783 32.4939 7.43689 32.8089C7.69595 33.1238 7.83784 33.5188 7.83841 33.9266C7.83825 34.1589 7.79228 34.3888 7.70313 34.6033C7.61398 34.8178 7.48341 35.0126 7.31887 35.1766H7.32122Z" fill="black"/>
</g>
<defs>
<clipPath id="clip0_840_9701">
<rect width="40" height="40" fill="white"/>
</clipPath>
</defs>
</svg>
