<svg width="38" height="38" viewBox="0 0 38 38" fill="none" xmlns="http://www.w3.org/2000/svg">
<path d="M18.9996 16.5354C17.6409 16.5354 16.5355 17.6408 16.5355 18.9994C16.6709 22.2684 21.3288 22.2674 21.4636 18.9994C21.4636 17.6407 20.3583 16.5354 18.9996 16.5354ZM17.7624 28.5393C18.5839 28.6442 19.4154 28.6442 20.2368 28.5393C20.0758 25.781 19.3868 24.1667 18.9997 23.7557C18.6124 24.1667 17.9235 25.781 17.7624 28.5393ZM14.8769 21.2352C13.4169 21.9792 11.8923 22.2572 10.0134 22.4293C10.9897 24.9784 13.0206 27.0093 15.5697 27.9856C15.6817 26.5728 15.9291 25.2711 16.2905 24.2234C16.438 23.7959 16.5972 23.4317 16.7638 23.1221C15.9666 22.6875 15.3115 22.0324 14.8769 21.2352ZM20.2367 9.45957C19.4153 9.35462 18.5838 9.35462 17.7624 9.45957C17.9234 12.2178 18.6124 13.8322 18.9995 14.2431C19.3868 13.8322 20.0757 12.2178 20.2367 9.45957ZM9.45974 17.7623C9.35457 18.5837 9.35457 19.4152 9.45974 20.2366C12.2181 20.0756 13.8323 19.3866 14.2433 18.9995C13.8323 18.6122 12.2181 17.9233 9.45974 17.7623ZM14.8769 16.7637C15.3115 15.9664 15.9666 15.3113 16.7638 14.8767C16.5972 14.5671 16.438 14.203 16.2905 13.7755C15.9291 12.7277 15.6817 11.426 15.5697 10.0132C13.0206 10.9895 10.9897 13.0204 10.0134 15.5695C11.8923 15.7415 13.417 16.0197 14.8769 16.7637Z" fill="black"/>
<path d="M36.8868 15.5019C36.8546 15.5019 36.8304 15.482 36.8249 15.4546C36.8223 15.4412 36.8244 15.4274 36.8308 15.4154C36.8373 15.4034 36.8476 15.394 36.8602 15.3888C37.4371 15.1497 37.6998 14.4962 37.4663 13.9325L35.641 9.52575C35.4074 8.96198 34.7596 8.68574 34.1826 8.92457C34.17 8.92975 34.156 8.93043 34.143 8.9265C34.13 8.92256 34.1187 8.91426 34.1111 8.90298C34.0955 8.87975 34.0987 8.8485 34.1214 8.82579C34.5561 8.39102 34.5561 7.68616 34.1214 7.25139L30.7487 3.87867C30.3139 3.4439 29.609 3.4439 29.1743 3.87867C29.1515 3.90138 29.1203 3.9045 29.0971 3.88891C29.0858 3.88132 29.0775 3.87007 29.0736 3.85706C29.0696 3.84405 29.0703 3.83008 29.0755 3.81751C29.3144 3.24054 29.0381 2.59268 28.4743 2.35912L24.0676 0.533707C23.5039 0.300215 22.8504 0.563023 22.6113 1.13985C22.6061 1.15241 22.5967 1.16278 22.5847 1.16921C22.5727 1.17564 22.5589 1.17772 22.5456 1.1751C22.5181 1.16969 22.4982 1.14542 22.4982 1.11328C22.4982 0.498453 21.9998 0 21.3849 0H16.6151C16.0003 0 15.5018 0.498453 15.5018 1.11328C15.5018 1.14542 15.4819 1.16969 15.4545 1.1751C15.4411 1.17772 15.4273 1.17564 15.4153 1.16921C15.4033 1.16278 15.3939 1.15241 15.3887 1.13985C15.1497 0.562949 14.4962 0.300215 13.9324 0.533707L9.52567 2.35904C8.96191 2.59261 8.68567 3.24046 8.9245 3.81744C8.92969 3.83 8.93037 3.84398 8.92644 3.85699C8.9225 3.87 8.91419 3.88125 8.9029 3.88884C8.87967 3.90442 8.84843 3.90131 8.82572 3.87859C8.39094 3.44382 7.68609 3.44382 7.25131 3.87859L3.87867 7.25139C3.4439 7.68616 3.4439 8.39102 3.87867 8.82579C3.90138 8.8485 3.9045 8.87975 3.88891 8.90298C3.88131 8.91426 3.87004 8.92256 3.85702 8.9265C3.844 8.93043 3.83002 8.92975 3.81744 8.92457C3.24046 8.68567 2.59261 8.96198 2.35904 9.52575L0.533707 13.9325C0.300215 14.4962 0.563023 15.1497 1.13985 15.3888C1.16575 15.3996 1.18067 15.4274 1.1751 15.4546C1.16969 15.482 1.14542 15.5019 1.11328 15.5019C0.498453 15.5019 0 16.0004 0 16.6152V21.385C0 21.9998 0.498453 22.4983 1.11328 22.4983C1.14542 22.4983 1.16969 22.5182 1.1751 22.5456C1.17772 22.559 1.17564 22.5728 1.16921 22.5848C1.16278 22.5968 1.15241 22.6062 1.13985 22.6114C0.562949 22.8505 0.300215 23.5039 0.533707 24.0677L2.35904 28.4744C2.59261 29.0382 3.24046 29.3145 3.81744 29.0756C3.83002 29.0704 3.844 29.0698 3.85702 29.0737C3.87004 29.0776 3.88131 29.0859 3.88891 29.0972C3.9045 29.1204 3.90138 29.1517 3.87867 29.1744C3.4439 29.6092 3.4439 30.314 3.87867 30.7488L7.25139 34.1215C7.68616 34.5563 8.39102 34.5563 8.82579 34.1215C8.8485 34.0988 8.87975 34.0957 8.90298 34.1113C8.91426 34.1189 8.92256 34.1301 8.9265 34.1432C8.93043 34.1562 8.92975 34.1702 8.92457 34.1828C8.68567 34.7597 8.96198 35.4076 9.52575 35.6412L13.9325 37.4665C14.4962 37.7 15.1497 37.4372 15.3888 36.8603C15.394 36.8478 15.4034 36.8374 15.4154 36.831C15.4274 36.8246 15.4412 36.8225 15.4546 36.8251C15.482 36.8305 15.5019 36.8548 15.5019 36.8869C15.5019 37.5017 16.0004 38.0002 16.6152 38.0002H21.385C21.9998 38.0002 22.4983 37.5017 22.4983 36.8869C22.4983 36.8548 22.5182 36.8305 22.5456 36.8251C22.559 36.8225 22.5728 36.8246 22.5848 36.831C22.5968 36.8374 22.6062 36.8478 22.6114 36.8603C22.8505 37.4372 23.5039 37.7 24.0677 37.4665L28.4744 35.6412C29.0382 35.4076 29.3145 34.7597 29.0756 34.1828C29.0704 34.1702 29.0698 34.1562 29.0737 34.1432C29.0776 34.1301 29.0859 34.1189 29.0972 34.1113C29.1204 34.0957 29.1517 34.0988 29.1744 34.1215C29.6092 34.5563 30.314 34.5563 30.7488 34.1215L34.1215 30.7488C34.5563 30.314 34.5563 29.6092 34.1215 29.1744C34.0988 29.1517 34.0957 29.1204 34.1113 29.0972C34.1189 29.0859 34.1301 29.0776 34.1432 29.0737C34.1562 29.0698 34.1702 29.0704 34.1828 29.0756C34.7597 29.3145 35.4076 29.0382 35.6412 28.4744L37.4665 24.0677C37.7 23.5039 37.4372 22.8505 36.8603 22.6114C36.8478 22.6062 36.8374 22.5968 36.831 22.5848C36.8246 22.5728 36.8225 22.559 36.8251 22.5456C36.8305 22.5182 36.8548 22.4983 36.8869 22.4983C37.5017 22.4983 38.0002 21.9998 38.0002 21.385V16.6152C38 16.0004 37.5016 15.5019 36.8868 15.5019ZM19.0001 30.8454C12.4685 30.8454 7.15476 25.5316 7.15476 19.0001C7.80543 3.28566 30.1971 3.29019 30.8454 19.0001C30.8454 25.5316 25.5316 30.8454 19.0001 30.8454Z" fill="black"/>
<path d="M23.1228 21.2356C22.6882 22.0329 22.0331 22.688 21.2358 23.1225C21.4025 23.4321 21.5617 23.7963 21.7091 24.2238C22.0706 25.2715 22.3179 26.5733 22.4299 27.986C24.9791 27.0097 27.01 24.9788 27.9863 22.4297C26.1073 22.2577 24.5827 21.9796 23.1228 21.2356ZM22.4299 10.0137C22.3179 11.4264 22.0706 12.7281 21.7091 13.7759C21.5617 14.2034 21.4025 14.5676 21.2358 14.8771C22.0331 15.3117 22.6882 15.9668 23.1228 16.7641C24.5828 16.02 26.1073 15.742 27.9863 15.57C27.01 13.0209 24.9791 10.9899 22.4299 10.0137ZM28.5399 20.237C28.6451 19.4156 28.6451 18.5841 28.5399 17.7626C25.7816 17.9237 24.1673 18.6126 23.7564 18.9998C24.1673 19.387 25.7816 20.0759 28.5399 20.237Z" fill="black"/>
</svg>
