<svg width="35" height="42" viewBox="0 0 35 42" fill="none" xmlns="http://www.w3.org/2000/svg">
<path d="M25.2022 0H25.501C25.7407 2.96193 24.6102 5.17508 23.2362 6.77776C21.888 8.36938 20.0419 9.91305 17.056 9.67883C16.8568 6.75932 17.9892 4.71031 19.3613 3.11132C20.6339 1.62113 22.9669 0.295086 25.2022 0ZM34.2411 30.8291V30.9121C33.4019 33.4536 32.205 35.6317 30.7443 37.653C29.4109 39.4881 27.7768 41.9576 24.8592 41.9576C22.338 41.9576 20.6634 40.3364 18.0796 40.2922C15.3463 40.2479 13.8432 41.6477 11.3442 42H10.4922C8.65709 41.7344 7.17613 40.2811 6.09722 38.9717C2.91582 35.1024 0.457384 30.1043 0 23.7083V21.829C0.19365 17.2515 2.41786 13.5297 5.37426 11.726C6.93453 10.767 9.07943 9.94994 11.4678 10.3151C12.4914 10.4737 13.5371 10.8241 14.4537 11.1709C15.3224 11.5047 16.4086 12.0967 17.4378 12.0653C18.1349 12.0451 18.8283 11.6817 19.531 11.4254C21.5892 10.6821 23.6069 9.83006 26.2664 10.2303C29.4625 10.7135 31.731 12.1336 33.1327 14.3246C30.4289 16.0453 28.2914 18.6384 28.6566 23.0665C28.9812 27.0889 31.3197 29.4422 34.2411 30.8291Z" fill="#333333"/>
</svg>
