<svg width="92" height="92" viewBox="0 0 92 92" fill="none" xmlns="http://www.w3.org/2000/svg">
<g filter="url(#filter0_d_840_8554)">
<rect x="6" y="4" width="80" height="80" rx="40" fill="white"/>
<path d="M63.7758 64.9934H62.6414V63.859H63.7758V64.9934ZM60.3664 63.8582H58.0922V64.9926H60.3664V63.8582ZM55.8172 63.8582H53.543V64.9926H55.8172V63.8582ZM51.268 63.8582H48.9937V64.9926H51.268V63.8582ZM46.7195 63.8582H44.4445V64.9926H46.7195V63.8582ZM42.1703 63.8582H39.8953V64.9926H42.1703V63.8582ZM37.6211 63.8582H35.3461V64.9926H37.6211V63.8582ZM33.0844 63.8567C32.4105 63.8432 31.7491 63.673 31.1523 63.3598L30.6258 64.3645C31.3771 64.76 32.2104 64.9748 33.0594 64.9918L33.0844 63.8567ZM29.6383 62.0567C29.2405 61.5123 28.973 60.884 28.8562 60.22L27.7383 60.4153C27.8849 61.251 28.2214 62.0418 28.7219 62.727L29.6383 62.0567ZM29.6305 56.309L28.7125 55.6411C28.2142 56.3281 27.8802 57.1203 27.7359 57.9567L28.8547 58.1473C28.9687 57.4831 29.2341 56.8541 29.6305 56.309ZM33.0719 54.4965L33.0406 53.3621C32.1923 53.3833 31.3604 53.6007 30.6102 53.9973L31.1398 55.0004C31.7362 54.6852 32.3975 54.5127 33.0719 54.4965ZM42.1539 53.3606H39.8797V54.495H42.1539V53.3606ZM37.6047 53.3606H35.3305V54.495H37.6047V53.3606ZM46.7078 52.8489L45.9 52.0528C45.4265 52.5327 44.8492 52.8975 44.2125 53.1192L44.5844 54.1918C45.3858 53.9129 46.1123 53.4534 46.7078 52.8489ZM48.3016 48.966C48.3016 48.7153 48.2844 48.4598 48.25 48.2098L47.1258 48.3621C47.2186 49.0306 47.1564 49.7115 46.9437 50.352L48.0211 50.7098C48.2073 50.1473 48.302 49.5586 48.3016 48.966ZM47.3492 45.8621C46.872 45.1618 46.2418 44.5792 45.5062 44.1582L44.9437 45.1434C45.5293 45.4785 46.0308 45.9426 46.4102 46.5004L47.3492 45.8621ZM43.0984 43.445C42.9897 43.4383 42.8808 43.4352 42.7719 43.4356H40.7891V44.57H42.7711C42.8578 44.57 42.943 44.5731 43.0289 44.5778L43.0984 43.445ZM38.5148 43.4356H36.2406V44.57H38.5148V43.4356ZM33.9656 43.4356H31.6914V44.57H33.9656V43.4356ZM29.3594 43.4356H28.2242V44.57H29.3594V43.4356Z" fill="#686E7B"/>
<path d="M63.0195 43.4316C58.6117 43.4316 55.0391 47.0051 55.0391 51.4121C55.0391 57.4129 63.0195 64.4262 63.0195 64.4262C63.0195 64.4262 71 57.5691 71 51.4121C71 47.0051 67.4266 43.4316 63.0195 43.4316ZM63.0195 56.2137C61.7328 56.2137 60.4988 55.7025 59.589 54.7927C58.6791 53.8828 58.168 52.6488 58.168 51.3621C58.168 50.0754 58.6791 48.8414 59.589 47.9315C60.4988 47.0217 61.7328 46.5105 63.0195 46.5105C64.3062 46.5105 65.5403 47.0217 66.4501 47.9315C67.3599 48.8414 67.8711 50.0754 67.8711 51.3621C67.8711 52.6488 67.3599 53.8828 66.4501 54.7927C65.5403 55.7025 64.3062 56.2137 63.0195 56.2137Z" fill="#FFB100"/>
<path d="M28.9805 23.0078C24.5734 23.0078 21 26.5812 21 30.9891C21 36.9898 28.9805 44.0031 28.9805 44.0031C28.9805 44.0031 36.9609 37.1461 36.9609 30.9891C36.9617 26.5812 33.3883 23.0078 28.9805 23.0078ZM28.9805 35.7898C27.6938 35.7898 26.4597 35.2787 25.5499 34.3689C24.6401 33.459 24.1289 32.225 24.1289 30.9383C24.1289 29.6516 24.6401 28.4176 25.5499 27.5077C26.4597 26.5979 27.6938 26.0867 28.9805 26.0867C30.2672 26.0867 31.5012 26.5979 32.411 27.5077C33.3209 28.4176 33.832 29.6516 33.832 30.9383C33.832 32.225 33.3209 33.459 32.411 34.3689C31.5012 35.2787 30.2672 35.7898 28.9805 35.7898Z" fill="#00BD0D"/>
</g>
<defs>
<filter id="filter0_d_840_8554" x="0" y="0" width="92" height="92" filterUnits="userSpaceOnUse" color-interpolation-filters="sRGB">
<feFlood flood-opacity="0" result="BackgroundImageFix"/>
<feColorMatrix in="SourceAlpha" type="matrix" values="0 0 0 0 0 0 0 0 0 0 0 0 0 0 0 0 0 0 127 0" result="hardAlpha"/>
<feOffset dy="2"/>
<feGaussianBlur stdDeviation="3"/>
<feComposite in2="hardAlpha" operator="out"/>
<feColorMatrix type="matrix" values="0 0 0 0 0 0 0 0 0 0 0 0 0 0 0 0 0 0 0.08 0"/>
<feBlend mode="normal" in2="BackgroundImageFix" result="effect1_dropShadow_840_8554"/>
<feBlend mode="normal" in="SourceGraphic" in2="effect1_dropShadow_840_8554" result="shape"/>
</filter>
</defs>
</svg>
