<svg width="92" height="92" viewBox="0 0 92 92" fill="none" xmlns="http://www.w3.org/2000/svg">
<g filter="url(#filter0_d_840_8563)">
<rect x="6" y="4" width="80" height="80" rx="40" fill="white"/>
<path fill-rule="evenodd" clip-rule="evenodd" d="M55.6318 61.779H47.7614V61.9797C47.761 62.2637 47.648 62.5359 47.4472 62.7367C47.2464 62.9376 46.9742 63.0505 46.6902 63.0509H41.5084C41.2244 63.0505 40.9522 62.9376 40.7514 62.7367C40.5505 62.5359 40.4376 62.2637 40.4372 61.9797V61.779H37.9599C37.7177 63.7808 36.0083 65.3376 33.942 65.3376C31.8756 65.3376 30.1662 63.7808 29.9243 61.779H24.9949C24.6348 61.7786 24.2896 61.6354 24.0349 61.3808C23.7803 61.1262 23.6371 60.7809 23.6367 60.4208V55.8043C23.6371 55.4442 23.7803 55.0989 24.0349 54.8443C24.2896 54.5897 24.6348 54.4465 24.9949 54.4461H47.9235V34.0158C47.9235 33.3425 48.4713 32.7949 49.1441 32.7949H50.6441C51.3171 32.7949 51.8647 33.3425 51.8647 34.0155V43.3277H60.3822C61.5016 43.3277 62.4681 44.0088 62.8441 45.063L65.1911 51.6369C65.3626 52.1176 65.7897 52.4544 66.2418 52.8108C66.3431 52.8907 66.4443 52.9706 66.5429 53.0522C67.1649 53.5652 67.4936 54.2624 67.4936 55.0687V58.3519C67.4905 58.4793 67.4377 58.6005 67.3464 58.6896C67.2552 58.7786 67.1328 58.8285 67.0053 58.8285C66.8778 58.8285 66.7553 58.7786 66.6641 58.6896C66.5728 58.6005 66.52 58.4793 66.5169 58.3519V55.0687C66.5169 54.5565 66.3165 54.1315 65.9215 53.8057C65.828 53.7284 65.7326 53.6531 65.6369 53.5779C65.1216 53.1713 64.5377 52.7105 64.2715 51.9651L61.9246 45.3912C61.6852 44.7207 61.0941 44.3041 60.3819 44.3041H51.8647V60.802H55.6315C55.761 60.802 55.8852 60.8535 55.9768 60.9451C56.0684 61.0366 56.1198 61.1609 56.1198 61.2904C56.1198 61.4199 56.0684 61.5441 55.9768 61.6357C55.8852 61.7273 55.761 61.7787 55.6315 61.7787L55.6318 61.779ZM46.785 60.6016C46.7846 60.5767 46.7744 60.5529 46.7567 60.5353C46.739 60.5176 46.7151 60.5076 46.6902 60.5073H41.5084C41.4835 60.5077 41.4597 60.5178 41.4421 60.5353C41.4244 60.5529 41.4143 60.5767 41.4138 60.6016V61.9797C41.4138 62.031 41.4571 62.0743 41.5084 62.0743H46.6902C46.7415 62.0743 46.785 62.031 46.785 61.9797V60.6016ZM47.7614 60.8023H50.8881V55.4225H24.9949C24.7881 55.4225 24.6131 55.5972 24.6131 55.8043V60.4208C24.6131 60.6313 24.7844 60.8023 24.9949 60.8023H29.9243C30.1665 58.8003 31.8756 57.2434 33.942 57.2434C36.0083 57.2434 37.718 58.8003 37.9599 60.8023H40.4369V60.6016C40.4373 60.3176 40.5503 60.0453 40.7512 59.8445C40.9521 59.6436 41.2244 59.5307 41.5084 59.5304H46.6902C46.9742 59.5308 47.2464 59.6438 47.4472 59.8446C47.648 60.0454 47.761 60.3176 47.7614 60.6016V60.8023ZM33.942 60.3069C33.6812 60.3074 33.4313 60.4112 33.247 60.5956C33.0627 60.7801 32.959 61.0301 32.9587 61.2908C32.9587 61.8329 33.3999 62.2744 33.942 62.2744C34.4844 62.2744 34.9258 61.8332 34.9258 61.2911C34.9256 61.0302 34.8219 60.78 34.6374 60.5955C34.453 60.411 34.2029 60.3072 33.942 60.3069ZM33.942 63.251C32.8612 63.251 31.982 62.3716 31.982 61.2908C31.9826 60.7712 32.1893 60.273 32.5567 59.9055C32.9242 59.538 33.4223 59.3312 33.942 59.3306C34.4617 59.3312 34.9599 59.5379 35.3274 59.9054C35.6949 60.2729 35.9016 60.7711 35.9022 61.2908C35.9022 62.3716 35.0227 63.2516 33.942 63.2513V63.251ZM30.8713 61.2908C30.8713 62.9837 32.2487 64.3612 33.9423 64.3612C35.6352 64.3612 37.013 62.984 37.013 61.2908C37.013 59.5973 35.6352 58.2198 33.942 58.2198C32.2487 58.2198 30.8713 59.5976 30.8713 61.2908ZM50.8881 54.4458V34.0158C50.8872 33.9514 50.8612 33.8899 50.8156 33.8443C50.7701 33.7988 50.7085 33.7728 50.6441 33.7719H49.1441C49.0797 33.7728 49.0181 33.7988 48.9726 33.8443C48.927 33.8899 48.901 33.9514 48.9001 34.0158V54.4458H50.8881Z" fill="black"/>
<path fill-rule="evenodd" clip-rule="evenodd" d="M59.191 58.2186C57.4978 58.2186 56.12 59.5963 56.12 61.2896C56.12 62.9822 57.4978 64.36 59.191 64.36C60.8842 64.36 62.262 62.9825 62.262 61.2896C62.262 59.596 60.8842 58.2186 59.191 58.2186ZM59.191 65.3363C56.9591 65.3363 55.1436 63.5206 55.1436 61.2896C55.1436 59.0577 56.9591 57.2422 59.191 57.2422C61.4228 57.2422 63.2383 59.0577 63.2383 61.2896C63.2383 63.5206 61.4226 65.3363 59.191 65.3363Z" fill="black"/>
<path fill-rule="evenodd" clip-rule="evenodd" d="M59.1909 60.307C58.9301 60.3073 58.68 60.4111 58.4956 60.5955C58.3111 60.78 58.2074 61.03 58.2071 61.2909C58.2071 61.833 58.6483 62.2747 59.1909 62.2747C59.7331 62.2747 60.1745 61.8336 60.1745 61.2909C60.1742 61.0301 60.0705 60.78 59.8861 60.5956C59.7017 60.4112 59.4517 60.3074 59.1909 60.307ZM59.1909 63.2514C58.1102 63.2514 57.2307 62.3719 57.2307 61.2909C57.2313 60.7712 57.438 60.2729 57.8055 59.9054C58.173 59.538 58.6712 59.3312 59.1909 59.3306C59.7107 59.3312 60.209 59.5379 60.5765 59.9054C60.944 60.2729 61.1507 60.7711 61.1512 61.2909C61.1512 62.3716 60.2717 63.2514 59.1909 63.2514ZM55.7641 55.7761H53.9907C53.8612 55.7761 53.737 55.7246 53.6454 55.633C53.5539 55.5415 53.5024 55.4173 53.5024 55.2877C53.5024 55.1582 53.5539 55.034 53.6454 54.9424C53.737 54.8509 53.8612 54.7994 53.9907 54.7994H55.7641C55.8916 54.8025 56.0128 54.8553 56.1018 54.9466C56.1909 55.0378 56.2407 55.1602 56.2407 55.2877C56.2407 55.4152 56.1909 55.5377 56.1018 55.6289C56.0128 55.7202 55.8916 55.773 55.7641 55.7761ZM67.0054 61.7791H62.7498C62.6203 61.7791 62.4961 61.7276 62.4045 61.636C62.3129 61.5444 62.2615 61.4202 62.2615 61.2907C62.2615 61.1612 62.3129 61.037 62.4045 60.9454C62.4961 60.8538 62.6203 60.8024 62.7498 60.8024H67.0054C67.2159 60.8024 67.3869 60.6314 67.3869 60.4209V59.2222C67.3869 59.0117 67.2159 58.8404 67.0054 58.8404H61.1993C61.0699 58.8404 60.9457 58.789 60.8541 58.6974C60.7626 58.6059 60.7112 58.4817 60.7112 58.3522C60.7112 58.2228 60.7626 58.0986 60.8541 58.007C60.9457 57.9155 61.0699 57.8641 61.1993 57.8641H67.0054C67.3655 57.8644 67.7107 58.0076 67.9653 58.2623C68.2199 58.5169 68.3632 58.8621 68.3635 59.2222V60.4209C68.3632 60.781 68.2199 61.1262 67.9653 61.3808C67.7107 61.6355 67.3655 61.7787 67.0054 61.7791ZM64.6146 51.9626H56.3232C56.1938 51.9626 56.0696 51.9111 55.978 51.8196C55.8865 51.728 55.8351 51.6039 55.8351 51.4744V46.0409C55.8351 45.7713 56.0536 45.5527 56.3232 45.5527H62.6749C62.8014 45.5571 62.9214 45.6104 63.0094 45.7015C63.0974 45.7926 63.1465 45.9143 63.1465 46.0409C63.1465 46.1675 63.0974 46.2892 63.0094 46.3803C62.9214 46.4714 62.8014 46.5247 62.6749 46.5291H56.8114V50.9859H64.6146C64.7421 50.989 64.8633 51.0418 64.9523 51.1331C65.0414 51.2243 65.0912 51.3467 65.0912 51.4742C65.0912 51.6017 65.0414 51.7242 64.9523 51.8154C64.8633 51.9067 64.7421 51.9595 64.6146 51.9626ZM67.0054 57.1988H65.1778C64.8918 57.1985 64.6176 57.0848 64.4153 56.8825C64.2131 56.6803 64.0993 56.4061 64.099 56.1201V55.3565C64.0994 55.0706 64.2132 54.7965 64.4153 54.5944C64.6175 54.3922 64.8916 54.2784 65.1775 54.2781L66.9855 54.2778C67.115 54.2778 67.2392 54.3292 67.3308 54.4208C67.4224 54.5124 67.4738 54.6366 67.4738 54.7661C67.4738 54.8956 67.4224 55.0198 67.3308 55.1114C67.2392 55.203 67.115 55.2544 66.9855 55.2544H65.1775C65.1506 55.2549 65.1249 55.2658 65.1058 55.2848C65.0868 55.3039 65.0759 55.3296 65.0754 55.3565V56.1201C65.0759 56.1471 65.0868 56.1728 65.1059 56.1919C65.125 56.2109 65.1508 56.2218 65.1778 56.2222H67.0054C67.1349 56.2222 67.2591 56.2736 67.3507 56.3652C67.4423 56.4568 67.4937 56.581 67.4937 56.7105C67.4937 56.84 67.4423 56.9642 67.3507 57.0558C67.2591 57.1474 67.1349 57.1988 67.0054 57.1988ZM40.3371 53.2913H30.0313C29.9018 53.2913 29.7776 53.2399 29.6861 53.1483C29.5945 53.0568 29.5431 52.9326 29.5431 52.8031C29.5431 52.6736 29.5945 52.5495 29.6861 52.4579C29.7776 52.3664 29.9018 52.3149 30.0313 52.3149H40.3371C40.4637 52.3193 40.5836 52.3726 40.6716 52.4637C40.7596 52.5548 40.8088 52.6765 40.8088 52.8031C40.8088 52.9298 40.7596 53.0515 40.6716 53.1425C40.5836 53.2336 40.4637 53.287 40.3371 53.2913ZM27.2357 43.0111L27.6959 43.1741C27.6964 43.1725 27.6967 43.1708 27.6967 43.1692C27.6967 43.1671 27.6967 43.1648 27.6962 43.1634L27.6985 43.1677L27.7014 43.1651L27.2357 43.0111ZM45.0869 53.3199C44.9168 53.3199 44.7351 53.3083 44.5407 53.2844C44.4771 53.2766 44.4156 53.2563 44.3598 53.2248C44.304 53.1932 44.255 53.151 44.2155 53.1005C44.176 53.0499 44.1469 52.9921 44.1297 52.9304C44.1126 52.8686 44.1078 52.804 44.1156 52.7404C44.1234 52.6768 44.1436 52.6153 44.1752 52.5595C44.2067 52.5037 44.249 52.4546 44.2995 52.4152C44.35 52.3757 44.4078 52.3465 44.4696 52.3294C44.5314 52.3122 44.5959 52.3074 44.6596 52.3152C45.1982 52.381 45.5909 52.3305 45.7657 52.1725C45.8061 52.1362 45.9292 52.0251 45.9214 51.6477C45.9127 51.216 45.9159 50.7803 45.9185 50.3587C45.9202 50.1468 45.9214 49.9351 45.9214 49.7235C45.9214 47.6121 44.0924 47.1214 41.3019 46.6136C41.0935 46.5755 40.8867 46.538 40.6831 46.4994C40.5895 46.4814 40.5031 46.4365 40.4346 46.3702L37.3751 43.4045C37.134 43.1709 37.1329 43.17 36.7012 43.17H27.6993C27.9632 43.6951 27.8421 44.1132 27.6939 44.3728C26.4522 46.547 26.2025 46.6017 26.0018 46.6459C25.9441 46.6586 25.8051 46.7699 25.65 47.1058C25.0381 48.4311 25.0104 51.1797 25.2203 51.6621C25.2665 51.7042 25.3213 51.7567 25.3804 51.8135C25.5563 51.9816 25.8216 52.2356 25.9807 52.3123C26.0385 52.3401 26.0903 52.3789 26.1331 52.4267C26.1759 52.4744 26.2089 52.5301 26.2301 52.5906C26.2514 52.6511 26.2605 52.7152 26.257 52.7792C26.2535 52.8432 26.2374 52.9059 26.2097 52.9637C26.182 53.0215 26.1431 53.0733 26.0954 53.1161C26.0476 53.1589 25.9919 53.1919 25.9314 53.2131C25.8709 53.2344 25.8068 53.2435 25.7428 53.24C25.6788 53.2365 25.6161 53.2204 25.5583 53.1927C25.2584 53.0485 24.9519 52.755 24.7051 52.5188C24.6405 52.4568 24.5819 52.4006 24.5326 52.3567C23.8899 51.7679 24.1145 48.8599 24.4784 47.5072C24.7529 46.487 25.1462 45.9019 25.678 45.7237C25.8666 45.5132 26.3591 44.7407 26.8458 43.8886C26.8816 43.8263 26.9046 43.7626 26.8276 43.6109C26.7514 43.4624 26.7149 43.2967 26.7215 43.1298C26.7282 42.963 26.7779 42.8008 26.8657 42.6588C26.9524 42.5161 27.0745 42.3983 27.2202 42.3168C27.3658 42.2352 27.5301 42.1927 27.697 42.1934H36.688C37.2877 42.1934 37.5484 42.213 38.0545 42.7035L41.0087 45.5668C41.1632 45.5957 41.3192 45.6242 41.4761 45.6528C43.8917 46.0922 46.8978 46.6392 46.8978 49.7235C46.8978 49.9374 46.8963 50.1511 46.8949 50.3651C46.892 50.7803 46.8891 51.2097 46.8978 51.6287C46.9084 52.1745 46.7478 52.6013 46.42 52.8974C46.1065 53.1803 45.6674 53.3201 45.0866 53.3201L45.0869 53.3199Z" fill="black"/>
<path fill-rule="evenodd" clip-rule="evenodd" d="M27.9004 51.1602C27.4647 51.1606 27.0471 51.3339 26.739 51.6419C26.431 51.95 26.2578 52.3676 26.2573 52.8032C26.2578 53.2389 26.431 53.6565 26.739 53.9645C27.0471 54.2726 27.4647 54.4458 27.9004 54.4463C28.3359 54.4457 28.7534 54.2724 29.0614 53.9644C29.3693 53.6564 29.5426 53.2388 29.5431 52.8032C29.5427 52.3677 29.3694 51.9501 29.0615 51.642C28.7535 51.334 28.3359 51.1607 27.9004 51.1602ZM27.9004 55.4229C26.4557 55.4229 25.2806 54.2476 25.2806 52.8032C25.2806 51.3589 26.4557 50.1838 27.9004 50.1838C29.3447 50.1838 30.5198 51.3589 30.5198 52.8032C30.5198 54.2476 29.345 55.4229 27.9004 55.4229ZM42.4687 51.1602C42.033 51.1606 41.6154 51.3339 41.3073 51.6419C40.9993 51.95 40.8261 52.3676 40.8256 52.8032C40.8261 53.2388 40.9994 53.6564 41.3074 53.9645C41.6154 54.2725 42.0331 54.4458 42.4687 54.4463C42.9043 54.4458 43.3219 54.2725 43.6299 53.9645C43.9379 53.6564 44.1112 53.2388 44.1117 52.8032C44.1112 52.3676 43.938 51.95 43.63 51.6419C43.3219 51.3339 42.9043 51.1606 42.4687 51.1602ZM42.4687 55.4229C41.0243 55.4229 39.8492 54.2476 39.8492 52.8032C39.8492 51.3589 41.0243 50.1838 42.4687 50.1838C43.9133 50.1838 45.0884 51.3589 45.0884 52.8032C45.0884 54.2476 43.913 55.4229 42.4687 55.4229ZM35.4942 50.1547H34.4403C34.3108 50.1547 34.1866 50.1033 34.0951 50.0117C34.0035 49.9202 33.9521 49.796 33.9521 49.6665C33.9521 49.537 34.0035 49.4129 34.0951 49.3213C34.1866 49.2298 34.3108 49.1783 34.4403 49.1783H35.4942C35.6237 49.1783 35.7478 49.2298 35.8394 49.3213C35.9309 49.4129 35.9824 49.537 35.9824 49.6665C35.9824 49.796 35.9309 49.9202 35.8394 50.0117C35.7478 50.1033 35.6237 50.1547 35.4942 50.1547ZM42.3138 49.3614H41.7809C41.6514 49.3614 41.5272 49.31 41.4356 49.2184C41.344 49.1268 41.2926 49.0026 41.2926 48.8731C41.2926 48.7436 41.344 48.6194 41.4356 48.5278C41.5272 48.4362 41.6514 48.3848 41.7809 48.3848H42.3138C42.4413 48.3879 42.5625 48.4407 42.6515 48.5319C42.7406 48.6232 42.7904 48.7456 42.7904 48.8731C42.7904 49.0006 42.7406 49.123 42.6515 49.2143C42.5625 49.3055 42.4413 49.3583 42.3138 49.3614ZM27.3825 49.4223H26.8496C26.7201 49.4223 26.5959 49.3708 26.5043 49.2792C26.4127 49.1877 26.3613 49.0635 26.3613 48.9339C26.3613 48.8044 26.4127 48.6802 26.5043 48.5886C26.5959 48.4971 26.7201 48.4456 26.8496 48.4456H27.3825C27.5099 48.4487 27.6311 48.5015 27.7202 48.5928C27.8092 48.684 27.8591 48.8064 27.8591 48.9339C27.8591 49.0614 27.8092 49.1839 27.7202 49.2751C27.6311 49.3664 27.5099 49.4192 27.3825 49.4223Z" fill="black"/>
<path fill-rule="evenodd" clip-rule="evenodd" d="M27.9004 53.2909C27.8362 53.291 27.7724 53.2784 27.7132 53.2539C27.6539 53.2294 27.6 53.1935 27.5547 53.1482C27.5093 53.1029 27.4732 53.0491 27.4487 52.9898C27.4241 52.9306 27.4114 52.8671 27.4113 52.803C27.4113 52.7389 27.4238 52.6754 27.4483 52.6161C27.4728 52.5568 27.5087 52.503 27.554 52.4576C27.5993 52.4122 27.6531 52.3762 27.7124 52.3516C27.7716 52.327 27.8351 52.3143 27.8992 52.3142C28.0287 52.3141 28.153 52.3654 28.2447 52.4569C28.3364 52.5483 28.388 52.6725 28.3881 52.802C28.3883 52.9315 28.337 53.0558 28.2455 53.1475C28.154 53.2391 28.0299 53.2907 27.9004 53.2909ZM42.469 53.2909C42.4038 53.2925 42.3387 53.2811 42.2781 53.2574C42.2174 53.2336 42.1622 53.1979 42.1155 53.1524C42.0688 53.107 42.0317 53.0527 42.0064 52.9926C41.9811 52.9326 41.968 52.8682 41.9679 52.803C41.9678 52.7379 41.9808 52.6734 42.0061 52.6133C42.0313 52.5532 42.0683 52.4988 42.1149 52.4533C42.1615 52.4078 42.2167 52.372 42.2773 52.3481C42.3379 52.3242 42.4027 52.3127 42.4678 52.3142C42.5953 52.3172 42.7165 52.3698 42.8057 52.461C42.8949 52.5521 42.9449 52.6745 42.945 52.802C42.9452 52.9295 42.8954 53.052 42.8065 53.1434C42.7176 53.2347 42.5964 53.2877 42.469 53.2909ZM29.4096 44.7564C29.3594 44.7548 29.31 44.7694 29.2688 44.7981C29.2275 44.8268 29.1966 44.868 29.1807 44.9156L28.5495 46.6186C28.5351 46.6555 28.53 46.6953 28.5348 46.7345C28.5396 46.7738 28.554 46.8113 28.5768 46.8436C28.5993 46.8762 28.6295 46.9028 28.6647 46.9209C28.6999 46.939 28.7391 46.9481 28.7787 46.9474H31.5605L30.903 44.7564H29.4096ZM32.2171 47.924H28.7784C28.5815 47.9242 28.3874 47.8768 28.2127 47.7858C28.0381 47.6948 27.888 47.563 27.7752 47.4015C27.663 47.2397 27.5915 47.0531 27.5669 46.8577C27.5423 46.6623 27.5653 46.4639 27.6339 46.2792L28.2648 44.5765C28.3502 44.3419 28.506 44.1394 28.711 43.9968C28.9159 43.8542 29.16 43.7785 29.4096 43.7801H31.2663C31.482 43.7801 31.6721 43.9214 31.7341 44.1275L32.6845 47.2957C32.7064 47.3686 32.7109 47.4456 32.6978 47.5205C32.6846 47.5955 32.6541 47.6663 32.6087 47.7274C32.5633 47.7885 32.5042 47.8381 32.4362 47.8723C32.3682 47.9065 32.2932 47.924 32.2171 47.924ZM34.2713 46.9476H38.1479C38.2967 46.9476 38.3559 46.841 38.3743 46.7954C38.3938 46.7505 38.3988 46.7007 38.3887 46.6529C38.3785 46.605 38.3538 46.5615 38.3178 46.5284L36.5608 44.8251C36.5391 44.8021 36.5126 44.784 36.4833 44.7722C36.4539 44.7603 36.4223 44.755 36.3907 44.7564H33.6138L34.2713 46.9476ZM38.1479 47.924H33.908C33.6926 47.924 33.5025 47.7827 33.4405 47.5763L32.4898 44.4084C32.4679 44.3355 32.4634 44.2584 32.4766 44.1835C32.4897 44.1085 32.5203 44.0376 32.5657 43.9765C32.6112 43.9155 32.6703 43.8659 32.7383 43.8317C32.8063 43.7975 32.8814 43.7797 32.9575 43.7798H36.391C36.7142 43.7798 37.0081 43.8989 37.2405 44.1238L38.9974 45.8268C39.1726 45.9956 39.2931 46.2131 39.3434 46.4511C39.3936 46.6891 39.3714 46.9367 39.2795 47.1619C39.1888 47.3876 39.0324 47.5808 38.8307 47.7167C38.629 47.8526 38.3912 47.9248 38.1479 47.924ZM48.4114 35.9059C48.3286 35.9059 48.2444 35.8849 48.1677 35.8405L31.5411 26.2408C31.2611 26.0787 31.0567 25.8122 30.973 25.4996C30.8892 25.187 30.9328 24.854 31.0942 24.5736L31.8439 23.2745C31.9238 23.1355 32.0305 23.0137 32.1578 22.9162C32.2851 22.8186 32.4305 22.7474 32.5856 22.7065C32.7402 22.6644 32.9017 22.6535 33.0607 22.6743C33.2196 22.6951 33.3728 22.7472 33.5115 22.8276L50.8881 32.8603C50.9983 32.926 51.0783 33.0324 51.1106 33.1566C51.143 33.2808 51.1252 33.4127 51.061 33.5238C50.9968 33.635 50.8915 33.7164 50.7678 33.7504C50.644 33.7845 50.5119 33.7684 50.3999 33.7058L33.0233 23.6733C32.9955 23.6574 32.9648 23.6472 32.9331 23.6432C32.9013 23.6392 32.869 23.6415 32.8382 23.65C32.8072 23.6581 32.7781 23.6722 32.7526 23.6916C32.7271 23.711 32.7057 23.7353 32.6897 23.763L31.9399 25.0615C31.9084 25.1178 31.9001 25.1842 31.9168 25.2466C31.9335 25.309 31.9738 25.3623 32.0293 25.3954L48.6559 34.9947C48.7491 35.0484 48.822 35.1314 48.8632 35.2308C48.9044 35.3302 48.9116 35.4404 48.8837 35.5443C48.8559 35.6482 48.7944 35.74 48.709 35.8054C48.6236 35.8708 48.519 35.9061 48.4114 35.9059Z" fill="black"/>
<path fill-rule="evenodd" clip-rule="evenodd" d="M33.2436 37.1415C32.7418 37.1409 32.2608 36.9414 31.9061 36.5867C31.5513 36.232 31.3517 35.751 31.3511 35.2493C31.3511 35.1198 31.4025 34.9956 31.4941 34.904C31.5857 34.8124 31.7099 34.761 31.8394 34.761C31.9689 34.761 32.0931 34.8124 32.1847 34.904C32.2763 34.9956 32.3277 35.1198 32.3277 35.2493C32.328 35.492 32.4246 35.7247 32.5962 35.8963C32.7679 36.068 33.0005 36.1645 33.2433 36.1648C33.486 36.1645 33.7187 36.068 33.8903 35.8963C34.0619 35.7247 34.1585 35.492 34.1588 35.2493C34.1586 35.0065 34.062 34.7738 33.8904 34.6022C33.7187 34.4305 33.486 34.334 33.2433 34.3338C33.1138 34.3338 32.9896 34.2823 32.8981 34.1908C32.8065 34.0992 32.7551 33.9751 32.7551 33.8456V26.6592C32.7551 26.5297 32.8065 26.4055 32.8981 26.314C32.9896 26.2224 33.1138 26.171 33.2433 26.171C33.3727 26.171 33.4969 26.2224 33.5885 26.314C33.68 26.4055 33.7315 26.5297 33.7315 26.6592V33.4211C34.5388 33.6368 35.1355 34.3747 35.1355 35.2493C35.1348 35.7509 34.9353 36.2319 34.5806 36.5866C34.2258 36.9413 33.7452 37.1409 33.2436 37.1415ZM33.2436 25.4256C33.1794 25.4256 33.116 25.4131 33.0567 25.3886C32.9974 25.3641 32.9436 25.3282 32.8982 25.2829C32.8529 25.2376 32.8168 25.1838 32.7923 25.1246C32.7677 25.0654 32.755 25.0019 32.7549 24.9378C32.7549 24.8737 32.7674 24.8102 32.7919 24.751C32.8164 24.6917 32.8523 24.6379 32.8976 24.5925C32.9429 24.5471 32.9967 24.5111 33.0559 24.4865C33.1151 24.462 33.1786 24.4493 33.2427 24.4492C33.3722 24.4491 33.4964 24.5004 33.5881 24.5918C33.6797 24.6832 33.7313 24.8074 33.7315 24.9368C33.7316 25.0663 33.6803 25.1905 33.5889 25.2822C33.4974 25.3739 33.373 25.4254 33.2436 25.4256Z" fill="black"/>
<path fill-rule="evenodd" clip-rule="evenodd" d="M42.4462 55.4219H27.9246C27.9083 55.422 27.8922 55.422 27.8759 55.4219H24.9949C24.7881 55.4219 24.6134 55.5966 24.6134 55.8034V60.4199C24.6134 60.6304 24.7844 60.8017 24.9949 60.8017H29.9246C30.1668 58.7994 31.8762 57.2426 33.9423 57.2426C36.0086 57.2426 37.7183 58.7994 37.9602 60.8017H40.4375V60.6007C40.438 60.3168 40.551 60.0446 40.7518 59.8439C40.9526 59.6431 41.2248 59.5302 41.5087 59.5298H46.6905C46.9745 59.5302 47.2467 59.6432 47.4475 59.844C47.6484 60.0448 47.7613 60.317 47.7617 60.601V60.8017H50.8884V55.4219H42.4687H42.4462Z" fill="#FD481E"/>
<path fill-rule="evenodd" clip-rule="evenodd" d="M34.9258 61.2905C34.9255 61.0297 34.8218 60.7796 34.6373 60.5951C34.4529 60.4107 34.2028 60.3069 33.942 60.3066C33.6812 60.3071 33.4313 60.4109 33.247 60.5953C33.0627 60.7798 32.959 61.0298 32.9587 61.2905C32.9587 61.8326 33.3999 62.2741 33.942 62.2741C34.4844 62.2741 34.9258 61.8329 34.9258 61.2905Z" fill="#CDC8CD"/>
<path fill-rule="evenodd" clip-rule="evenodd" d="M33.9423 59.3295C34.4619 59.3302 34.9601 59.5369 35.3275 59.9044C35.6949 60.2719 35.9016 60.7701 35.9022 61.2897C35.9022 62.3705 35.0227 63.2506 33.9423 63.2503C32.8612 63.2503 31.982 62.3708 31.982 61.2897C31.9826 60.7701 32.1893 60.2719 32.5568 59.9044C32.9242 59.5369 33.4226 59.3302 33.9423 59.3295ZM37.013 61.2897C37.013 59.5965 35.6355 58.2188 33.942 58.2188C32.2488 58.2188 30.8716 59.5965 30.8716 61.2897C30.8716 62.9827 32.2491 64.3601 33.942 64.3601C35.6352 64.3601 37.013 62.983 37.013 61.2897Z" fill="#8C808A"/>
<path fill-rule="evenodd" clip-rule="evenodd" d="M41.4138 60.6004V61.9782C41.4138 62.0295 41.4571 62.0731 41.5084 62.0731H46.6902C46.7415 62.0731 46.785 62.0298 46.785 61.9785V60.6002C46.7846 60.5752 46.7744 60.5514 46.7567 60.5338C46.739 60.5162 46.7151 60.5062 46.6902 60.5059H41.5084C41.4834 60.5062 41.4596 60.5163 41.4419 60.534C41.4243 60.5516 41.4142 60.5755 41.4138 60.6004Z" fill="#62DBFB"/>
<path fill-rule="evenodd" clip-rule="evenodd" d="M51.8647 44.3047V60.8027H55.173C55.4147 58.8003 57.1244 57.2438 59.191 57.2438C59.9811 57.2438 60.719 57.4713 61.3424 57.8643H66.517V57.1991H65.1778C64.8918 57.1989 64.6175 57.0851 64.4152 56.8829C64.2129 56.6806 64.0991 56.4064 64.0988 56.1203V55.3568C64.0992 55.0708 64.213 54.7966 64.4153 54.5944C64.6176 54.3922 64.8918 54.2786 65.1778 54.2783L66.3215 54.278C66.219 54.097 66.0833 53.9368 65.9215 53.806C65.8281 53.729 65.7326 53.6538 65.6372 53.5782C65.1219 53.1716 64.5377 52.7111 64.2715 51.9657L64.2704 51.9628H56.3236C56.2595 51.9629 56.1959 51.9503 56.1367 51.9258C56.0774 51.9012 56.0236 51.8653 55.9782 51.82C55.9328 51.7746 55.8969 51.7208 55.8723 51.6615C55.8478 51.6023 55.8351 51.5388 55.8351 51.4746V46.0412C55.8351 45.7716 56.054 45.553 56.3236 45.553H61.9826L61.9249 45.3918C61.6856 44.7211 61.0944 44.3047 60.3825 44.3047H51.8647ZM55.7645 55.776H53.9911C53.8616 55.776 53.7374 55.7246 53.6459 55.6331C53.5543 55.5415 53.5029 55.4173 53.5029 55.2879C53.5029 55.1584 53.5543 55.0342 53.6459 54.9427C53.7374 54.8511 53.8616 54.7997 53.9911 54.7997H55.7645C55.891 54.804 56.011 54.8574 56.099 54.9484C56.187 55.0395 56.2362 55.1612 56.2362 55.2879C56.2362 55.4145 56.187 55.5362 56.099 55.6273C56.011 55.7184 55.891 55.7717 55.7645 55.776Z" fill="#FD481E"/>
<path fill-rule="evenodd" clip-rule="evenodd" d="M67.0054 58.8398H62.4102C62.8467 59.4108 63.1225 60.0883 63.2089 60.8018H67.0054C67.2159 60.8018 67.3869 60.6305 67.3869 60.42V59.2213C67.3869 59.0108 67.2159 58.8398 67.0054 58.8398Z" fill="#FD481E"/>
<path fill-rule="evenodd" clip-rule="evenodd" d="M62.2616 61.2897C62.2616 59.5965 60.8842 58.2188 59.1906 58.2188C57.4977 58.2188 56.1202 59.5965 56.1202 61.2897C56.1202 62.9824 57.4977 64.3601 59.1909 64.3601C60.8842 64.3601 62.2616 62.9827 62.2616 61.2897ZM59.1906 59.3295C59.7104 59.33 60.2087 59.5367 60.5762 59.9042C60.9437 60.2717 61.1504 60.77 61.1509 61.2897C61.1509 62.3705 60.2717 63.2506 59.1909 63.2503C58.1099 63.2503 57.2307 62.3705 57.2307 61.2897C57.2313 60.77 57.438 60.2718 57.8055 59.9043C58.173 59.5368 58.6712 59.3301 59.1909 59.3295H59.1906Z" fill="#8C808A"/>
<path fill-rule="evenodd" clip-rule="evenodd" d="M60.1745 61.2905C60.1742 61.0297 60.0705 60.7797 59.8861 60.5952C59.7018 60.4108 59.4518 60.307 59.191 60.3066C58.9301 60.3069 58.68 60.4107 58.4956 60.5951C58.3112 60.7796 58.2074 61.0297 58.2071 61.2905C58.2071 61.8326 58.6483 62.2741 59.191 62.2741C59.7331 62.2741 60.1745 61.8329 60.1745 61.2905Z" fill="#CDC8CD"/>
<path fill-rule="evenodd" clip-rule="evenodd" d="M65.1778 56.2219H66.5172V55.2539H65.1778C65.1508 55.2543 65.125 55.2652 65.1058 55.2843C65.0867 55.3034 65.0758 55.3292 65.0754 55.3563V56.1198C65.0759 56.1468 65.0868 56.1726 65.1059 56.1916C65.125 56.2107 65.1508 56.2215 65.1778 56.2219Z" fill="#FFE600"/>
<path fill-rule="evenodd" clip-rule="evenodd" d="M56.8115 50.9861H63.9217L62.3309 46.5293H56.8115V50.9861Z" fill="#62DBFB"/>
<path fill-rule="evenodd" clip-rule="evenodd" d="M50.888 54.4448V34.0148C50.8872 33.9505 50.8614 33.889 50.816 33.8435C50.7706 33.7979 50.7093 33.7717 50.6449 33.7706H49.1441C49.0796 33.7715 49.018 33.7975 48.9724 33.8432C48.9269 33.8888 48.9009 33.9504 48.9001 34.0148V54.4448H50.888ZM33.495 26.2408L47.9237 34.5714V34.0148C47.924 33.7381 48.0182 33.4696 48.1909 33.2533C48.3636 33.0371 48.6046 32.8858 48.8744 32.8242L33.0235 23.6727C32.9957 23.6568 32.9651 23.6465 32.9333 23.6425C32.9015 23.6385 32.8693 23.6408 32.8384 23.6493C32.8074 23.6574 32.7783 23.6716 32.7529 23.691C32.7274 23.7104 32.706 23.7347 32.6899 23.7624L31.9402 25.0608C31.9086 25.1172 31.9003 25.1836 31.917 25.246C31.9337 25.3083 31.9741 25.3617 32.0296 25.3947L33.4791 26.2316C33.4849 26.2344 33.4901 26.2379 33.4953 26.2411L33.495 26.2408ZM33.2433 25.4259C33.1791 25.4259 33.1157 25.4133 33.0564 25.3888C32.9972 25.3643 32.9433 25.3284 32.898 25.2831C32.8526 25.2378 32.8166 25.184 32.7921 25.1248C32.7675 25.0656 32.7548 25.0021 32.7548 24.938C32.7547 24.8739 32.7673 24.8104 32.7918 24.7511C32.8163 24.6919 32.8523 24.6381 32.8976 24.5927C32.9429 24.5473 32.9967 24.5114 33.0559 24.4868C33.1151 24.4622 33.1786 24.4496 33.2427 24.4495C33.3722 24.4494 33.4964 24.5006 33.588 24.5921C33.6797 24.6835 33.7313 24.8077 33.7314 24.9371C33.7316 25.0666 33.6803 25.1908 33.5889 25.2825C33.4974 25.3742 33.3733 25.4257 33.2438 25.4259H33.2433Z" fill="#FF9801"/>
<path fill-rule="evenodd" clip-rule="evenodd" d="M39.2794 47.1622C39.1887 47.3879 39.0324 47.5811 38.8307 47.717C38.629 47.8529 38.3911 47.9251 38.1479 47.9243H33.9079C33.6925 47.9243 33.5025 47.783 33.4405 47.5766L32.4898 44.4087C32.4679 44.3358 32.4634 44.2588 32.4765 44.1838C32.4897 44.1088 32.5202 44.0379 32.5657 43.9769C32.6111 43.9158 32.6702 43.8662 32.7383 43.832C32.8063 43.7978 32.8814 43.7801 32.9575 43.7801H36.3907C36.7142 43.7801 37.0078 43.8992 37.2405 44.1244L38.9974 45.8271C39.1726 45.9959 39.2931 46.2134 39.3433 46.4514C39.3936 46.6894 39.3713 46.937 39.2794 47.1622ZM40.4343 46.3701L37.3748 43.4044C37.1317 43.1691 37.1312 43.1699 36.6946 43.1699H27.6993C27.9632 43.695 27.8421 44.1134 27.6939 44.3727C26.4522 46.5469 26.2025 46.6016 26.0018 46.6458C25.9441 46.6584 25.8051 46.7698 25.65 47.1057C25.0381 48.4313 25.0104 51.1796 25.2204 51.662C25.2665 51.7041 25.3213 51.7566 25.3804 51.8134L25.449 51.8788C25.8233 50.8892 26.7812 50.1833 27.9 50.1833C29.1777 50.1833 30.2447 51.1029 30.4742 52.3148H39.8948C40.1243 51.1029 41.1912 50.1836 42.4686 50.1836C43.7561 50.1836 44.8297 51.1173 45.0477 52.3431C45.3871 52.3474 45.6359 52.2895 45.7657 52.1724C45.8061 52.1361 45.9289 52.025 45.9214 51.6476L45.9211 49.7234C45.9211 47.612 44.0921 47.1213 41.3014 46.6135C41.0932 46.5754 40.8864 46.5379 40.6828 46.4993C40.5892 46.4813 40.5028 46.4364 40.4343 46.3701ZM31.734 44.1281L32.6844 47.296C32.7063 47.3689 32.7109 47.4459 32.6977 47.5209C32.6846 47.5958 32.6541 47.6667 32.6086 47.7277C32.5632 47.7888 32.5042 47.8384 32.4362 47.8726C32.3682 47.9068 32.2931 47.9246 32.217 47.9246H28.7784C28.5814 47.9248 28.3873 47.8773 28.2126 47.7863C28.038 47.6953 27.8879 47.5634 27.7752 47.4018C27.663 47.24 27.5915 47.0534 27.5669 46.858C27.5423 46.6626 27.5653 46.4642 27.6339 46.2795L28.2651 44.5768C28.3504 44.3422 28.5062 44.1398 28.7111 43.9972C28.916 43.8546 29.16 43.7789 29.4096 43.7804H31.2663C31.482 43.7804 31.672 43.9217 31.734 44.1281ZM42.3138 49.3612H41.7809C41.6534 49.3581 41.5322 49.3053 41.4432 49.2141C41.3541 49.1228 41.3043 49.0004 41.3043 48.8729C41.3043 48.7454 41.3541 48.6229 41.4432 48.5317C41.5322 48.4405 41.6534 48.3876 41.7809 48.3845H42.3138C42.4412 48.3876 42.5624 48.4405 42.6515 48.5317C42.7405 48.6229 42.7904 48.7454 42.7904 48.8729C42.7904 49.0004 42.7405 49.1228 42.6515 49.2141C42.5624 49.3053 42.4412 49.3581 42.3138 49.3612ZM35.4942 50.1545H34.4402C34.3108 50.1545 34.1866 50.103 34.095 50.0115C34.0035 49.9199 33.952 49.7958 33.952 49.6663C33.952 49.5368 34.0035 49.4126 34.095 49.3211C34.1866 49.2295 34.3108 49.1781 34.4402 49.1781H35.4942C35.6237 49.1781 35.7478 49.2295 35.8394 49.3211C35.9309 49.4126 35.9824 49.5368 35.9824 49.6663C35.9824 49.7958 35.9309 49.9199 35.8394 50.0115C35.7478 50.103 35.6237 50.1545 35.4942 50.1545ZM27.3824 49.422H26.8496C26.72 49.422 26.5958 49.3706 26.5043 49.279C26.4127 49.1874 26.3612 49.0632 26.3612 48.9337C26.3612 48.8042 26.4127 48.68 26.5043 48.5884C26.5958 48.4968 26.72 48.4454 26.8496 48.4454H27.3824C27.509 48.4497 27.6289 48.5031 27.7169 48.5942C27.8049 48.6852 27.8541 48.8069 27.8541 48.9336C27.8541 49.0602 27.8049 49.1819 27.7169 49.273C27.6289 49.3641 27.509 49.4177 27.3824 49.422Z" fill="#43CB8E"/>
<path fill-rule="evenodd" clip-rule="evenodd" d="M29.5431 52.8032C29.5427 52.3676 29.3694 51.9499 29.0614 51.6419C28.7534 51.3339 28.3357 51.1606 27.9001 51.1602C27.4645 51.1608 27.047 51.3341 26.7391 51.6421C26.4311 51.9501 26.2579 52.3677 26.2573 52.8032C26.2578 53.2352 26.4282 53.6497 26.7318 53.9572C27.0353 54.2646 27.4476 54.4403 27.8796 54.4463H27.9206C28.3526 54.4403 28.765 54.2647 29.0686 53.9573C29.3722 53.6498 29.5426 53.2353 29.5431 52.8032ZM27.9001 52.315C28.0275 52.3181 28.1488 52.3709 28.2378 52.4621C28.3269 52.5533 28.3768 52.6757 28.3768 52.8032C28.3769 52.9307 28.3271 53.0532 28.238 53.1444C28.149 53.2357 28.0278 53.2885 27.9004 53.2917C27.7729 53.2886 27.6514 53.2358 27.5624 53.1445C27.4733 53.0533 27.4235 52.9308 27.4235 52.8034C27.4235 52.6759 27.4733 52.5534 27.5624 52.4622C27.6514 52.3709 27.7726 52.3181 27.9001 52.315Z" fill="#8C808A"/>
<path fill-rule="evenodd" clip-rule="evenodd" d="M28.7784 46.9475H31.5605L30.903 44.756H29.4096C29.3594 44.7544 29.31 44.769 29.2687 44.7978C29.2275 44.8265 29.1966 44.8678 29.1807 44.9154L28.5494 46.6185C28.5351 46.6553 28.5301 46.6951 28.5348 46.7344C28.5396 46.7736 28.554 46.8111 28.5768 46.8434C28.5993 46.876 28.6294 46.9026 28.6647 46.9207C28.6999 46.9389 28.7391 46.9479 28.7787 46.9472L28.7784 46.9475ZM33.6138 44.7563L34.2713 46.9475H38.1479C38.2967 46.9475 38.3558 46.8408 38.3743 46.7952C38.3938 46.7503 38.3989 46.7005 38.3887 46.6525C38.3786 46.6046 38.3538 46.5611 38.3178 46.5279L36.5608 44.8249C36.5391 44.8019 36.5126 44.7838 36.4833 44.772C36.4539 44.7602 36.4223 44.7548 36.3907 44.7563H33.6138Z" fill="#62DBFB"/>
<path fill-rule="evenodd" clip-rule="evenodd" d="M44.1117 52.8032C44.1113 52.3676 43.938 51.9499 43.63 51.6419C43.3219 51.3339 42.9043 51.1606 42.4687 51.1602C42.0331 51.1607 41.6155 51.334 41.3075 51.642C40.9994 51.95 40.8262 52.3676 40.8256 52.8032C40.8261 53.2353 40.9966 53.6498 41.3002 53.9573C41.6038 54.2647 42.0162 54.4403 42.4482 54.4463H42.4889C42.921 54.4404 43.3334 54.2648 43.6371 53.9574C43.9407 53.6499 44.1112 53.2353 44.1117 52.8032ZM42.4684 52.315C42.5958 52.318 42.7171 52.3708 42.8062 52.462C42.8953 52.5532 42.9452 52.6756 42.9453 52.8031C42.9454 52.9306 42.8956 53.053 42.8066 53.1443C42.7176 53.2356 42.5964 53.2885 42.469 53.2917H42.4684C42.3409 53.2886 42.2197 53.2358 42.1307 53.1445C42.0416 53.0533 41.9918 52.9308 41.9918 52.8034C41.9918 52.6759 42.0416 52.5534 42.1307 52.4622C42.2197 52.3709 42.3409 52.3181 42.4684 52.315Z" fill="#8C808A"/>
</g>
<defs>
<filter id="filter0_d_840_8563" x="0" y="0" width="92" height="92" filterUnits="userSpaceOnUse" color-interpolation-filters="sRGB">
<feFlood flood-opacity="0" result="BackgroundImageFix"/>
<feColorMatrix in="SourceAlpha" type="matrix" values="0 0 0 0 0 0 0 0 0 0 0 0 0 0 0 0 0 0 127 0" result="hardAlpha"/>
<feOffset dy="2"/>
<feGaussianBlur stdDeviation="3"/>
<feComposite in2="hardAlpha" operator="out"/>
<feColorMatrix type="matrix" values="0 0 0 0 0 0 0 0 0 0 0 0 0 0 0 0 0 0 0.08 0"/>
<feBlend mode="normal" in2="BackgroundImageFix" result="effect1_dropShadow_840_8563"/>
<feBlend mode="normal" in="SourceGraphic" in2="effect1_dropShadow_840_8563" result="shape"/>
</filter>
</defs>
</svg>
