<svg width="36" height="41" viewBox="0 0 36 41" fill="none" xmlns="http://www.w3.org/2000/svg">
<path d="M1.98189 0.174289L25.621 13.8186L34.7217 19.0762C35.5756 19.59 35.5825 20.8174 34.735 21.3379L34.6948 21.3647L2.00179 40.2398L1.97495 40.253C1.82105 40.3392 1.65143 40.3937 1.47612 40.4131C1.30081 40.4326 1.12337 40.4167 0.954316 40.3664C0.420631 40.2063 0 39.7193 0 39.0856V1.33513C0 0.701341 0.420316 0.214394 0.954316 0.0542887C1.28116 -0.0395008 1.64811 -0.0192902 1.98189 0.174289Z" fill="#47BCFF"/>
<path d="M1.98189 0.174366L25.6209 13.8187L19.6828 20.2106L0.954315 0.0540501C1.28116 -0.0394235 1.6481 -0.019213 1.98189 0.174366Z" fill="#0BDF74"/>
<path d="M25.6209 13.8184L34.7217 19.0759C35.5756 19.5897 35.5825 20.8172 34.7349 21.3376L34.6948 21.3645L25.6209 26.5952L19.6828 20.2103L25.6209 13.8184Z" fill="#FDBA21"/>
<path d="M19.6828 20.2109L25.6209 26.5962L2.00179 40.2405L1.97495 40.2538C1.82105 40.34 1.65143 40.3944 1.47612 40.4139C1.30081 40.4334 1.12337 40.4175 0.954315 40.3671L19.6828 20.2109Z" fill="#FB434C"/>
</svg>
