<svg width="92" height="92" viewBox="0 0 92 92" fill="none" xmlns="http://www.w3.org/2000/svg">
<g filter="url(#filter0_d_840_8591)">
<rect x="6" y="4" width="80" height="80" rx="40" fill="white"/>
<path d="M57.7188 43.2188H68.6562V61.9688H57.7188V43.2188Z" fill="#31C292"/>
<path d="M61.625 61.9688H64.75V66.6562H61.625V61.9688ZM61.625 38.5312H64.75V43.2188H61.625V38.5312Z" fill="#00A16C"/>
<path d="M57.7188 47.125H68.6562V48.6875H57.7188V47.125ZM57.7188 51.8125H68.6562V53.375H57.7188V51.8125ZM57.7188 56.5H68.6562V58.0625H57.7188V56.5Z" fill="#00B378"/>
<path d="M58.2525 52.0794C57.8409 51.9807 57.4584 51.7859 57.1364 51.5111C56.8144 51.2362 56.5621 50.889 56.4 50.4979C56.2379 50.1068 56.1707 49.6829 56.2039 49.2608C56.2371 48.8388 56.3697 48.4306 56.5909 48.0696L57.5697 46.4723L55.2465 44.149L53.6492 45.1278C53.2882 45.349 52.88 45.4817 52.458 45.5148C52.0359 45.548 51.612 45.4808 51.2209 45.3187C50.8298 45.1567 50.4826 44.9043 50.2077 44.5824C49.9328 44.2604 49.7381 43.8779 49.6394 43.4662L49.2054 41.6562H45.9196L45.4856 43.4662C45.3869 43.8779 45.1922 44.2604 44.9173 44.5824C44.6424 44.9043 44.2953 45.1567 43.9042 45.3188C43.5131 45.4808 43.0891 45.548 42.6671 45.5148C42.245 45.4816 41.8368 45.349 41.4759 45.1278L39.8785 44.149L37.5553 46.4723L38.5341 48.0695C38.7553 48.4305 38.8879 48.8387 38.921 49.2607C38.9542 49.6828 38.887 50.1067 38.7249 50.4978C38.5629 50.8889 38.3105 51.2361 37.9886 51.5109C37.6666 51.7858 37.2841 51.9806 36.8725 52.0793L35.0625 52.5135V55.7992L36.8725 56.2332C37.2841 56.3319 37.6666 56.5267 37.9886 56.8015C38.3106 57.0764 38.5629 57.4236 38.725 57.8147C38.8871 58.2058 38.9543 58.6297 38.9211 59.0518C38.8879 59.4738 38.7553 59.882 38.5341 60.243L37.5553 61.8403L39.8785 64.1636L41.4758 63.1848C41.8368 62.9636 42.245 62.8309 42.667 62.7978C43.0891 62.7646 43.513 62.8318 43.9041 62.9938C44.2952 63.1559 44.6424 63.4083 44.9173 63.7302C45.1922 64.0522 45.3869 64.4347 45.4856 64.8464L45.9196 66.6562H49.2054L49.6394 64.8463C49.7381 64.4346 49.9328 64.0521 50.2077 63.7301C50.4826 63.4082 50.8297 63.1558 51.2208 62.9937C51.6119 62.8317 52.0359 62.7645 52.4579 62.7977C52.88 62.8309 53.2882 62.9635 53.6491 63.1847L55.2465 64.1635L57.5697 61.8402L56.5909 60.243C56.3697 59.882 56.2371 59.4738 56.2039 59.0517C56.1707 58.6297 56.2379 58.2058 56.4 57.8146C56.5621 57.4235 56.8144 57.0763 57.1364 56.8015C57.4584 56.5266 57.8408 56.3318 58.2525 56.2331L60.0625 55.7991V52.5134L58.2525 52.0794ZM47.5625 58.8438C46.6354 58.8438 45.7291 58.5688 44.9583 58.0538C44.1874 57.5387 43.5866 56.8066 43.2318 55.9501C42.877 55.0935 42.7842 54.151 42.9651 53.2418C43.1459 52.3325 43.5924 51.4972 44.2479 50.8417C44.9035 50.1861 45.7387 49.7397 46.648 49.5588C47.5573 49.378 48.4998 49.4708 49.3563 49.8256C50.2129 50.1804 50.9449 50.7812 51.46 51.552C51.9751 52.3229 52.25 53.2291 52.25 54.1562C52.25 55.3995 51.7561 56.5917 50.8771 57.4708C49.998 58.3499 48.8057 58.8438 47.5625 58.8438Z" fill="#4484D1"/>
<path d="M23.3438 46.3438V63.7545C23.3438 65.357 26.4917 66.6562 30.375 66.6562C34.2583 66.6562 37.4062 65.3571 37.4062 63.7545V46.3438H23.3438Z" fill="#6A7477"/>
<path d="M30.375 62.75C26.4917 62.75 23.3438 61.3509 23.3438 59.625V63.7545C23.3438 65.357 26.4917 66.6562 30.375 66.6562C34.2583 66.6562 37.4062 65.3571 37.4062 63.7545V59.625C37.4062 61.3509 34.2583 62.75 30.375 62.75Z" fill="#465257"/>
<path d="M30.375 49.4688C34.2583 49.4688 37.4062 48.0696 37.4062 46.3438C37.4062 44.6179 34.2583 43.2188 30.375 43.2188C26.4917 43.2188 23.3438 44.6179 23.3438 46.3438C23.3438 48.0696 26.4917 49.4688 30.375 49.4688Z" fill="#465257"/>
<path d="M25.6875 51.0312H27.25V59.625H25.6875V51.0312ZM29.5938 51.8125H31.1562V60.4062H29.5938V51.8125ZM33.5 51.0312H35.0625V59.625H33.5V51.0312ZM30.375 38.5312C29.9606 38.5312 29.5632 38.6959 29.2701 38.9889C28.9771 39.2819 28.8125 39.6793 28.8125 40.0938V46.3438H31.9375V40.0938C31.9375 39.6793 31.7729 39.2819 31.4799 38.9889C31.1868 38.6959 30.7894 38.5312 30.375 38.5312Z" fill="#596468"/>
<path d="M60.0625 35.4062H48.3438L46 38.5312L43.6562 35.4062H31.9375C31.5231 35.4062 31.1257 35.2416 30.8326 34.9486C30.5396 34.6556 30.375 34.2582 30.375 33.8438V22.9062C30.375 22.4918 30.5396 22.0944 30.8326 21.8014C31.1257 21.5084 31.5231 21.3438 31.9375 21.3438H60.0625C60.4769 21.3438 60.8743 21.5084 61.1674 21.8014C61.4604 22.0944 61.625 22.4918 61.625 22.9062V33.8438C61.625 34.2582 61.4604 34.6556 61.1674 34.9486C60.8743 35.2416 60.4769 35.4062 60.0625 35.4062Z" fill="#00B378"/>
<path d="M38.1875 24.4688H41.3125C42.3485 24.4688 43.3421 24.8803 44.0746 25.6129C44.8072 26.3454 45.2188 27.339 45.2188 28.375C45.2188 29.411 44.8072 30.4046 44.0746 31.1371C43.3421 31.8697 42.3485 32.2812 41.3125 32.2812H38.1875" fill="#59CEA7"/>
<path d="M58.5 23.6875H54.5937V25.25H56.6138L53.8125 28.0515L52.8024 27.0413C52.6558 26.8949 52.4571 26.8126 52.25 26.8126C52.0428 26.8126 51.8441 26.8949 51.6975 27.0413L47.01 31.7288L48.1149 32.8337L52.25 28.6985L53.26 29.7087C53.4066 29.8551 53.6053 29.9374 53.8125 29.9374C54.0196 29.9374 54.2183 29.8551 54.3649 29.7087L57.7187 26.3549V28.375H59.2812V24.4688C59.2812 24.2615 59.1989 24.0628 59.0524 23.9163C58.9059 23.7698 58.7072 23.6875 58.5 23.6875Z" fill="#F4D1BD"/>
<path d="M33.5 66.3534C34.0311 66.2472 34.5534 66.101 35.0625 65.9163V61.9531C34.5551 62.1515 34.0326 62.3089 33.5 62.4238V66.3534ZM29.5938 66.6375C29.8504 66.6492 30.1107 66.6558 30.375 66.6558C30.6393 66.6558 30.8996 66.6492 31.1562 66.6375V62.73C30.8996 62.7426 30.6393 62.7496 30.375 62.7496C30.1107 62.7496 29.8504 62.7426 29.5938 62.73V66.6375ZM25.6875 65.9163C26.1966 66.101 26.7189 66.2472 27.25 66.3534V62.4239C26.7174 62.309 26.1949 62.1516 25.6875 61.9532V65.9163Z" fill="#596468"/>
<path d="M40.5312 29.1562H45.1404C45.1926 28.8991 45.2188 28.6374 45.2188 28.375C45.2188 28.1126 45.1926 27.8509 45.1404 27.5938H40.5312V29.1562Z" fill="#31C292"/>
<path d="M38.1875 32.2812C40.3449 32.2812 42.0938 30.5324 42.0938 28.375C42.0938 26.2176 40.3449 24.4688 38.1875 24.4688C36.0301 24.4688 34.2812 26.2176 34.2812 28.375C34.2812 30.5324 36.0301 32.2812 38.1875 32.2812Z" fill="#BDECDC"/>
<path d="M47.5625 59.625C48.6441 59.625 49.7014 59.3043 50.6008 58.7034C51.5001 58.1024 52.201 57.2483 52.615 56.2491C53.0289 55.2498 53.1372 54.1502 52.9262 53.0894C52.7152 52.0285 52.1943 51.0541 51.4295 50.2893C50.6647 49.5244 49.6902 49.0036 48.6294 48.7926C47.5686 48.5816 46.469 48.6899 45.4697 49.1038C44.4704 49.5177 43.6163 50.2186 43.0154 51.118C42.4145 52.0173 42.0938 53.0746 42.0938 54.1563C42.0954 55.6062 42.6721 56.9962 43.6973 58.0214C44.7225 59.0467 46.1126 59.6234 47.5625 59.625ZM47.5625 50.25C48.3351 50.25 49.0903 50.4791 49.7327 50.9083C50.3751 51.3375 50.8757 51.9476 51.1714 52.6614C51.4671 53.3752 51.5444 54.1606 51.3937 54.9183C51.243 55.6761 50.8709 56.3721 50.3246 56.9184C49.7783 57.4647 49.0823 57.8367 48.3246 57.9874C47.5668 58.1382 46.7814 58.0608 46.0676 57.7652C45.3539 57.4695 44.7438 56.9688 44.3146 56.3264C43.8853 55.6841 43.6562 54.9288 43.6562 54.1563C43.6574 53.1206 44.0694 52.1277 44.8017 51.3954C45.534 50.6631 46.5269 50.2512 47.5625 50.25Z" fill="#2E4256"/>
<path d="M58.4346 56.9928L60.2446 56.5588C60.4153 56.5179 60.5672 56.4207 60.6759 56.2828C60.7846 56.145 60.8437 55.9746 60.8437 55.799V52.5133C60.8437 52.3377 60.7846 52.1673 60.6759 52.0295C60.5672 51.8917 60.4153 51.7944 60.2446 51.7535L58.4347 51.3196C58.143 51.2497 57.8719 51.1116 57.6437 50.9168C57.4155 50.722 57.2366 50.476 57.1218 50.1988C57.0069 49.9216 56.9593 49.6211 56.9828 49.322C57.0063 49.0229 57.1002 48.7336 57.257 48.4777L58.2359 46.8803C58.3276 46.7306 58.3663 46.5545 58.3456 46.3802C58.325 46.206 58.2463 46.0437 58.1222 45.9196L55.7988 43.5966C55.6747 43.4725 55.5125 43.3938 55.3382 43.3732C55.164 43.3526 54.9879 43.3912 54.8383 43.4829L53.2408 44.4618C52.985 44.6186 52.6957 44.7125 52.3965 44.736C52.0974 44.7595 51.797 44.7119 51.5198 44.597C51.2427 44.4821 50.9966 44.3033 50.8018 44.0751C50.607 43.8469 50.469 43.5758 50.399 43.2841L49.965 41.4741C49.9241 41.3034 49.8269 41.1515 49.689 41.0428C49.5512 40.9341 49.3808 40.875 49.2052 40.875H45.9195C45.744 40.875 45.5735 40.9341 45.4357 41.0428C45.2979 41.1515 45.2007 41.3034 45.1597 41.4741L44.7259 43.284C44.6559 43.5758 44.5179 43.8468 44.3231 44.075C44.1282 44.3032 43.8822 44.4821 43.605 44.597C43.3278 44.7118 43.0274 44.7595 42.7282 44.736C42.4291 44.7125 42.1398 44.6185 41.884 44.4617L40.2865 43.4828L39.4701 44.8151L41.0675 45.7939C41.5336 46.0796 42.0607 46.2508 42.6056 46.2936C43.1506 46.3365 43.698 46.2497 44.203 46.0405C44.708 45.8312 45.1563 45.5054 45.5113 45.0896C45.8662 44.6739 46.1177 44.18 46.2452 43.6484L46.5355 42.4375H48.5892L48.8796 43.6484C49.007 44.18 49.2585 44.6739 49.6134 45.0897C49.9684 45.5054 50.4167 45.8313 50.9217 46.0405C51.4267 46.2498 51.9741 46.3366 52.519 46.2937C53.064 46.2509 53.5911 46.0797 54.0572 45.794L55.1295 45.137L56.5817 46.5892L55.9247 47.6614C55.6391 48.1275 55.4678 48.6546 55.425 49.1996C55.3821 49.7446 55.4689 50.2919 55.6782 50.797C55.8874 51.302 56.2132 51.7503 56.629 52.1052C57.0447 52.4602 57.5386 52.7117 58.0702 52.8392L59.2811 53.1294V55.1831L58.0702 55.4734C57.5386 55.6009 57.0447 55.8524 56.629 56.2073C56.2132 56.5622 55.8874 57.0105 55.6781 57.5155C55.4688 58.0205 55.382 58.5679 55.4249 59.1129C55.4677 59.6579 55.639 60.185 55.9246 60.6511L56.5816 61.7233L55.1295 63.1756L54.0572 62.5186C53.5911 62.2329 53.064 62.0617 52.519 62.0189C51.9741 61.976 51.4267 62.0628 50.9217 62.272C50.4166 62.4813 49.9683 62.8071 49.6134 63.2229C49.2584 63.6386 49.0069 64.1325 48.8795 64.6641L48.5892 65.875H46.5355L46.2452 64.6641C46.1177 64.1325 45.8663 63.6386 45.5113 63.2228C45.1564 62.8071 44.7081 62.4812 44.2031 62.272C43.6981 62.0627 43.1507 61.9759 42.6057 62.0188C42.0608 62.0616 41.5337 62.2328 41.0676 62.5185L39.4702 63.4973L40.2866 64.8296L41.884 63.8507C42.1398 63.6939 42.4291 63.6 42.7282 63.5765C43.0273 63.553 43.3278 63.6006 43.6049 63.7155C43.8821 63.8304 44.1282 64.0092 44.323 64.2374C44.5178 64.4656 44.6558 64.7367 44.7258 65.0284L45.1597 66.8384C45.2007 67.0091 45.2979 67.161 45.4357 67.2697C45.5735 67.3784 45.744 67.4375 45.9195 67.4375H49.2052C49.3808 67.4375 49.5512 67.3784 49.689 67.2697C49.8269 67.161 49.9241 67.0091 49.965 66.8384L50.3989 65.0285C50.4689 64.7367 50.6069 64.4657 50.8017 64.2375C50.9965 64.0093 51.2426 63.8304 51.5198 63.7155C51.7969 63.6007 52.0974 63.553 52.3965 63.5765C52.6956 63.6 52.985 63.694 53.2408 63.8508L54.8383 64.8297C54.9879 64.9213 55.164 64.96 55.3383 64.9394C55.5125 64.9187 55.6748 64.8401 55.7989 64.716L58.122 62.3928C58.2461 62.2687 58.3248 62.1064 58.3454 61.9322C58.3661 61.7579 58.3274 61.5818 58.2357 61.4321L57.2568 59.8347C57.1001 59.5788 57.0061 59.2895 56.9826 58.9904C56.9591 58.6913 57.0068 58.3909 57.1216 58.1137C57.2365 57.8365 57.4153 57.5905 57.6435 57.3957C57.8717 57.2009 58.1428 57.0628 58.4345 56.9929L58.4346 56.9928Z" fill="#2E4256"/>
<path d="M68.6562 42.4375H65.5312V38.5312C65.5312 38.324 65.4489 38.1253 65.3024 37.9788C65.1559 37.8323 64.9572 37.75 64.75 37.75H61.625C61.4178 37.75 61.2191 37.8323 61.0726 37.9788C60.9261 38.1253 60.8438 38.324 60.8438 38.5312V42.4375H58.5V44H67.875V47.125H59.2812V48.6875H67.875V51.8125H62.4062V53.375H67.875V56.5H62.4062V58.0625H67.875V61.1875H60.0625V62.75H60.8438V66.6562C60.8438 66.8635 60.9261 67.0622 61.0726 67.2087C61.2191 67.3552 61.4178 67.4375 61.625 67.4375H64.75C64.9572 67.4375 65.1559 67.3552 65.3024 67.2087C65.4489 67.0622 65.5312 66.8635 65.5312 66.6562V62.75H68.6562C68.8634 62.75 69.0622 62.6677 69.2087 62.5212C69.3552 62.3747 69.4375 62.176 69.4375 61.9688V43.2188C69.4375 43.0115 69.3552 42.8128 69.2087 42.6663C69.0622 42.5198 68.8634 42.4375 68.6562 42.4375ZM63.9688 42.4375H62.4062V39.3125H63.9688V42.4375ZM63.9688 65.875H62.4062V62.75H63.9688V65.875ZM34.504 42.9961L34.0585 44.4938C35.8314 45.0212 36.625 45.8029 36.625 46.3438C36.625 46.829 36.0137 47.4021 35.0296 47.8395C33.7992 48.3863 32.1462 48.6875 30.375 48.6875C26.5598 48.6875 24.125 47.2993 24.125 46.3438C24.125 45.8029 24.9186 45.0212 26.6915 44.4938L26.2461 42.9961C23.9052 43.6924 22.5625 44.9127 22.5625 46.3438V63.7545C22.5625 64.8667 23.4654 65.8519 25.1051 66.5284C26.5255 67.1146 28.3971 67.4375 30.375 67.4375C32.3529 67.4375 34.2245 67.1146 35.6449 66.5284C37.2846 65.8519 38.1875 64.8667 38.1875 63.7545V46.3438C38.1875 44.9127 36.8449 43.6926 34.504 42.9961ZM25.6875 65.0784C24.738 64.6839 24.125 64.1651 24.125 63.7546V62.0251C24.614 62.341 25.1384 62.5984 25.6875 62.7921V65.0784ZM29.5938 65.8561C28.8055 65.8222 28.0216 65.7223 27.25 65.5576V63.2285C28.0225 63.3849 28.8062 63.4802 29.5938 63.5134V65.8561ZM33.5 65.5576C32.7284 65.7223 31.9445 65.8222 31.1562 65.8561V63.5134C31.9438 63.4802 32.7274 63.385 33.5 63.2286V65.5576ZM36.625 63.7546C36.625 64.1651 36.012 64.6839 35.0625 65.0784V62.792C35.6115 62.5984 36.136 62.341 36.625 62.0251V63.7546ZM36.625 59.625C36.625 60.1103 36.0137 60.6834 35.0296 61.1207C33.7992 61.6676 32.1462 61.9688 30.375 61.9688C26.5598 61.9688 24.125 60.5806 24.125 59.625V48.7438C25.527 49.6714 27.7619 50.25 30.375 50.25C32.9881 50.25 35.223 49.6714 36.625 48.7438V59.625Z" fill="#2E4256"/>
<path d="M25.6875 51.0312H27.25V59.625H25.6875V51.0312ZM29.5938 51.8125H31.1562V60.4062H29.5938V51.8125ZM33.5 51.0312H35.0625V59.625H33.5V51.0312ZM29.5938 40.0938C29.5938 39.8865 29.6761 39.6878 29.8226 39.5413C29.9691 39.3948 30.1678 39.3125 30.375 39.3125C30.5822 39.3125 30.7809 39.3948 30.9274 39.5413C31.0739 39.6878 31.1562 39.8865 31.1562 40.0938V46.3438H32.7188V40.0938C32.7188 39.4721 32.4718 38.876 32.0323 38.4365C31.5927 37.9969 30.9966 37.75 30.375 37.75C29.7534 37.75 29.1573 37.9969 28.7177 38.4365C28.2782 38.876 28.0312 39.4721 28.0312 40.0938V46.3438H29.5938V40.0938ZM31.9375 36.1875H43.2656L45.375 39C45.4478 39.097 45.5421 39.1758 45.6506 39.23C45.7591 39.2843 45.8787 39.3125 46 39.3125C46.1213 39.3125 46.2409 39.2843 46.3494 39.23C46.4579 39.1758 46.5522 39.097 46.625 39L48.7344 36.1875H60.0625C60.6839 36.1868 61.2796 35.9396 61.719 35.5003C62.1584 35.0609 62.4056 34.4651 62.4062 33.8438V22.9062C62.4056 22.2849 62.1584 21.6891 61.719 21.2497C61.2796 20.8104 60.6839 20.5632 60.0625 20.5625H31.9375C31.3161 20.5632 30.7204 20.8104 30.281 21.2497C29.8416 21.6891 29.5944 22.2849 29.5938 22.9062V33.8438C29.5944 34.4651 29.8416 35.0609 30.281 35.5003C30.7204 35.9396 31.3161 36.1868 31.9375 36.1875ZM31.1562 22.9062C31.1565 22.6991 31.2389 22.5006 31.3854 22.3541C31.5318 22.2077 31.7304 22.1253 31.9375 22.125H60.0625C60.2696 22.1253 60.4682 22.2077 60.6146 22.3541C60.7611 22.5006 60.8435 22.6991 60.8438 22.9062V33.8438C60.8435 34.0509 60.7611 34.2494 60.6146 34.3959C60.4682 34.5423 60.2696 34.6247 60.0625 34.625H48.3438C48.2225 34.625 48.1028 34.6532 47.9944 34.7075C47.8859 34.7617 47.7915 34.8405 47.7188 34.9375L46 37.2292L44.2812 34.9375C44.2085 34.8405 44.1141 34.7617 44.0056 34.7075C43.8972 34.6532 43.7775 34.625 43.6562 34.625H31.9375C31.7304 34.6247 31.5318 34.5423 31.3854 34.3959C31.2389 34.2494 31.1565 34.0509 31.1562 33.8438V22.9062Z" fill="#2E4256"/>
<path d="M38.1875 33.0625H41.3125C42.5557 33.0625 43.748 32.5686 44.6271 31.6896C45.5061 30.8105 46 29.6182 46 28.375C46 27.1318 45.5061 25.9395 44.6271 25.0604C43.748 24.1814 42.5557 23.6875 41.3125 23.6875H38.1875C36.9443 23.6875 35.752 24.1814 34.8729 25.0604C33.9939 25.9395 33.5 27.1318 33.5 28.375C33.5 29.6182 33.9939 30.8105 34.8729 31.6896C35.752 32.5686 36.9443 33.0625 38.1875 33.0625ZM44.3386 27.5938H42.8087C42.6629 26.7322 42.2785 25.9288 41.6991 25.2748C42.3205 25.3532 42.904 25.6161 43.3745 26.0294C43.845 26.4428 44.1808 26.9877 44.3386 27.5938ZM42.8087 29.1562H44.3386C44.1808 29.7623 43.845 30.3072 43.3745 30.7206C42.904 31.1339 42.3205 31.3968 41.6991 31.4752C42.2785 30.8212 42.663 30.0178 42.8087 29.1562ZM38.1875 25.25C38.8056 25.25 39.4098 25.4333 39.9237 25.7767C40.4376 26.12 40.8381 26.6081 41.0746 27.1791C41.3111 27.7501 41.373 28.3785 41.2525 28.9847C41.1319 29.5908 40.8342 30.1477 40.3972 30.5847C39.9602 31.0217 39.4033 31.3194 38.7972 31.44C38.191 31.5605 37.5626 31.4986 36.9916 31.2621C36.4206 31.0256 35.9325 30.6251 35.5892 30.1112C35.2458 29.5973 35.0625 28.9931 35.0625 28.375C35.0635 27.5465 35.393 26.7522 35.9788 26.1663C36.5647 25.5805 37.359 25.251 38.1875 25.25ZM52.25 28.6985L53.2601 29.7087C53.4066 29.8551 53.6053 29.9374 53.8125 29.9374C54.0197 29.9374 54.2184 29.8551 54.3649 29.7087L57.7188 26.3549V28.375H59.2812V24.4688C59.2812 24.2615 59.1989 24.0628 59.0524 23.9163C58.9059 23.7698 58.7072 23.6875 58.5 23.6875H54.5938V25.25H56.6139L53.8125 28.0515L52.8024 27.0413C52.6559 26.8949 52.4572 26.8126 52.25 26.8126C52.0428 26.8126 51.8441 26.8949 51.6976 27.0413L47.0101 31.7288L48.1149 32.8337L52.25 28.6985Z" fill="#2E4256"/>
</g>
<defs>
<filter id="filter0_d_840_8591" x="0" y="0" width="92" height="92" filterUnits="userSpaceOnUse" color-interpolation-filters="sRGB">
<feFlood flood-opacity="0" result="BackgroundImageFix"/>
<feColorMatrix in="SourceAlpha" type="matrix" values="0 0 0 0 0 0 0 0 0 0 0 0 0 0 0 0 0 0 127 0" result="hardAlpha"/>
<feOffset dy="2"/>
<feGaussianBlur stdDeviation="3"/>
<feComposite in2="hardAlpha" operator="out"/>
<feColorMatrix type="matrix" values="0 0 0 0 0 0 0 0 0 0 0 0 0 0 0 0 0 0 0.08 0"/>
<feBlend mode="normal" in2="BackgroundImageFix" result="effect1_dropShadow_840_8591"/>
<feBlend mode="normal" in="SourceGraphic" in2="effect1_dropShadow_840_8591" result="shape"/>
</filter>
</defs>
</svg>
