<svg width="1920" height="185" viewBox="0 0 1920 185" fill="none" xmlns="http://www.w3.org/2000/svg">
<path d="M0 34.3918L131.358 13.7966C189.564 4.67072 248.925 5.90397 306.702 17.4395L452.171 46.4835C522.482 60.5214 594.989 59.2739 664.775 42.8254L724.132 28.8349C794.967 12.139 868.594 11.1077 939.869 25.8131L1082.37 55.2137C1122.84 63.5636 1164.19 66.8641 1205.48 65.0398L1397 56.576C1420.75 55.5267 1444.39 52.7854 1467.75 48.3732L1610.85 21.3382C1673.27 9.54679 1737.36 9.75655 1799.7 21.9563L1920 45.5V154.514L0 159V34.3918Z" fill="url(#paint0_linear_840_9120)" fill-opacity="0.5"/>
<path d="M0 73.5L143.795 46.1828C215.506 32.5596 289.33 34.8027 360.082 52.7546L412.562 66.0704C483.304 84.02 557.592 82.4396 627.507 61.4974C698.464 40.2434 773.903 38.9379 845.552 57.7241L871.128 64.4299C943.763 83.4745 1020.13 83.0757 1092.56 63.2736C1155.79 45.9889 1222.14 43.4548 1286.49 55.8668L1326.98 63.6755C1404.77 78.6769 1485.01 74.9792 1561.08 52.8871C1628.92 33.1861 1700.17 28.0864 1770.13 37.9239L1920 59V185H0V73.5Z" fill="url(#paint1_linear_840_9120)"/>
<path d="M0 37.498L172.579 64.4244C226.931 72.9047 282.311 72.3574 336.485 62.8046L412.174 49.4581C457.179 41.5222 503.059 39.7937 548.533 44.3207L674.676 56.8786C708.361 60.232 742.298 60.156 775.967 56.6518L894.204 44.3459C937.878 39.8005 981.96 41.0277 1025.31 47.996L1122.43 63.6056C1175.57 72.1478 1229.75 72.0525 1282.86 63.3233L1380.4 47.2923C1419.99 40.7864 1460.22 39.0684 1500.21 42.1753L1640.72 53.0896C1666.42 55.0863 1692.24 55.0918 1717.95 53.1061L1920 37.498V185.498H0V37.498Z" fill="url(#paint2_linear_840_9120)" fill-opacity="0.8"/>
<defs>
<linearGradient id="paint0_linear_840_9120" x1="-100.737" y1="78.2539" x2="2331.62" y2="78.2539" gradientUnits="userSpaceOnUse">
<stop stop-color="#0052D4"/>
<stop offset="0.5" stop-color="#4364F7"/>
<stop offset="1" stop-color="#6FB1FC"/>
</linearGradient>
<linearGradient id="paint1_linear_840_9120" x1="0" y1="104" x2="1920" y2="104" gradientUnits="userSpaceOnUse">
<stop stop-color="#0052D4"/>
<stop offset="0.5" stop-color="#4364F7"/>
<stop offset="1" stop-color="#6FB1FC"/>
</linearGradient>
<linearGradient id="paint2_linear_840_9120" x1="0" y1="111.498" x2="1920" y2="111.498" gradientUnits="userSpaceOnUse">
<stop stop-color="#0052D4"/>
<stop offset="0.5" stop-color="#4364F7"/>
<stop offset="1" stop-color="#6FB1FC"/>
</linearGradient>
</defs>
</svg>
